<svg height="203" viewBox="0 0 296 203" width="296" xmlns="http://www.w3.org/2000/svg"><g fill="none" fill-rule="evenodd"><path d="m296 0v203h-296v-203zm-1 1h-294v201h294z" fill="#a0b9b6" fill-rule="nonzero"/><g transform="translate(29 100)"><g stroke="#a0b9b6" stroke-width="1.34" transform="translate(91)"><g stroke-linecap="round" stroke-linejoin="round"><path d="m2.53633378 28.5548833c1.55481287-3.8850192 2.31370004-7.8735047 1.44933359-12.5608911 2.74648716 2.2577397 8.00313953 3.7622284 11.54112393 3.8648896"/><path d="m11.550786 12.129103-7.565119 3.864889"/><path d="m31.5230056 28.5548833c-1.5548129-3.8850192-2.3137-7.8735047-1.4493336-12.5608911-2.7464872 2.2577397-8.0031396 3.7622284-11.5411239 3.8648896"/><path d="m22.508553 12.129103 7.565119 3.864889"/><path d="m15.8392032 48.4836228 1.1904665.1203752c6.7993875 0 12.3193355-5.519948 12.3193355-12.3193355l-.1203752-1.1904665c1.5085147.13044 2.9369135.5362534 4.2268204 1.1872457 0 9.0688024-7.3601991 16.4290015-16.4257807 16.4290015"/><path d="m12.3096733 52.0131527c-6.76879047-2.0230282-11.7057843-8.3038763-11.7057843-15.7284902 0-9.0655816 7.36019908-16.4257807 16.4257807-16.4257807 7.4246139 0 13.705462 4.9369938 15.7284902 11.7057843l-1.4114899-.3631386c-.5430975-.0833367-1.0865976-.1662708-1.6300977-.2492049l-1.6751881-.084947c-1.9662625-4.0959778-6.1636937-6.9020487-11.0117145-6.9020487-6.7993875 0-12.31933553 5.5199481-12.31933553 12.3193356 0 4.8480208 2.80607087 9.0454519 6.90204863 11.0117145"/><path d="m32.7581599 31.5646661c6.7687904 2.0230281 11.7057843 8.3038763 11.7057843 15.7284902 0 9.0655816-7.3601991 16.4257807-16.4257807 16.4257807-7.4246139 0-13.7054621-4.9369939-15.7284902-11.7057843l1.4114899.3631385c.5430975.0833367 1.0865976.1662708 1.6300977.2492049l1.675188.0849471c1.9662626 4.0959777 6.1636937 6.9020486 11.0117146 6.9020486 6.7993875 0 12.3193355-5.519948 12.3193355-12.3193355 0-4.8480209-2.8060709-9.045452-6.9020486-11.0117146"/><path d="m29.22863 35.094196-1.1904665-.1203753c-6.7993875 0-12.3193355 5.5199481-12.3193355 12.3193356l.1203752 1.1904665c-1.5085147-.13044-2.9369135-.5362535-4.2268204-1.1872458v-.0032207c0-9.0655816 7.3601991-16.4257807 16.4257807-16.4257807h.0032207"/><path d="m22.268608 10.8367802h-10.4778766c-.8981843 3.3225972 1.7106162 7.1262927 5.2389383 8.3819792 3.5283221-1.2556865 6.1371226-5.059382 5.2389383-8.3819792z"/><path d="m22.268608 10.83678h-10.477877"/></g><path d="m25.181699 7.194771-4.496732-3.597385" transform="matrix(1 0 0 -1 0 10.792156)"/><path d="m13.490196 7.194771-4.496732-3.597385" transform="matrix(-1 0 0 -1 22.48366 10.792156)"/><path d="m17.087582 6.295425v-6.295425" transform="matrix(-1 0 0 -1 34.175164 6.295424)"/><path d="m15.5803361 10.8367802-1.2613228 2.3294011 2.7106564 6.0525781 2.7211238-6.0900192-1.2717902-2.29196" stroke-linecap="round" stroke-linejoin="round"/></g><g fill="#021631" fill-rule="nonzero"><path d="m146.604 40c.468 0 .840667-.0086667 1.118-.026l1.638-.026 1.43.026c.26.0173333.624.026 1.092.026.052 0 .078-.052.078-.156s-.026-.156-.078-.156c-.710667 0-1.261-.2643333-1.651-.793s-.576333-1.261-.559-2.197l.208-9.386 6.578 12.506c.034667.0693333.104.104.208.104s.173333-.0346667.208-.104l5.356-12.558.546 10.634.026.442c0 .5546667-.13.9186667-.39 1.092s-.754.26-1.482.26c-.052 0-.078.052-.078.156s.026.156.078.156c.572 0 1.022667-.0086667 1.352-.026l1.95-.026 1.924.026c.346667.0173333.814667.026 1.404.026.034667 0 .052-.052.052-.156s-.017333-.156-.052-.156c-.537333 0-.931667-.0433333-1.183-.13s-.424667-.2513333-.52-.494-.160333-.6326667-.195-1.17l-.624-11.804c-.034667-.6933333.13-1.2046667.494-1.534s.953333-.494 1.768-.494c.052 0 .078-.052.078-.156s-.026-.156-.078-.156c-.450667 0-.797333.0086667-1.04.026l-1.534.026c-.26 0-.489667-.0086667-.689-.026s-.377-.026-.533-.026c-.190667 0-.342333.0476667-.455.143s-.221.2643333-.325.507l-4.94 11.336-5.668-10.634c-.329333-.5893333-.554667-.962-.676-1.118s-.294667-.234-.52-.234c-.242667 0-.442.0086667-.598.026l-1.378.026c-.381333 0-.693333-.0086667-.936-.026l-1.222-.026c-.052 0-.078.052-.078.156s.026.156.078.156c.485333 0 .914333.1473333 1.287.442s.732333.7626667 1.079 1.404l.026.026-.234 10.764c-.017333.9186667-.234 1.6466667-.65 2.184s-.979333.806-1.69.806c-.052 0-.078.052-.078.156s.026.156.078.156zm30.060333.364c.052 0 .095334-.0086667.13-.026l3.588-1.742c.052-.0173333.056334-.0693333.013-.156-.043333-.0866667-.091-.13-.143-.13h-.052c-.485333.1906667-.840666.286-1.066.286-.26 0-.446333-.1083333-.559-.325-.112666-.2166667-.169-.585-.169-1.105v-7.41c0-.0346667-.021666-.065-.065-.091-.043333-.026-.082333-.039-.117-.039-.034666 0-.060666.0086667-.078.026-.277333.2773333-.615333.5026667-1.014.676-.745333-.4506667-1.586-.676-2.522-.676-1.074666 0-2.08.2426667-3.016.728s-1.69 1.1916667-2.262 2.119-.858 2.0063333-.858 3.237c0 .9706667.173334 1.8026667.52 2.496.346667.6933333.819 1.2176667 1.417 1.573s1.252334.533 1.963.533c.693334 0 1.326-.1516667 1.898-.455s1.144-.7236667 1.716-1.261c.034667.5373333.117.962.247 1.274s.273.468.429.468zm-2.964-1.404c-.814666 0-1.443-.3596667-1.885-1.079s-.663-1.729-.663-3.029c0-1.3693333.247-2.4873333.741-3.354s1.174334-1.3 2.041-1.3c.606667 0 1.096334.2166667 1.469.65.372667.4333333.559.988.559 1.664v5.616c-.814666.5546667-1.568666.832-2.262.832zm6.816334 8.19c.468 0 .832-.0086667 1.092-.026l1.534-.026 2.054.026c.364.0173333.866666.026 1.508.026.052 0 .078-.052.078-.156s-.026-.156-.078-.156c-.676 0-1.174334-.0476667-1.495-.143-.320667-.0953333-.537334-.2643333-.65-.507-.112667-.2426667-.169-.624-.169-1.144v-4.992c.641333.1906667 1.386666.286 2.236.286.936 0 1.841666-.195 2.717-.585.875333-.39 1.599-1.0313333 2.171-1.924s.858-2.0323333.858-3.419c0-.9706667-.190667-1.82-.572-2.548-.381334-.728-.888334-1.2826667-1.521-1.664-.632667-.3813333-1.313-.572-2.041-.572-1.334667 0-2.634667.572-3.9 1.716-.052-.5026667-.151667-.9013333-.299-1.196-.147334-.2946667-.307667-.442-.481-.442-.052 0-.095334.0086667-.13.026l-3.692 1.794c-.034667.0173333-.030334.0693333.013.156.043333.0866667.091.13.143.13h.052c.52-.2426667.918666-.364 1.196-.364.312 0 .528666.1213333.65.364.121333.2426667.182.6413333.182 1.196v12.038c0 .52-.039.9013333-.117 1.144s-.216667.4116667-.416.507c-.199334.0953333-.507.143-.923.143-.052 0-.078.052-.078.156s.026.156.078.156zm6.604-7.462c-.606667 0-1.118-.1083333-1.534-.325s-.814667-.5416667-1.196-.975v-6.474c.641333-.5546667 1.352-.832 2.132-.832.918666 0 1.685666.3596667 2.301 1.079.615333.7193333.923 1.7376667.923 3.055 0 2.9813333-.875334 4.472-2.626 4.472zm6.530333.312c.450667 0 .806-.0086667 1.066-.026l1.534-.026 1.56.026c.26.0173333.615333.026 1.066.026.052 0 .078-.052.078-.156s-.026-.156-.078-.156c-.537333 0-.905667-.1256667-1.105-.377s-.299-.7236667-.299-1.417v-5.564c.312-.2946667.671667-.5243333 1.079-.689s.819-.247 1.235-.247c.658667 0 1.148333.2253333 1.469.676s.481 1.144.481 2.08v3.744c0 .6933333-.099667 1.1656667-.299 1.417s-.567667.377-1.105.377c-.052 0-.078.052-.078.156s.026.156.078.156c.450667 0 .814667-.0086667 1.092-.026l1.508-.026 1.56.026c.26.0173333.615333.026 1.066.026.069333 0 .104-.052.104-.156s-.034667-.156-.104-.156c-.537333 0-.905667-.1256667-1.105-.377s-.299-.7236667-.299-1.417v-5.434c.312-.3293333.684667-.5893333 1.118-.78s.875333-.286 1.326-.286c.658667 0 1.148333.2253333 1.469.676s.481 1.144.481 2.08v3.744c0 .6933333-.099667 1.1656667-.299 1.417s-.567667.377-1.105.377c-.052 0-.078.052-.078.156s.026.156.078.156c.450667 0 .814667-.0086667 1.092-.026l1.508-.026 1.56.026c.26.0173333.615333.026 1.066.026.069333 0 .104-.052.104-.156s-.034667-.156-.104-.156c-.537333 0-.905667-.1256667-1.105-.377s-.299-.7236667-.299-1.417v-4.992c0-1.092-.247-1.9066667-.741-2.444s-1.209-.806-2.145-.806c-1.456 0-2.782.7713333-3.978 2.314-.104-.7453333-.398667-1.3173333-.884-1.716s-1.135333-.598-1.95-.598c-1.352 0-2.617333.702-3.796 2.106-.034667-.624-.138667-1.1223333-.312-1.495s-.355333-.559-.546-.559c-.017333 0-.078.0173333-.182.052l-3.614 1.768c-.034667.0173333-.039.0693333-.013.156s.065.13.117.13h.052c.537333-.2426667.953333-.364 1.248-.364.277333 0 .481.1256667.611.377s.195.6456667.195 1.183v4.888c0 .6933333-.095333 1.1656667-.286 1.417s-.554667.377-1.092.377c-.052 0-.078.052-.078.156s.026.156.078.156zm28.032333.364c.052 0 .095334-.0086667.13-.026l3.588-1.742c.052-.0173333.056334-.0693333.013-.156-.043333-.0866667-.091-.13-.143-.13h-.052c-.468.1906667-.823333.286-1.066.286-.26 0-.446333-.1213333-.559-.364-.112666-.2426667-.169-.6586667-.169-1.248v-6.916c0-.0693333-.047666-.143-.143-.221-.095333-.078-.186333-.117-.273-.117-.052 0-.095333.0086667-.13.026l-3.484 1.664c-.052.0173333-.060666.0736667-.026.169.034667.0953333.078.143.13.143h.026c.26-.1213333.485334-.182.676-.182.537334 0 .806.5633333.806 1.69v4.446c-.312.2946667-.663.5243333-1.053.689s-.775666.247-1.157.247c-1.438666 0-2.158-.936-2.158-2.808v-5.746c0-.0693333-.047666-.143-.143-.221-.095333-.078-.186333-.117-.273-.117l-.13.026-3.484 1.664c-.052.0173333-.060666.0736667-.026.169.034667.0953333.086667.143.156.143h.026c.242667-.1213333.459334-.182.65-.182.537334 0 .806.5633333.806 1.69v3.822c0 .9706667.273 1.755.819 2.353s1.295667.897 2.249.897c1.334667 0 2.574-.676 3.718-2.028.017334.6413333.091 1.1483333.221 1.521s.281667.559.455.559zm4.034334-.364c.502666 0 .892666-.0086667 1.17-.026l1.508-.026 1.456.026c.26.0173333.632666.026 1.118.026.034666 0 .052-.052.052-.156s-.017334-.156-.052-.156c-.416 0-.719334-.0433333-.91-.13-.190667-.0866667-.320667-.2556667-.39-.507-.069334-.2513333-.104-.637-.104-1.157v-2.6h4.576v2.6c0 .52-.034667.9056667-.104 1.157-.069334.2513333-.203667.4203333-.403.507-.199334.0866667-.507.13-.923.13-.052 0-.078.052-.078.156s.026.156.078.156c.485333 0 .866666-.0086667 1.144-.026l1.534-.026 1.456.026c.26.0173333.632666.026 1.118.026.034666 0 .052-.052.052-.156s-.017334-.156-.052-.156c-.416 0-.719334-.0433333-.91-.13-.190667-.0866667-.320667-.2556667-.39-.507-.069334-.2513333-.104-.637-.104-1.157v-7.826c0-.0693333-.047667-.143-.143-.221-.095334-.078-.186334-.117-.273-.117-.052 0-.095334.0086667-.13.026l-3.484 1.664c-.052.0173333-.060667.0736667-.026.169.034666.0953333.078.143.13.143h.026c.26-.1213333.485333-.182.676-.182.537333 0 .806.5633333.806 1.69v1.43h-4.576v-4.602c0-.0693333-.047667-.143-.143-.221-.095334-.078-.186334-.117-.273-.117-.052 0-.095334.0086667-.13.026l-3.484 1.664c-.052.0173333-.060667.0736667-.026.169.034666.0953333.078.143.13.143h.026c.26-.1213333.485333-.182.676-.182.537333 0 .806.5633333.806 1.69v4.654c0 .52-.034667.9056667-.104 1.157-.069334.2513333-.203667.4203333-.403.507-.199334.0866667-.507.13-.923.13-.052 0-.078.052-.078.156s.026.156.078.156z"/><path d="m198.171 27.438.351-.351c.182-.182.385667-.3336667.611-.455s.546-.182.962-.182c.572 0 1.256667.1646667 2.054.494.450667.156.801667.2686667 1.053.338s.524333.104.819.104c.502667 0 .962-.182 1.378-.546s.962-1.0833333 1.638-2.158c.017333-.0346667.008667-.078-.026-.13s-.069333-.078-.104-.078l-.052.026c-.277333.312-.550333.5546667-.819.728s-.637.26-1.105.26c-.346667 0-.684667-.0433333-1.014-.13s-.710667-.2166667-1.144-.39c-.277333-.104-.554667-.1993333-.832-.286s-.528667-.13-.754-.13c-1.04 0-2.106.9013333-3.198 2.704-.017333.0346667-.004333.0736667.039.117s.082333.065.117.065z"/><path d="m3.89416667 40c.208 0 .39433333-.0693333.559-.208.16466666-.1386667.45933333-.507.884-1.105.42466666-.598 1.09633333-1.6163333 2.015-3.055.74533333-1.1786667 1.326-2.0193333 1.742-2.522s.82333333-.845 1.22200003-1.027c.3986666-.182.9273333-.273 1.586-.273v6.084c0 .52-.052.9056667-.156 1.157s-.2946667.4203333-.572.507c-.2773334.0866667-.7193334.13-1.32600003.13-.03466667 0-.052.052-.052.156s.01733333.156.052.156c.60666663 0 1.07466663-.0086667 1.40400003-.026l1.898-.026 2.08.026c.364.0173333.8666666.026 1.508.026.0346666 0 .052-.052.052-.156s-.0173334-.156-.052-.156c-.6066667 0-1.0486667-.0433333-1.326-.13-.2773334-.0866667-.4636667-.2556667-.559-.507-.0953334-.2513333-.143-.637-.143-1.157v-6.084c.6586666 0 1.1873333.091 1.586.273.3986666.182.806.5243333 1.222 1.027s.9966666 1.3433333 1.742 2.522c.9186666 1.4386667 1.5903333 2.457 2.015 3.055.4246666.598.7193333.9663333.884 1.105.1646666.1386667.351.208.559.208h4.004c.052 0 .078-.052.078-.156s-.026-.156-.078-.156c-.468-.0173333-.9013334-.1733333-1.3-.468-.3986667-.2946667-.7886667-.689-1.17-1.183-.3813334-.494-.936-1.2696667-1.664-2.327l-.39-.598c-.6586667-.9706667-1.2046667-1.703-1.638-2.197-.4333334-.494-.8623334-.8536667-1.287-1.079-.4246667-.2253333-.949-.3726667-1.573-.442l3.588-4.42c.78-.9533333 1.5903333-1.677 2.431-2.171.8406666-.494 1.6943333-.741 2.561-.741.0346666 0 .052-.052.052-.156s-.0173334-.156-.052-.156l-1.118.026c-.728.0346667-1.43.052-2.106.052-.52 0-1.2306667-.0173333-2.132-.052l-1.69-.026c-.052 0-.078.052-.078.156s.026.156.078.156c.4853333 0 .8493333.1083333 1.092.325.2426666.2166667.364.5156667.364.897 0 .7453333-.4073334 1.6813333-1.222 2.808l-2.366 3.25h-.624c-.728 0-1.3173334.0086667-1.768.026v-5.46c0-.52.052-.9056667.156-1.157s.2946666-.429.572-.533c.2773333-.104.7106666-.156 1.3-.156.0346666 0 .052-.052.052-.156s-.0173334-.156-.052-.156l-1.482.026c-.8666667.0346667-1.5686667.052-2.106.052-.468 0-1.0833334-.0173333-1.846-.052l-1.43000003-.026c-.03466667 0-.052.052-.052.156s.01733333.156.052.156c.58933333 0 1.02266663.0476667 1.30000003.143.2773333.0953333.468.2643333.572.507s.156.624.156 1.144v5.512c-.468-.0173333-1.0573334-.026-1.768-.026h-.62400003l-2.444-3.38c-.78-1.1093333-1.17-2.002-1.17-2.678 0-.3813333.12566666-.6803333.377-.897.25133333-.2166667.62833333-.325 1.131-.325.03466666 0 .052-.052.052-.156s-.01733334-.156-.052-.156l-1.716.026c-.90133334.0346667-1.612.052-2.132.052-.676 0-1.378-.0173333-2.106-.052l-1.118-.026c-.03466667 0-.052.052-.052.156s.01733333.156.052.156c.86666666 0 1.72033333.247 2.561.741.84066666.494 1.651 1.2176667 2.431 2.171l3.588 4.42c-.60666667.0693333-1.12666667.2166667-1.56.442-.43333334.2253333-.871.5893333-1.313 1.092s-.98366667 1.2306667-1.625 2.184l-.39.598c-.728 1.0573333-1.28266667 1.833-1.664 2.327-.38133334.494-.77133334.8883333-1.17 1.183-.39866667.2946667-.832.4506667-1.3.468-.052 0-.078.052-.078.156s.026.156.078.156zm30.60633333.364c.052 0 .0953333-.0086667.13-.026l3.588-1.742c.052-.0173333.0563333-.0693333.013-.156s-.091-.13-.143-.13h-.052c-.4853333.1906667-.8406667.286-1.066.286-.26 0-.4463333-.1083333-.559-.325s-.169-.585-.169-1.105v-7.41c0-.0346667-.0216667-.065-.065-.091s-.0823333-.039-.117-.039-.0606667.0086667-.078.026c-.2773333.2773333-.6153333.5026667-1.014.676-.7453333-.4506667-1.586-.676-2.522-.676-1.0746667 0-2.08.2426667-3.016.728s-1.69 1.1916667-2.262 2.119-.858 2.0063333-.858 3.237c0 .9706667.1733333 1.8026667.52 2.496s.819 1.2176667 1.417 1.573 1.2523333.533 1.963.533c.6933333 0 1.326-.1516667 1.898-.455s1.144-.7236667 1.716-1.261c.0346667.5373333.117.962.247 1.274s.273.468.429.468zm-2.964-1.404c-.8146667 0-1.443-.3596667-1.885-1.079s-.663-1.729-.663-3.029c0-1.3693333.247-2.4873333.741-3.354s1.1743333-1.3 2.041-1.3c.6066667 0 1.0963333.2166667 1.469.65s.559.988.559 1.664v5.616c-.8146667.5546667-1.5686667.832-2.262.832zm6.9723333 1.04c.5026667 0 .8926667-.0086667 1.17-.026l1.508-.026 1.456.026c.26.0173333.6326667.026 1.118.026.0346667 0 .052-.052.052-.156s-.0173333-.156-.052-.156c-.416 0-.7193333-.0433333-.91-.13-.1906666-.0866667-.3206666-.2556667-.39-.507-.0693333-.2513333-.104-.637-.104-1.157v-2.6h4.576v2.6c0 .52-.0346666.9056667-.104 1.157-.0693333.2513333-.2036666.4203333-.403.507-.1993333.0866667-.507.13-.923.13-.052 0-.078.052-.078.156s.026.156.078.156c.4853334 0 .8666667-.0086667 1.144-.026l1.534-.026 1.456.026c.26.0173333.6326667.026 1.118.026.0346667 0 .052-.052.052-.156s-.0173333-.156-.052-.156c-.416 0-.7193333-.0433333-.91-.13-.1906666-.0866667-.3206666-.2556667-.39-.507-.0693333-.2513333-.104-.637-.104-1.157v-7.826c0-.0693333-.0476666-.143-.143-.221-.0953333-.078-.1863333-.117-.273-.117-.052 0-.0953333.0086667-.13.026l-3.484 1.664c-.052.0173333-.0606666.0736667-.026.169.0346667.0953333.078.143.13.143h.026c.26-.1213333.4853334-.182.676-.182.5373334 0 .806.5633333.806 1.69v1.43h-4.576v-4.602c0-.0693333-.0476666-.143-.143-.221-.0953333-.078-.1863333-.117-.273-.117-.052 0-.0953333.0086667-.13.026l-3.484 1.664c-.052.0173333-.0606666.0736667-.026.169.0346667.0953333.078.143.13.143h.026c.26-.1213333.4853334-.182.676-.182.5373334 0 .806.5633333.806 1.69v4.654c0 .52-.0346666.9056667-.104 1.157-.0693333.2513333-.2036666.4203333-.403.507-.1993333.0866667-.507.13-.923.13-.052 0-.078.052-.078.156s.026.156.078.156zm18.4903334.312c.78 0 1.4993333-.1386667 2.158-.416.6586666-.2773333 1.3086666-.728 1.95-1.352.0346666-.0346667.0303333-.0866667-.013-.156-.0433334-.0693333-.0823334-.104-.117-.104l-.052.026c-.3813334.2426667-.806.4246667-1.274.546s-.9186667.182-1.352.182c-1.2306667 0-2.197-.4333333-2.899-1.3s-1.053-2.0453333-1.053-3.536c0-.3986667.026-.7626667.078-1.092l4.68-.052h1.586c.1906666 0 .286-.2513333.286-.754 0-.7973333-.286-1.4256667-.858-1.885s-1.3953334-.689-2.47-.689c-1.1093334 0-2.1146667.247-3.016.741-.9013334.494-1.612 1.17-2.132 2.028s-.78 1.7896667-.78 2.795c0 .884.208 1.7116667.624 2.483s1.0226666 1.3866667 1.82 1.846c.7973333.4593333 1.742.689 2.834.689zm-2.496-7.722c.1733333-.728.4506666-1.3.832-1.716.3813333-.416.832-.624 1.352-.624.9533333 0 1.456.754 1.508 2.262zm7.7263333 7.41c.4506667 0 .806-.0086667 1.066-.026l1.534-.026 1.56.026c.26.0173333.6153333.026 1.066.026.052 0 .078-.052.078-.156s-.026-.156-.078-.156c-.5373333 0-.9056667-.1256667-1.105-.377s-.299-.7236667-.299-1.417v-5.564c.312-.2946667.6716667-.5243333 1.079-.689s.819-.247 1.235-.247c.6586667 0 1.1483333.2253333 1.469.676s.481 1.144.481 2.08v3.744c0 .6933333-.0996667 1.1656667-.299 1.417s-.5676667.377-1.105.377c-.052 0-.078.052-.078.156s.026.156.078.156c.4506667 0 .8146667-.0086667 1.092-.026l1.508-.026 1.56.026c.26.0173333.6153333.026 1.066.026.0693333 0 .104-.052.104-.156s-.0346667-.156-.104-.156c-.5373333 0-.9056667-.1256667-1.105-.377s-.299-.7236667-.299-1.417v-5.434c.312-.3293333.6846667-.5893333 1.118-.78s.8753333-.286 1.326-.286c.6586667 0 1.1483333.2253333 1.469.676s.481 1.144.481 2.08v3.744c0 .6933333-.0996667 1.1656667-.299 1.417s-.5676667.377-1.105.377c-.052 0-.078.052-.078.156s.026.156.078.156c.4506667 0 .8146667-.0086667 1.092-.026l1.508-.026 1.56.026c.26.0173333.6153333.026 1.066.026.0693333 0 .104-.052.104-.156s-.0346667-.156-.104-.156c-.5373333 0-.9056667-.1256667-1.105-.377s-.299-.7236667-.299-1.417v-4.992c0-1.092-.247-1.9066667-.741-2.444s-1.209-.806-2.145-.806c-1.456 0-2.782.7713333-3.978 2.314-.104-.7453333-.3986667-1.3173333-.884-1.716s-1.1353333-.598-1.95-.598c-1.352 0-2.6173333.702-3.796 2.106-.0346667-.624-.1386667-1.1223333-.312-1.495s-.3553333-.559-.546-.559c-.0173333 0-.078.0173333-.182.052l-3.614 1.768c-.0346667.0173333-.039.0693333-.013.156s.065.13.117.13h.052c.5373333-.2426667.9533333-.364 1.248-.364.2773333 0 .481.1256667.611.377s.195.6456667.195 1.183v4.888c0 .6933333-.0953333 1.1656667-.286 1.417s-.5546667.377-1.092.377c-.052 0-.078.052-.078.156s.026.156.078.156z"/><path d="m66.671 27.438.351-.351c.182-.182.3856667-.3336667.611-.455s.546-.182.962-.182c.572 0 1.2566667.1646667 2.054.494.4506667.156.8016667.2686667 1.053.338s.5243333.104.819.104c.5026667 0 .962-.182 1.378-.546s.962-1.0833333 1.638-2.158c.0173333-.0346667.0086667-.078-.026-.13s-.0693333-.078-.104-.078l-.052.026c-.2773333.312-.5503333.5546667-.819.728s-.637.26-1.105.26c-.3466667 0-.6846667-.0433333-1.014-.13s-.7106667-.2166667-1.144-.39c-.2773333-.104-.5546667-.1993333-.832-.286s-.5286667-.13-.754-.13c-1.04 0-2.106.9013333-3.198 2.704-.0173333.0346667-.0043333.0736667.039.117s.0823333.065.117.065z"/></g></g><g fill-rule="nonzero"><g fill="#a0b9b6" transform="matrix(-1 0 0 -1 18 18)"><path d="m17.1464466.14644661.7071068.70710678-17.00000001 17.00000001-.70710678-.7071068z"/><path d="m17.5 0v1h-7.794l-8.706 8.706v7.794h-1v-8.20710678l9.29289322-9.29289322z"/><path d="m6.65811388 3.02565835 6.21589602 2.07196533 5.0875286 12.21006862-.923077.3846154-4.9124615-11.7903077-5.78411388-1.92765835z"/><path d="m3.97434165 6.34188612 1.92765835 5.78411388 11.7903077 4.9124615-.3846154.923077-12.21006862-5.0875286-2.07196533-6.21589602z"/></g><g fill="#a0b9b6" transform="matrix(-1 0 0 1 18 185)"><path d="m17.1464466.14644661.7071068.70710678-17.00000001 17.00000001-.70710678-.7071068z"/><path d="m17.5 0v1h-7.794l-8.706 8.706v7.794h-1v-8.20710678l9.29289322-9.29289322z"/><path d="m6.65811388 3.02565835 6.21589602 2.07196533 5.0875286 12.21006862-.923077.3846154-4.9124615-11.7903077-5.78411388-1.92765835z"/><path d="m3.97434165 6.34188612 1.92765835 5.78411388 11.7903077 4.9124615-.3846154.923077-12.21006862-5.0875286-2.07196533-6.21589602z"/></g><g fill="#a0b9b6" transform="translate(278 185)"><path d="m17.1464466.14644661.7071068.70710678-17.00000001 17.00000001-.70710678-.7071068z"/><path d="m17.5 0v1h-7.794l-8.706 8.706v7.794h-1v-8.20710678l9.29289322-9.29289322z"/><path d="m6.65811388 3.02565835 6.21589602 2.07196533 5.0875286 12.21006862-.923077.3846154-4.9124615-11.7903077-5.78411388-1.92765835z"/><path d="m3.97434165 6.34188612 1.92765835 5.78411388 11.7903077 4.9124615-.3846154.923077-12.21006862-5.0875286-2.07196533-6.21589602z"/></g><g fill="#a0b9b6" transform="matrix(1 0 0 -1 278 18)"><path d="m17.1464466.14644661.7071068.70710678-17.00000001 17.00000001-.70710678-.7071068z"/><path d="m17.5 0v1h-7.794l-8.706 8.706v7.794h-1v-8.20710678l9.29289322-9.29289322z"/><path d="m6.65811388 3.02565835 6.21589602 2.07196533 5.0875286 12.21006862-.923077.3846154-4.9124615-11.7903077-5.78411388-1.92765835z"/><path d="m3.97434165 6.34188612 1.92765835 5.78411388 11.7903077 4.9124615-.3846154.923077-12.21006862-5.0875286-2.07196533-6.21589602z"/></g><g transform="translate(45 45)"><g fill="#021631"><g transform="translate(0 7)"><path d="m4.908 25c.144 0 .248-.036.312-.108s.136-.212.216-.42l4.848-14.16c.032-.048.024-.112-.024-.192s-.104-.12-.168-.12h-6.36c-.464 0-.772-.024-.924-.072s-.228-.144-.228-.288c0-.096.008-.176.024-.24.016-.048-.024-.076-.12-.084s-.152.012-.168.06l-.912 3.84c-.016.032-.004.06.036.084s.084.036.132.036c.064 0 .104-.024.12-.072.16-.56.372-.94.636-1.14s.844-.332 1.74-.396 2.536-.096 4.92-.096c.144 0 .176.056.096.168l-5.784 12.912c-.032.08-.024.148.024.204s.12.084.216.084z"/><path d="m17.275 17.072c.072 0 .114-.024.126-.072l2.178-4.86.468 3.438c.024.216.036.36.036.432 0 .312-.069.519-.207.621s-.375.153-.711.153c-.024 0-.036.036-.036.108s.012.108.036.108c.264 0 .474-.006.63-.018l.882-.018.936.018c.18.012.432.018.756.018.036 0 .054-.036.054-.108s-.018-.108-.054-.108c-.312 0-.537-.03-.675-.09s-.231-.168-.279-.324-.096-.432-.144-.828l-.648-5.562c0-.036-.027-.066-.081-.09s-.117-.036-.189-.036-.126.024-.162.072l-2.484 5.526-2.988-5.544c-.036-.036-.096-.054-.18-.054-.06 0-.117.009-.171.027s-.081.045-.081.081l-.432 5.166c-.048.6-.159 1.026-.333 1.278s-.459.378-.855.378c-.036 0-.054.036-.054.108s.018.108.054.108c.264 0 .468-.006.612-.018l.756-.018.756.018c.144.012.348.018.612.018.036 0 .054-.036.054-.108s-.018-.108-.054-.108c-.408 0-.711-.105-.909-.315s-.297-.543-.297-.999c0-.144.006-.258.018-.342l.306-3.006 2.61 4.878c.012.048.06.072.144.072zm11.916.126c.036 0 .066-.006.09-.018l2.232-1.062c.036-.024.042-.063.018-.117s-.06-.081-.108-.081h-.018c-.396.168-.69.252-.882.252-.216 0-.369-.09-.459-.27s-.135-.474-.135-.882v-4.95c0-.048-.024-.09-.072-.126s-.096-.054-.144-.054l-.072.018-2.124.99c-.036.012-.048.048-.036.108s.036.09.072.09h.036c.228-.096.42-.144.576-.144.192 0 .33.099.414.297s.126.525.126.981v3.114c-.288.3-.612.534-.972.702s-.708.252-1.044.252c-1.008 0-1.512-.678-1.512-2.034v-4.194c0-.048-.024-.09-.072-.126s-.096-.054-.144-.054l-.072.018-2.124.99c-.036.012-.045.048-.027.108s.045.09.081.09h.036c.204-.096.39-.144.558-.144.192 0 .33.099.414.297s.126.525.126.981v2.718c0 .696.177 1.239.531 1.629s.837.585 1.449.585c.96 0 1.884-.498 2.772-1.494 0 .456.054.825.162 1.107s.216.423.324.423z"/></g><path d="m9.26 22c.064 0 .116-.028.156-.084s.06-.116.06-.18l.024-3c0-.032-.048-.048-.144-.048s-.144.016-.144.048c-.016.528-.188.908-.516 1.14s-.916.38-1.764.444-2.248.096-4.2.096c-.16 0-.192-.056-.096-.168.288-.368.848-1 1.68-1.896.944-1.024 1.732-1.924 2.364-2.7s1.18-1.632 1.644-2.568.696-1.852.696-2.748c0-1.072-.332-1.94-.996-2.604s-1.58-.996-2.748-.996c-1.136 0-2.084.316-2.844.948s-1.244 1.508-1.452 2.628c-.016.064.04.096.168.096.064 0 .096-.008.096-.024.24-.784.628-1.392 1.164-1.824s1.196-.648 1.98-.648c.848 0 1.512.256 1.992.768s.72 1.256.72 2.232c0 .896-.216 1.816-.648 2.76s-.984 1.88-1.656 2.808-1.624 2.16-2.856 3.696l-1.128 1.392c-.064.064-.06.152.012.264s.148.168.228.168zm7.56.312c.992 0 1.86-.32 2.604-.96s1.316-1.544 1.716-2.712.6-2.528.6-4.08c0-1.568-.2-2.944-.6-4.128s-.968-2.1-1.704-2.748-1.592-.972-2.568-.972c-1.008 0-1.888.32-2.64.96s-1.336 1.548-1.752 2.724-.624 2.54-.624 4.092c0 1.568.204 2.944.612 4.128s.988 2.096 1.74 2.736 1.624.96 2.616.96zm.288-.384c-1.04 0-1.836-.656-2.388-1.968s-.828-3.192-.828-5.64c0-2.32.228-4.104.684-5.352s1.132-1.872 2.028-1.872c.96 0 1.716.644 2.268 1.932s.828 3.228.828 5.82c0 4.72-.864 7.08-2.592 7.08zm14.88.072c.064 0 .116-.028.156-.084s.06-.116.06-.18l.024-3c0-.032-.048-.048-.144-.048s-.144.016-.144.048c-.016.528-.188.908-.516 1.14s-.916.38-1.764.444-2.248.096-4.2.096c-.16 0-.192-.056-.096-.168.288-.368.848-1 1.68-1.896.944-1.024 1.732-1.924 2.364-2.7s1.18-1.632 1.644-2.568.696-1.852.696-2.748c0-1.072-.332-1.94-.996-2.604s-1.58-.996-2.748-.996c-1.136 0-2.084.316-2.844.948s-1.244 1.508-1.452 2.628c-.016.064.04.096.168.096.064 0 .096-.008.096-.024.24-.784.628-1.392 1.164-1.824s1.196-.648 1.98-.648c.848 0 1.512.256 1.992.768s.72 1.256.72 2.232c0 .896-.216 1.816-.648 2.76s-.984 1.88-1.656 2.808-1.624 2.16-2.856 3.696l-1.128 1.392c-.064.064-.06.152.012.264s.148.168.228.168zm3.024 0c.624 0 1.12-.008 1.488-.024l2.04-.024 2.04.024c.368.016.856.024 1.464.024.032 0 .048-.048.048-.144s-.016-.144-.048-.144c-.768 0-1.332-.04-1.692-.12s-.608-.236-.744-.468-.204-.588-.204-1.068v-13.128c0-.048-.016-.088-.048-.12s-.064-.048-.096-.048c-.048 0-.104.024-.168.072l-4.296 3.144c-.048.032-.056.084-.024.156s.08.108.144.108l.048-.024c.96-.688 1.624-1.032 1.992-1.032.464 0 .696.48.696 1.44v9.432c0 .48-.076.832-.228 1.056s-.408.38-.768.468-.908.132-1.644.132c-.032 0-.048.048-.048.144s.016.144.048.144z" transform="translate(164 10)"/><g transform="translate(59.5)"><path d="m6.056 32c.08 0 .12-.048.12-.144s-.04-.144-.12-.144c-1.552 0-2.328-.52-2.328-1.56 0-.352.112-.792.336-1.32l1.968-4.536h4.416l2.688 5.568c.24.48.36.856.36 1.128s-.12.46-.36.564-.632.156-1.176.156c-.064 0-.096.048-.096.144s.032.144.096.144c.272 0 .68-.016 1.224-.048s1-.048 1.368-.048c.304 0 .776.016 1.416.048.672.032 1.16.048 1.464.048.064 0 .096-.048.096-.144s-.032-.144-.096-.144c-.48 0-.912-.208-1.296-.624s-.848-1.208-1.392-2.376l-5.784-11.88c-.016-.064-.072-.092-.168-.084s-.152.036-.168.084l-5.112 11.784c-.368.848-.696 1.488-.984 1.92s-.588.736-.9.912-.692.264-1.14.264c-.064 0-.096.048-.096.144s.032.144.096.144c.32 0 .736-.016 1.248-.048.576-.032 1.072-.048 1.488-.048.448 0 .976.016 1.584.048.544.032.96.048 1.248.048zm4.128-8.256h-3.936l1.872-4.32zm12.912 8.568c1.536 0 2.724-.44 3.564-1.32s1.26-2.024 1.26-3.432c0-.912-.188-1.724-.564-2.436s-.88-1.272-1.512-1.68-1.34-.644-2.124-.708c.944-.528 1.728-1.28 2.352-2.256s.936-1.992.936-3.048c0-1.888-1.048-2.832-3.144-2.832-1.6 0-2.916.692-3.948 2.076s-1.548 3.964-1.548 7.74c0 2 .176 3.576.528 4.728s.872 1.968 1.56 2.448 1.568.72 2.64.72zm-1.872-9.36c-.4 0-.72-.008-.96-.024.048-2.832.34-4.864.876-6.096s1.26-1.848 2.172-1.848c.656 0 1.156.272 1.5.816s.516 1.28.516 2.208c0 .88-.176 1.7-.528 2.46s-.84 1.364-1.464 1.812-1.328.672-2.112.672zm2.448 8.904c-.768 0-1.396-.232-1.884-.696s-.864-1.292-1.128-2.484-.396-2.852-.396-4.98v-.264c.24-.032.568-.048.984-.048 1.568 0 2.776.432 3.624 1.296s1.272 2.12 1.272 3.768c0 1.168-.2 2.028-.6 2.58s-1.024.828-1.872.828zm8.976.384c.752 0 1.464-.18 2.136-.54s1.224-.884 1.656-1.572c.032-.048.032-.096 0-.144s-.072-.072-.12-.072-.08.016-.096.048c-.304.448-.668.784-1.092 1.008s-.868.336-1.332.336c-.608 0-1.132-.176-1.572-.528s-.66-.816-.66-1.392c0-.56.164-.996.492-1.308s.844-.66 1.548-1.044c.784-.432 1.356-.828 1.716-1.188s.54-.852.54-1.476c0-.608-.184-1.084-.552-1.428s-.912-.516-1.632-.516c-.336 0-.636.032-.9.096s-.548.16-.852.288c-.384.128-.632.192-.744.192-.256 0-.384-.16-.384-.48 0-.096.008-.176.024-.24.016-.016.004-.036-.036-.06s-.084-.036-.132-.036c-.064 0-.096.016-.096.048l-.768 3.192c-.016.064.048.096.192.096.048 0 .08-.008.096-.024.224-.736.572-1.336 1.044-1.8s.98-.696 1.524-.696c.432 0 .768.152 1.008.456s.36.728.36 1.272c0 .624-.176 1.14-.528 1.548s-.88.804-1.584 1.188c-.72.416-1.248.8-1.584 1.152s-.504.808-.504 1.368c0 .768.284 1.336.852 1.704s1.228.552 1.98.552zm4.512 6.504c.688 0 1.308-.188 1.86-.564s1.092-1.004 1.62-1.884 1.08-2.088 1.656-3.624l2.856-7.584c.256-.72.54-1.244.852-1.572s.692-.492 1.14-.492c.048 0 .072-.048.072-.144s-.024-.144-.072-.144c-.352 0-.608.008-.768.024l-.912.024-1.44-.024c-.224-.016-.552-.024-.984-.024-.032 0-.048.048-.048.144s.016.144.048.144c.592 0 1.028.092 1.308.276s.42.476.42.876c0 .224-.064.544-.192.96l-1.776 5.088-3.048-6.264c-.08-.144-.12-.28-.12-.408 0-.192.112-.328.336-.408s.552-.12.984-.12c.032 0 .048-.048.048-.144s-.016-.144-.048-.144c-.416 0-.744.008-.984.024l-1.56.024c-.368 0-.656-.008-.864-.024l-.888-.024c-.032 0-.048.048-.048.144s.016.144.048.144c.304 0 .552.108.744.324s.472.676.84 1.38l3.72 7.512c-.512 1.36-.952 2.412-1.32 3.156s-.716 1.276-1.044 1.596-.684.48-1.068.48c-.176 0-.316-.024-.42-.072s-.244-.12-.42-.216-.328-.172-.456-.228-.296-.084-.504-.084c-.24 0-.444.076-.612.228s-.252.364-.252.636c0 .32.12.568.36.744s.552.264.936.264zm15.504-6.456c.704 0 1.344-.12 1.92-.36s1.144-.616 1.704-1.128c.048-.032.052-.072.012-.12s-.084-.072-.132-.072h-.048c-.72.496-1.52.744-2.4.744-1.328 0-2.312-.424-2.952-1.272s-.96-1.936-.96-3.264c0-1.152.236-2.076.708-2.772s1.124-1.044 1.956-1.044c.416 0 .728.08.936.24s.4.424.576.792c.272.624.672.936 1.2.936.304 0 .544-.088.72-.264s.264-.384.264-.624c0-.448-.296-.82-.888-1.116s-1.248-.444-1.968-.444c-.864 0-1.712.204-2.544.612s-1.512.992-2.04 1.752-.792 1.652-.792 2.676c0 .8.172 1.56.516 2.28s.872 1.308 1.584 1.764 1.588.684 2.628.684zm5.424-.288c.384 0 .688-.008.912-.024l1.344-.024 1.32.024c.24.016.552.024.936.024.048 0 .072-.048.072-.144s-.024-.144-.072-.144c-.592 0-.98-.108-1.164-.324s-.276-.66-.276-1.332v-5.136c.368-.4.776-.712 1.224-.936s.896-.336 1.344-.336c.672 0 1.168.22 1.488.66s.48 1.124.48 2.052v3.696c0 .672-.096 1.116-.288 1.332s-.576.324-1.152.324c-.048 0-.072.048-.072.144s.024.144.072.144c.384 0 .696-.008.936-.024l1.32-.024 1.32.024c.24.016.552.024.936.024.048 0 .072-.048.072-.144s-.024-.144-.072-.144c-.592 0-.98-.108-1.164-.324s-.276-.66-.276-1.332v-5.064c.352-.416.76-.744 1.224-.984s.928-.36 1.392-.36c.672 0 1.172.22 1.5.66s.492 1.124.492 2.052v3.696c0 .672-.096 1.116-.288 1.332s-.584.324-1.176.324c-.032 0-.048.048-.048.144s.016.144.048.144c.384 0 .696-.008.936-.024l1.32-.024 1.344.024c.224.016.536.024.936.024.048 0 .072-.048.072-.144s-.024-.144-.072-.144c-.416 0-.724-.044-.924-.132s-.336-.248-.408-.48-.108-.58-.108-1.044v-4.632c0-.976-.228-1.712-.684-2.208s-1.108-.744-1.956-.744c-1.264 0-2.48.704-3.648 2.112-.112-.688-.392-1.212-.84-1.572s-1.032-.54-1.752-.54c-1.248 0-2.424.664-3.528 1.992-.016-.576-.1-1.044-.252-1.404s-.308-.54-.468-.54c-.064 0-.112.008-.144.024l-2.976 1.416c-.048.016-.06.064-.036.144s.06.12.108.12h.048c.544-.224.968-.336 1.272-.336.288 0 .492.116.612.348s.18.612.18 1.14v4.68c0 .672-.092 1.116-.276 1.332s-.564.324-1.14.324c-.048 0-.072.048-.072.144s.024.144.072.144z"/><path d="m63.504 18.496.348-.348c.168-.168.356-.308.564-.42s.504-.168.888-.168c.32 0 .616.036.888.108s.624.18 1.056.324c.384.144.708.252.972.324s.548.108.852.108c.432 0 .828-.136 1.188-.408s.836-.816 1.428-1.632c.032-.032.028-.068-.012-.108s-.084-.06-.132-.06h-.024c-.272.304-.528.536-.768.696s-.584.24-1.032.24c-.32 0-.636-.04-.948-.12s-.668-.2-1.068-.36c-.272-.096-.548-.184-.828-.264s-.532-.12-.756-.12c-.928 0-1.856.68-2.784 2.04-.016.032-.004.068.036.108s.076.06.108.06z" opacity=".9"/></g></g><path d="m51.0527864 9.2763932.8944272.4472136-11.5 23-.8944272-.4472136z" fill="#a0b9b6"/><path d="m155.552786 9.2763932.894428.4472136-11.5 23-.894428-.4472136z" fill="#a0b9b6"/></g></g></g></svg>