<svg height="296" viewBox="0 0 527 296" width="527" xmlns="http://www.w3.org/2000/svg"><g fill="none" fill-rule="evenodd"><g transform="translate(129 73)"><g fill="#021631" fill-rule="nonzero"><g transform="translate(0 8)"><path d="m5.544 33c.192 0 .33066667-.048.416-.144s.18133333-.2826667.288-.56l6.464-18.88c.0426667-.064.032-.1493333-.032-.256s-.1386667-.16-.224-.16h-8.48c-.61866667 0-1.02933333-.032-1.232-.096s-.304-.192-.304-.384c0-.128.01066667-.2346667.032-.32.02133333-.064-.032-.1013333-.16-.112s-.20266667.016-.224.08l-1.216 5.12c-.02133333.0426667-.00533333.08.048.112s.112.048.176.048c.08533333 0 .13866667-.032.16-.096.21333333-.7466667.496-1.2533333.848-1.52s1.12533333-.4426667 2.32-.528 3.38133333-.128 6.56-.128c.192 0 .2346667.0746667.128.224l-7.712 17.216c-.04266667.1066667-.032.1973333.032.272s.16.112.288.112z"/><path d="m21.7 22.096c.096 0 .152-.032.168-.096l2.904-6.48.624 4.584c.032.288.048.48.048.576 0 .416-.092.692-.276.828s-.5.204-.948.204c-.032 0-.048.048-.048.144s.016.144.048.144c.352 0 .632-.008.84-.024l1.176-.024 1.248.024c.24.016.576.024 1.008.024.048 0 .072-.048.072-.144s-.024-.144-.072-.144c-.416 0-.716-.04-.9-.12s-.308-.224-.372-.432-.128-.576-.192-1.104l-.864-7.416c0-.048-.036-.088-.108-.12s-.156-.048-.252-.048-.168.032-.216.096l-3.312 7.368-3.984-7.392c-.048-.048-.128-.072-.24-.072-.08 0-.156.012-.228.036s-.108.06-.108.108l-.576 6.888c-.064.8-.212 1.368-.444 1.704s-.612.504-1.14.504c-.048 0-.072.048-.072.144s.024.144.072.144c.352 0 .624-.008.816-.024l1.008-.024 1.008.024c.192.016.464.024.816.024.048 0 .072-.048.072-.144s-.024-.144-.072-.144c-.544 0-.948-.14-1.212-.42s-.396-.724-.396-1.332c0-.192.008-.344.024-.456l.408-4.008 3.48 6.504c.016.064.08.096.192.096zm15.888.168c.048 0 .088-.008.12-.024l2.976-1.416c.048-.032.056-.084.024-.156s-.08-.108-.144-.108h-.024c-.528.224-.92.336-1.176.336-.288 0-.492-.12-.612-.36s-.18-.632-.18-1.176v-6.6c0-.064-.032-.12-.096-.168s-.128-.072-.192-.072l-.096.024-2.832 1.32c-.048.016-.064.064-.048.144s.048.12.096.12h.048c.304-.128.56-.192.768-.192.256 0 .44.132.552.396s.168.7.168 1.308v4.152c-.384.4-.816.712-1.296.936s-.944.336-1.392.336c-1.344 0-2.016-.904-2.016-2.712v-5.592c0-.064-.032-.12-.096-.168s-.128-.072-.192-.072l-.096.024-2.832 1.32c-.048.016-.06.064-.036.144s.06.12.108.12h.048c.272-.128.52-.192.744-.192.256 0 .44.132.552.396s.168.7.168 1.308v3.624c0 .928.236 1.652.708 2.172s1.116.78 1.932.78c1.28 0 2.512-.664 3.696-1.992 0 .608.072 1.1.216 1.476s.288.564.432.564z"/></g><path d="m13.18 30c.0853333 0 .1546667-.0373333.208-.112s.08-.1546667.08-.24l.032-4c0-.0426667-.064-.064-.192-.064s-.192.0213333-.192.064c-.0213333.704-.2506667 1.2106667-.688 1.52s-1.2213333.5066667-2.352.592c-1.13066667.0853333-2.99733333.128-5.6.128-.21333333 0-.256-.0746667-.128-.224.384-.4906667 1.13066667-1.3333333 2.24-2.528 1.25866667-1.3653333 2.30933333-2.5653333 3.152-3.6.8426667-1.0346667 1.5733333-2.176 2.192-3.424s.928-2.4693333.928-3.664c0-1.4293333-.4426667-2.5866667-1.328-3.472s-2.10666667-1.328-3.664-1.328c-1.51466667 0-2.77866667.4213333-3.792 1.264s-1.65866667 2.0106667-1.936 3.504c-.02133333.0853333.05333333.128.224.128.08533333 0 .128-.0106667.128-.032.32-1.0453333.83733333-1.856 1.552-2.432s1.59466667-.864 2.64-.864c1.13066667 0 2.016.3413333 2.656 1.024s.96 1.6746667.96 2.976c0 1.1946667-.288 2.4213333-.864 3.68s-1.312 2.5066667-2.208 3.744-2.16533333 2.88-3.808 4.928l-1.504 1.856c-.08533333.0853333-.08.2026667.016.352s.19733333.224.304.224zm10.08.416c1.3226667 0 2.48-.4266667 3.472-1.28s1.7546667-2.0586667 2.288-3.616.8-3.3706667.8-5.44c0-2.0906667-.2666667-3.9253333-.8-5.504s-1.2906667-2.8-2.272-3.664-2.1226667-1.296-3.424-1.296c-1.344 0-2.5173333.4266667-3.52 1.28s-1.7813333 2.064-2.336 3.632-.832 3.3866667-.832 5.456c0 2.0906667.272 3.9253333.816 5.504s1.3173333 2.7946667 2.32 3.648 2.1653333 1.28 3.488 1.28zm.384-.512c-1.3866667 0-2.448-.8746667-3.184-2.624s-1.104-4.256-1.104-7.52c0-3.0933333.304-5.472.912-7.136s1.5093333-2.496 2.704-2.496c1.28 0 2.288.8586667 3.024 2.576s1.104 4.304 1.104 7.76c0 6.2933333-1.152 9.44-3.456 9.44zm19.84.096c.0853333 0 .1546667-.0373333.208-.112s.08-.1546667.08-.24l.032-4c0-.0426667-.064-.064-.192-.064s-.192.0213333-.192.064c-.0213333.704-.2506667 1.2106667-.688 1.52s-1.2213333.5066667-2.352.592-2.9973333.128-5.6.128c-.2133333 0-.256-.0746667-.128-.224.384-.4906667 1.1306667-1.3333333 2.24-2.528 1.2586667-1.3653333 2.3093333-2.5653333 3.152-3.6s1.5733333-2.176 2.192-3.424.928-2.4693333.928-3.664c0-1.4293333-.4426667-2.5866667-1.328-3.472s-2.1066667-1.328-3.664-1.328c-1.5146667 0-2.7786667.4213333-3.792 1.264s-1.6586667 2.0106667-1.936 3.504c-.0213333.0853333.0533333.128.224.128.0853333 0 .128-.0106667.128-.032.32-1.0453333.8373333-1.856 1.552-2.432s1.5946667-.864 2.64-.864c1.1306667 0 2.016.3413333 2.656 1.024s.96 1.6746667.96 2.976c0 1.1946667-.288 2.4213333-.864 3.68s-1.312 2.5066667-2.208 3.744-2.1653333 2.88-3.808 4.928l-1.504 1.856c-.0853333.0853333-.08.2026667.016.352s.1973333.224.304.224zm4.032 0c.832 0 1.4933333-.0106667 1.984-.032l2.72-.032 2.72.032c.4906667.0213333 1.1413333.032 1.952.032.0426667 0 .064-.064.064-.192s-.0213333-.192-.064-.192c-1.024 0-1.776-.0533333-2.256-.16s-.8106667-.3146667-.992-.624-.272-.784-.272-1.424v-17.504c0-.064-.0213333-.11733333-.064-.16s-.0853333-.064-.128-.064c-.064 0-.1386667.032-.224.096l-5.728 4.192c-.064.0426667-.0746667.112-.032.208s.1066667.144.192.144l.064-.032c1.28-.9173333 2.1653333-1.376 2.656-1.376.6186667 0 .928.64.928 1.92v12.576c0 .64-.1013333 1.1093333-.304 1.408s-.544.5066667-1.024.624-1.2106667.176-2.192.176c-.0426667 0-.064.064-.064.192s.0213333.192.064.192z" transform="translate(213 11)"/><path d="m100.076 41c.085333 0 .128-.064.128-.192s-.042667-.192-.128-.192c-.64 0-1.216-.2773333-1.728-.832s-1.1306667-1.6106667-1.856-3.168l-7.712-15.84c-.0213333-.0853333-.096-.1226667-.224-.112s-.2026667.048-.224.112l-6.816 15.712c-.4906667 1.1306667-.928 1.984-1.312 2.56s-.784.9813333-1.2 1.216-.9226667.352-1.52.352c-.0853333 0-.128.064-.128.192s.0426667.192.128.192c.4266667 0 .9813333-.0213333 1.664-.064.768-.0426667 1.4293333-.064 1.984-.064.5973333 0 1.3013333.0213333 2.112.064.7253333.0426667 1.28.064 1.664.064.1066667 0 .16-.064.16-.192s-.0533333-.192-.16-.192c-2.0693333 0-3.104-.6933333-3.104-2.08 0-.4693333.1493333-1.056.448-1.76l2.624-6.048h5.888l3.584 7.424c.32.64.48 1.1413333.48 1.504s-.16.6133333-.48.752-.8426667.208-1.568.208c-.0853333 0-.128.064-.128.192s.0426667.192.128.192c.3626667 0 .9066667-.0213333 1.632-.064s1.3333333-.064 1.824-.064c.4053333 0 1.0346667.0213333 1.888.064.896.0426667 1.5466667.064 1.952.064zm-9.664-11.008h-5.248l2.496-5.76zm17.216 11.424c2.048 0 3.632-.5866667 4.752-1.76s1.68-2.6986667 1.68-4.576c0-1.216-.250667-2.2986667-.752-3.248s-1.173333-1.696-2.016-2.24-1.786667-.8586667-2.832-.944c1.258667-.704 2.304-1.7066667 3.136-3.008s1.248-2.656 1.248-4.064c0-2.5173333-1.397333-3.776-4.192-3.776-2.133333 0-3.888.9226667-5.264 2.768s-2.064 5.2853333-2.064 10.32c0 2.6666667.234667 4.768.704 6.304s1.162667 2.624 2.08 3.264 2.090667.96 3.52.96zm-2.496-12.48c-.533333 0-.96-.0106667-1.28-.032.064-3.776.453333-6.4853333 1.168-8.128s1.68-2.464 2.896-2.464c.874667 0 1.541333.3626667 2 1.088s.688 1.7066667.688 2.944c0 1.1733333-.234667 2.2666667-.704 3.28s-1.12 1.8186667-1.952 2.416-1.770667.896-2.816.896zm3.264 11.872c-1.024 0-1.861333-.3093333-2.512-.928s-1.152-1.7226667-1.504-3.312-.528-3.8026667-.528-6.64v-.352c.32-.0426667.757333-.064 1.312-.064 2.090667 0 3.701333.576 4.832 1.728s1.696 2.8266667 1.696 5.024c0 1.5573333-.266667 2.704-.8 3.44s-1.365333 1.104-2.496 1.104zm11.968.512c1.002667 0 1.952-.24 2.848-.72s1.632-1.1786667 2.208-2.096c.042667-.064.042667-.128 0-.192s-.096-.096-.16-.096-.106667.0213333-.128.064c-.405333.5973333-.890667 1.0453333-1.456 1.344s-1.157333.448-1.776.448c-.810667 0-1.509333-.2346667-2.096-.704s-.88-1.088-.88-1.856c0-.7466667.218667-1.328.656-1.744s1.125333-.88 2.064-1.392c1.045333-.576 1.808-1.104 2.288-1.584s.72-1.136.72-1.968c0-.8106667-.245333-1.4453333-.736-1.904s-1.216-.688-2.176-.688c-.448 0-.848.0426667-1.2.128s-.730667.2133333-1.136.384c-.512.1706667-.842667.256-.992.256-.341333 0-.512-.2133333-.512-.64 0-.128.010667-.2346667.032-.32.021333-.0213333.005333-.048-.048-.08s-.112-.048-.176-.048c-.085333 0-.128.0213333-.128.064l-1.024 4.256c-.021333.0853333.064.128.256.128.064 0 .106667-.0106667.128-.032.298667-.9813333.762667-1.7813333 1.392-2.4s1.306667-.928 2.032-.928c.576 0 1.024.2026667 1.344.608s.48.9706667.48 1.696c0 .832-.234667 1.52-.704 2.064s-1.173333 1.072-2.112 1.584c-.96.5546667-1.664 1.0666667-2.112 1.536s-.672 1.0773333-.672 1.824c0 1.024.378667 1.7813333 1.136 2.272s1.637333.736 2.64.736zm6.016 8.672c.917333 0 1.744-.2506667 2.48-.752s1.456-1.3386667 2.16-2.512 1.44-2.784 2.208-4.832l3.808-10.112c.341333-.96.72-1.6586667 1.136-2.096s.922667-.656 1.52-.656c.064 0 .096-.064.096-.192s-.032-.192-.096-.192c-.469333 0-.810667.0106667-1.024.032l-1.216.032-1.92-.032c-.298667-.0213333-.736-.032-1.312-.032-.042667 0-.064.064-.064.192s.021333.192.064.192c.789333 0 1.370667.1226667 1.744.368s.56.6346667.56 1.168c0 .2986667-.085333.7253333-.256 1.28l-2.368 6.784-4.064-8.352c-.106667-.192-.16-.3733333-.16-.544 0-.256.149333-.4373333.448-.544s.736-.16 1.312-.16c.042667 0 .064-.064.064-.192s-.021333-.192-.064-.192c-.554667 0-.992.0106667-1.312.032l-2.08.032c-.490667 0-.874667-.0106667-1.152-.032l-1.184-.032c-.042667 0-.064.064-.064.192s.021333.192.064.192c.405333 0 .736.144.992.432s.629333.9013333 1.12 1.84l4.96 10.016c-.682667 1.8133333-1.269333 3.216-1.76 4.208s-.954667 1.7013333-1.392 2.128-.912.64-1.424.64c-.234667 0-.421333-.032-.56-.096s-.325333-.16-.56-.288-.437333-.2293333-.608-.304-.394667-.112-.672-.112c-.32 0-.592.1013333-.816.304s-.336.4853333-.336.848c0 .4266667.16.7573333.48.992s.736.352 1.248.352zm20.672-8.608c.938667 0 1.792-.16 2.56-.48s1.525333-.8213333 2.272-1.504c.064-.0426667.069333-.096.016-.16s-.112-.096-.176-.096h-.064c-.96.6613333-2.026667.992-3.2.992-1.770667 0-3.082667-.5653333-3.936-1.696s-1.28-2.5813333-1.28-4.352c0-1.536.314667-2.768.944-3.696s1.498667-1.392 2.608-1.392c.554667 0 .970667.1066667 1.248.32s.533333.5653333.768 1.056c.362667.832.896 1.248 1.6 1.248.405333 0 .725333-.1173333.96-.352s.352-.512.352-.832c0-.5973333-.394667-1.0933333-1.184-1.488s-1.664-.592-2.624-.592c-1.152 0-2.282667.272-3.392.816s-2.016 1.3226667-2.72 2.336-1.056 2.2026667-1.056 3.568c0 1.0666667.229333 2.08.688 3.04s1.162667 1.744 2.112 2.352 2.117333.912 3.504.912zm7.232-.384c.512 0 .917333-.0106667 1.216-.032l1.792-.032 1.76.032c.32.0213333.736.032 1.248.032.064 0 .096-.064.096-.192s-.032-.192-.096-.192c-.789333 0-1.306667-.144-1.552-.432s-.368-.88-.368-1.776v-6.848c.490667-.5333333 1.034667-.9493333 1.632-1.248s1.194667-.448 1.792-.448c.896 0 1.557333.2933333 1.984.88s.64 1.4986667.64 2.736v4.928c0 .896-.128 1.488-.384 1.776s-.768.432-1.536.432c-.064 0-.096.064-.096.192s.032.192.096.192c.512 0 .928-.0106667 1.248-.032l1.76-.032 1.76.032c.32.0213333.736.032 1.248.032.064 0 .096-.064.096-.192s-.032-.192-.096-.192c-.789333 0-1.306667-.144-1.552-.432s-.368-.88-.368-1.776v-6.752c.469333-.5546667 1.013333-.992 1.632-1.312s1.237333-.48 1.856-.48c.896 0 1.562667.2933333 2 .88s.656 1.4986667.656 2.736v4.928c0 .896-.128 1.488-.384 1.776s-.778667.432-1.568.432c-.042667 0-.064.064-.064.192s.021333.192.064.192c.512 0 .928-.0106667 1.248-.032l1.76-.032 1.792.032c.298667.0213333.714667.032 1.248.032.064 0 .096-.064.096-.192s-.032-.192-.096-.192c-.554667 0-.965333-.0586667-1.232-.176s-.448-.3306667-.544-.64-.144-.7733333-.144-1.392v-6.176c0-1.3013333-.304-2.2826667-.912-2.944s-1.477333-.992-2.608-.992c-1.685333 0-3.306667.9386667-4.864 2.816-.149333-.9173333-.522667-1.616-1.12-2.096s-1.376-.72-2.336-.72c-1.664 0-3.232.8853333-4.704 2.656-.021333-.768-.133333-1.392-.336-1.872s-.410667-.72-.624-.72c-.085333 0-.149333.0106667-.192.032l-3.968 1.888c-.064.0213333-.08.0853333-.048.192s.08.16.144.16h.064c.725333-.2986667 1.290667-.448 1.696-.448.384 0 .656.1546667.816.464s.24.816.24 1.52v6.24c0 .896-.122667 1.488-.368 1.776s-.752.432-1.52.432c-.064 0-.096.064-.096.192s.032.192.096.192z"/><path d="m161.672 25.328c.014222-.0142222.03037-.0303704.048444-.0484444l.415556-.4155556c.224-.224.474667-.4106667.752-.56s.672-.224 1.184-.224c.426667 0 .821333.048 1.184.144s.832.24 1.408.432c.512.192.944.336 1.296.432s.730667.144 1.136.144c.576 0 1.104-.1813333 1.584-.544s1.114667-1.088 1.904-2.176c.042667-.0426667.037333-.0906667-.016-.144s-.112-.08-.176-.08h-.032c-.362667.4053333-.704.7146667-1.024.928s-.778667.32-1.376.32c-.426667 0-.848-.0533333-1.264-.16s-.890667-.2666667-1.424-.48c-.362667-.128-.730667-.2453333-1.104-.352s-.709333-.16-1.008-.16c-1.237333 0-2.474667.9066667-3.712 2.72-.021333.0426667-.005333.0906667.048.144s.101333.08.144.08z"/></g><path d="m64.5 18.5-11.5 23" stroke="#a0b9b6"/><path d="m202 18.5-11.5 23" stroke="#a0b9b6"/></g><path d="m515 0v12h12v272h-12v12h-503v-12h-12v-272h12v-12zm-1 1h-501v12h-12v270h12v12h501v-12h12v-270h-12z" fill="#a0b9b6" fill-rule="nonzero"/><path d="m16.5 17.5h494v262h-494z" stroke="#a0b9b6"/><g fill-rule="nonzero"><g fill="#a0b9b6" transform="matrix(-1 0 0 -1 34 35)"><path d="m17.1464466.14644661.7071068.70710678-17.00000001 17.00000001-.70710678-.7071068z"/><path d="m17.5 0v1h-7.794l-8.706 8.706v7.794h-1v-8.20710678l9.29289322-9.29289322z"/><path d="m6.65811388 3.02565835 6.21589602 2.07196533 5.0875286 12.21006862-.923077.3846154-4.9124615-11.7903077-5.78411388-1.92765835z"/><path d="m3.97434165 6.34188612 1.92765835 5.78411388 11.7903077 4.9124615-.3846154.923077-12.21006862-5.0875286-2.07196533-6.21589602z"/></g><g fill="#a0b9b6" transform="matrix(-1 0 0 1 34 262)"><path d="m17.1464466.14644661.7071068.70710678-17.00000001 17.00000001-.70710678-.7071068z"/><path d="m17.5 0v1h-7.794l-8.706 8.706v7.794h-1v-8.20710678l9.29289322-9.29289322z"/><path d="m6.65811388 3.02565835 6.21589602 2.07196533 5.0875286 12.21006862-.923077.3846154-4.9124615-11.7903077-5.78411388-1.92765835z"/><path d="m3.97434165 6.34188612 1.92765835 5.78411388 11.7903077 4.9124615-.3846154.923077-12.21006862-5.0875286-2.07196533-6.21589602z"/></g><g fill="#a0b9b6" transform="matrix(1 0 0 -1 493 35)"><path d="m17.1464466.14644661.7071068.70710678-17.00000001 17.00000001-.70710678-.7071068z"/><path d="m17.5 0v1h-7.794l-8.706 8.706v7.794h-1v-8.20710678l9.29289322-9.29289322z"/><path d="m6.65811388 3.02565835 6.21589602 2.07196533 5.0875286 12.21006862-.923077.3846154-4.9124615-11.7903077-5.78411388-1.92765835z"/><path d="m3.97434165 6.34188612 1.92765835 5.78411388 11.7903077 4.9124615-.3846154.923077-12.21006862-5.0875286-2.07196533-6.21589602z"/></g><g fill="#a0b9b6" transform="translate(493 262)"><path d="m17.1464466.14644661.7071068.70710678-17.00000001 17.00000001-.70710678-.7071068z"/><path d="m17.5 0v1h-7.794l-8.706 8.706v7.794h-1v-8.20710678l9.29289322-9.29289322z"/><path d="m6.65811388 3.02565835 6.21589602 2.07196533 5.0875286 12.21006862-.923077.3846154-4.9124615-11.7903077-5.78411388-1.92765835z"/><path d="m3.97434165 6.34188612 1.92765835 5.78411388 11.7903077 4.9124615-.3846154.923077-12.21006862-5.0875286-2.07196533-6.21589602z"/></g><g><g fill="#021631" transform="translate(69 139)"><path d="m7.92 61c.384 0 .728-.128 1.032-.384s.848-.936 1.632-2.04 2.024-2.984 3.72-5.64c1.376-2.176 2.448-3.728 3.216-4.656s1.52-1.56 2.256-1.896 1.712-.504 2.928-.504v11.232c0 .96-.096 1.672-.288 2.136s-.544.776-1.056.936-1.328.24-2.448.24c-.064 0-.096.096-.096.288s.032.288.096.288c1.12 0 1.984-.016 2.592-.048l3.504-.048 3.84.048c.672.032 1.6.048 2.784.048.064 0 .096-.096.096-.288s-.032-.288-.096-.288c-1.12 0-1.936-.08-2.448-.24s-.856-.472-1.032-.936-.264-1.176-.264-2.136v-11.232c1.216 0 2.192.168 2.928.504s1.488.968 2.256 1.896 1.84 2.48 3.216 4.656c1.696 2.656 2.936 4.536 3.72 5.64s1.328 1.784 1.632 2.04.648.384 1.032.384h7.392c.096 0 .144-.096.144-.288s-.048-.288-.144-.288c-.864-.032-1.664-.32-2.4-.864s-1.456-1.272-2.16-2.184-1.728-2.344-3.072-4.296l-.72-1.104c-1.216-1.792-2.224-3.144-3.024-4.056s-1.592-1.576-2.376-1.992-1.752-.688-2.904-.816l6.624-8.16c1.44-1.76 2.936-3.096 4.488-4.008s3.128-1.368 4.728-1.368c.064 0 .096-.096.096-.288s-.032-.288-.096-.288l-2.064.048c-1.344.064-2.64.096-3.888.096-.96 0-2.272-.032-3.936-.096l-3.12-.048c-.096 0-.144.096-.144.288s.048.288.144.288c.896 0 1.568.2 2.016.6s.672.952.672 1.656c0 1.376-.752 3.104-2.256 5.184l-4.368 6h-1.152c-1.344 0-2.432.016-3.264.048v-10.08c0-.96.096-1.672.288-2.136s.544-.792 1.056-.984 1.312-.288 2.4-.288c.064 0 .096-.096.096-.288s-.032-.288-.096-.288l-2.736.048c-1.6.064-2.896.096-3.888.096l-.26736-.00096c-.82656-.00576-1.87344-.03744-3.14064-.09504l-2.64-.048c-.064 0-.096.096-.096.288s.032.288.096.288c1.088 0 1.888.088 2.4.264s.864.488 1.056.936.288 1.152.288 2.112v10.176c-.864-.032-1.952-.048-3.264-.048h-1.152l-4.512-6.24c-1.44-2.048-2.16-3.696-2.16-4.944 0-.704.232-1.256.696-1.656s1.16-.6 2.088-.6c.064 0 .096-.096.096-.288s-.032-.288-.096-.288l-3.168.048c-1.664.064-2.976.096-3.936.096-1.248 0-2.544-.032-3.888-.096l-2.064-.048c-.064 0-.096.096-.096.288s.032.288.096.288c1.6 0 3.176.456 4.728 1.368s3.048 2.248 4.488 4.008l6.624 8.16c-1.12.128-2.08.4-2.88.816s-1.608 1.088-2.424 2.016-1.816 2.272-3 4.032l-.72 1.104c-1.344 1.952-2.368 3.384-3.072 4.296s-1.424 1.64-2.16 2.184-1.536.832-2.4.864c-.096 0-.144.096-.144.288s.048.288.144.288zm56.504.672c.096 0 .176-.016.24-.048l6.624-3.216c.096-.032.104-.128.024-.288s-.168-.24-.264-.24h-.096c-.896.352-1.552.528-1.968.528-.48 0-.824-.2-1.032-.6s-.312-1.08-.312-2.04v-13.68c0-.064-.04-.12-.12-.168s-.152-.072-.216-.072-.112.016-.144.048c-.512.512-1.136.928-1.872 1.248-1.376-.832-2.928-1.248-4.656-1.248-1.984 0-3.84.448-5.568 1.344s-3.12 2.2-4.176 3.912-1.584 3.704-1.584 5.976c0 1.792.32 3.328.96 4.608s1.512 2.248 2.616 2.904 2.312.984 3.624.984c1.28 0 2.448-.28 3.504-.84s2.112-1.336 3.168-2.328c.064.992.216 1.776.456 2.352s.504.864.792.864zm-5.472-2.592c-1.504 0-2.664-.664-3.48-1.992s-1.224-3.192-1.224-5.592c0-2.528.456-4.592 1.368-6.192s2.168-2.4 3.768-2.4c1.12 0 2.024.4 2.712 1.2s1.032 1.824 1.032 3.072v10.368c-1.504 1.024-2.896 1.536-4.176 1.536zm12.872 1.92c.928 0 1.648-.016 2.16-.048l2.784-.048 2.688.048c.48.032 1.168.048 2.064.048.064 0 .096-.096.096-.288s-.032-.288-.096-.288c-.768 0-1.328-.08-1.68-.24s-.592-.472-.72-.936-.192-1.176-.192-2.136v-4.8h8.448v4.8c0 .96-.064 1.672-.192 2.136s-.376.776-.744.936-.936.24-1.704.24c-.096 0-.144.096-.144.288s.048.288.144.288c.896 0 1.6-.016 2.112-.048l2.832-.048 2.688.048c.48.032 1.168.048 2.064.048.064 0 .096-.096.096-.288s-.032-.288-.096-.288c-.768 0-1.328-.08-1.68-.24s-.592-.472-.72-.936-.192-1.176-.192-2.136v-14.448c0-.128-.088-.264-.264-.408s-.344-.216-.504-.216c-.096 0-.176.016-.24.048l-6.432 3.072c-.096.032-.112.136-.048.312s.144.264.24.264h.048c.48-.224.896-.336 1.248-.336.992 0 1.488 1.04 1.488 3.12v2.64h-8.448v-8.496c0-.128-.088-.264-.264-.408s-.344-.216-.504-.216c-.096 0-.176.016-.24.048l-6.432 3.072c-.096.032-.112.136-.048.312s.144.264.24.264h.048c.48-.224.896-.336 1.248-.336.992 0 1.488 1.04 1.488 3.12v8.592c0 .96-.064 1.672-.192 2.136s-.376.776-.744.936-.936.24-1.704.24c-.096 0-.144.096-.144.288s.048.288.144.288zm34.136.576c1.44 0 2.768-.256 3.984-.768s2.416-1.344 3.6-2.496c.064-.064.056-.16-.024-.288s-.152-.192-.216-.192l-.096.048c-.704.448-1.488.784-2.352 1.008s-1.696.336-2.496.336c-2.272 0-4.056-.8-5.352-2.4s-1.944-3.776-1.944-6.528c0-.736.048-1.408.144-2.016l8.64-.096h2.928c.352 0 .528-.464.528-1.392 0-1.472-.528-2.632-1.584-3.48s-2.576-1.272-4.56-1.272c-2.048 0-3.904.456-5.568 1.368s-2.976 2.16-3.936 3.744-1.44 3.304-1.44 5.16c0 1.632.384 3.16 1.152 4.584s1.888 2.56 3.36 3.408 3.216 1.272 5.232 1.272zm-4.608-14.256c.32-1.344.832-2.4 1.536-3.168s1.536-1.152 2.496-1.152c1.76 0 2.688 1.392 2.784 4.176zm14.264 13.68c.832 0 1.488-.016 1.968-.048l2.832-.048 2.88.048c.48.032 1.136.048 1.968.048.096 0 .144-.096.144-.288s-.048-.288-.144-.288c-.992 0-1.672-.232-2.04-.696s-.552-1.336-.552-2.616v-10.272c.576-.544 1.24-.968 1.992-1.272s1.512-.456 2.28-.456c1.216 0 2.12.416 2.712 1.248s.888 2.112.888 3.84v6.912c0 1.28-.184 2.152-.552 2.616s-1.048.696-2.04.696c-.096 0-.144.096-.144.288s.048.288.144.288c.832 0 1.504-.016 2.016-.048l2.784-.048 2.88.048c.48.032 1.136.048 1.968.048.128 0 .192-.096.192-.288s-.064-.288-.192-.288c-.992 0-1.672-.232-2.04-.696s-.552-1.336-.552-2.616v-10.032c.576-.608 1.264-1.088 2.064-1.44s1.616-.528 2.448-.528c1.216 0 2.12.416 2.712 1.248s.888 2.112.888 3.84v6.912c0 1.28-.184 2.152-.552 2.616s-1.048.696-2.04.696c-.096 0-.144.096-.144.288s.048.288.144.288c.832 0 1.504-.016 2.016-.048l2.784-.048 2.88.048c.48.032 1.136.048 1.968.048.128 0 .192-.096.192-.288s-.064-.288-.192-.288c-.992 0-1.672-.232-2.04-.696s-.552-1.336-.552-2.616v-9.216c0-2.016-.456-3.52-1.368-4.512s-2.232-1.488-3.96-1.488c-2.688 0-5.136 1.424-7.344 4.272-.192-1.376-.736-2.432-1.632-3.168s-2.096-1.104-3.6-1.104c-2.496 0-4.832 1.296-7.008 3.888-.064-1.152-.256-2.072-.576-2.76s-.656-1.032-1.008-1.032c-.032 0-.144.032-.336.096l-6.672 3.264c-.064.032-.072.128-.024.288s.12.24.216.24h.096c.992-.448 1.76-.672 2.304-.672.512 0 .888.232 1.128.696s.36 1.192.36 2.184v9.024c0 1.28-.176 2.152-.528 2.616s-1.024.696-2.016.696c-.096 0-.144.096-.144.288s.048.288.144.288z"/><path d="m126.508 37.424.648-.648c.336-.336.712-.616 1.128-.84s1.008-.336 1.776-.336c1.056 0 2.32.304 3.792.912.832.288 1.48.496 1.944.624s.968.192 1.512.192c.928 0 1.776-.336 2.544-1.008s1.776-2 3.024-3.984c.032-.064.016-.144-.048-.24s-.128-.144-.192-.144l-.096.048c-.512.576-1.016 1.024-1.512 1.344s-1.176.48-2.04.48c-.64 0-1.264-.08-1.872-.24s-1.312-.4-2.112-.72c-.512-.192-1.024-.368-1.536-.528s-.976-.24-1.392-.24c-1.92 0-3.888 1.664-5.904 4.992-.032.064-.008.136.072.216s.152.12.216.12z"/></g><g fill="#021631" transform="translate(304 139)"><path d="m1.692 61c.864 0 1.552-.016 2.064-.048l3.024-.048 2.64.048c.48.032 1.152.048 2.016.048.096 0 .144-.096.144-.288s-.048-.288-.144-.288c-1.312 0-2.328-.488-3.048-1.464s-1.064-2.328-1.032-4.056l.384-17.328 12.144 23.088c.064.128.192.192.384.192s.32-.064.384-.192l9.888-23.184 1.008 19.632.048.816c0 1.024-.24 1.696-.72 2.016s-1.392.48-2.736.48c-.096 0-.144.096-.144.288s.048.288.144.288c1.056 0 1.888-.016 2.496-.048l3.6-.048 3.552.048c.64.032 1.504.048 2.592.048.064 0 .096-.096.096-.288s-.032-.288-.096-.288c-.992 0-1.72-.08-2.184-.24s-.784-.464-.96-.912-.296-1.168-.36-2.16l-1.152-21.792c-.064-1.28.24-2.224.912-2.832s1.76-.912 3.264-.912c.096 0 .144-.096.144-.288s-.048-.288-.144-.288c-.832 0-1.472.016-1.92.048l-2.832.048c-.48 0-.904-.016-1.272-.048s-.696-.048-.984-.048c-.352 0-.632.088-.84.264s-.408.488-.6.936l-9.12 20.928-10.464-19.632c-.608-1.088-1.024-1.776-1.248-2.064s-.544-.432-.96-.432c-.448 0-.816.016-1.104.048l-2.544.048c-.704 0-1.28-.016-1.728-.048l-2.256-.048c-.096 0-.144.096-.144.288s.048.288.144.288c.896 0 1.688.272 2.376.816s1.352 1.408 1.992 2.592l.048.048-.432 19.872c-.032 1.696-.432 3.04-1.2 4.032s-1.808 1.488-3.12 1.488c-.096 0-.144.096-.144.288s.048.288.144.288zm55.496.672c.096 0 .176-.016.24-.048l6.624-3.216c.096-.032.104-.128.024-.288s-.168-.24-.264-.24h-.096c-.896.352-1.552.528-1.968.528-.48 0-.824-.2-1.032-.6s-.312-1.08-.312-2.04v-13.68c0-.064-.04-.12-.12-.168s-.152-.072-.216-.072-.112.016-.144.048c-.512.512-1.136.928-1.872 1.248-1.376-.832-2.928-1.248-4.656-1.248-1.984 0-3.84.448-5.568 1.344s-3.12 2.2-4.176 3.912-1.584 3.704-1.584 5.976c0 1.792.32 3.328.96 4.608s1.512 2.248 2.616 2.904 2.312.984 3.624.984c1.28 0 2.448-.28 3.504-.84s2.112-1.336 3.168-2.328c.064.992.216 1.776.456 2.352s.504.864.792.864zm-5.472-2.592c-1.504 0-2.664-.664-3.48-1.992s-1.224-3.192-1.224-5.592c0-2.528.456-4.592 1.368-6.192s2.168-2.4 3.768-2.4c1.12 0 2.024.4 2.712 1.2s1.032 1.824 1.032 3.072v10.368c-1.504 1.024-2.896 1.536-4.176 1.536zm24.008 15.12c.096 0 .144-.096.144-.288s-.048-.288-.144-.288c-1.248 0-2.168-.088-2.76-.264s-.992-.488-1.2-.936-.312-1.152-.312-2.112v-9.216c1.184.352 2.56.528 4.128.528 1.728 0 3.4-.36 5.016-1.08s2.952-1.904 4.008-3.552 1.584-3.752 1.584-6.312c0-1.792-.352-3.36-1.056-4.704s-1.64-2.368-2.808-3.072-2.424-1.056-3.768-1.056c-2.464 0-4.864 1.056-7.2 3.168-.096-.928-.28-1.664-.552-2.208s-.568-.816-.888-.816c-.096 0-.176.016-.24.048l-6.816 3.312c-.064.032-.056.128.024.288s.168.24.264.24h.096c.96-.448 1.696-.672 2.208-.672.576 0 .976.224 1.2.672s.336 1.184.336 2.208v22.224c0 .96-.072 1.664-.216 2.112s-.4.76-.768.936-.936.264-1.704.264c-.096 0-.144.096-.144.288s.048.288.144.288c.864 0 1.536-.016 2.016-.048l2.832-.048 3.792.048c.672.032 1.6.048 2.784.048zm.768-13.776c-1.12 0-2.064-.2-2.832-.6s-1.504-1-2.208-1.8v-11.952c1.184-1.024 2.496-1.536 3.936-1.536 1.696 0 3.112.664 4.248 1.992s1.704 3.208 1.704 5.64c0 5.504-1.616 8.256-4.848 8.256zm12.056.576c.832 0 1.488-.016 1.968-.048l2.832-.048 2.88.048c.48.032 1.136.048 1.968.048.096 0 .144-.096.144-.288s-.048-.288-.144-.288c-.992 0-1.672-.232-2.04-.696s-.552-1.336-.552-2.616v-10.272c.576-.544 1.24-.968 1.992-1.272s1.512-.456 2.28-.456c1.216 0 2.12.416 2.712 1.248s.888 2.112.888 3.84v6.912c0 1.28-.184 2.152-.552 2.616s-1.048.696-2.04.696c-.096 0-.144.096-.144.288s.048.288.144.288c.832 0 1.504-.016 2.016-.048l2.784-.048 2.88.048c.48.032 1.136.048 1.968.048.128 0 .192-.096.192-.288s-.064-.288-.192-.288c-.992 0-1.672-.232-2.04-.696s-.552-1.336-.552-2.616v-10.032c.576-.608 1.264-1.088 2.064-1.44s1.616-.528 2.448-.528c1.216 0 2.12.416 2.712 1.248s.888 2.112.888 3.84v6.912c0 1.28-.184 2.152-.552 2.616s-1.048.696-2.04.696c-.096 0-.144.096-.144.288s.048.288.144.288c.832 0 1.504-.016 2.016-.048l2.784-.048 2.88.048c.48.032 1.136.048 1.968.048.128 0 .192-.096.192-.288s-.064-.288-.192-.288c-.992 0-1.672-.232-2.04-.696s-.552-1.336-.552-2.616v-9.216c0-2.016-.456-3.52-1.368-4.512s-2.232-1.488-3.96-1.488c-2.688 0-5.136 1.424-7.344 4.272-.192-1.376-.736-2.432-1.632-3.168s-2.096-1.104-3.6-1.104c-2.496 0-4.832 1.296-7.008 3.888-.064-1.152-.256-2.072-.576-2.76s-.656-1.032-1.008-1.032c-.032 0-.144.032-.336.096l-6.672 3.264c-.064.032-.072.128-.024.288s.12.24.216.24h.096c.992-.448 1.76-.672 2.304-.672.512 0 .888.232 1.128.696s.36 1.192.36 2.184v9.024c0 1.28-.176 2.152-.528 2.616s-1.024.696-2.016.696c-.096 0-.144.096-.144.288s.048.288.144.288zm51.752.672c.096 0 .176-.016.24-.048l6.624-3.216c.096-.032.104-.128.024-.288s-.168-.24-.264-.24h-.096c-.864.352-1.52.528-1.968.528-.48 0-.824-.224-1.032-.672s-.312-1.216-.312-2.304v-12.768c0-.128-.088-.264-.264-.408s-.344-.216-.504-.216c-.096 0-.176.016-.24.048l-6.432 3.072c-.096.032-.112.136-.048.312s.144.264.24.264h.048c.48-.224.896-.336 1.248-.336.992 0 1.488 1.04 1.488 3.12v8.208c-.576.544-1.224.968-1.944 1.272s-1.432.456-2.136.456c-2.656 0-3.984-1.728-3.984-5.184v-10.608c0-.128-.088-.264-.264-.408s-.344-.216-.504-.216l-.24.048-6.432 3.072c-.096.032-.112.136-.048.312s.16.264.288.264h.048c.448-.224.848-.336 1.2-.336.992 0 1.488 1.04 1.488 3.12v7.056c0 1.792.504 3.24 1.512 4.344s2.392 1.656 4.152 1.656c2.464 0 4.752-1.248 6.864-3.744.032 1.184.168 2.12.408 2.808s.52 1.032.84 1.032zm7.448-.672c.928 0 1.648-.016 2.16-.048l2.784-.048 2.688.048c.48.032 1.168.048 2.064.048.064 0 .096-.096.096-.288s-.032-.288-.096-.288c-.768 0-1.328-.08-1.68-.24s-.592-.472-.72-.936-.192-1.176-.192-2.136v-4.8h8.448v4.8c0 .96-.064 1.672-.192 2.136s-.376.776-.744.936-.936.24-1.704.24c-.096 0-.144.096-.144.288s.048.288.144.288c.896 0 1.6-.016 2.112-.048l2.832-.048 2.688.048c.48.032 1.168.048 2.064.048.064 0 .096-.096.096-.288s-.032-.288-.096-.288c-.768 0-1.328-.08-1.68-.24s-.592-.472-.72-.936-.192-1.176-.192-2.136v-14.448c0-.128-.088-.264-.264-.408s-.344-.216-.504-.216c-.096 0-.176.016-.24.048l-6.432 3.072c-.096.032-.112.136-.048.312s.144.264.24.264h.048c.48-.224.896-.336 1.248-.336.992 0 1.488 1.04 1.488 3.12v2.64h-8.448v-8.496c0-.128-.088-.264-.264-.408s-.344-.216-.504-.216c-.096 0-.176.016-.24.048l-6.432 3.072c-.096.032-.112.136-.048.312s.144.264.24.264h.048c.48-.224.896-.336 1.248-.336.992 0 1.488 1.04 1.488 3.12v8.592c0 .96-.064 1.672-.192 2.136s-.376.776-.744.936-.936.24-1.704.24c-.096 0-.144.096-.144.288s.048.288.144.288z"/><path d="m97.508 37.424.648-.648c.336-.336.712-.616 1.128-.84s1.008-.336 1.776-.336c1.056 0 2.32.304 3.792.912.832.288 1.48.496 1.944.624s.968.192 1.512.192c.928 0 1.776-.336 2.544-1.008s1.776-2 3.024-3.984c.032-.064.016-.144-.048-.24s-.128-.144-.192-.144l-.096.048c-.512.576-1.016 1.024-1.512 1.344s-1.176.48-2.04.48c-.64 0-1.264-.08-1.872-.24s-1.312-.4-2.112-.72c-.512-.192-1.024-.368-1.536-.528s-.976-.24-1.392-.24c-1.92 0-3.888 1.664-5.904 4.992-.032.064-.008.136.072.216s.152.12.216.12z"/></g><path d="m29.575495 13.7225987c.2713811 0 .5050777.1613467.6103957.3933462.0147196.0328798.0268976.0667012.0363887.1018112l-.0199978-.0623948c.0066303.0175081.012548.0353666.0177179.0535399.1292545.4785641.2078214.9562598.2411997 1.437433l9.7775968 4.9951339c.0291338.0145185.0572386.0310768.0840578.0495236l-.0764417-.0456172c.0356236.0181995.0689231.0391485.0997719.0624561.0194137.0145003.0380659.0300921.0558555.0466456l.0000277.0006156c.1547219.1433809.2442035.3601474.1984195.6084303-1.0359484 5.6178609-.3585016 10.6973345 1.8868369 16.3089829.6230186 1.1752448 1.1453851 2.4166009 1.5556851 3.7133183l-.3442167-.1059431c9.4326219 2.8191831 16.0248839 11.5371581 16.0248839 21.531343 0 12.4102563-10.0752337 22.48549-22.48549 22.48549-9.8718375 0-18.4985202-6.4318469-21.4251633-15.6797494l.3439013.1049465c-9.43262188-2.8191831-16.02488383-11.5371581-16.02488383-21.531343 0-3.8125274.95086657-7.4046833 2.62818596-10.5520539l-.01369264.0369981c2.24629956-5.6128407 2.92417342-10.6931253 1.88804002-16.3119894l-.00210033-.0109066c-.00217879-.0130006-.00396355-.0260226-.00535957-.0390496l.0074599.0499562c-.00758344-.0411243-.01145587-.081384-.01193538-.1205915.00067629-.0058286.00075869-.0121875.00093148-.0185388.00252178-.2168956.10956769-.3997383.2653012-.5166283.00488627-.0036211.00986936-.0072795.0149143-.0108763l.00842126-.0058955c.02681919-.0184468.05492408-.0350051.08405782-.0495236l9.77759681-4.9951339c.0333783-.4811732.1119452-.9588689.2389198-1.4285781.0007469-.0027632.0015105-.0055184.0022906-.0082655.0051592-.0187627.0110769-.0366212.0177073-.0541293.0049839-.012772.010437-.0259409.0162785-.0388722.0923756-.2037861.2831635-.3528053.5115003-.3866259l.0990077-.0072645zm7.6545451 27.9424013.0124233.0007332c-11.4410684 0-20.7698777 9.1000735-21.1384554 20.4479704l-.007008.2832964.0427201.0214513c1.2557481.5832086 2.6028903.9853757 4.0088105 1.1951383l.1384694.0184104-.0804316-.8207768c0-9.292416 7.4567297-16.855955 16.77328-17.0253185l.3257415-.0028999 1.5714033.158965c2.0710132.1790788 4.047612.7348394 5.8439815 1.6391634.0006795.0005155.0013391.0008308.0019983.0011473 5.7921682 2.7805139 9.5468304 8.6627246 9.5468304 15.2289427 0 9.4004673-7.6311502 17.0316175-17.0316175 17.0316175-6.3230248 0-12.0117711-3.4816896-14.9073554-8.9117282l-.1448305-.2771125-1.8986738-.0984297-2.2308432-.3444386-.686483-.1771317.1057168.2873864c3.0233527 7.9790916 10.6540674 13.4742419 19.3769391 13.6318457l.38553.0034811c11.6701948 0 21.14549-9.4752952 21.14549-21.14549 0-9.3922374-6.1921955-17.5868288-15.0524993-20.2426384l-1.8005006-.4668074-2.0972848-.3240837zm7.8467687 7.6133302-.0007811.0186849c-.5619992 11.5376147-9.8313113 20.8015527-21.3690279 21.3530596 2.7182495 4.79716 7.8449133 7.852766 13.5311861 7.852766 8.6604057 0 15.6916175-7.0312118 15.6916175-15.6916175 0-5.6866698-3.0560326-10.8136523-7.8529946-13.532893zm-22.4592787-22.2332528c-8.0729579 0-15.09559047 4.5342129-18.65788846 11.1926294l.03096158-.0643095c-.0135925.0339636-.02965257.0662022-.04789142.0965919-1.57683199 2.9589122-2.47067173 6.3362187-2.47067173 9.9205781 0 9.394381 6.19502228 17.5905693 15.05856623 20.2444559l1.7944336.4649899 2.1379601.3259869 2.1800401.11.3275446-.0028369c11.2757467-.1849881 20.4163702-9.2148195 20.781124-20.4491392l.0062913-.2800239-.0420042-.0206608c-1.255748-.5832086-2.6028902-.9853757-4.0088105-1.1951383l-.1401853-.0192009.0821475.8215673c0 9.292416-7.4567296 16.855955-16.7732799 17.0253185l-.3257416.0028999-1.5810883-.1598733.0096851.0009083c-2.0763627-.1795414-4.0578227-.737713-5.8578981-1.6461781l.0119182.0058674c-5.79216812-2.7805139-9.54683033-8.6627246-9.54683033-15.2289427 0-9.4004673 7.63115013-17.0316175 17.03161753-17.0316175 6.3230247 0 12.0117711 3.4816896 14.9073553 8.9117282l.1421146.275322 1.9013898.1002202 2.2308432.3444386.685767.1753412-.1050008-.2855959c-3.0233528-7.9790916-10.6540674-13.4742419-19.3769392-13.6318457zm14.6206558 20.0745283c-8.5547911 0-15.5198822 6.8607644-15.6917665 15.3105421l-.0032501.3136714.1048708 1.0381808.96949.1001848c8.554791 0 15.5198822-6.8607644 15.6917665-15.3105421l.0032501-.3136714-.1055066-1.0379713zm-14.6206558-14.6206559c-8.6604058 0-15.69161753 7.0312118-15.69161753 15.6916175 0 5.6866698 3.05603254 10.8136523 7.85299463 13.532893.5526344-11.5468492 9.8265542-20.8201511 21.3701996-21.3717622-2.7186402-4.7971423-7.8453039-7.8527483-13.5315767-7.8527483zm-16.4125301-9.7739498.01207804.089438c.47136609 3.6915731.21860184 7.2001344-.71341375 10.7992778 2.83503142-3.3266842 6.62307931-5.8172216 10.93973281-7.0489651-3.5755692-.6783562-7.31904841-2.0201912-10.0123182-3.6952549zm32.824 0-.2250188.1444958c-2.694737 1.6759762-6.440828 3.0183606-10.0187033 3.6981443 4.2910261 1.2235362 8.0939025 3.6971486 10.9468286 7.0439816-.8856958-3.4163255-1.1581119-6.7511673-.7800921-10.2384449zm-8.604032-5.5937551c-.4038694 3.4980796-2.9998693 6.9364101-6.5694097 8.608111.157457.0081728.3144856.0184252.4711228.030296.0809045-.0387034.1715185-.0615097.2674262-.0642927 4.5722933-.1326735 10.5950735-1.9535481 14.0872594-4.3552815zm-15.6148759 0-8.25639873 4.2188328c3.49218593 2.4017334 9.51496613 4.222608 14.08725943 4.3552815.0955256.0027719.1857996.0254079.2669783.0638343.1566944-.0117753.3142899-.0219971.4723175-.0305841-3.5698046-1.6703152-6.1662495-5.1089597-6.5701565-8.6073645zm14.227948-2.0692449h-3.358l1.1373329 2.0495244c.085221.1535813.106078.3331202.0609046.5000625l-.0350411.0983453-2.8925279 6.4754853c3.4034804-1.9036509 5.6150234-5.6359235 5.1191276-8.942825zm-9.47 0h-3.374l-.0288162.1805925c-.4958469 3.3065751 1.7152106 7.0384373 5.1181198 8.9422612l-2.8773822-6.4246677c-.0710319-.1586059-.0771443-.3372379-.0197441-.4985013l.0420503-.0943745zm4.579 0h-3.056l-1.3280401 2.452 2.853 6.369 2.867-6.415zm8.8788587-10.80740432.8370913 1.0463642-5.9722222 4.77777782-.8370914-1.04636425zm-20.6629087 0 5.9722222 4.77777777-.8370913 1.04636425-5.9722222-4.77777782zm11.0014543-4.25459568v8.36111111h-1.34v-8.36111111z" fill="#a0b9b6" transform="translate(234 140)"/></g></g></g></svg>