<svg height="203" viewBox="0 0 296 203" width="296" xmlns="http://www.w3.org/2000/svg"><g fill="none" fill-rule="evenodd"><path d="m296 0v203h-296v-203zm-1 1h-294v201h294z" fill="#a0b9b6" fill-rule="nonzero"/><g transform="translate(48 56)"><g fill="#021631" fill-rule="nonzero"><g><path d="m3.54789036 21c.14551894 0 .25061595-.0367213.31529104-.1101639.06467508-.0734427.13743455-.2162478.21827841-.4284153l4.89913766-14.44371588c.03233755-.04896175.02425316-.11424408-.02425315-.195847-.04850632-.08160291-.10509701-.12240437-.1697721-.12240437h-6.42708654c-.46889436 0-.78014321-.02448087-.93374654-.07344262-.15360332-.04896175-.23040499-.14688525-.23040499-.29377049 0-.0979235.00808439-.17952641.02425316-.24480875.01616877-.04896174-.02425316-.07752276-.12126578-.08568306-.09701263-.00816029-.15360333.01224044-.1697721.06120219l-.92161996 3.91693989c-.01616877.03264117-.00404219.06120219.03637974.08568306s.08488605.03672131.13339236.03672131c.06467509 0 .10509701-.02448087.12126578-.07344262.16168772-.5712204.37592393-.95883425.64270866-1.16284153.26678472-.20400729.85290268-.3386521 1.75835386-.40393443.90545119-.06528233 2.56275023-.09792349 4.97189714-.09792349.14551894 0 .17785648.05712204.09701263.17136612l-5.84501078 13.17071037c-.03233754.0816029-.02425316.1509654.02425315.2080874.04850632.0571221.12126579.0856831.21827842.0856831z"/><path d="m13.7291139 14c.4016878 0 .785654-.0886477 1.1518988-.265943.3662447-.1772954.7679324-.4622343 1.2050632-.8548168.0354431-.0253279.0413503-.0664858.0177216-.1234736s-.0590718-.0854817-.1063291-.0854817l-.0354431.018996c-.4135021.3672546-.8801688.5508819-1.4.5508819-.4371308 0-.7738396-.1234735-1.0101266-.3704206-.2362869-.2469471-.3544303-.6236997-.3544303-1.1302578v-4.65400272c.8270042.02532791 1.6126582.12030756 2.356962.28493894.0472574.01266396.0886076-.03482587.1240506-.14246947.0354431-.1076436.0531646-.21845319.0531646-.33242876 0-.11397558-.0118144-.2152872-.0354431-.30393487s-.0531645-.13297151-.0886076-.13297151c-1.0278481.11397558-1.8312236.17729534-2.4101265.1899593v-1.46268657c0-.03799186-.0413503-.05698779-.1240507-.05698779s-.1299578.01899593-.1417721.05698779c-.0945148.4559023-.3012659.81365898-.6202532 1.07327001-.3189873.25961104-.7383966.39574853-1.2582278.40841248-.0354431 0-.0531646.04432384-.0531646.13297151 0 .10131162.0177215.15196744.0531646.15196744.3898734 0 .6409282.06331976.7531645.18995929s.1683544.41157847.1683544.85481683v4.3880597c0 .5825418.1683545.9972863.5050633 1.2442334.3367089.2469471.7531646.3704206 1.2493671.3704206zm3.1012658-.2279512c.2835444 0 .5080169-.0063319.6734178-.0189959l1.0101266-.0189959.9746835.0189959c.1654008.012664.3957806.0189959.6911392.0189959.0354431 0 .0531646-.0379918.0531646-.1139755s-.0177215-.1139756-.0531646-.1139756c-.4371308 0-.7265822-.0854817-.8683544-.2564451-.1417721-.1709633-.2126582-.522388-.2126582-1.054274v-4.04613301c.2835443-.31659882.6025316-.56671189.956962-.75033921s.7029536-.27544098 1.0455696-.27544098c.5316456 0 .9244726.17412935 1.178481.52238806.2540085.34825871.3810127.8896427.3810127 1.62415197v2.92537317c0 .531886-.0679325.8833107-.2037975 1.054274-.135865.1709634-.4223628.2564451-.8594936.2564451-.0236287 0-.0354431.0379919-.0354431.1139756s.0118144.1139755.0354431.1139755c.2835443 0 .5080168-.0063319.6734177-.0189959l1.0101266-.0189959.9746835.0189959c.1654008.012664.3957806.0189959.6911392.0189959.0354431 0 .0531646-.0379918.0531646-.1139755s-.0177215-.1139756-.0531646-.1139756c-.4371308 0-.7265822-.0854817-.8683544-.2564451-.1417721-.1709633-.2126582-.522388-.2126582-1.054274v-3.66621442c0-.74717323-.1772152-1.32338309-.5316456-1.72862958-.3544304-.4052465-.8565401-.60786974-1.5063291-.60786974-.956962 0-1.8666667.53188602-2.7291139 1.59565807v-7.63636364c0-.05065581-.0206751-.09497964-.0620253-.1329715-.0413503-.03799186-.085654-.05698779-.1329114-.05698779h-.0531646l-2.3746835 1.23473541c-.0354431.01266396-.0413502.05065582-.0177216.11397558.0236287.06331977.0531646.09497965.0886076.09497965h.0354431c.307173-.16463139.5670886-.24694709.7797468-.24694709.2008439 0 .3396625.09814564.4164557.29443691.0767933.19629127.1151899.52238806.1151899.97829037v9.76390777c0 .531886-.0679325.8833107-.2037975 1.054274-.135865.1709634-.4223629.2564451-.8594937.2564451-.0236286 0-.035443.0379919-.035443.1139756s.0118144.1139755.035443.1139755z"/></g><path d="m8.426346 15.68c.0634964 0 .11508722-.0287179.15477247-.0861538.03968526-.0574359.05952788-.1189744.05952788-.1846154l.02381115-3.0769231c0-.0328205-.0476223-.0492308-.1428669-.0492308s-.14286691.0164103-.14286691.0492308c-.0158741.5415385-.18652067.931282-.51193973 1.1692308-.32541906.2379487-.90879225.3897436-1.75011957.4553846s-2.23031111.0984615-4.16695135.0984615c-.15874101 0-.19048921-.0574359-.09524461-.1723077.28573381-.3774359.84132732-1.025641 1.66678055-1.9446154.93657192-1.0502564 1.71837136-1.97333329 2.34539833-2.76923073.62702696-.79589744 1.1707149-1.67384615 1.63106381-2.63384615s.69052337-1.89948718.69052337-2.81846154c0-1.09948718-.32938758-1.98974359-.98816275-2.67076923s-1.56756741-1.02153847-2.72637674-1.02153847c-1.12706113 0-2.06760158.32410257-2.82162135.9723077-.75401976.64820513-1.2342113 1.54666666-1.44057461 2.69538461-.0158741.06564103.03968525.09846154.16667806.09846154.0634964 0 .0952446-.00820513.0952446-.02461538.23811151-.80410257.62305844-1.42769231 1.1548408-1.87076923.53178237-.44307693 1.18658901-.66461539 1.96441993-.66461539.84132732 0 1.50010248.2625641 1.9763255.78769231.47622301.5251282.71433451 1.28820513.71433451 2.28923077 0 .91897436-.21430035 1.8625641-.64290106 2.83076923s-.97625718 1.92820513-1.64296939 2.87999996c-.66671222.9517949-1.61122119 2.2153847-2.83352692 3.7907693l-1.11912408 1.4276923c-.0634964.065641-.05952788.1558974.01190557.2707692.07143346.1148718.14683543.1723077.22620594.1723077zm7.5005124.32c.9841943 0 1.8453642-.3282051 2.5835099-.9846154.7381456-.6564102 1.3056447-1.5835897 1.7024972-2.7815384.3968525-1.1979488.5952788-2.59282056.5952788-4.18461543 0-1.60820513-.1984263-3.01948718-.5952788-4.23384615-.3968525-1.21435898-.960383-2.15384616-1.6905917-2.81846154-.7302086-.66461539-1.5794729-.99692308-2.5477931-.99692308-1.0000683 0-1.8731438.32820513-2.6192265.98461539-.7460828.65641025-1.3254874 1.5876923-1.738214 2.79384615-.4127266 1.20615384-.6190899 2.6051282-.6190899 4.19692308 0 1.60820512.2023947 3.01948718.6071843 4.23384618.4047896 1.2143589.9802257 2.1497436 1.7263084 2.8061538.7460827.6564103 1.6112212.9846154 2.5954154.9846154zm.2857338-.3938462c-1.0318165 0-1.821553-.6728205-2.3692094-2.0184615-.5476565-1.345641-.8214847-3.2738461-.8214847-5.78461538 0-2.37948718.2262059-4.20923077.6786178-5.48923077.4524118-1.28 1.1230926-1.92 2.0120422-1.92.952446 0 1.7024972.66051282 2.2501537 1.98153847.5476565 1.32102564.8214847 3.31076923.8214847 5.96923076 0 4.84102562-.8572014 7.26153842-2.5716043 7.26153842zm14.7629134.0738462c.0634964 0 .1150872-.0287179.1547725-.0861538.0396852-.0574359.0595279-.1189744.0595279-.1846154l.0238111-3.0769231c0-.0328205-.0476223-.0492308-.1428669-.0492308s-.1428669.0164103-.1428669.0492308c-.0158741.5415385-.1865207.931282-.5119397 1.1692308-.3254191.2379487-.9087923.3897436-1.7501196.4553846s-2.2303111.0984615-4.1669514.0984615c-.158741 0-.1904892-.0574359-.0952446-.1723077.2857338-.3774359.8413274-1.025641 1.6667806-1.9446154.9365719-1.0502564 1.7183713-1.97333329 2.3453983-2.76923073s1.1707149-1.67384615 1.6310638-2.63384615.6905234-1.89948718.6905234-2.81846154c0-1.09948718-.3293876-1.98974359-.9881628-2.67076923-.6587751-.68102564-1.5675674-1.02153847-2.7263767-1.02153847-1.1270611 0-2.0676016.32410257-2.8216213.9723077-.7540198.64820513-1.2342113 1.54666666-1.4405747 2.69538461-.0158741.06564103.0396853.09846154.1666781.09846154.0634964 0 .0952446-.00820513.0952446-.02461538.2381115-.80410257.6230584-1.42769231 1.1548408-1.87076923.5317824-.44307693 1.186589-.66461539 1.9644199-.66461539.8413274 0 1.5001025.2625641 1.9763255.78769231.476223.5251282.7143345 1.28820513.7143345 2.28923077 0 .91897436-.2143003 1.8625641-.642901 2.83076923s-.9762572 1.92820513-1.6429694 2.87999996c-.6667122.9517949-1.6112212 2.2153847-2.8335269 3.7907693l-1.1191241 1.4276923c-.0634964.065641-.0595279.1558974.0119056.2707692.0714334.1148718.1468354.1723077.2262059.1723077zm3.000205 0c.6190899 0 1.111187-.0082051 1.4762913-.0246154l2.0239478-.0246154 2.0239478.0246154c.3651043.0164103.8492644.0246154 1.4524802.0246154.0317482 0 .0476223-.0492308.0476223-.1476923s-.0158741-.1476923-.0476223-.1476923c-.7619568 0-1.3215189-.0410257-1.6786861-.1230769-.3571673-.0820513-.6032158-.2420513-.7381457-.48-.1349298-.2379488-.2023948-.603077-.2023948-1.0953847v-13.46461534c0-.04923077-.0158741-.09025641-.0476223-.12307692s-.0634964-.04923077-.0952446-.04923077c-.0476223 0-.1031816.02461538-.166678.07384615l-4.262196 3.22461539c-.0476223.03282051-.0555593.08615384-.0238111.16.0317482.07384615.0793705.11076923.1428669.11076923l.0476223-.02461539c.952446-.70564102 1.6112212-1.05846153 1.9763255-1.05846153.4603489 0 .6905233.49230769.6905233 1.47692307v9.67384611c0 .4923077-.0754019.8533334-.2262059 1.083077-.1508039.2297436-.4047895.3897436-.7619568.48s-.9008552.1353846-1.6310638.1353846c-.0317482 0-.0476223.0492308-.0476223.1476923s.0158741.1476923.0476223.1476923z" transform="translate(160 6)"/><path d="m77.0492266 21.2551824c.0640347 0 .096052-.0480058.096052-.1440174s-.0320173-.1440175-.096052-.1440175c-.4802599 0-.9124938-.2080252-1.2967017-.6240756s-.8484592-1.2081465-1.3927537-2.376288l-5.7871319-11.88144022c-.0160087-.06400776-.072039-.09201115-.168091-.08401019-.0960519.00800097-.1520823.03600437-.1680909.08401019l-5.114768 11.78542852c-.3681993.8481028-.6963769 1.4881804-.9845328 1.9202328-.288156.4320523-.5883184.7360892-.9004873.9121105-.312169.1760214-.6923747.264032-1.1406173.264032-.0640347 0-.096052.0480059-.096052.1440175s.0320173.1440174.096052.1440174c.3201733 0 .7363985-.0160019 1.2486757-.0480058.5763119-.0320039 1.0725805-.0480058 1.4888057-.0480058.4482426 0 .9765285.0160019 1.5848577.0480058.5442946.0320039.9605198.0480058 1.2486758.0480058.0800433 0 .120065-.0480058.120065-.1440174s-.0400217-.1440175-.120065-.1440175c-1.5528404 0-2.3292606-.520063-2.3292606-1.5601891 0-.3520427.1120607-.792096.336182-1.32016l1.9690656-4.5365499h4.4183911l2.6894555 5.568675c.2401299.4800582.3601949.8561038.3601949 1.1281367 0 .272033-.120065.4600558-.3601949.5640684-.24013.1040126-.6323422.1560189-1.1766368.1560189-.0640346 0-.096052.0480059-.096052.1440175s.0320174.1440174.096052.1440174c.2721473 0 .6803682-.0160019 1.2246628-.0480058.5442945-.0320039 1.0005414-.0480058 1.3687407-.0480058.3041646 0 .7764202.0160019 1.4167667.0480058.6723639.0320039 1.1606281.0480058 1.4647927.0480058zm-7.2519245-8.2570008h-3.9381313l1.8730137-4.3205237zm16.0646938 8.5210329c.048026 0 .0880477-.008001.120065-.024003l2.9776114-1.4161716c.048026-.0320039.0560303-.0840102.024013-.1560189-.0320173-.0720088-.0800433-.1080131-.144078-.1080131h-.024013c-.5282859.2240271-.9204981.3360407-1.1766367.3360407-.288156 0-.4922664-.1200145-.6123314-.3600436s-.1800975-.6320766-.1800975-1.1761426v-6.6008001c0-.0640077-.0320173-.1200145-.096052-.1680204-.0640346-.0480058-.1280693-.0720087-.1921039-.0720087l-.096052.0240029-2.8335335 1.32016c-.0480259.016002-.0640346.0640078-.0480259.1440175.0160086.0800097.0480259.1200145.0960519.1200145h.048026c.3041646-.1280155.5603032-.1920232.7684159-.1920232.2561386 0 .4402382.132016.5522989.396048.1120606.264032.1680909.7000848.1680909 1.3081585v4.1525034c-.3842079.4000485-.8164418.7120863-1.2967017.9361134-.4802599.2240272-.9445112.3360408-1.3927537.3360408-1.3447278 0-2.0170916-.9041096-2.0170916-2.7123288v-5.5926779c0-.0640077-.0320174-.1200145-.096052-.1680204-.0640347-.0480058-.1280693-.0720087-.192104-.0720087l-.096052.0240029-2.8335334 1.32016c-.048026.016002-.0600325.0640078-.0360195.1440175s.0600325.1200145.1080585.1200145h.048026c.2721472-.1280155.5202815-.1920232.7444028-.1920232.2561386 0 .4402383.132016.5522989.396048.1120607.264032.168091.7000848.168091 1.3081585v3.6244394c0 .9281125.2361278 1.6522002.7083833 2.1722633.4722556.520063 1.1166043.7800945 1.9330462.7800945 1.280693 0 2.5133601-.6640805 3.6980012-1.9922415 0 .6080738.072039 1.1001334.216117 1.476179s.2881559.5640684.4322339.5640684zm7.8522495 6.4807855c1.5368317 0 2.7374814-.4640562 3.6019492-1.3921687.8644679-.9281125 1.2967018-2.1522609 1.2967018-3.6724452v-11.1133471c0-.0160019-.0200108-.0360043-.0600325-.0600072s-.0760411-.0360044-.1080585-.0360044c-.0320173 0-.0560303.008001-.072039.0240029-.1760953.256031-.4242295.4640563-.7444028.6240757-.7043812-.4640563-1.4808014-.6960844-2.3292606-.6960844-.8804764 0-1.7409421.2280276-2.5813969.6840829-.8404549.4560553-1.5288274 1.1161353-2.0651176 1.98024-.5362903.8641048-.8044354 1.872227-.8044354 3.0243666 0 1.3121591.336182 2.3322827 1.0085458 3.060371.6723639.7280882 1.5048144 1.0921324 2.4973515 1.0921324.6883726 0 1.3247169-.1680204 1.9090332-.5040611.5843162-.3360408 1.1566259-.7920961 1.7169291-1.3681659v3.8644684c0 1.5201843-.2081126 2.5643109-.6243379 3.1323797-.4162252.5680689-.9845328.8521033-1.7049226.8521033-.5763119 0-1.0085458-.1080131-1.2967018-.3240393-.2881559-.2160262-.5763119-.5400654-.8644678-.9721178-.192104-.3200388-.3762036-.5560674-.5522989-.7080858-.1760953-.1520185-.4082209-.2280277-.6963769-.2280277-.2401299 0-.4482425.0760092-.6243378.2280277-.1760953.1520184-.264143.388047-.264143.7080858 0 .5440659.312169.9801188.9365068 1.3081586.6243379.3280397 1.4327754.4920596 2.4253126.4920596zm.5763118-7.4409019c-.8004331 0-1.4287732-.3560432-1.8850201-1.0681295s-.6843704-1.6682022-.6843704-2.8683477c0-1.312159.2721473-2.384289.8164419-3.2163898.5442945-.8321009 1.2646844-1.2481513 2.1611696-1.2481513.6243378 0 1.1606281.2000242 1.6088706.6000727.4482426.4000485.6723639.8961086.6723639 1.4881804v4.9926052c-.9445111.8801066-1.8409963 1.32016-2.6894555 1.32016zm14.7199658.9601164c.048026 0 .088048-.008001.120065-.024003l2.977612-1.4161716c.048026-.0320039.05603-.0840102.024013-.1560189-.032018-.0720088-.080044-.1080131-.144078-.1080131h-.024013c-.528286.2240271-.920498.3360407-1.176637.3360407-.288156 0-.492266-.1200145-.612331-.3600436s-.180098-.6320766-.180098-1.1761426v-6.6008001c0-.0640077-.032017-.1200145-.096052-.1680204-.064034-.0480058-.128069-.0720087-.192104-.0720087l-.096052.0240029-2.833533 1.32016c-.048026.016002-.064035.0640078-.048026.1440175.016008.0800097.048026.1200145.096052.1200145h.048026c.304164-.1280155.560303-.1920232.768416-.1920232.256138 0 .440238.132016.552299.396048.11206.264032.16809.7000848.16809 1.3081585v4.1525034c-.384207.4000485-.816441.7120863-1.296701.9361134-.48026.2240272-.944511.3360408-1.392754.3360408-1.344728 0-2.017092-.9041096-2.017092-2.7123288v-5.5926779c0-.0640077-.032017-.1200145-.096052-.1680204-.064034-.0480058-.128069-.0720087-.192104-.0720087l-.096052.0240029-2.833533 1.32016c-.048026.016002-.060032.0640078-.036019.1440175s.060032.1200145.108058.1200145h.048026c.272147-.1280155.520282-.1920232.744403-.1920232.256138 0 .440238.132016.552299.396048.11206.264032.168091.7000848.168091 1.3081585v3.6244394c0 .9281125.236128 1.6522002.708383 2.1722633.472256.520063 1.116604.7800945 1.933046.7800945 1.280693 0 2.51336-.6640805 3.698001-1.9922415 0 .6080738.072039 1.1001334.216117 1.476179s.288156.5640684.432234.5640684zm6.795678 0c1.07258 0 1.917037-.2920354 2.533371-.8761062s.9245-1.2841557.9245-2.1002546c0-.4960601-.11206-.9121106-.336182-1.2481513-.224121-.3360407-.492266-.6120742-.804435-.8281004s-.756409-.4760577-1.332721-.7800945c-.672364-.3520427-1.188643-.6960844-1.548838-1.0321252-.360195-.3360407-.540293-.7680931-.540293-1.2961571 0-.4160504.108059-.7160868.324176-.9001091s.508275-.2760334.876474-.2760334c.400217 0 .796431.1000121 1.188643.3000363.392213.2000243.716388.4600558.972527.7800946.256138.3200388.384207.6400776.384207.9601164 0 .0320039.048026.0480058.144078.0480058s.144078-.0160019.144078-.0480058l.024013-1.0801309c.016009-.1920233.024013-.4640563.024013-.816099 0-.1280155-.072039-.2160262-.216117-.264032-.59232-.2400291-1.200649-.3600436-1.824987-.3600436-.912494 0-1.696919.2280276-2.353274.6840829s-.984533 1.1321372-.984533 2.0282459c0 .512062.108059.9361134.324176 1.2721542.216117.3360407.48026.6080737.792429.8160989s.732396.4400533 1.260682.6960844c.48026.256031.860466.4760577 1.140617.66008.280152.1840223.51628.4320523.708384.7440902.192104.3120378.288156.6920838.288156 1.1401382 0 .4320523-.124068.7600921-.372202.9841192-.248134.2240272-.596323.3360408-1.044565.3360408-.640347 0-1.220661-.2320282-1.740942-.6960844-.520282-.4640563-.924501-1.0961329-1.212657-1.8962298-.016008-.0480059-.068036-.0680083-.156084-.0600073-.088048.0080009-.132071.0360043-.132071.0840102l.048025 2.0402473c0 .0960116.048026.1920232.144078.2880349.736399.4640562 1.520824.6960844 2.353274.6960844zm8.956847.0240029c.544295 0 1.064576-.1120136 1.560845-.3360408.496268-.2240271 1.040563-.5840708 1.632884-1.0801309.048026-.0320039.05603-.0840102.024013-.1560189-.032018-.0720087-.080044-.1080131-.144078-.1080131l-.048026.0240029c-.560304.4640563-1.192646.6960844-1.897027.6960844-.592321 0-1.048567-.1560189-1.368741-.4680568-.320173-.3120378-.48026-.7880955-.48026-1.4281731v-5.8807128c1.120607.0320039 2.185183.1520184 3.193729.3600437.064034.0160019.120065-.0440054.168091-.1800219.048026-.1360164.072039-.2760334.072039-.4200509 0-.1440174-.016009-.2720329-.048026-.3840465-.032018-.1120136-.072039-.1680204-.120065-.1680204-1.392754.1440175-2.481343.2240272-3.265768.2400291v-1.848224c0-.0480058-.05603-.0720088-.168091-.0720088-.11206 0-.176095.024003-.192104.0720088-.128069.5760698-.40822 1.0281246-.840454 1.3561644-.432234.3280397-1.000542.5000606-1.704923.5160625-.048026 0-.072039.0560068-.072039.1680204 0 .1280155.024013.1920233.072039.1920233.528286 0 .86847.0800097 1.020552.2400291.152083.1600193.228124.520063.228124 1.0801309v5.5446721c0 .7360892.228123 1.2601527.68437 1.5721905s1.020552.4680568 1.692916.4680568z"/></g><path d="m49.5.5-11.5 23" stroke="#a0b9b6"/><path d="m150 .5-11.5 23" stroke="#a0b9b6"/></g><g transform="translate(23 100)"><g stroke="#a0b9b6" stroke-width="1.34" transform="translate(97)"><g stroke-linecap="round" stroke-linejoin="round"><path d="m2.53633378 28.5548833c1.55481287-3.8850192 2.31370004-7.8735047 1.44933359-12.5608911 2.74648716 2.2577397 8.00313953 3.7622284 11.54112393 3.8648896"/><path d="m11.550786 12.129103-7.565119 3.864889"/><path d="m31.5230056 28.5548833c-1.5548129-3.8850192-2.3137-7.8735047-1.4493336-12.5608911-2.7464872 2.2577397-8.0031396 3.7622284-11.5411239 3.8648896"/><path d="m22.508553 12.129103 7.565119 3.864889"/><path d="m15.8392032 48.4836228 1.1904665.1203752c6.7993875 0 12.3193355-5.519948 12.3193355-12.3193355l-.1203752-1.1904665c1.5085147.13044 2.9369135.5362534 4.2268204 1.1872457 0 9.0688024-7.3601991 16.4290015-16.4257807 16.4290015"/><path d="m12.3096733 52.0131527c-6.76879047-2.0230282-11.7057843-8.3038763-11.7057843-15.7284902 0-9.0655816 7.36019908-16.4257807 16.4257807-16.4257807 7.4246139 0 13.705462 4.9369938 15.7284902 11.7057843l-1.4114899-.3631386c-.5430975-.0833367-1.0865976-.1662708-1.6300977-.2492049l-1.6751881-.084947c-1.9662625-4.0959778-6.1636937-6.9020487-11.0117145-6.9020487-6.7993875 0-12.31933553 5.5199481-12.31933553 12.3193356 0 4.8480208 2.80607087 9.0454519 6.90204863 11.0117145"/><path d="m32.7581599 31.5646661c6.7687904 2.0230281 11.7057843 8.3038763 11.7057843 15.7284902 0 9.0655816-7.3601991 16.4257807-16.4257807 16.4257807-7.4246139 0-13.7054621-4.9369939-15.7284902-11.7057843l1.4114899.3631385c.5430975.0833367 1.0865976.1662708 1.6300977.2492049l1.675188.0849471c1.9662626 4.0959777 6.1636937 6.9020486 11.0117146 6.9020486 6.7993875 0 12.3193355-5.519948 12.3193355-12.3193355 0-4.8480209-2.8060709-9.045452-6.9020486-11.0117146"/><path d="m29.22863 35.094196-1.1904665-.1203753c-6.7993875 0-12.3193355 5.5199481-12.3193355 12.3193356l.1203752 1.1904665c-1.5085147-.13044-2.9369135-.5362535-4.2268204-1.1872458v-.0032207c0-9.0655816 7.3601991-16.4257807 16.4257807-16.4257807h.0032207"/><path d="m22.268608 10.8367802h-10.4778766c-.8981843 3.3225972 1.7106162 7.1262927 5.2389383 8.3819792 3.5283221-1.2556865 6.1371226-5.059382 5.2389383-8.3819792z"/><path d="m22.268608 10.83678h-10.477877"/></g><path d="m25.181699 7.194771-4.496732-3.597385" transform="matrix(1 0 0 -1 0 10.792156)"/><path d="m13.490196 7.194771-4.496732-3.597385" transform="matrix(-1 0 0 -1 22.48366 10.792156)"/><path d="m17.087582 6.295425v-6.295425" transform="matrix(-1 0 0 -1 34.175164 6.295424)"/><path d="m15.5803361 10.8367802-1.2613228 2.3294011 2.7106564 6.0525781 2.7211238-6.0900192-1.2717902-2.29196" stroke-linecap="round" stroke-linejoin="round"/></g><g fill="#021631" fill-rule="nonzero"><path d="m2.98385062 50c2.28993187 0 4.07677265-.7266436 5.36052233-2.1799308s1.92562455-3.4717416 1.92562455-6.0553633v-18.8927336c0-.6920415.0462612-1.2053056.1387837-1.5397924.0925225-.3344867.2833502-.5709342.572483-.7093425s.7343973-.2076125 1.3357936-.2076125c.0693919 0 .1040878-.0692041.1040878-.2076124s-.0346959-.2076125-.1040878-.2076125l-1.6307091.0346021c-.97148622.0461361-1.7810581.0692041-2.42871559.0692041-.67078813 0-1.56131719-.023068-2.67158719-.0692041l-2.15114812-.0346021c-.04626125 0-.06939187.0692042-.06939187.2076125s.02313062.2076124.06939187.2076124c.85583313 0 1.48036.0634372 1.87358063.1903114.39322062.1268743.66500546.3517878.81535452.6747405.15034907.3229527.2255236.8304498.2255236 1.5224914v21.384083c0 1.822376-.11565313 3.1257209-.34695938 3.9100346s-.58983093 1.1764706-1.07557406 1.1764706c-.20817562 0-.38165531-.0980392-.52043906-.2941176-.13878375-.1960785-.2775675-.4786621-.41635125-.8477509-.25443687-.6228374-.53778703-1.1072664-.85005046-1.4532872-.31226344-.3460208-.75752797-.5190311-1.33579359-.5190311-.60139625 0-1.05244344.1787773-1.35314156.5363321-.30069813.3575548-.45104719.7670127-.45104719 1.2283737 0 .6459055.2775675 1.1534026.8327025 1.5224914s1.27218437.5536332 2.15114812.5536332zm22.79523088-7.8892734c.0693919 0 .1272184-.011534.1734797-.034602l4.7880394-2.3183391c.0693918-.0230681.0751745-.0922722.0173479-.2076125-.0578265-.1153402-.1214358-.1730104-.1908276-.1730104h-.0693919c-.6476575.2537486-1.1218353.3806229-1.4225334.3806229-.3469594 0-.5956136-.1441754-.7459627-.432526s-.2255236-.7785467-.2255236-1.4705882v-9.8615917c0-.0461361-.0289133-.0865052-.0867398-.1211073-.0578266-.0346021-.1098705-.0519031-.1561318-.0519031-.0462612 0-.0809571.011534-.1040878.0346021-.37009.3690888-.8211371.6689735-1.3531415.899654-.9946169-.5997694-2.1164522-.899654-3.365506-.899654-1.4340987 0-2.7756749.3229527-4.0247287.9688581-1.2490537.6459054-2.2552359 1.5859285-3.0185465 2.8200692-.7633107 1.2341407-1.144966 2.6701269-1.144966 4.3079585 0 1.2918108.2313063 2.3990773.6939188 3.3217993s1.092922 1.6205306 1.8909286 2.0934256c.7980065.472895 1.6711876.7093426 2.6195432.7093426.925225 0 1.7694928-.2018455 2.5328035-.6055364.7633106-.4036909 1.5266212-.9630911 2.2899318-1.6782007.0462613.7151096.1561317 1.2802769.3296114 1.6955018s.3643074.6228373.572483.6228373zm-3.9553369-1.8685121c-1.0871393 0-1.9256245-.478662-2.5154554-1.4359861-.589831-.9573241-.8847464-2.3010381-.8847464-4.0311419 0-1.822376.3296114-3.3102653.9888342-4.4636678.6592228-1.1534026 1.5670998-1.7301038 2.7236311-1.7301038.8095718 0 1.463012.2883506 1.9603204.8650519.4973085.5767013.7459627 1.3148789.7459627 2.2145329v7.4740484c-1.0871394.7381776-2.0933216 1.1072664-3.0185466 1.1072664zm10.2699975 1.3840831c.6013963 0 1.0755741-.011534 1.4225334-.0346021l2.0470604-.0346021 2.0817562.0346021c.3469594.0230681.8211372.0346021 1.4225334.0346021.0693919 0 .1040878-.0692042.1040878-.2076125s-.0346959-.2076124-.1040878-.2076124c-.7170493 0-1.2085751-.1672434-1.4745773-.5017301-.2660022-.3344868-.3990033-.9630912-.3990033-1.8858132v-7.3702422c.4394819-.3921569.9541383-.7035756 1.5439692-.9342561.589831-.2306805 1.1623139-.3460207 1.7174489-.3460207.9714863 0 1.682753.2998846 2.1338002.899654.4510472.5997693.6765708 1.5224913.6765708 2.768166v4.982699c0 .922722-.1272185 1.5513264-.3816553 1.8858132-.2544369.3344867-.74018.5017301-1.4572294.5017301-.0693919 0-.1040878.0692041-.1040878.2076124s.0346959.2076125.1040878.2076125c.6013962 0 1.0871394-.011534 1.4572294-.0346021l2.0123643-.0346021 2.0817563.0346021c.3469593.0230681.8211372.0346021 1.4225334.0346021.0693919 0 .1040878-.0692042.1040878-.2076125s-.0346959-.2076124-.1040878-.2076124c-.7170494 0-1.2085752-.1672434-1.4745773-.5017301-.2660022-.3344868-.3990033-.9630912-.3990033-1.8858132v-6.6435986c0-1.2918108-.3643074-2.3356401-1.092922-3.1314879-.7286147-.7958477-1.7174489-1.1937716-2.9665027-1.1937716-1.9198419 0-3.6777694.9457901-5.2737825 2.8373702-.0462612-.8535179-.185045-1.5282583-.4163512-2.0242214-.2313063-.4959631-.4741778-.7439447-.7286147-.7439447-.0231306 0-.1040878.0230681-.2428716.0692042l-4.8227353 2.3529412c-.0462612.023068-.0520439.0922722-.017348.2076124.034696.1153403.0867399.1730104.1561318.1730104h.0693918c.7170494-.3229527 1.2721844-.4844291 1.665405-.4844291.37009 0 .6418749.1672434.8153546.5017301.1734797.3344868.2602195.8592849.2602195 1.5743945v6.5051903c0 .922722-.1272184 1.5513264-.3816553 1.8858132-.2544369.3344867-.74018.5017301-1.4572294.5017301-.0693919 0-.1040878.0692041-.1040878.2076124s.0346959.2076125.1040878.2076125zm25.0504668.4152249c1.0408782 0 2.0007991-.1845444 2.8797628-.5536332.8789638-.3690888 1.7463622-.9688582 2.6021953-1.799308.0462613-.0461361.0404786-.1153402-.0173479-.2076124-.0578266-.0922722-.1098705-.1384083-.1561317-.1384083l-.0693919.034602c-.5088738.3229527-1.0755741.5651673-1.700101.7266436-.6245268.1614764-1.2259231.2422146-1.8041887.2422146-1.6422744 0-2.9318067-.5767013-3.868597-1.7301038-.9367903-1.1534026-1.4051855-2.72203-1.4051855-4.7058824 0-.5305652.034696-1.0149942.1040878-1.4532872l6.2452688-.0692041h2.1164521c.2544369 0 .3816554-.3344868.3816554-1.0034603 0-1.0611303-.3816554-1.8973471-1.144966-2.5086505-.7633106-.6113033-1.8620153-.916955-3.296114-.916955-1.48036 0-2.8219363.3287197-4.0247288.9861592-1.2027925.6574394-2.1511481 1.5570934-2.8450668 2.6989619-.6939188 1.1418685-1.0408782 2.3817763-1.0408782 3.7197232 0 1.1764706.2775675 2.27797.8327025 3.3044983.555135 1.0265282 1.3647069 1.845444 2.4287157 2.4567474 1.0640087.6113033 2.3246278.916955 3.7818571.916955zm-3.33081-10.2768166c.2313063-.9688581.6013963-1.7301038 1.11027-2.283737.5088738-.5536333 1.11027-.8304499 1.8041888-.8304499 1.2721844 0 1.9429725 1.0034602 2.0123644 3.0103807zm16.0642191 10.2768166c.9020943 0 1.7579275-.2018455 2.5674993-.6055363.8095719-.4036909 1.6422744-1.0322953 2.4981075-1.8858132.0693919-.0461361.0751746-.1153402.017348-.2076124s-.1330011-.1384084-.2255236-.1384084l-.0693919.0346021c-.8789637.6920415-1.7810581 1.0380623-2.7062831 1.0380623-.74018 0-1.3357936-.2076124-1.7868408-.6228374-.4510472-.4152249-.6765707-1.0611303-.6765707-1.9377162v-8.2006921c1.4109681.0230681 2.8681974.1960785 4.3716881.5190312.0925225.023068.1792623-.0749712.2602195-.2941177s.1214358-.4440599.1214358-.6747405c0-.2076124-.0289133-.3979238-.0867399-.5709342-.0578265-.1730104-.1098704-.2595156-.1561317-.2595156-1.665405.1845444-3.1688956.2883507-4.5104718.3114187v-2.7681661c0-.0922722-.0751746-.1384083-.2255236-.1384083-.1503491 0-.2486543.0461361-.2949155.1384083-.3932206.9457901-.9541383 1.6493656-1.682753 2.1107267-.7286147.461361-1.6827529.7151095-2.8624148.7612456-.0462613 0-.0809572.0288351-.1040878.0865052s-.034696.1326413-.034696.2249135c0 .0692042.017348.1384083.0520439.2076125.034696.0692041.0636093.1038062.0867399.1038062.6707881 0 1.1334006.1384083 1.3878375.4152249s.3816553.7727797.3816553 1.4878893v7.6816609c0 1.1534025.3585247 1.9723183 1.0755741 2.4567474.7170493.4844291 1.5844478.7266436 2.6021953.7266436z"/><path d="m156.104515 41.5179969c.627088 0 1.126437-.0114763 1.498045-.0344288l2.194809-.0344288 1.916104.0344288c.348383.0229525.836118.0344288 1.463207.0344288.069676 0 .104514-.0688576.104514-.2065728s-.034838-.2065728-.104514-.2065728c-.952246 0-1.689655-.3500261-2.212229-1.0500782-.522574-.7000522-.772248-1.6697966-.749023-2.9092332l.278706-12.428795 8.814078 16.5602504c.046451.0918101.139353.1377152.278706.1377152s.232255-.0459051.278706-.1377152l7.17668-16.629108.731603 14.0813772.034838.5852895c0 .734481-.174191 1.2164841-.522574 1.4460094-.348382.2295253-1.010309.3442879-1.98578.3442879-.069676 0-.104515.0688576-.104515.2065728s.034839.2065728.104515.2065728c.766442 0 1.370305-.0114763 1.811589-.0344288l2.612869-.0344288 2.57803.0344288c.464511.0229525 1.091599.0344288 1.881266.0344288.046451 0 .069677-.0688576.069677-.2065728s-.023226-.2065728-.069677-.2065728c-.71999 0-1.248371-.0573813-1.58514-.1721439-.33677-.1147627-.569025-.3328117-.696765-.6541471-.127741-.3213355-.214836-.8377674-.261287-1.5492958l-.836118-15.630673c-.046451-.9181012.174191-1.5952008.661926-2.0312989.487736-.436098 1.277403-.6541471 2.369002-.6541471.069676 0 .104514-.0688576.104514-.2065727 0-.1377152-.034838-.2065728-.104514-.2065728-.603863 0-1.068373.0114763-1.393531.0344288l-2.055456.0344288c-.348383 0-.656121-.0114763-.923214-.0344288s-.505155-.0344288-.714184-.0344288c-.255481 0-.458704.0631195-.60967.1893584-.150965.1262389-.296125.3500261-.435478.6713615l-6.619267 15.0109546-7.594739-14.0813772c-.441285-.780386-.743216-1.2738654-.905795-1.4804381-.162578-.2065728-.394833-.3098592-.696765-.3098592-.325157 0-.59225.0114763-.801279.0344288l-1.846428.0344288c-.510961 0-.92902-.0114763-1.254177-.0344288l-1.637397-.0344288c-.069677 0-.104515.0688576-.104515.2065728 0 .1377151.034838.2065727.104515.2065727.650314 0 1.225145.1950965 1.724493.5852896.499348.390193.981277 1.0099113 1.445787 1.8591549l.034839.0344288-.313545 14.2535211c-.023225 1.2164841-.313544 2.1804904-.870956 2.8920188s-1.312241 1.0672926-2.264486 1.0672926c-.069677 0-.104515.0688576-.104515.2065728s.034838.2065728.104515.2065728zm41.004621.4820031c.069677 0 .12774-.0114763.174191-.0344288l4.807679-2.3067293c.069677-.0229525.075483-.0918101.017419-.2065727-.058064-.1147627-.121934-.172144-.19161-.172144h-.069677c-.650314.2524778-1.126436.3787167-1.428368.3787167-.348383 0-.598057-.1434533-.749022-.4303599-.150966-.2869066-.226449-.7746479-.226449-1.4632238v-9.8122066c0-.045905-.029032-.0860719-.087096-.1205007-.058063-.0344288-.110321-.0516432-.156772-.0516432s-.081289.0114762-.104515.0344288c-.371608.3672404-.824505.6656233-1.358691.8951486-.998697-.5967657-2.125134-.8951486-3.379311-.8951486-1.439981 0-2.78706.3213354-4.041237.9640062-1.254177.6426709-2.264486 1.5779865-3.030928 2.8059468-.766441 1.2279604-1.149662 2.6567554-1.149662 4.286385 0 1.2853417.232255 2.3870631.696765 3.3051643s1.097405 1.6124152 1.898685 2.0829421 1.678042.7057903 2.630288.7057903c.92902 0 1.776751-.2008346 2.543192-.6025039.766442-.4016693 1.532883-.9582681 2.299325-1.6697966.046451.7115285.156772 1.2738655.330963 1.687011s.365802.6197183.574831.6197183zm-3.97156-1.8591549c-1.091599 0-1.933523-.476265-2.525774-1.428795-.59225-.95253-.888375-2.2895149-.888375-4.0109546 0-1.8132499.330963-3.2936881.99289-4.4413146s1.573528-1.7214397 2.734803-1.7214397c.812892 0 1.469013.2869066 1.968361.8607198.499348.5738133.749022 1.3082942.749022 2.2034429v7.4366197c-1.091598.734481-2.101907 1.1017215-3.030927 1.1017215zm10.312122 1.3771518c.603863 0 1.079986-.0114763 1.428368-.0344288l2.055457-.0344288 2.821898.0344288c.46451.0229525 1.103212.0344288 1.916104.0344288.092902 0 .139353-.0688576.139353-.2065728s-.046451-.2065728-.139353-.2065728c-1.1845 0-1.997393-.1664058-2.438678-.4992175-.441284-.3328117-.661926-.9582681-.661926-1.8763693v-7.4021909c.557412-.5508608.969664-.9123631 1.236758-1.0845071.267093-.172144.516767-.258216.749022-.258216.20903 0 .389027.0516432.539993.1549296s.330963.2696923.539993.4992176c.232255.2754303.458703.4820031.679346.6197183.220642.1377151.505154.2065727.853537.2065727.487735 0 .882569-.1549295 1.1845-.4647887.301932-.3098592.452898-.7057903.452898-1.1877934 0-.5279082-.249674-.9812207-.749023-1.3599374-.499348-.3787168-1.016115-.5680751-1.550302-.5680751-.46451 0-1.004503.1950965-1.619979.5852895-.615475.390193-1.399336 1.0672926-2.351582 2.0312989-.046451-.8033386-.179997-1.4402713-.400639-1.9107981-.220643-.4705269-.458704-.7057903-.714185-.7057903-.023225 0-.104514.0229525-.243867.0688575l-4.842517 2.3411581c-.046451.0229525-.052258.0918101-.017419.2065728.034838.1147626.087095.1721439.156772.1721439h.069676c.719991-.3213354 1.277403-.4820031 1.672236-.4820031.371608 0 .644508.1664059.818699.4992175.174192.3328117.261287.8549818.261287 1.5665102v6.4726135c0 .9181012-.12774 1.5435576-.383221 1.8763693-.25548.3328117-.743216.4992175-1.463206.4992175-.069677 0-.104515.0688576-.104515.2065728s.034838.2065728.104515.2065728zm18.255243.4131455c.905795 0 1.765138-.2008346 2.578031-.6025039.812892-.4016693 1.64901-1.0271257 2.508354-1.8763693.069676-.0459051.075483-.1147627.017419-.2065728s-.133547-.1377152-.226449-.1377152l-.069676.0344288c-.882569.6885759-1.788364 1.0328639-2.717384 1.0328639-.743216 0-1.341272-.2065728-1.79417-.6197183-.452897-.4131456-.679345-1.0558164-.679345-1.9280126v-8.1596244c1.416755.0229526 2.879962.1950965 4.389619.5164319.092902.0229526.179998-.0745957.261287-.2926447s.121934-.4418362.121934-.6713615c0-.2065728-.029032-.3959312-.087096-.5680751-.058063-.172144-.110321-.258216-.156772-.258216-1.672236.1836202-3.181893.2869066-4.528972.3098592v-2.7543036c0-.0918102-.075483-.1377152-.226449-.1377152s-.249674.045905-.296125.1377152c-.394834.9410537-.958052 1.6411059-1.689655 2.1001565-.731604.4590506-1.689656.7115284-2.874156.7574334-.046451 0-.081289.0286907-.104515.086072-.023225.0573814-.034838.1319771-.034838.2237872 0 .0688576.017419.1377152.052257.2065728.034839.0688576.06387.1032864.087096.1032864.673539 0 1.138049.1377151 1.39353.4131455.25548.2754304.383221.7689098.383221 1.4804382v7.6431925c0 1.1476265.359995 1.9624413 1.079986 2.4444444.71999.4820031 1.590946.7230047 2.612868.7230047zm9.998578-17.4553991c.650314 0 1.149663-.1836202 1.498045-.5508607.348383-.3672405.522574-.8836724.522574-1.5492957 0-.6197184-.174191-1.1017215-.522574-1.4460094-.348382-.344288-.847731-.516432-1.498045-.516432s-1.167081.1778821-1.550302.5336464c-.383221.3557642-.574831.8320292-.574831 1.428795 0 .6656233.185804 1.1820552.557412 1.5492957s.894182.5508607 1.567721.5508607zm-3.344472 17.0422536c.603863 0 1.079986-.0114763 1.428369-.0344288l2.055456-.0344288 2.090295.0344288c.348383.0229525.824506.0344288 1.428369.0344288.069676 0 .104514-.0688576.104514-.2065728s-.034838-.2065728-.104514-.2065728c-.719991 0-1.213533-.1664058-1.480626-.4992175s-.40064-.9582681-.40064-1.8763693v-6.2316119c0-1.3312468.023226-2.4559207.069677-3.3740219v-.7574335c0-.0918101-.058064-.1950965-.174192-.3098592-.116127-.1147626-.232255-.1721439-.348382-.1721439l-.104515.0344287-5.260576 2.4100157c-.069676.0229525-.081289.0975483-.034838.2237872s.116128.1893583.20903.1893583h.034838c.557412-.2524778.987084-.3787167 1.289015-.3787167.371608 0 .638701.172144.80128.5164319.162578.344288.243868.906625.243868 1.687011v6.1627543c0 .9181012-.127741 1.5435576-.383221 1.8763693-.255481.3328117-.743216.4992175-1.463207.4992175-.069676 0-.104514.0688576-.104514.2065728s.034838.2065728.104514.2065728zm9.16246 0c.603863 0 1.079986-.0114763 1.428369-.0344288l2.055456-.0344288 2.090295.0344288c.348383.0229525.824506.0344288 1.428369.0344288.069676 0 .104514-.0688576.104514-.2065728s-.034838-.2065728-.104514-.2065728c-.719991 0-1.213533-.1664058-1.480626-.4992175s-.40064-.9582681-.40064-1.8763693v-7.3333334c.441285-.390193.958052-.7000521 1.550302-.9295774.592251-.2295253 1.167082-.344288 1.724494-.344288.975471 0 1.689655.2983829 2.142552.8951487s.679346 1.514867.679346 2.7543036v4.9577465c0 .9181012-.12774 1.5435576-.383221 1.8763693-.25548.3328117-.743216.4992175-1.463206.4992175-.069677 0-.104515.0688576-.104515.2065728s.034838.2065728.104515.2065728c.603863 0 1.091598-.0114763 1.463206-.0344288l2.020619-.0344288 2.090295.0344288c.348382.0229525.824505.0344288 1.428368.0344288.069677 0 .104515-.0688576.104515-.2065728s-.034838-.2065728-.104515-.2065728c-.71999 0-1.213532-.1664058-1.480625-.4992175-.267094-.3328117-.40064-.9582681-.40064-1.8763693v-6.6103287c0-1.2853416-.365802-2.3239436-1.097405-3.1158059s-1.724494-1.1877934-2.978671-1.1877934c-1.927716 0-3.692854.9410537-5.295414 2.8231612-.046451-.8492437-.185804-1.5206052-.418059-2.0140846-.232255-.4934793-.476123-.740219-.731603-.740219-.023226 0-.104515.0229525-.243868.0688575l-4.842517 2.3411581c-.046451.0229525-.052257.0918101-.017419.2065728.034838.1147626.087096.1721439.156772.1721439h.069677c.71999-.3213354 1.277402-.4820031 1.672236-.4820031.371608 0 .644507.1664059.818699.4992175.174191.3328117.261287.8549818.261287 1.5665102v6.4726135c0 .9181012-.127741 1.5435576-.383221 1.8763693-.255481.3328117-.743216.4992175-1.463207.4992175-.069676 0-.104514.0688576-.104514.2065728s.034838.2065728.104514.2065728z"/></g></g><g fill="#a0b9b6" fill-rule="nonzero"><g transform="matrix(-1 0 0 -1 18 18)"><path d="m17.1464466.14644661.7071068.70710678-17.00000001 17.00000001-.70710678-.7071068z"/><path d="m17.5 0v1h-7.794l-8.706 8.706v7.794h-1v-8.20710678l9.29289322-9.29289322z"/><path d="m6.65811388 3.02565835 6.21589602 2.07196533 5.0875286 12.21006862-.923077.3846154-4.9124615-11.7903077-5.78411388-1.92765835z"/><path d="m3.97434165 6.34188612 1.92765835 5.78411388 11.7903077 4.9124615-.3846154.923077-12.21006862-5.0875286-2.07196533-6.21589602z"/></g><g transform="matrix(-1 0 0 1 18 185)"><path d="m17.1464466.14644661.7071068.70710678-17.00000001 17.00000001-.70710678-.7071068z"/><path d="m17.5 0v1h-7.794l-8.706 8.706v7.794h-1v-8.20710678l9.29289322-9.29289322z"/><path d="m6.65811388 3.02565835 6.21589602 2.07196533 5.0875286 12.21006862-.923077.3846154-4.9124615-11.7903077-5.78411388-1.92765835z"/><path d="m3.97434165 6.34188612 1.92765835 5.78411388 11.7903077 4.9124615-.3846154.923077-12.21006862-5.0875286-2.07196533-6.21589602z"/></g><g transform="translate(278 185)"><path d="m17.1464466.14644661.7071068.70710678-17.00000001 17.00000001-.70710678-.7071068z"/><path d="m17.5 0v1h-7.794l-8.706 8.706v7.794h-1v-8.20710678l9.29289322-9.29289322z"/><path d="m6.65811388 3.02565835 6.21589602 2.07196533 5.0875286 12.21006862-.923077.3846154-4.9124615-11.7903077-5.78411388-1.92765835z"/><path d="m3.97434165 6.34188612 1.92765835 5.78411388 11.7903077 4.9124615-.3846154.923077-12.21006862-5.0875286-2.07196533-6.21589602z"/></g><g transform="matrix(1 0 0 -1 278 18)"><path d="m17.1464466.14644661.7071068.70710678-17.00000001 17.00000001-.70710678-.7071068z"/><path d="m17.5 0v1h-7.794l-8.706 8.706v7.794h-1v-8.20710678l9.29289322-9.29289322z"/><path d="m6.65811388 3.02565835 6.21589602 2.07196533 5.0875286 12.21006862-.923077.3846154-4.9124615-11.7903077-5.78411388-1.92765835z"/><path d="m3.97434165 6.34188612 1.92765835 5.78411388 11.7903077 4.9124615-.3846154.923077-12.21006862-5.0875286-2.07196533-6.21589602z"/></g></g></g></svg>