<svg height="296" width="527" xmlns="http://www.w3.org/2000/svg"><g fill="none" fill-rule="evenodd"><path d="M134.544 114c.192 0 .33-.048.416-.144s.181-.283.288-.56l6.464-18.88c.043-.064.032-.15-.032-.256s-.139-.16-.224-.16h-8.48c-.619 0-1.03-.032-1.232-.096s-.304-.192-.304-.384c0-.128.01-.235.032-.32.021-.064-.032-.101-.16-.112s-.203.016-.224.08l-1.216 5.12c-.021.043-.005.08.048.112s.112.048.176.048c.085 0 .139-.032.16-.096.213-.747.496-1.253.848-1.52s1.125-.443 2.32-.528 3.381-.128 6.56-.128c.192 0 .235.075.128.224l-7.712 17.216c-.043.107-.032.197.032.272s.16.112.288.112zm16.156-10.904c.096 0 .152-.032.168-.096l2.904-6.48.624 4.584c.032.288.048.48.048.576 0 .416-.092.692-.276.828s-.5.204-.948.204c-.032 0-.048.048-.048.144s.016.144.048.144c.352 0 .632-.008.84-.024l1.176-.024 1.248.024c.24.016.576.024 1.008.024.048 0 .072-.048.072-.144s-.024-.144-.072-.144c-.416 0-.716-.04-.9-.12s-.308-.224-.372-.432-.128-.576-.192-1.104l-.864-7.416c0-.048-.036-.088-.108-.12s-.156-.048-.252-.048-.168.032-.216.096l-3.312 7.368-3.984-7.392c-.048-.048-.128-.072-.24-.072-.08 0-.156.012-.228.036s-.108.06-.108.108l-.576 6.888c-.064.8-.212 1.368-.444 1.704s-.612.504-1.14.504c-.048 0-.072.048-.072.144s.024.144.072.144c.352 0 .624-.008.816-.024l1.008-.024 1.008.024c.192.016.464.024.816.024.048 0 .072-.048.072-.144s-.024-.144-.072-.144c-.544 0-.948-.14-1.212-.42s-.396-.724-.396-1.332c0-.192.008-.344.024-.456l.408-4.008 3.48 6.504c.016.064.08.096.192.096zm15.888.168a.267.267 0 00.12-.024l2.976-1.416c.048-.032.056-.084.024-.156s-.08-.108-.144-.108h-.024c-.528.224-.92.336-1.176.336-.288 0-.492-.12-.612-.36s-.18-.632-.18-1.176v-6.6c0-.064-.032-.12-.096-.168s-.128-.072-.192-.072l-.096.024-2.832 1.32c-.048.016-.064.064-.048.144s.048.12.096.12h.048c.304-.128.56-.192.768-.192.256 0 .44.132.552.396s.168.7.168 1.308v4.152c-.384.4-.816.712-1.296.936s-.944.336-1.392.336c-1.344 0-2.016-.904-2.016-2.712V93.76c0-.064-.032-.12-.096-.168s-.128-.072-.192-.072l-.096.024-2.832 1.32c-.048.016-.06.064-.036.144s.06.12.108.12h.048c.272-.128.52-.192.744-.192.256 0 .44.132.552.396s.168.7.168 1.308v3.624c0 .928.236 1.652.708 2.172s1.116.78 1.932.78c1.28 0 2.512-.664 3.696-1.992 0 .608.072 1.1.216 1.476s.288.564.432.564zM355.18 114c.085 0 .155-.037.208-.112s.08-.155.08-.24l.032-4c0-.043-.064-.064-.192-.064s-.192.021-.192.064c-.021.704-.25 1.21-.688 1.52s-1.221.507-2.352.592c-1.13.085-2.997.128-5.6.128-.213 0-.256-.075-.128-.224.384-.49 1.13-1.333 2.24-2.528a79.676 79.676 0 003.152-3.6c.843-1.035 1.573-2.176 2.192-3.424s.928-2.47.928-3.664c0-1.43-.443-2.587-1.328-3.472s-2.107-1.328-3.664-1.328c-1.515 0-2.779.421-3.792 1.264s-1.659 2.01-1.936 3.504c-.021.085.053.128.224.128.085 0 .128-.01.128-.032.32-1.045.837-1.856 1.552-2.432s1.595-.864 2.64-.864c1.13 0 2.016.341 2.656 1.024s.96 1.675.96 2.976c0 1.195-.288 2.421-.864 3.68s-1.312 2.507-2.208 3.744-2.165 2.88-3.808 4.928l-1.504 1.856c-.085.085-.08.203.016.352s.197.224.304.224zm10.08.416c1.323 0 2.48-.427 3.472-1.28s1.755-2.059 2.288-3.616.8-3.37.8-5.44c0-2.09-.267-3.925-.8-5.504s-1.29-2.8-2.272-3.664-2.123-1.296-3.424-1.296c-1.344 0-2.517.427-3.52 1.28s-1.781 2.064-2.336 3.632-.832 3.387-.832 5.456c0 2.09.272 3.925.816 5.504s1.317 2.795 2.32 3.648 2.165 1.28 3.488 1.28zm.384-.512c-1.387 0-2.448-.875-3.184-2.624s-1.104-4.256-1.104-7.52c0-3.093.304-5.472.912-7.136s1.51-2.496 2.704-2.496c1.28 0 2.288.859 3.024 2.576s1.104 4.304 1.104 7.76c0 6.293-1.152 9.44-3.456 9.44zm19.84.096c.085 0 .155-.037.208-.112s.08-.155.08-.24l.032-4c0-.043-.064-.064-.192-.064s-.192.021-.192.064c-.021.704-.25 1.21-.688 1.52s-1.221.507-2.352.592-2.997.128-5.6.128c-.213 0-.256-.075-.128-.224.384-.49 1.13-1.333 2.24-2.528 1.259-1.365 2.31-2.565 3.152-3.6s1.573-2.176 2.192-3.424.928-2.47.928-3.664c0-1.43-.443-2.587-1.328-3.472s-2.107-1.328-3.664-1.328c-1.515 0-2.779.421-3.792 1.264s-1.659 2.01-1.936 3.504c-.021.085.053.128.224.128.085 0 .128-.01.128-.032.32-1.045.837-1.856 1.552-2.432s1.595-.864 2.64-.864c1.13 0 2.016.341 2.656 1.024s.96 1.675.96 2.976c0 1.195-.288 2.421-.864 3.68s-1.312 2.507-2.208 3.744-2.165 2.88-3.808 4.928l-1.504 1.856c-.085.085-.08.203.016.352s.197.224.304.224zm4.032 0a48.1 48.1 0 001.984-.032l2.72-.032 2.72.032c.49.021 1.141.032 1.952.032.043 0 .064-.064.064-.192s-.021-.192-.064-.192c-1.024 0-1.776-.053-2.256-.16s-.81-.315-.992-.624-.272-.784-.272-1.424V93.904c0-.064-.021-.117-.064-.16s-.085-.064-.128-.064c-.064 0-.139.032-.224.096l-5.728 4.192c-.064.043-.075.112-.032.208s.107.144.192.144l.064-.032c1.28-.917 2.165-1.376 2.656-1.376.619 0 .928.64.928 1.92v12.576c0 .64-.101 1.11-.304 1.408s-.544.507-1.024.624-1.21.176-2.192.176c-.043 0-.064.064-.064.192s.021.192.064.192zm-160.44 0c.085 0 .128-.064.128-.192s-.043-.192-.128-.192c-.64 0-1.216-.277-1.728-.832s-1.13-1.61-1.856-3.168l-7.712-15.84c-.021-.085-.096-.123-.224-.112s-.203.048-.224.112l-6.816 15.712c-.49 1.13-.928 1.984-1.312 2.56s-.784.981-1.2 1.216-.923.352-1.52.352c-.085 0-.128.064-.128.192s.043.192.128.192c.427 0 .981-.021 1.664-.064.768-.043 1.43-.064 1.984-.064.597 0 1.301.021 2.112.064.725.043 1.28.064 1.664.064.107 0 .16-.064.16-.192s-.053-.192-.16-.192c-2.07 0-3.104-.693-3.104-2.08 0-.47.15-1.056.448-1.76l2.624-6.048h5.888l3.584 7.424c.32.64.48 1.141.48 1.504s-.16.613-.48.752-.843.208-1.568.208c-.085 0-.128.064-.128.192s.043.192.128.192c.363 0 .907-.021 1.632-.064s1.333-.064 1.824-.064c.405 0 1.035.021 1.888.064a46.16 46.16 0 001.952.064zm-9.664-11.008h-5.248l2.496-5.76zm17.216 11.424c2.048 0 3.632-.587 4.752-1.76s1.68-2.699 1.68-4.576c0-1.216-.25-2.299-.752-3.248s-1.173-1.696-2.016-2.24-1.787-.859-2.832-.944c1.259-.704 2.304-1.707 3.136-3.008s1.248-2.656 1.248-4.064c0-2.517-1.397-3.776-4.192-3.776-2.133 0-3.888.923-5.264 2.768s-2.064 5.285-2.064 10.32c0 2.667.235 4.768.704 6.304s1.163 2.624 2.08 3.264 2.09.96 3.52.96zm-2.496-12.48c-.533 0-.96-.01-1.28-.032.064-3.776.453-6.485 1.168-8.128s1.68-2.464 2.896-2.464c.875 0 1.541.363 2 1.088s.688 1.707.688 2.944c0 1.173-.235 2.267-.704 3.28s-1.12 1.819-1.952 2.416-1.77.896-2.816.896zm3.264 11.872c-1.024 0-1.861-.31-2.512-.928s-1.152-1.723-1.504-3.312-.528-3.803-.528-6.64v-.352c.32-.043.757-.064 1.312-.064 2.09 0 3.701.576 4.832 1.728s1.696 2.827 1.696 5.024c0 1.557-.267 2.704-.8 3.44s-1.365 1.104-2.496 1.104zm11.968.512c1.003 0 1.952-.24 2.848-.72s1.632-1.179 2.208-2.096c.043-.064.043-.128 0-.192s-.096-.096-.16-.096-.107.021-.128.064c-.405.597-.89 1.045-1.456 1.344s-1.157.448-1.776.448c-.81 0-1.51-.235-2.096-.704s-.88-1.088-.88-1.856c0-.747.219-1.328.656-1.744s1.125-.88 2.064-1.392c1.045-.576 1.808-1.104 2.288-1.584s.72-1.136.72-1.968c0-.81-.245-1.445-.736-1.904s-1.216-.688-2.176-.688c-.448 0-.848.043-1.2.128s-.73.213-1.136.384c-.512.17-.843.256-.992.256-.341 0-.512-.213-.512-.64 0-.128.01-.235.032-.32.021-.021.005-.048-.048-.08s-.112-.048-.176-.048c-.085 0-.128.021-.128.064l-1.024 4.256c-.021.085.064.128.256.128.064 0 .107-.01.128-.032.299-.981.763-1.781 1.392-2.4s1.307-.928 2.032-.928c.576 0 1.024.203 1.344.608s.48.97.48 1.696c0 .832-.235 1.52-.704 2.064s-1.173 1.072-2.112 1.584c-.96.555-1.664 1.067-2.112 1.536s-.672 1.077-.672 1.824c0 1.024.379 1.781 1.136 2.272s1.637.736 2.64.736zm6.016 8.672c.917 0 1.744-.25 2.48-.752s1.456-1.339 2.16-2.512 1.44-2.784 2.208-4.832l3.808-10.112c.341-.96.72-1.659 1.136-2.096s.923-.656 1.52-.656c.064 0 .096-.064.096-.192s-.032-.192-.096-.192c-.47 0-.81.01-1.024.032l-1.216.032-1.92-.032a19.934 19.934 0 00-1.312-.032c-.043 0-.064.064-.064.192s.021.192.064.192c.79 0 1.37.123 1.744.368s.56.635.56 1.168c0 .299-.085.725-.256 1.28l-2.368 6.784-4.064-8.352a1.126 1.126 0 01-.16-.544c0-.256.15-.437.448-.544s.736-.16 1.312-.16c.043 0 .064-.064.064-.192s-.021-.192-.064-.192c-.555 0-.992.01-1.312.032l-2.08.032c-.49 0-.875-.01-1.152-.032l-1.184-.032c-.043 0-.064.064-.064.192s.021.192.064.192c.405 0 .736.144.992.432s.63.901 1.12 1.84l4.96 10.016c-.683 1.813-1.27 3.216-1.76 4.208s-.955 1.701-1.392 2.128-.912.64-1.424.64c-.235 0-.421-.032-.56-.096s-.325-.16-.56-.288-.437-.23-.608-.304-.395-.112-.672-.112c-.32 0-.592.101-.816.304s-.336.485-.336.848c0 .427.16.757.48.992s.736.352 1.248.352zm20.672-8.608c.939 0 1.792-.16 2.56-.48s1.525-.821 2.272-1.504c.064-.043.07-.096.016-.16s-.112-.096-.176-.096h-.064a5.515 5.515 0 01-3.2.992c-1.77 0-3.083-.565-3.936-1.696s-1.28-2.581-1.28-4.352c0-1.536.315-2.768.944-3.696s1.499-1.392 2.608-1.392c.555 0 .97.107 1.248.32s.533.565.768 1.056c.363.832.896 1.248 1.6 1.248.405 0 .725-.117.96-.352s.352-.512.352-.832c0-.597-.395-1.093-1.184-1.488s-1.664-.592-2.624-.592c-1.152 0-2.283.272-3.392.816s-2.016 1.323-2.72 2.336-1.056 2.203-1.056 3.568c0 1.067.23 2.08.688 3.04s1.163 1.744 2.112 2.352 2.117.912 3.504.912zm7.232-.384a18 18 0 001.216-.032l1.792-.032 1.76.032c.32.021.736.032 1.248.032.064 0 .096-.064.096-.192s-.032-.192-.096-.192c-.79 0-1.307-.144-1.552-.432s-.368-.88-.368-1.776v-6.848c.49-.533 1.035-.95 1.632-1.248s1.195-.448 1.792-.448c.896 0 1.557.293 1.984.88s.64 1.499.64 2.736v4.928c0 .896-.128 1.488-.384 1.776s-.768.432-1.536.432c-.064 0-.096.064-.096.192s.032.192.096.192c.512 0 .928-.01 1.248-.032l1.76-.032 1.76.032c.32.021.736.032 1.248.032.064 0 .096-.064.096-.192s-.032-.192-.096-.192c-.79 0-1.307-.144-1.552-.432s-.368-.88-.368-1.776v-6.752c.47-.555 1.013-.992 1.632-1.312s1.237-.48 1.856-.48c.896 0 1.563.293 2 .88s.656 1.499.656 2.736v4.928c0 .896-.128 1.488-.384 1.776s-.779.432-1.568.432c-.043 0-.064.064-.064.192s.021.192.064.192c.512 0 .928-.01 1.248-.032l1.76-.032 1.792.032c.299.021.715.032 1.248.032.064 0 .096-.064.096-.192s-.032-.192-.096-.192c-.555 0-.965-.059-1.232-.176s-.448-.33-.544-.64-.144-.773-.144-1.392v-6.176c0-1.301-.304-2.283-.912-2.944s-1.477-.992-2.608-.992c-1.685 0-3.307.939-4.864 2.816-.15-.917-.523-1.616-1.12-2.096s-1.376-.72-2.336-.72c-1.664 0-3.232.885-4.704 2.656-.021-.768-.133-1.392-.336-1.872s-.41-.72-.624-.72c-.085 0-.15.01-.192.032l-3.968 1.888c-.064.021-.08.085-.048.192s.08.16.144.16h.064c.725-.299 1.29-.448 1.696-.448.384 0 .656.155.816.464s.24.816.24 1.52v6.24c0 .896-.123 1.488-.368 1.776s-.752.432-1.52.432c-.064 0-.096.064-.096.192s.032.192.096.192zm7.388-15.672l.048-.048.416-.416c.224-.224.475-.41.752-.56s.672-.224 1.184-.224c.427 0 .821.048 1.184.144s.832.24 1.408.432c.512.192.944.336 1.296.432s.73.144 1.136.144c.576 0 1.104-.181 1.584-.544s1.115-1.088 1.904-2.176c.043-.043.037-.09-.016-.144s-.112-.08-.176-.08h-.032c-.363.405-.704.715-1.024.928s-.779.32-1.376.32c-.427 0-.848-.053-1.264-.16s-.89-.267-1.424-.48c-.363-.128-.73-.245-1.104-.352s-.71-.16-1.008-.16c-1.237 0-2.475.907-3.712 2.72-.021.043-.005.09.048.144s.101.08.144.08z" fill="#021631" fill-rule="nonzero"/><path d="M193.5 91.5l-11.5 23m149-23l-11.5 23" stroke="#a0b9b6"/><path d="M515 0v12h12v272h-12v12H12v-12H0V12h12V0zm-1 1H13v12H1v270h12v12h501v-12h12V13h-12z" fill="#a0b9b6" fill-rule="nonzero"/><path d="M16.5 17.5h494v262h-494z" stroke="#a0b9b6"/><g fill-rule="nonzero"><g fill="#a0b9b6"><path d="M16.854 34.854l-.708-.708 17-17 .708.708z"/><path d="M16.5 35v-1h7.794L33 25.294V17.5h1v8.207L24.707 35z"/><path d="M27.342 31.974l-6.216-2.072-5.088-12.21.924-.384 4.912 11.79 5.784 1.928z"/><path d="M30.026 28.658l-1.928-5.784-11.79-4.912.384-.924 12.21 5.088 2.072 6.216z"/></g><g fill="#a0b9b6"><path d="M16.854 262.146l-.708.708 17 17 .708-.708z"/><path d="M16.5 262v1h7.794L33 271.706v7.794h1v-8.207L24.707 262z"/><path d="M27.342 265.026l-6.216 2.072-5.088 12.21.924.384 4.912-11.79 5.784-1.928z"/><path d="M30.026 268.342l-1.928 5.784-11.79 4.912.384.924 12.21-5.088 2.072-6.216z"/></g><g fill="#a0b9b6"><path d="M510.146 34.854l.708-.708-17-17-.708.708z"/><path d="M510.5 35v-1h-7.794L494 25.294V17.5h-1v8.207L502.293 35z"/><path d="M499.658 31.974l6.216-2.072 5.088-12.21-.924-.384-4.912 11.79-5.784 1.928z"/><path d="M496.974 28.658l1.928-5.784 11.79-4.912-.384-.924-12.21 5.088-2.072 6.216z"/></g><g fill="#a0b9b6"><path d="M510.146 262.146l.708.708-17 17-.708-.708z"/><path d="M510.5 262v1h-7.794L494 271.706v7.794h-1v-8.207l9.293-9.293z"/><path d="M499.658 265.026l6.216 2.072 5.088 12.21-.924.384-4.912-11.79-5.784-1.928z"/><path d="M496.974 268.342l1.928 5.784 11.79 4.912-.384.924-12.21-5.088-2.072-6.216z"/></g><path d="M76.92 200c.384 0 .728-.128 1.032-.384s.848-.936 1.632-2.04 2.024-2.984 3.72-5.64c1.376-2.176 2.448-3.728 3.216-4.656s1.52-1.56 2.256-1.896 1.712-.504 2.928-.504v11.232c0 .96-.096 1.672-.288 2.136s-.544.776-1.056.936-1.328.24-2.448.24c-.064 0-.096.096-.096.288s.032.288.096.288c1.12 0 1.984-.016 2.592-.048l3.504-.048 3.84.048c.672.032 1.6.048 2.784.048.064 0 .096-.096.096-.288s-.032-.288-.096-.288c-1.12 0-1.936-.08-2.448-.24s-.856-.472-1.032-.936-.264-1.176-.264-2.136V184.88c1.216 0 2.192.168 2.928.504s1.488.968 2.256 1.896 1.84 2.48 3.216 4.656c1.696 2.656 2.936 4.536 3.72 5.64s1.328 1.784 1.632 2.04.648.384 1.032.384h7.392c.096 0 .144-.096.144-.288s-.048-.288-.144-.288c-.864-.032-1.664-.32-2.4-.864s-1.456-1.272-2.16-2.184-1.728-2.344-3.072-4.296l-.72-1.104c-1.216-1.792-2.224-3.144-3.024-4.056s-1.592-1.576-2.376-1.992-1.752-.688-2.904-.816l6.624-8.16c1.44-1.76 2.936-3.096 4.488-4.008s3.128-1.368 4.728-1.368c.064 0 .096-.096.096-.288s-.032-.288-.096-.288l-2.064.048c-1.344.064-2.64.096-3.888.096-.96 0-2.272-.032-3.936-.096l-3.12-.048c-.096 0-.144.096-.144.288s.048.288.144.288c.896 0 1.568.2 2.016.6s.672.952.672 1.656c0 1.376-.752 3.104-2.256 5.184l-4.368 6h-1.152c-1.344 0-2.432.016-3.264.048v-10.08c0-.96.096-1.672.288-2.136s.544-.792 1.056-.984 1.312-.288 2.4-.288c.064 0 .096-.096.096-.288s-.032-.288-.096-.288l-2.736.048c-1.6.064-2.896.096-3.888.096l-.267-.001a84.56 84.56 0 01-3.141-.095L87.96 170c-.064 0-.096.096-.096.288s.032.288.096.288c1.088 0 1.888.088 2.4.264s.864.488 1.056.936.288 1.152.288 2.112v10.176a91.093 91.093 0 00-3.264-.048h-1.152l-4.512-6.24c-1.44-2.048-2.16-3.696-2.16-4.944 0-.704.232-1.256.696-1.656s1.16-.6 2.088-.6c.064 0 .096-.096.096-.288S83.464 170 83.4 170l-3.168.048c-1.664.064-2.976.096-3.936.096-1.248 0-2.544-.032-3.888-.096L70.344 170c-.064 0-.096.096-.096.288s.032.288.096.288c1.6 0 3.176.456 4.728 1.368s3.048 2.248 4.488 4.008l6.624 8.16c-1.12.128-2.08.4-2.88.816s-1.608 1.088-2.424 2.016-1.816 2.272-3 4.032l-.72 1.104c-1.344 1.952-2.368 3.384-3.072 4.296s-1.424 1.64-2.16 2.184-1.536.832-2.4.864c-.096 0-.144.096-.144.288s.048.288.144.288zm56.504.672a.534.534 0 00.24-.048l6.624-3.216c.096-.032.104-.128.024-.288s-.168-.24-.264-.24h-.096c-.896.352-1.552.528-1.968.528-.48 0-.824-.2-1.032-.6s-.312-1.08-.312-2.04v-13.68c0-.064-.04-.12-.12-.168s-.152-.072-.216-.072-.112.016-.144.048a5.99 5.99 0 01-1.872 1.248c-1.376-.832-2.928-1.248-4.656-1.248-1.984 0-3.84.448-5.568 1.344s-3.12 2.2-4.176 3.912-1.584 3.704-1.584 5.976c0 1.792.32 3.328.96 4.608s1.512 2.248 2.616 2.904 2.312.984 3.624.984c1.28 0 2.448-.28 3.504-.84s2.112-1.336 3.168-2.328c.064.992.216 1.776.456 2.352s.504.864.792.864zm-5.472-2.592c-1.504 0-2.664-.664-3.48-1.992s-1.224-3.192-1.224-5.592c0-2.528.456-4.592 1.368-6.192s2.168-2.4 3.768-2.4c1.12 0 2.024.4 2.712 1.2s1.032 1.824 1.032 3.072v10.368c-1.504 1.024-2.896 1.536-4.176 1.536zm12.872 1.92c.928 0 1.648-.016 2.16-.048l2.784-.048 2.688.048c.48.032 1.168.048 2.064.048.064 0 .096-.096.096-.288s-.032-.288-.096-.288c-.768 0-1.328-.08-1.68-.24s-.592-.472-.72-.936-.192-1.176-.192-2.136v-4.8h8.448v4.8c0 .96-.064 1.672-.192 2.136s-.376.776-.744.936-.936.24-1.704.24c-.096 0-.144.096-.144.288s.048.288.144.288c.896 0 1.6-.016 2.112-.048l2.832-.048 2.688.048c.48.032 1.168.048 2.064.048.064 0 .096-.096.096-.288s-.032-.288-.096-.288c-.768 0-1.328-.08-1.68-.24s-.592-.472-.72-.936-.192-1.176-.192-2.136v-14.448c0-.128-.088-.264-.264-.408s-.344-.216-.504-.216a.534.534 0 00-.24.048l-6.432 3.072c-.096.032-.112.136-.048.312s.144.264.24.264h.048c.48-.224.896-.336 1.248-.336.992 0 1.488 1.04 1.488 3.12v2.64h-8.448v-8.496c0-.128-.088-.264-.264-.408s-.344-.216-.504-.216a.534.534 0 00-.24.048l-6.432 3.072c-.096.032-.112.136-.048.312s.144.264.24.264h.048c.48-.224.896-.336 1.248-.336.992 0 1.488 1.04 1.488 3.12v8.592c0 .96-.064 1.672-.192 2.136s-.376.776-.744.936-.936.24-1.704.24c-.096 0-.144.096-.144.288s.048.288.144.288zm34.136.576c1.44 0 2.768-.256 3.984-.768s2.416-1.344 3.6-2.496c.064-.064.056-.16-.024-.288s-.152-.192-.216-.192l-.096.048c-.704.448-1.488.784-2.352 1.008s-1.696.336-2.496.336c-2.272 0-4.056-.8-5.352-2.4s-1.944-3.776-1.944-6.528c0-.736.048-1.408.144-2.016l8.64-.096h2.928c.352 0 .528-.464.528-1.392 0-1.472-.528-2.632-1.584-3.48s-2.576-1.272-4.56-1.272c-2.048 0-3.904.456-5.568 1.368s-2.976 2.16-3.936 3.744-1.44 3.304-1.44 5.16c0 1.632.384 3.16 1.152 4.584s1.888 2.56 3.36 3.408 3.216 1.272 5.232 1.272zm-4.608-14.256c.32-1.344.832-2.4 1.536-3.168s1.536-1.152 2.496-1.152c1.76 0 2.688 1.392 2.784 4.176zM184.616 200c.832 0 1.488-.016 1.968-.048l2.832-.048 2.88.048c.48.032 1.136.048 1.968.048.096 0 .144-.096.144-.288s-.048-.288-.144-.288c-.992 0-1.672-.232-2.04-.696s-.552-1.336-.552-2.616V185.84c.576-.544 1.24-.968 1.992-1.272s1.512-.456 2.28-.456c1.216 0 2.12.416 2.712 1.248s.888 2.112.888 3.84v6.912c0 1.28-.184 2.152-.552 2.616s-1.048.696-2.04.696c-.096 0-.144.096-.144.288s.048.288.144.288c.832 0 1.504-.016 2.016-.048l2.784-.048 2.88.048c.48.032 1.136.048 1.968.048.128 0 .192-.096.192-.288s-.064-.288-.192-.288c-.992 0-1.672-.232-2.04-.696s-.552-1.336-.552-2.616V186.08c.576-.608 1.264-1.088 2.064-1.44s1.616-.528 2.448-.528c1.216 0 2.12.416 2.712 1.248s.888 2.112.888 3.84v6.912c0 1.28-.184 2.152-.552 2.616s-1.048.696-2.04.696c-.096 0-.144.096-.144.288s.048.288.144.288c.832 0 1.504-.016 2.016-.048l2.784-.048 2.88.048c.48.032 1.136.048 1.968.048.128 0 .192-.096.192-.288s-.064-.288-.192-.288c-.992 0-1.672-.232-2.04-.696s-.552-1.336-.552-2.616v-9.216c0-2.016-.456-3.52-1.368-4.512s-2.232-1.488-3.96-1.488c-2.688 0-5.136 1.424-7.344 4.272-.192-1.376-.736-2.432-1.632-3.168s-2.096-1.104-3.6-1.104c-2.496 0-4.832 1.296-7.008 3.888-.064-1.152-.256-2.072-.576-2.76s-.656-1.032-1.008-1.032c-.032 0-.144.032-.336.096l-6.672 3.264c-.064.032-.072.128-.024.288s.12.24.216.24h.096c.992-.448 1.76-.672 2.304-.672.512 0 .888.232 1.128.696s.36 1.192.36 2.184v9.024c0 1.28-.176 2.152-.528 2.616s-1.024.696-2.016.696c-.096 0-.144.096-.144.288s.048.288.144.288zm10.892-23.576l.648-.648c.336-.336.712-.616 1.128-.84s1.008-.336 1.776-.336c1.056 0 2.32.304 3.792.912.832.288 1.48.496 1.944.624s.968.192 1.512.192c.928 0 1.776-.336 2.544-1.008s1.776-2 3.024-3.984c.032-.064.016-.144-.048-.24s-.128-.144-.192-.144l-.096.048c-.512.576-1.016 1.024-1.512 1.344s-1.176.48-2.04.48c-.64 0-1.264-.08-1.872-.24s-1.312-.4-2.112-.72c-.512-.192-1.024-.368-1.536-.528s-.976-.24-1.392-.24c-1.92 0-3.888 1.664-5.904 4.992-.032.064-.008.136.072.216s.152.12.216.12zM305.692 200c.864 0 1.552-.016 2.064-.048l3.024-.048 2.64.048c.48.032 1.152.048 2.016.048.096 0 .144-.096.144-.288s-.048-.288-.144-.288c-1.312 0-2.328-.488-3.048-1.464s-1.064-2.328-1.032-4.056l.384-17.328 12.144 23.088c.064.128.192.192.384.192s.32-.064.384-.192l9.888-23.184 1.008 19.632.048.816c0 1.024-.24 1.696-.72 2.016s-1.392.48-2.736.48c-.096 0-.144.096-.144.288s.048.288.144.288c1.056 0 1.888-.016 2.496-.048l3.6-.048 3.552.048c.64.032 1.504.048 2.592.048.064 0 .096-.096.096-.288s-.032-.288-.096-.288c-.992 0-1.72-.08-2.184-.24s-.784-.464-.96-.912-.296-1.168-.36-2.16l-1.152-21.792c-.064-1.28.24-2.224.912-2.832s1.76-.912 3.264-.912c.096 0 .144-.096.144-.288s-.048-.288-.144-.288c-.832 0-1.472.016-1.92.048l-2.832.048c-.48 0-.904-.016-1.272-.048s-.696-.048-.984-.048c-.352 0-.632.088-.84.264s-.408.488-.6.936l-9.12 20.928-10.464-19.632c-.608-1.088-1.024-1.776-1.248-2.064s-.544-.432-.96-.432c-.448 0-.816.016-1.104.048l-2.544.048c-.704 0-1.28-.016-1.728-.048l-2.256-.048c-.096 0-.144.096-.144.288s.048.288.144.288c.896 0 1.688.272 2.376.816s1.352 1.408 1.992 2.592l.048.048-.432 19.872c-.032 1.696-.432 3.04-1.2 4.032s-1.808 1.488-3.12 1.488c-.096 0-.144.096-.144.288s.048.288.144.288zm55.496.672a.534.534 0 00.24-.048l6.624-3.216c.096-.032.104-.128.024-.288s-.168-.24-.264-.24h-.096c-.896.352-1.552.528-1.968.528-.48 0-.824-.2-1.032-.6s-.312-1.08-.312-2.04v-13.68c0-.064-.04-.12-.12-.168s-.152-.072-.216-.072-.112.016-.144.048a5.99 5.99 0 01-1.872 1.248c-1.376-.832-2.928-1.248-4.656-1.248-1.984 0-3.84.448-5.568 1.344s-3.12 2.2-4.176 3.912-1.584 3.704-1.584 5.976c0 1.792.32 3.328.96 4.608s1.512 2.248 2.616 2.904 2.312.984 3.624.984c1.28 0 2.448-.28 3.504-.84s2.112-1.336 3.168-2.328c.064.992.216 1.776.456 2.352s.504.864.792.864zm-5.472-2.592c-1.504 0-2.664-.664-3.48-1.992s-1.224-3.192-1.224-5.592c0-2.528.456-4.592 1.368-6.192s2.168-2.4 3.768-2.4c1.12 0 2.024.4 2.712 1.2s1.032 1.824 1.032 3.072v10.368c-1.504 1.024-2.896 1.536-4.176 1.536zm24.008 15.12c.096 0 .144-.096.144-.288s-.048-.288-.144-.288c-1.248 0-2.168-.088-2.76-.264s-.992-.488-1.2-.936-.312-1.152-.312-2.112v-9.216c1.184.352 2.56.528 4.128.528 1.728 0 3.4-.36 5.016-1.08s2.952-1.904 4.008-3.552 1.584-3.752 1.584-6.312c0-1.792-.352-3.36-1.056-4.704s-1.64-2.368-2.808-3.072-2.424-1.056-3.768-1.056c-2.464 0-4.864 1.056-7.2 3.168-.096-.928-.28-1.664-.552-2.208s-.568-.816-.888-.816a.534.534 0 00-.24.048l-6.816 3.312c-.064.032-.056.128.024.288s.168.24.264.24h.096c.96-.448 1.696-.672 2.208-.672.576 0 .976.224 1.2.672s.336 1.184.336 2.208v22.224c0 .96-.072 1.664-.216 2.112s-.4.76-.768.936-.936.264-1.704.264c-.096 0-.144.096-.144.288s.048.288.144.288c.864 0 1.536-.016 2.016-.048l2.832-.048 3.792.048c.672.032 1.6.048 2.784.048zm.768-13.776c-1.12 0-2.064-.2-2.832-.6s-1.504-1-2.208-1.8v-11.952c1.184-1.024 2.496-1.536 3.936-1.536 1.696 0 3.112.664 4.248 1.992s1.704 3.208 1.704 5.64c0 5.504-1.616 8.256-4.848 8.256zm12.056.576c.832 0 1.488-.016 1.968-.048l2.832-.048 2.88.048c.48.032 1.136.048 1.968.048.096 0 .144-.096.144-.288s-.048-.288-.144-.288c-.992 0-1.672-.232-2.04-.696s-.552-1.336-.552-2.616V185.84c.576-.544 1.24-.968 1.992-1.272s1.512-.456 2.28-.456c1.216 0 2.12.416 2.712 1.248s.888 2.112.888 3.84v6.912c0 1.28-.184 2.152-.552 2.616s-1.048.696-2.04.696c-.096 0-.144.096-.144.288s.048.288.144.288c.832 0 1.504-.016 2.016-.048l2.784-.048 2.88.048c.48.032 1.136.048 1.968.048.128 0 .192-.096.192-.288s-.064-.288-.192-.288c-.992 0-1.672-.232-2.04-.696s-.552-1.336-.552-2.616V186.08c.576-.608 1.264-1.088 2.064-1.44s1.616-.528 2.448-.528c1.216 0 2.12.416 2.712 1.248s.888 2.112.888 3.84v6.912c0 1.28-.184 2.152-.552 2.616s-1.048.696-2.04.696c-.096 0-.144.096-.144.288s.048.288.144.288c.832 0 1.504-.016 2.016-.048l2.784-.048 2.88.048c.48.032 1.136.048 1.968.048.128 0 .192-.096.192-.288s-.064-.288-.192-.288c-.992 0-1.672-.232-2.04-.696s-.552-1.336-.552-2.616v-9.216c0-2.016-.456-3.52-1.368-4.512s-2.232-1.488-3.96-1.488c-2.688 0-5.136 1.424-7.344 4.272-.192-1.376-.736-2.432-1.632-3.168s-2.096-1.104-3.6-1.104c-2.496 0-4.832 1.296-7.008 3.888-.064-1.152-.256-2.072-.576-2.76s-.656-1.032-1.008-1.032c-.032 0-.144.032-.336.096l-6.672 3.264c-.064.032-.072.128-.024.288s.12.24.216.24h.096c.992-.448 1.76-.672 2.304-.672.512 0 .888.232 1.128.696s.36 1.192.36 2.184v9.024c0 1.28-.176 2.152-.528 2.616s-1.024.696-2.016.696c-.096 0-.144.096-.144.288s.048.288.144.288zm51.752.672a.534.534 0 00.24-.048l6.624-3.216c.096-.032.104-.128.024-.288s-.168-.24-.264-.24h-.096c-.864.352-1.52.528-1.968.528-.48 0-.824-.224-1.032-.672s-.312-1.216-.312-2.304v-12.768c0-.128-.088-.264-.264-.408s-.344-.216-.504-.216a.534.534 0 00-.24.048l-6.432 3.072c-.096.032-.112.136-.048.312s.144.264.24.264h.048c.48-.224.896-.336 1.248-.336.992 0 1.488 1.04 1.488 3.12v8.208c-.576.544-1.224.968-1.944 1.272s-1.432.456-2.136.456c-2.656 0-3.984-1.728-3.984-5.184v-10.608c0-.128-.088-.264-.264-.408s-.344-.216-.504-.216l-.24.048-6.432 3.072c-.096.032-.112.136-.048.312s.16.264.288.264h.048c.448-.224.848-.336 1.2-.336.992 0 1.488 1.04 1.488 3.12v7.056c0 1.792.504 3.24 1.512 4.344s2.392 1.656 4.152 1.656c2.464 0 4.752-1.248 6.864-3.744.032 1.184.168 2.12.408 2.808s.52 1.032.84 1.032zm7.448-.672c.928 0 1.648-.016 2.16-.048l2.784-.048 2.688.048c.48.032 1.168.048 2.064.048.064 0 .096-.096.096-.288s-.032-.288-.096-.288c-.768 0-1.328-.08-1.68-.24s-.592-.472-.72-.936-.192-1.176-.192-2.136v-4.8h8.448v4.8c0 .96-.064 1.672-.192 2.136s-.376.776-.744.936-.936.24-1.704.24c-.096 0-.144.096-.144.288s.048.288.144.288c.896 0 1.6-.016 2.112-.048l2.832-.048 2.688.048c.48.032 1.168.048 2.064.048.064 0 .096-.096.096-.288s-.032-.288-.096-.288c-.768 0-1.328-.08-1.68-.24s-.592-.472-.72-.936-.192-1.176-.192-2.136v-14.448c0-.128-.088-.264-.264-.408s-.344-.216-.504-.216a.534.534 0 00-.24.048l-6.432 3.072c-.096.032-.112.136-.048.312s.144.264.24.264h.048c.48-.224.896-.336 1.248-.336.992 0 1.488 1.04 1.488 3.12v2.64h-8.448v-8.496c0-.128-.088-.264-.264-.408s-.344-.216-.504-.216a.534.534 0 00-.24.048l-6.432 3.072c-.096.032-.112.136-.048.312s.144.264.24.264h.048c.48-.224.896-.336 1.248-.336.992 0 1.488 1.04 1.488 3.12v8.592c0 .96-.064 1.672-.192 2.136s-.376.776-.744.936-.936.24-1.704.24c-.096 0-.144.096-.144.288s.048.288.144.288zm-50.24-23.576l.648-.648c.336-.336.712-.616 1.128-.84s1.008-.336 1.776-.336c1.056 0 2.32.304 3.792.912.832.288 1.48.496 1.944.624s.968.192 1.512.192c.928 0 1.776-.336 2.544-1.008s1.776-2 3.024-3.984c.032-.064.016-.144-.048-.24s-.128-.144-.192-.144l-.096.048c-.512.576-1.016 1.024-1.512 1.344s-1.176.48-2.04.48c-.64 0-1.264-.08-1.872-.24s-1.312-.4-2.112-.72c-.512-.192-1.024-.368-1.536-.528s-.976-.24-1.392-.24c-1.92 0-3.888 1.664-5.904 4.992-.032.064-.008.136.072.216s.152.12.216.12z" fill="#021631"/><path d="M263.575 153.723a.67.67 0 01.647.495l-.02-.063a.665.665 0 01.018.054c.13.478.208.956.241 1.437l9.778 4.995a.885.885 0 01.084.05l-.077-.046a.674.674 0 01.156.11c.155.143.244.36.198.609-1.035 5.617-.358 10.697 1.887 16.309a22.267 22.267 0 011.556 3.713l-.344-.106c9.432 2.82 16.025 11.537 16.025 21.531 0 12.41-10.076 22.486-22.486 22.486-9.872 0-18.498-6.432-21.425-15.68l.344.105c-9.433-2.82-16.025-11.537-16.025-21.531 0-3.813.95-7.405 2.628-10.552l-.013.037c2.246-5.613 2.924-10.694 1.888-16.312l-.003-.011a.665.665 0 01-.005-.04l.008.05a.713.713 0 01-.012-.12v-.019a.652.652 0 01.28-.527l.01-.006a.697.697 0 01.083-.05l9.778-4.995a7.44 7.44 0 01.241-1.437.605.605 0 01.034-.093.67.67 0 01.512-.386l.099-.007zm7.655 27.942h.012c-11.44 0-20.77 9.1-21.138 20.449l-.007.283.043.021c1.255.584 2.603.986 4.009 1.196l.138.018-.08-.82c0-9.293 7.456-16.857 16.773-17.026l.326-.003 1.571.159a16.04 16.04 0 015.844 1.64h.002c5.792 2.78 9.547 8.663 9.547 15.23 0 9.4-7.631 17.03-17.032 17.03a16.866 16.866 0 01-14.907-8.91l-.145-.278-1.899-.098-2.23-.345-.687-.177.106.287c3.023 7.98 10.654 13.475 19.377 13.632l.385.004c11.67 0 21.146-9.476 21.146-21.146 0-9.392-6.193-17.587-15.053-20.242l-1.8-.467-2.098-.324zm7.847 7.613l-.001.019c-.562 11.538-9.831 20.802-21.369 21.353a15.525 15.525 0 0013.531 7.853c8.66 0 15.692-7.031 15.692-15.692a15.53 15.53 0 00-7.853-13.533zm-22.46-22.233c-8.072 0-15.095 4.534-18.657 11.193l.03-.065a.675.675 0 01-.047.097 21.033 21.033 0 00-2.471 9.92c0 9.395 6.195 17.591 15.059 20.245l1.794.465 2.138.326 2.18.11.328-.003c11.275-.185 20.416-9.215 20.78-20.449l.007-.28-.042-.02a14.628 14.628 0 00-4.009-1.196l-.14-.019.082.822c0 9.292-7.457 16.856-16.773 17.025l-.326.003-1.581-.16h.01a16.039 16.039 0 01-5.858-1.645l.012.006a16.864 16.864 0 01-9.547-15.23c0-9.4 7.631-17.031 17.032-17.031a16.866 16.866 0 0114.907 8.912l.142.275 1.901.1 2.231.345.686.175-.105-.286c-3.023-7.979-10.654-13.474-19.377-13.631zm14.621 20.075c-8.555 0-15.52 6.86-15.692 15.31l-.003.314.105 1.038.97.1c8.554 0 15.52-6.86 15.691-15.31l.004-.314-.106-1.038zm-14.62-14.621c-8.66 0-15.692 7.031-15.692 15.692a15.53 15.53 0 007.853 13.532c.553-11.546 9.826-20.82 21.37-21.371a15.526 15.526 0 00-13.531-7.853zm-16.413-9.774l.012.09c.471 3.691.219 7.2-.713 10.799a22.502 22.502 0 0110.94-7.05c-3.576-.678-7.32-2.02-10.013-3.695zm32.824 0l-.225.144c-2.695 1.676-6.44 3.019-10.019 3.699a22.512 22.512 0 0110.947 7.044c-.886-3.417-1.158-6.752-.78-10.239zm-8.604-5.594c-.404 3.498-3 6.937-6.57 8.608.158.009.315.019.472.03a.663.663 0 01.267-.064c4.572-.132 10.595-1.953 14.087-4.355zm-15.615 0l-8.256 4.22c3.492 2.4 9.515 4.222 14.087 4.354a.668.668 0 01.267.064c.157-.012.314-.022.472-.03-3.57-1.67-6.166-5.11-6.57-8.608zm14.228-2.069h-3.358l1.137 2.05a.67.67 0 01.061.5l-.035.098-2.892 6.475c3.403-1.903 5.615-5.636 5.119-8.942zm-9.47 0h-3.374l-.029.18c-.496 3.307 1.715 7.039 5.118 8.943l-2.877-6.425a.67.67 0 01-.02-.498l.042-.095zm4.579 0h-3.056l-1.328 2.452 2.853 6.369 2.867-6.415zm8.879-10.807l.837 1.046-5.972 4.778-.837-1.047zm-20.663 0l5.972 4.777-.837 1.047-5.972-4.778zM257.364 140v8.361h-1.34V140z" fill="#a0b9b6"/></g></g></svg>