<svg height="203" width="296" xmlns="http://www.w3.org/2000/svg"><g fill="none" fill-rule="evenodd"><path d="M296 0v203H0V0zm-1 1H1v201h294z" fill="#a0b9b6" fill-rule="nonzero"/><g stroke="#a0b9b6" stroke-width="1.34"><g stroke-linecap="round" stroke-linejoin="round"><path d="M122.536 128.555c1.555-3.885 2.314-7.874 1.45-12.561 2.746 2.258 8.003 3.762 11.54 3.865m-3.976-7.729l-7.564 3.864m27.537 12.561c-1.555-3.885-2.314-7.874-1.45-12.561-2.746 2.258-8.002 3.762-11.54 3.865m3.976-7.729l7.565 3.864m-14.234 32.49l1.19.12c6.8 0 12.319-5.52 12.319-12.32l-.12-1.19c1.508.13 2.937.536 4.226 1.187 0 9.07-7.36 16.43-16.425 16.43"/><path d="M132.31 152.013c-6.77-2.023-11.706-8.304-11.706-15.728 0-9.066 7.36-16.426 16.426-16.426 7.424 0 13.705 4.937 15.728 11.706l-1.411-.363-1.63-.25-1.676-.085a12.193 12.193 0 00-11.011-6.902c-6.8 0-12.32 5.52-12.32 12.32 0 4.848 2.806 9.045 6.902 11.011"/><path d="M152.758 131.565c6.769 2.023 11.706 8.304 11.706 15.728 0 9.066-7.36 16.426-16.426 16.426-7.424 0-13.705-4.937-15.728-11.706l1.411.363 1.63.25 1.675.084a12.193 12.193 0 0011.012 6.902c6.8 0 12.32-5.52 12.32-12.319 0-4.848-2.807-9.045-6.903-11.012"/><path d="M149.229 135.094l-1.19-.12c-6.8 0-12.32 5.52-12.32 12.32l.12 1.19a11.571 11.571 0 01-4.227-1.188v-.003c0-9.065 7.36-16.426 16.426-16.426h.003m-5.772-20.03H131.79c-.898 3.322 1.71 7.126 5.239 8.382 3.528-1.256 6.137-5.06 5.239-8.382zm0 0H131.79"/></g><path d="M145.182 103.597l-4.497 3.598m-11.692-3.598l4.497 3.598m3.598-7.195v6.295"/><path d="M135.58 110.837l-1.261 2.33 2.71 6.052 2.722-6.09-1.272-2.292" stroke-linecap="round" stroke-linejoin="round"/></g><path d="M175.604 140c.468 0 .84-.009 1.118-.026l1.638-.026 1.43.026c.26.017.624.026 1.092.026.052 0 .078-.052.078-.156s-.026-.156-.078-.156c-.71 0-1.261-.264-1.651-.793s-.576-1.261-.559-2.197l.208-9.386 6.578 12.506c.035.07.104.104.208.104s.173-.035.208-.104l5.356-12.558.546 10.634.026.442c0 .555-.13.919-.39 1.092s-.754.26-1.482.26c-.052 0-.078.052-.078.156s.026.156.078.156c.572 0 1.023-.009 1.352-.026l1.95-.026 1.924.026c.347.017.815.026 1.404.026.035 0 .052-.052.052-.156s-.017-.156-.052-.156c-.537 0-.932-.043-1.183-.13s-.425-.251-.52-.494-.16-.633-.195-1.17l-.624-11.804c-.035-.693.13-1.205.494-1.534s.953-.494 1.768-.494c.052 0 .078-.052.078-.156s-.026-.156-.078-.156c-.45 0-.797.009-1.04.026l-1.534.026c-.26 0-.49-.009-.689-.026s-.377-.026-.533-.026c-.19 0-.342.048-.455.143s-.221.264-.325.507l-4.94 11.336-5.668-10.634c-.33-.59-.555-.962-.676-1.118s-.295-.234-.52-.234c-.243 0-.442.009-.598.026l-1.378.026c-.381 0-.693-.009-.936-.026l-1.222-.026c-.052 0-.078.052-.078.156s.026.156.078.156c.485 0 .914.147 1.287.442s.732.763 1.079 1.404l.026.026-.234 10.764c-.017.919-.234 1.647-.65 2.184s-.98.806-1.69.806c-.052 0-.078.052-.078.156s.026.156.078.156zm30.06.364a.29.29 0 00.13-.026l3.588-1.742c.052-.017.057-.07.013-.156-.043-.087-.09-.13-.143-.13h-.052c-.485.19-.84.286-1.066.286-.26 0-.446-.108-.559-.325-.112-.217-.169-.585-.169-1.105v-7.41c0-.035-.021-.065-.065-.091a.233.233 0 00-.117-.039.11.11 0 00-.078.026 3.245 3.245 0 01-1.014.676c-.745-.45-1.586-.676-2.522-.676-1.074 0-2.08.243-3.016.728s-1.69 1.192-2.262 2.119-.858 2.006-.858 3.237c0 .97.174 1.803.52 2.496.347.693.82 1.218 1.417 1.573s1.253.533 1.963.533c.694 0 1.326-.152 1.898-.455s1.144-.724 1.716-1.261c.035.537.117.962.247 1.274s.273.468.43.468zm-2.964-1.404c-.814 0-1.443-.36-1.885-1.079s-.663-1.729-.663-3.029c0-1.37.247-2.487.741-3.354s1.175-1.3 2.041-1.3c.607 0 1.097.217 1.47.65.372.433.558.988.558 1.664v5.616c-.814.555-1.568.832-2.262.832zm6.817 8.19c.468 0 .832-.009 1.092-.026l1.534-.026 2.054.026c.364.017.866.026 1.508.026.052 0 .078-.052.078-.156s-.026-.156-.078-.156c-.676 0-1.175-.048-1.495-.143-.321-.095-.538-.264-.65-.507-.113-.243-.17-.624-.17-1.144v-4.992c.642.19 1.387.286 2.237.286a6.61 6.61 0 002.717-.585c.875-.39 1.599-1.031 2.17-1.924s.859-2.032.859-3.419c0-.97-.191-1.82-.572-2.548-.382-.728-.889-1.283-1.521-1.664a3.885 3.885 0 00-2.041-.572c-1.335 0-2.635.572-3.9 1.716-.052-.503-.152-.901-.3-1.196-.147-.295-.307-.442-.48-.442a.29.29 0 00-.13.026l-3.692 1.794c-.035.017-.03.07.013.156.043.087.09.13.143.13h.052c.52-.243.918-.364 1.196-.364.312 0 .528.121.65.364.121.243.182.641.182 1.196v12.038c0 .52-.04.901-.117 1.144s-.217.412-.416.507c-.2.095-.507.143-.923.143-.052 0-.078.052-.078.156s.026.156.078.156zm6.604-7.462c-.607 0-1.118-.108-1.534-.325s-.815-.542-1.196-.975v-6.474c.641-.555 1.352-.832 2.132-.832.918 0 1.685.36 2.3 1.079.616.72.924 1.738.924 3.055 0 2.981-.876 4.472-2.626 4.472zm6.53.312c.45 0 .806-.009 1.066-.026l1.534-.026 1.56.026c.26.017.615.026 1.066.026.052 0 .078-.052.078-.156s-.026-.156-.078-.156c-.537 0-.906-.126-1.105-.377s-.299-.724-.299-1.417v-5.564c.312-.295.672-.524 1.079-.689s.819-.247 1.235-.247c.659 0 1.148.225 1.469.676s.481 1.144.481 2.08v3.744c0 .693-.1 1.166-.299 1.417s-.568.377-1.105.377c-.052 0-.078.052-.078.156s.026.156.078.156c.45 0 .815-.009 1.092-.026l1.508-.026 1.56.026c.26.017.615.026 1.066.026.07 0 .104-.052.104-.156s-.035-.156-.104-.156c-.537 0-.906-.126-1.105-.377s-.299-.724-.299-1.417v-5.434c.312-.33.685-.59 1.118-.78s.875-.286 1.326-.286c.659 0 1.148.225 1.469.676s.481 1.144.481 2.08v3.744c0 .693-.1 1.166-.299 1.417s-.568.377-1.105.377c-.052 0-.078.052-.078.156s.026.156.078.156c.45 0 .815-.009 1.092-.026l1.508-.026 1.56.026c.26.017.615.026 1.066.026.07 0 .104-.052.104-.156s-.035-.156-.104-.156c-.537 0-.906-.126-1.105-.377s-.299-.724-.299-1.417v-4.992c0-1.092-.247-1.907-.741-2.444s-1.209-.806-2.145-.806c-1.456 0-2.782.771-3.978 2.314-.104-.745-.399-1.317-.884-1.716s-1.135-.598-1.95-.598c-1.352 0-2.617.702-3.796 2.106-.035-.624-.139-1.122-.312-1.495s-.355-.559-.546-.559a1.06 1.06 0 00-.182.052l-3.614 1.768c-.035.017-.039.07-.013.156s.065.13.117.13h.052c.537-.243.953-.364 1.248-.364.277 0 .481.126.611.377s.195.646.195 1.183v4.888c0 .693-.095 1.166-.286 1.417s-.555.377-1.092.377c-.052 0-.078.052-.078.156s.026.156.078.156zm28.032.364a.29.29 0 00.13-.026l3.588-1.742c.052-.017.057-.07.013-.156-.043-.087-.09-.13-.143-.13h-.052c-.468.19-.823.286-1.066.286-.26 0-.446-.121-.559-.364-.112-.243-.169-.659-.169-1.248v-6.916c0-.07-.047-.143-.143-.221a.44.44 0 00-.273-.117.29.29 0 00-.13.026l-3.484 1.664c-.052.017-.06.074-.026.169.035.095.078.143.13.143h.026c.26-.121.486-.182.676-.182.538 0 .806.563.806 1.69v4.446c-.312.295-.663.524-1.053.689s-.775.247-1.157.247c-1.438 0-2.158-.936-2.158-2.808v-5.746c0-.07-.047-.143-.143-.221a.44.44 0 00-.273-.117l-.13.026-3.484 1.664c-.052.017-.06.074-.026.169.035.095.087.143.156.143h.026c.243-.121.46-.182.65-.182.538 0 .806.563.806 1.69v3.822c0 .97.273 1.755.82 2.353s1.295.897 2.248.897c1.335 0 2.574-.676 3.718-2.028.018.641.091 1.148.221 1.521s.282.559.455.559zm4.035-.364c.502 0 .892-.009 1.17-.026l1.508-.026 1.456.026c.26.017.632.026 1.118.026.034 0 .052-.052.052-.156s-.018-.156-.052-.156c-.416 0-.72-.043-.91-.13-.191-.087-.321-.256-.39-.507-.07-.251-.104-.637-.104-1.157v-2.6h4.576v2.6c0 .52-.035.906-.104 1.157-.07.251-.204.42-.403.507-.2.087-.507.13-.923.13-.052 0-.078.052-.078.156s.026.156.078.156c.485 0 .866-.009 1.144-.026l1.534-.026 1.456.026c.26.017.632.026 1.118.026.034 0 .052-.052.052-.156s-.018-.156-.052-.156c-.416 0-.72-.043-.91-.13-.191-.087-.321-.256-.39-.507-.07-.251-.104-.637-.104-1.157v-7.826c0-.07-.048-.143-.143-.221a.44.44 0 00-.273-.117.29.29 0 00-.13.026l-3.484 1.664c-.052.017-.061.074-.026.169.034.095.078.143.13.143h.026c.26-.121.485-.182.676-.182.537 0 .806.563.806 1.69v1.43h-4.576v-4.602c0-.07-.048-.143-.143-.221a.44.44 0 00-.273-.117.29.29 0 00-.13.026l-3.484 1.664c-.052.017-.061.074-.026.169.034.095.078.143.13.143h.026c.26-.121.485-.182.676-.182.537 0 .806.563.806 1.69v4.654c0 .52-.035.906-.104 1.157-.07.251-.204.42-.403.507-.2.087-.507.13-.923.13-.052 0-.078.052-.078.156s.026.156.078.156zm-27.547-12.562l.351-.351c.182-.182.386-.334.611-.455s.546-.182.962-.182c.572 0 1.257.165 2.054.494.45.156.802.269 1.053.338s.524.104.819.104c.503 0 .962-.182 1.378-.546s.962-1.083 1.638-2.158c.017-.035.009-.078-.026-.13s-.07-.078-.104-.078l-.052.026c-.277.312-.55.555-.819.728s-.637.26-1.105.26c-.347 0-.685-.043-1.014-.13s-.71-.217-1.144-.39c-.277-.104-.555-.2-.832-.286s-.529-.13-.754-.13c-1.04 0-2.106.901-3.198 2.704-.017.035-.004.074.039.117s.082.065.117.065zM32.894 140c.208 0 .394-.07.56-.208.164-.139.458-.507.883-1.105s1.096-1.616 2.015-3.055c.745-1.179 1.326-2.02 1.742-2.522s.823-.845 1.222-1.027c.399-.182.927-.273 1.586-.273v6.084c0 .52-.052.906-.156 1.157s-.295.42-.572.507c-.277.087-.72.13-1.326.13-.035 0-.052.052-.052.156s.017.156.052.156c.607 0 1.075-.009 1.404-.026l1.898-.026 2.08.026c.364.017.867.026 1.508.026.035 0 .052-.052.052-.156s-.017-.156-.052-.156c-.607 0-1.049-.043-1.326-.13-.277-.087-.464-.256-.559-.507-.095-.251-.143-.637-.143-1.157v-6.084c.659 0 1.187.091 1.586.273.399.182.806.524 1.222 1.027s.997 1.343 1.742 2.522c.919 1.439 1.59 2.457 2.015 3.055.425.598.72.966.884 1.105a.845.845 0 00.56.208h4.003c.052 0 .078-.052.078-.156s-.026-.156-.078-.156a2.29 2.29 0 01-1.3-.468c-.399-.295-.789-.689-1.17-1.183a57.934 57.934 0 01-1.664-2.327l-.39-.598c-.659-.97-1.205-1.703-1.638-2.197-.433-.494-.862-.854-1.287-1.079-.425-.225-.949-.373-1.573-.442l3.588-4.42c.78-.953 1.59-1.677 2.431-2.171.84-.494 1.694-.741 2.561-.741.035 0 .052-.052.052-.156s-.017-.156-.052-.156l-1.118.026a43.88 43.88 0 01-2.106.052c-.52 0-1.23-.017-2.132-.052l-1.69-.026c-.052 0-.078.052-.078.156s.026.156.078.156c.485 0 .85.108 1.092.325.243.217.364.516.364.897 0 .745-.407 1.681-1.222 2.808l-2.366 3.25h-.624c-.728 0-1.317.009-1.768.026v-5.46c0-.52.052-.906.156-1.157s.295-.429.572-.533c.277-.104.71-.156 1.3-.156.035 0 .052-.052.052-.156s-.017-.156-.052-.156l-1.482.026a54.35 54.35 0 01-2.106.052 42 42 0 01-1.846-.052l-1.43-.026c-.035 0-.052.052-.052.156s.017.156.052.156c.59 0 1.023.048 1.3.143.277.095.468.264.572.507s.156.624.156 1.144v5.512a49.342 49.342 0 00-1.768-.026h-.624l-2.444-3.38c-.78-1.11-1.17-2.002-1.17-2.678 0-.381.126-.68.377-.897.251-.217.628-.325 1.131-.325.035 0 .052-.052.052-.156s-.017-.156-.052-.156l-1.716.026a58.71 58.71 0 01-2.132.052 43.88 43.88 0 01-2.106-.052l-1.118-.026c-.035 0-.052.052-.052.156s.017.156.052.156c.867 0 1.72.247 2.561.741.84.494 1.651 1.218 2.431 2.171l3.588 4.42c-.607.07-1.127.217-1.56.442-.433.225-.87.59-1.313 1.092s-.984 1.23-1.625 2.184l-.39.598a57.934 57.934 0 01-1.664 2.327c-.381.494-.771.888-1.17 1.183a2.29 2.29 0 01-1.3.468c-.052 0-.078.052-.078.156s.026.156.078.156zm30.606.364a.29.29 0 00.13-.026l3.588-1.742c.052-.017.057-.07.013-.156s-.09-.13-.142-.13h-.053c-.485.19-.84.286-1.066.286-.26 0-.446-.108-.559-.325s-.169-.585-.169-1.105v-7.41c0-.035-.021-.065-.065-.091s-.082-.039-.117-.039-.06.009-.078.026a3.245 3.245 0 01-1.014.676c-.745-.45-1.586-.676-2.522-.676-1.074 0-2.08.243-3.016.728s-1.69 1.192-2.262 2.119-.858 2.006-.858 3.237c0 .97.174 1.803.52 2.496s.82 1.218 1.417 1.573 1.253.533 1.963.533c.694 0 1.326-.152 1.898-.455s1.145-.724 1.717-1.261c.034.537.116.962.246 1.274s.274.468.43.468zm-2.964-1.404c-.814 0-1.443-.36-1.885-1.079s-.663-1.729-.663-3.029c0-1.37.248-2.487.742-3.354s1.174-1.3 2.04-1.3c.607 0 1.097.217 1.47.65s.558.988.558 1.664v5.616c-.814.555-1.568.832-2.262.832zM67.51 140c.502 0 .892-.009 1.17-.026l1.508-.026 1.456.026c.26.017.632.026 1.118.026.034 0 .052-.052.052-.156s-.018-.156-.052-.156c-.416 0-.72-.043-.91-.13-.19-.087-.32-.256-.39-.507s-.104-.637-.104-1.157v-2.6h4.576v2.6c0 .52-.035.906-.104 1.157-.07.251-.204.42-.403.507-.2.087-.507.13-.923.13-.052 0-.078.052-.078.156s.026.156.078.156c.485 0 .866-.009 1.144-.026l1.534-.026 1.456.026c.26.017.632.026 1.118.026.034 0 .052-.052.052-.156s-.018-.156-.052-.156c-.416 0-.72-.043-.91-.13-.19-.087-.32-.256-.39-.507s-.104-.637-.104-1.157v-7.826c0-.07-.048-.143-.143-.221a.44.44 0 00-.273-.117.29.29 0 00-.13.026l-3.484 1.664c-.052.017-.06.074-.026.169.035.095.078.143.13.143h.026c.26-.121.485-.182.676-.182.537 0 .806.563.806 1.69v1.43h-4.576v-4.602c0-.07-.048-.143-.143-.221a.44.44 0 00-.273-.117.29.29 0 00-.13.026l-3.484 1.664c-.052.017-.06.074-.026.169.035.095.078.143.13.143h.026c.26-.121.485-.182.676-.182.537 0 .806.563.806 1.69v4.654c0 .52-.035.906-.104 1.157-.07.251-.204.42-.403.507-.2.087-.507.13-.923.13-.052 0-.078.052-.078.156s.026.156.078.156zm18.49.312c.78 0 1.5-.139 2.158-.416.659-.277 1.309-.728 1.95-1.352.035-.035.03-.087-.013-.156-.043-.07-.082-.104-.117-.104l-.052.026c-.381.243-.806.425-1.274.546s-.919.182-1.352.182c-1.23 0-2.197-.433-2.899-1.3s-1.053-2.045-1.053-3.536c0-.399.026-.763.078-1.092l4.68-.052h1.586c.19 0 .286-.251.286-.754 0-.797-.286-1.426-.858-1.885s-1.395-.689-2.47-.689c-1.11 0-2.115.247-3.016.741-.901.494-1.612 1.17-2.132 2.028s-.78 1.79-.78 2.795c0 .884.208 1.712.624 2.483s1.023 1.387 1.82 1.846c.797.46 1.742.689 2.834.689zm-2.496-7.722c.173-.728.45-1.3.832-1.716.381-.416.832-.624 1.352-.624.953 0 1.456.754 1.508 2.262zM91.23 140c.451 0 .807-.009 1.067-.026l1.533-.026 1.56.026c.26.017.616.026 1.067.026.052 0 .078-.052.078-.156s-.026-.156-.078-.156c-.538 0-.906-.126-1.105-.377s-.3-.724-.3-1.417v-5.564c.313-.295.672-.524 1.08-.689s.818-.247 1.234-.247c.66 0 1.149.225 1.47.676s.48 1.144.48 2.08v3.744c0 .693-.1 1.166-.299 1.417s-.567.377-1.105.377c-.052 0-.078.052-.078.156s.026.156.078.156c.451 0 .815-.009 1.092-.026l1.508-.026 1.56.026c.26.017.616.026 1.066.026.07 0 .104-.052.104-.156s-.034-.156-.104-.156c-.537 0-.905-.126-1.105-.377s-.299-.724-.299-1.417v-5.434c.312-.33.685-.59 1.118-.78s.876-.286 1.326-.286c.66 0 1.149.225 1.47.676s.48 1.144.48 2.08v3.744c0 .693-.1 1.166-.299 1.417s-.567.377-1.105.377c-.052 0-.078.052-.078.156s.026.156.078.156c.451 0 .815-.009 1.092-.026l1.508-.026 1.56.026c.26.017.616.026 1.066.026.07 0 .104-.052.104-.156s-.034-.156-.104-.156c-.537 0-.905-.126-1.105-.377s-.299-.724-.299-1.417v-4.992c0-1.092-.247-1.907-.74-2.444s-1.21-.806-2.146-.806c-1.456 0-2.782.771-3.978 2.314-.104-.745-.398-1.317-.884-1.716s-1.135-.598-1.95-.598c-1.352 0-2.617.702-3.796 2.106-.034-.624-.138-1.122-.312-1.495s-.355-.559-.546-.559a1.06 1.06 0 00-.182.052l-3.614 1.768c-.034.017-.039.07-.013.156s.065.13.117.13h.052c.538-.243.954-.364 1.248-.364.278 0 .481.126.611.377s.195.646.195 1.183v4.888c0 .693-.095 1.166-.286 1.417s-.554.377-1.092.377c-.052 0-.078.052-.078.156s.026.156.078.156zm4.441-12.562l.351-.351c.182-.182.386-.334.611-.455s.546-.182.962-.182c.572 0 1.257.165 2.054.494.45.156.802.269 1.053.338s.524.104.819.104c.503 0 .962-.182 1.378-.546s.962-1.083 1.638-2.158c.017-.035.009-.078-.026-.13s-.07-.078-.104-.078l-.052.026c-.277.312-.55.555-.819.728s-.637.26-1.105.26c-.347 0-.685-.043-1.014-.13s-.71-.217-1.144-.39c-.277-.104-.555-.2-.832-.286s-.529-.13-.754-.13c-1.04 0-2.106.901-3.198 2.704-.017.035-.004.074.039.117s.082.065.117.065z" fill="#021631" fill-rule="nonzero"/><g fill-rule="nonzero"><g fill="#a0b9b6"><path d="M.854 17.854l-.708-.708 17-17 .708.708z"/><path d="M.5 18v-1h7.794L17 8.294V.5h1v8.207L8.707 18z"/><path d="M11.342 14.974l-6.216-2.072L.038.692.962.308l4.912 11.79 5.784 1.928z"/><path d="M14.026 11.658l-1.928-5.784L.308.962.692.038l12.21 5.088 2.072 6.216z"/></g><g fill="#a0b9b6"><path d="M.854 185.146l-.708.708 17 17 .708-.708z"/><path d="M.5 185v1h7.794L17 194.706v7.794h1v-8.207L8.707 185z"/><path d="M11.342 188.026l-6.216 2.072-5.088 12.21.924.384 4.912-11.79 5.784-1.928z"/><path d="M14.026 191.342l-1.928 5.784-11.79 4.912.384.924 12.21-5.088 2.072-6.216z"/></g><g fill="#a0b9b6"><path d="M295.146 185.146l.708.708-17 17-.708-.708z"/><path d="M295.5 185v1h-7.794L279 194.706v7.794h-1v-8.207l9.293-9.293z"/><path d="M284.658 188.026l6.216 2.072 5.088 12.21-.924.384-4.912-11.79-5.784-1.928z"/><path d="M281.974 191.342l1.928 5.784 11.79 4.912-.384.924-12.21-5.088-2.072-6.216z"/></g><g fill="#a0b9b6"><path d="M295.146 17.854l.708-.708-17-17-.708.708z"/><path d="M295.5 18v-1h-7.794L279 8.294V.5h-1v8.207L287.293 18z"/><path d="M284.658 14.974l6.216-2.072 5.088-12.21-.924-.384-4.912 11.79-5.784 1.928z"/><path d="M281.974 11.658l1.928-5.784 11.79-4.912-.384-.924-12.21 5.088-2.072 6.216z"/></g><g fill="#021631"><path d="M49.908 77c.144 0 .248-.036.312-.108s.136-.212.216-.42l4.848-14.16c.032-.048.024-.112-.024-.192s-.104-.12-.168-.12h-6.36c-.464 0-.772-.024-.924-.072s-.228-.144-.228-.288c0-.096.008-.176.024-.24.016-.048-.024-.076-.12-.084s-.152.012-.168.06l-.912 3.84c-.016.032-.004.06.036.084s.084.036.132.036c.064 0 .104-.024.12-.072.16-.56.372-.94.636-1.14s.844-.332 1.74-.396 2.536-.096 4.92-.096c.144 0 .176.056.096.168L48.3 76.712c-.032.08-.024.148.024.204s.12.084.216.084zm12.367-7.928c.072 0 .114-.024.126-.072l2.178-4.86.468 3.438c.024.216.036.36.036.432 0 .312-.069.519-.207.621s-.375.153-.711.153c-.024 0-.036.036-.036.108s.012.108.036.108c.264 0 .474-.006.63-.018l.882-.018.936.018c.18.012.432.018.756.018.036 0 .054-.036.054-.108s-.018-.108-.054-.108c-.312 0-.537-.03-.675-.09s-.231-.168-.279-.324-.096-.432-.144-.828l-.648-5.562c0-.036-.027-.066-.081-.09s-.117-.036-.189-.036-.126.024-.162.072l-2.484 5.526-2.988-5.544c-.036-.036-.096-.054-.18-.054-.06 0-.117.009-.171.027s-.081.045-.081.081l-.432 5.166c-.048.6-.159 1.026-.333 1.278s-.459.378-.855.378c-.036 0-.054.036-.054.108s.018.108.054.108c.264 0 .468-.006.612-.018l.756-.018.756.018c.144.012.348.018.612.018.036 0 .054-.036.054-.108s-.018-.108-.054-.108c-.408 0-.711-.105-.909-.315s-.297-.543-.297-.999c0-.144.006-.258.018-.342l.306-3.006L62.131 69c.012.048.06.072.144.072zm11.916.126a.2.2 0 00.09-.018l2.232-1.062c.036-.024.042-.063.018-.117s-.06-.081-.108-.081h-.018c-.396.168-.69.252-.882.252-.216 0-.369-.09-.459-.27s-.135-.474-.135-.882v-4.95c0-.048-.024-.09-.072-.126s-.096-.054-.144-.054l-.072.018-2.124.99c-.036.012-.048.048-.036.108s.036.09.072.09h.036c.228-.096.42-.144.576-.144.192 0 .33.099.414.297s.126.525.126.981v3.114c-.288.3-.612.534-.972.702s-.708.252-1.044.252c-1.008 0-1.512-.678-1.512-2.034V62.07c0-.048-.024-.09-.072-.126s-.096-.054-.144-.054l-.072.018-2.124.99c-.036.012-.045.048-.027.108s.045.09.081.09h.036c.204-.096.39-.144.558-.144.192 0 .33.099.414.297s.126.525.126.981v2.718c0 .696.177 1.239.531 1.629s.837.585 1.449.585c.96 0 1.884-.498 2.772-1.494 0 .456.054.825.162 1.107s.216.423.324.423zM218.26 77c.064 0 .116-.028.156-.084s.06-.116.06-.18l.024-3c0-.032-.048-.048-.144-.048s-.144.016-.144.048c-.016.528-.188.908-.516 1.14s-.916.38-1.764.444-2.248.096-4.2.096c-.16 0-.192-.056-.096-.168.288-.368.848-1 1.68-1.896.944-1.024 1.732-1.924 2.364-2.7s1.18-1.632 1.644-2.568.696-1.852.696-2.748c0-1.072-.332-1.94-.996-2.604s-1.58-.996-2.748-.996c-1.136 0-2.084.316-2.844.948s-1.244 1.508-1.452 2.628c-.016.064.04.096.168.096.064 0 .096-.008.096-.024.24-.784.628-1.392 1.164-1.824s1.196-.648 1.98-.648c.848 0 1.512.256 1.992.768s.72 1.256.72 2.232c0 .896-.216 1.816-.648 2.76s-.984 1.88-1.656 2.808-1.624 2.16-2.856 3.696l-1.128 1.392c-.064.064-.06.152.012.264s.148.168.228.168zm7.56.312c.992 0 1.86-.32 2.604-.96s1.316-1.544 1.716-2.712.6-2.528.6-4.08c0-1.568-.2-2.944-.6-4.128s-.968-2.1-1.704-2.748-1.592-.972-2.568-.972c-1.008 0-1.888.32-2.64.96s-1.336 1.548-1.752 2.724-.624 2.54-.624 4.092c0 1.568.204 2.944.612 4.128s.988 2.096 1.74 2.736 1.624.96 2.616.96zm.288-.384c-1.04 0-1.836-.656-2.388-1.968s-.828-3.192-.828-5.64c0-2.32.228-4.104.684-5.352s1.132-1.872 2.028-1.872c.96 0 1.716.644 2.268 1.932s.828 3.228.828 5.82c0 4.72-.864 7.08-2.592 7.08zm14.88.072c.064 0 .116-.028.156-.084s.06-.116.06-.18l.024-3c0-.032-.048-.048-.144-.048s-.144.016-.144.048c-.016.528-.188.908-.516 1.14s-.916.38-1.764.444-2.248.096-4.2.096c-.16 0-.192-.056-.096-.168.288-.368.848-1 1.68-1.896.944-1.024 1.732-1.924 2.364-2.7s1.18-1.632 1.644-2.568.696-1.852.696-2.748c0-1.072-.332-1.94-.996-2.604s-1.58-.996-2.748-.996c-1.136 0-2.084.316-2.844.948s-1.244 1.508-1.452 2.628c-.016.064.04.096.168.096.064 0 .096-.008.096-.024.24-.784.628-1.392 1.164-1.824s1.196-.648 1.98-.648c.848 0 1.512.256 1.992.768s.72 1.256.72 2.232c0 .896-.216 1.816-.648 2.76s-.984 1.88-1.656 2.808-1.624 2.16-2.856 3.696l-1.128 1.392c-.064.064-.06.152.012.264s.148.168.228.168zm3.024 0c.624 0 1.12-.008 1.488-.024l2.04-.024 2.04.024c.368.016.856.024 1.464.024.032 0 .048-.048.048-.144s-.016-.144-.048-.144c-.768 0-1.332-.04-1.692-.12s-.608-.236-.744-.468-.204-.588-.204-1.068V61.928c0-.048-.016-.088-.048-.12s-.064-.048-.096-.048c-.048 0-.104.024-.168.072l-4.296 3.144c-.048.032-.056.084-.024.156s.08.108.144.108l.048-.024c.96-.688 1.624-1.032 1.992-1.032.464 0 .696.48.696 1.44v9.432c0 .48-.076.832-.228 1.056s-.408.38-.768.468-.908.132-1.644.132c-.032 0-.048.048-.048.144s.016.144.048.144zm-133.456 0c.08 0 .12-.048.12-.144s-.04-.144-.12-.144c-1.552 0-2.328-.52-2.328-1.56 0-.352.112-.792.336-1.32l1.968-4.536h4.416l2.688 5.568c.24.48.36.856.36 1.128s-.12.46-.36.564-.632.156-1.176.156c-.064 0-.096.048-.096.144s.032.144.096.144c.272 0 .68-.016 1.224-.048s1-.048 1.368-.048c.304 0 .776.016 1.416.048.672.032 1.16.048 1.464.048.064 0 .096-.048.096-.144s-.032-.144-.096-.144c-.48 0-.912-.208-1.296-.624s-.848-1.208-1.392-2.376l-5.784-11.88c-.016-.064-.072-.092-.168-.084s-.152.036-.168.084l-5.112 11.784c-.368.848-.696 1.488-.984 1.92s-.588.736-.9.912-.692.264-1.14.264c-.064 0-.096.048-.096.144s.032.144.096.144c.32 0 .736-.016 1.248-.048a27.366 27.366 0 011.488-.048c.448 0 .976.016 1.584.048.544.032.96.048 1.248.048zm4.128-8.256h-3.936l1.872-4.32zm12.912 8.568c1.536 0 2.724-.44 3.564-1.32s1.26-2.024 1.26-3.432c0-.912-.188-1.724-.564-2.436s-.88-1.272-1.512-1.68-1.34-.644-2.124-.708c.944-.528 1.728-1.28 2.352-2.256s.936-1.992.936-3.048c0-1.888-1.048-2.832-3.144-2.832-1.6 0-2.916.692-3.948 2.076s-1.548 3.964-1.548 7.74c0 2 .176 3.576.528 4.728s.872 1.968 1.56 2.448 1.568.72 2.64.72zm-1.872-9.36c-.4 0-.72-.008-.96-.024.048-2.832.34-4.864.876-6.096s1.26-1.848 2.172-1.848c.656 0 1.156.272 1.5.816s.516 1.28.516 2.208c0 .88-.176 1.7-.528 2.46s-.84 1.364-1.464 1.812-1.328.672-2.112.672zm2.448 8.904c-.768 0-1.396-.232-1.884-.696s-.864-1.292-1.128-2.484-.396-2.852-.396-4.98v-.264c.24-.032.568-.048.984-.048 1.568 0 2.776.432 3.624 1.296s1.272 2.12 1.272 3.768c0 1.168-.2 2.028-.6 2.58s-1.024.828-1.872.828zm8.976.384c.752 0 1.464-.18 2.136-.54s1.224-.884 1.656-1.572c.032-.048.032-.096 0-.144s-.072-.072-.12-.072-.08.016-.096.048c-.304.448-.668.784-1.092 1.008s-.868.336-1.332.336c-.608 0-1.132-.176-1.572-.528s-.66-.816-.66-1.392c0-.56.164-.996.492-1.308s.844-.66 1.548-1.044c.784-.432 1.356-.828 1.716-1.188s.54-.852.54-1.476c0-.608-.184-1.084-.552-1.428s-.912-.516-1.632-.516c-.336 0-.636.032-.9.096s-.548.16-.852.288c-.384.128-.632.192-.744.192-.256 0-.384-.16-.384-.48 0-.096.008-.176.024-.24.016-.016.004-.036-.036-.06s-.084-.036-.132-.036c-.064 0-.096.016-.096.048l-.768 3.192c-.016.064.048.096.192.096.048 0 .08-.008.096-.024.224-.736.572-1.336 1.044-1.8s.98-.696 1.524-.696c.432 0 .768.152 1.008.456s.36.728.36 1.272c0 .624-.176 1.14-.528 1.548s-.88.804-1.584 1.188c-.72.416-1.248.8-1.584 1.152s-.504.808-.504 1.368c0 .768.284 1.336.852 1.704s1.228.552 1.98.552zm4.512 6.504c.688 0 1.308-.188 1.86-.564s1.092-1.004 1.62-1.884 1.08-2.088 1.656-3.624l2.856-7.584c.256-.72.54-1.244.852-1.572s.692-.492 1.14-.492c.048 0 .072-.048.072-.144s-.024-.144-.072-.144c-.352 0-.608.008-.768.024l-.912.024-1.44-.024a14.95 14.95 0 00-.984-.024c-.032 0-.048.048-.048.144s.016.144.048.144c.592 0 1.028.092 1.308.276s.42.476.42.876c0 .224-.064.544-.192.96l-1.776 5.088-3.048-6.264a.845.845 0 01-.12-.408c0-.192.112-.328.336-.408s.552-.12.984-.12c.032 0 .048-.048.048-.144s-.016-.144-.048-.144c-.416 0-.744.008-.984.024l-1.56.024c-.368 0-.656-.008-.864-.024l-.888-.024c-.032 0-.048.048-.048.144s.016.144.048.144c.304 0 .552.108.744.324s.472.676.84 1.38l3.72 7.512c-.512 1.36-.952 2.412-1.32 3.156s-.716 1.276-1.044 1.596-.684.48-1.068.48c-.176 0-.316-.024-.42-.072s-.244-.12-.42-.216-.328-.172-.456-.228-.296-.084-.504-.084c-.24 0-.444.076-.612.228s-.252.364-.252.636c0 .32.12.568.36.744s.552.264.936.264zm15.504-6.456c.704 0 1.344-.12 1.92-.36s1.144-.616 1.704-1.128c.048-.032.052-.072.012-.12s-.084-.072-.132-.072h-.048c-.72.496-1.52.744-2.4.744-1.328 0-2.312-.424-2.952-1.272s-.96-1.936-.96-3.264c0-1.152.236-2.076.708-2.772S156.14 68 156.972 68c.416 0 .728.08.936.24s.4.424.576.792c.272.624.672.936 1.2.936.304 0 .544-.088.72-.264s.264-.384.264-.624c0-.448-.296-.82-.888-1.116s-1.248-.444-1.968-.444c-.864 0-1.712.204-2.544.612s-1.512.992-2.04 1.752-.792 1.652-.792 2.676c0 .8.172 1.56.516 2.28s.872 1.308 1.584 1.764 1.588.684 2.628.684zm5.424-.288c.384 0 .688-.008.912-.024l1.344-.024 1.32.024c.24.016.552.024.936.024.048 0 .072-.048.072-.144s-.024-.144-.072-.144c-.592 0-.98-.108-1.164-.324s-.276-.66-.276-1.332V69.92c.368-.4.776-.712 1.224-.936s.896-.336 1.344-.336c.672 0 1.168.22 1.488.66s.48 1.124.48 2.052v3.696c0 .672-.096 1.116-.288 1.332s-.576.324-1.152.324c-.048 0-.072.048-.072.144s.024.144.072.144c.384 0 .696-.008.936-.024l1.32-.024 1.32.024c.24.016.552.024.936.024.048 0 .072-.048.072-.144s-.024-.144-.072-.144c-.592 0-.98-.108-1.164-.324s-.276-.66-.276-1.332v-5.064c.352-.416.76-.744 1.224-.984s.928-.36 1.392-.36c.672 0 1.172.22 1.5.66s.492 1.124.492 2.052v3.696c0 .672-.096 1.116-.288 1.332s-.584.324-1.176.324c-.032 0-.048.048-.048.144s.016.144.048.144c.384 0 .696-.008.936-.024l1.32-.024 1.344.024c.224.016.536.024.936.024.048 0 .072-.048.072-.144s-.024-.144-.072-.144c-.416 0-.724-.044-.924-.132s-.336-.248-.408-.48-.108-.58-.108-1.044v-4.632c0-.976-.228-1.712-.684-2.208s-1.108-.744-1.956-.744c-1.264 0-2.48.704-3.648 2.112-.112-.688-.392-1.212-.84-1.572s-1.032-.54-1.752-.54c-1.248 0-2.424.664-3.528 1.992-.016-.576-.1-1.044-.252-1.404s-.308-.54-.468-.54a.334.334 0 00-.144.024l-2.976 1.416c-.048.016-.06.064-.036.144s.06.12.108.12h.048c.544-.224.968-.336 1.272-.336.288 0 .492.116.612.348s.18.612.18 1.14v4.68c0 .672-.092 1.116-.276 1.332s-.564.324-1.14.324c-.048 0-.072.048-.072.144s.024.144.072.144z"/><path d="M168.004 63.496l.348-.348c.168-.168.356-.308.564-.42s.504-.168.888-.168c.32 0 .616.036.888.108s.624.18 1.056.324c.384.144.708.252.972.324s.548.108.852.108c.432 0 .828-.136 1.188-.408s.836-.816 1.428-1.632c.032-.032.028-.068-.012-.108s-.084-.06-.132-.06h-.024c-.272.304-.528.536-.768.696s-.584.24-1.032.24c-.32 0-.636-.04-.948-.12s-.668-.2-1.068-.36c-.272-.096-.548-.184-.828-.264s-.532-.12-.756-.12c-.928 0-1.856.68-2.784 2.04-.016.032-.004.068.036.108s.076.06.108.06z" opacity=".9"/></g><path d="M96.053 54.276l.894.448-11.5 23-.894-.448zm104.5 0l.894.448-11.5 23-.894-.448z" fill="#a0b9b6"/></g></g></svg>