<svg height="296" viewBox="0 0 527 296" width="527" xmlns="http://www.w3.org/2000/svg"><g fill="none" fill-rule="evenodd"><g transform="translate(129 81)"><g fill="#021631" fill-rule="nonzero"><g><path d="m5.544 33c.192 0 .33066667-.048.416-.144s.18133333-.2826667.288-.56l6.464-18.88c.0426667-.064.032-.1493333-.032-.256s-.1386667-.16-.224-.16h-8.48c-.61866667 0-1.02933333-.032-1.232-.096s-.304-.192-.304-.384c0-.128.01066667-.2346667.032-.32.02133333-.064-.032-.1013333-.16-.112s-.20266667.016-.224.08l-1.216 5.12c-.02133333.0426667-.00533333.08.048.112s.112.048.176.048c.08533333 0 .13866667-.032.16-.096.21333333-.7466667.496-1.2533333.848-1.52s1.12533333-.4426667 2.32-.528 3.38133333-.128 6.56-.128c.192 0 .2346667.0746667.128.224l-7.712 17.216c-.04266667.1066667-.032.1973333.032.272s.16.112.288.112z"/><path d="m19.488 22.288c.544 0 1.064-.112 1.56-.336s1.04-.584 1.632-1.08c.048-.032.056-.084.024-.156s-.08-.108-.144-.108l-.048.024c-.56.464-1.192.696-1.896.696-.592 0-1.048-.156-1.368-.468s-.48-.788-.48-1.428v-5.88c1.12.032 2.184.152 3.192.36.064.016.12-.044.168-.18s.072-.276.072-.42-.016-.272-.048-.384-.072-.168-.12-.168c-1.392.144-2.48.224-3.264.24v-1.848c0-.048-.056-.072-.168-.072s-.176.024-.192.072c-.128.576-.408 1.028-.84 1.356s-1 .5-1.704.516c-.048 0-.072.056-.072.168 0 .128.024.192.072.192.528 0 .868.08 1.02.24s.228.52.228 1.08v5.544c0 .736.228 1.26.684 1.572s1.02.468 1.692.468zm4.2-.288c.384 0 .688-.008.912-.024l1.368-.024 1.32.024c.224.016.536.024.936.024.048 0 .072-.048.072-.144s-.024-.144-.072-.144c-.592 0-.984-.108-1.176-.324s-.288-.66-.288-1.332v-5.112c.384-.4.816-.716 1.296-.948s.952-.348 1.416-.348c.72 0 1.252.22 1.596.66s.516 1.124.516 2.052v3.696c0 .672-.092 1.116-.276 1.332s-.572.324-1.164.324c-.032 0-.048.048-.048.144s.016.144.048.144c.384 0 .688-.008.912-.024l1.368-.024 1.32.024c.224.016.536.024.936.024.048 0 .072-.048.072-.144s-.024-.144-.072-.144c-.592 0-.984-.108-1.176-.324s-.288-.66-.288-1.332v-4.632c0-.944-.24-1.672-.72-2.184s-1.16-.768-2.04-.768c-1.296 0-2.528.672-3.696 2.016v-9.648c0-.064-.028-.12-.084-.168s-.116-.072-.18-.072h-.072l-3.216 1.56c-.048.016-.056.064-.024.144s.072.12.12.12h.048c.416-.208.768-.312 1.056-.312.272 0 .46.124.564.372s.156.66.156 1.236v12.336c0 .672-.092 1.116-.276 1.332s-.572.324-1.164.324c-.032 0-.048.048-.048.144s.016.144.048.144z"/></g><path d="m13.18 30c.0853333 0 .1546667-.0373333.208-.112s.08-.1546667.08-.24l.032-4c0-.0426667-.064-.064-.192-.064s-.192.0213333-.192.064c-.0213333.704-.2506667 1.2106667-.688 1.52s-1.2213333.5066667-2.352.592c-1.13066667.0853333-2.99733333.128-5.6.128-.21333333 0-.256-.0746667-.128-.224.384-.4906667 1.13066667-1.3333333 2.24-2.528 1.25866667-1.3653333 2.30933333-2.5653333 3.152-3.6.8426667-1.0346667 1.5733333-2.176 2.192-3.424s.928-2.4693333.928-3.664c0-1.4293333-.4426667-2.5866667-1.328-3.472s-2.10666667-1.328-3.664-1.328c-1.51466667 0-2.77866667.4213333-3.792 1.264s-1.65866667 2.0106667-1.936 3.504c-.02133333.0853333.05333333.128.224.128.08533333 0 .128-.0106667.128-.032.32-1.0453333.83733333-1.856 1.552-2.432s1.59466667-.864 2.64-.864c1.13066667 0 2.016.3413333 2.656 1.024s.96 1.6746667.96 2.976c0 1.1946667-.288 2.4213333-.864 3.68s-1.312 2.5066667-2.208 3.744-2.16533333 2.88-3.808 4.928l-1.504 1.856c-.08533333.0853333-.08.2026667.016.352s.19733333.224.304.224zm10.08.416c1.3226667 0 2.48-.4266667 3.472-1.28s1.7546667-2.0586667 2.288-3.616.8-3.3706667.8-5.44c0-2.0906667-.2666667-3.9253333-.8-5.504s-1.2906667-2.8-2.272-3.664-2.1226667-1.296-3.424-1.296c-1.344 0-2.5173333.4266667-3.52 1.28s-1.7813333 2.064-2.336 3.632-.832 3.3866667-.832 5.456c0 2.0906667.272 3.9253333.816 5.504s1.3173333 2.7946667 2.32 3.648 2.1653333 1.28 3.488 1.28zm.384-.512c-1.3866667 0-2.448-.8746667-3.184-2.624s-1.104-4.256-1.104-7.52c0-3.0933333.304-5.472.912-7.136s1.5093333-2.496 2.704-2.496c1.28 0 2.288.8586667 3.024 2.576s1.104 4.304 1.104 7.76c0 6.2933333-1.152 9.44-3.456 9.44zm19.84.096c.0853333 0 .1546667-.0373333.208-.112s.08-.1546667.08-.24l.032-4c0-.0426667-.064-.064-.192-.064s-.192.0213333-.192.064c-.0213333.704-.2506667 1.2106667-.688 1.52s-1.2213333.5066667-2.352.592-2.9973333.128-5.6.128c-.2133333 0-.256-.0746667-.128-.224.384-.4906667 1.1306667-1.3333333 2.24-2.528 1.2586667-1.3653333 2.3093333-2.5653333 3.152-3.6s1.5733333-2.176 2.192-3.424.928-2.4693333.928-3.664c0-1.4293333-.4426667-2.5866667-1.328-3.472s-2.1066667-1.328-3.664-1.328c-1.5146667 0-2.7786667.4213333-3.792 1.264s-1.6586667 2.0106667-1.936 3.504c-.0213333.0853333.0533333.128.224.128.0853333 0 .128-.0106667.128-.032.32-1.0453333.8373333-1.856 1.552-2.432s1.5946667-.864 2.64-.864c1.1306667 0 2.016.3413333 2.656 1.024s.96 1.6746667.96 2.976c0 1.1946667-.288 2.4213333-.864 3.68s-1.312 2.5066667-2.208 3.744-2.1653333 2.88-3.808 4.928l-1.504 1.856c-.0853333.0853333-.08.2026667.016.352s.1973333.224.304.224zm4.032 0c.832 0 1.4933333-.0106667 1.984-.032l2.72-.032 2.72.032c.4906667.0213333 1.1413333.032 1.952.032.0426667 0 .064-.064.064-.192s-.0213333-.192-.064-.192c-1.024 0-1.776-.0533333-2.256-.16s-.8106667-.3146667-.992-.624-.272-.784-.272-1.424v-17.504c0-.064-.0213333-.11733333-.064-.16s-.0853333-.064-.128-.064c-.064 0-.1386667.032-.224.096l-5.728 4.192c-.064.0426667-.0746667.112-.032.208s.1066667.144.192.144l.064-.032c1.28-.9173333 2.1653333-1.376 2.656-1.376.6186667 0 .928.64.928 1.92v12.576c0 .64-.1013333 1.1093333-.304 1.408s-.544.5066667-1.024.624-1.2106667.176-2.192.176c-.0426667 0-.064.064-.064.192s.0213333.192.064.192z" transform="translate(213 3)"/><path d="m104.572 33c.085333 0 .128-.064.128-.192s-.042667-.192-.128-.192c-.64 0-1.216-.2773333-1.728-.832s-1.130667-1.6106667-1.856-3.168l-7.712-15.84c-.0213333-.0853333-.096-.1226667-.224-.112s-.2026667.048-.224.112l-6.816 15.712c-.4906667 1.1306667-.928 1.984-1.312 2.56s-.784.9813333-1.2 1.216-.9226667.352-1.52.352c-.0853333 0-.128.064-.128.192s.0426667.192.128.192c.4266667 0 .9813333-.0213333 1.664-.064.768-.0426667 1.4293333-.064 1.984-.064.5973333 0 1.3013333.0213333 2.112.064.7253333.0426667 1.28.064 1.664.064.1066667 0 .16-.064.16-.192s-.0533333-.192-.16-.192c-2.0693333 0-3.104-.6933333-3.104-2.08 0-.4693333.1493333-1.056.448-1.76l2.624-6.048h5.888l3.584 7.424c.32.64.48 1.1413333.48 1.504s-.16.6133333-.48.752-.8426667.208-1.568.208c-.0853333 0-.128.064-.128.192s.0426667.192.128.192c.3626667 0 .9066667-.0213333 1.632-.064s1.333333-.064 1.824-.064c.405333 0 1.034667.0213333 1.888.064.896.0426667 1.546667.064 1.952.064zm-9.664-11.008h-5.248l2.496-5.76zm21.408 11.36c.064 0 .117333-.0106667.16-.032l3.968-1.888c.064-.0426667.074667-.112.032-.208s-.106667-.144-.192-.144h-.032c-.704.2986667-1.226667.448-1.568.448-.384 0-.656-.16-.816-.48s-.24-.8426667-.24-1.568v-8.8c0-.0853333-.042667-.16-.128-.224s-.170667-.096-.256-.096l-.128.032-3.776 1.76c-.064.0213333-.085333.0853333-.064.192s.064.16.128.16h.064c.405333-.1706667.746667-.256 1.024-.256.341333 0 .586667.176.736.528s.224.9333333.224 1.744v5.536c-.512.5333333-1.088.9493333-1.728 1.248s-1.258667.448-1.856.448c-1.792 0-2.688-1.2053333-2.688-3.616v-7.456c0-.0853333-.042667-.16-.128-.224s-.170667-.096-.256-.096l-.128.032-3.776 1.76c-.064.0213333-.08.0853333-.048.192s.08.16.144.16h.064c.362667-.1706667.693333-.256.992-.256.341333 0 .586667.176.736.528s.224.9333333.224 1.744v4.832c0 1.2373333.314667 2.2026667.944 2.896s1.488 1.04 2.576 1.04c1.706667 0 3.349333-.8853333 4.928-2.656 0 .8106667.096 1.4666667.288 1.968s.384.752.576.752zm10.464 8.64c2.048 0 3.648-.6186667 4.8-1.856s1.728-2.8693333 1.728-4.896v-14.816c0-.0213333-.026667-.048-.08-.08s-.101333-.048-.144-.048-.074667.0106667-.096.032c-.234667.3413333-.565333.6186667-.992.832-.938667-.6186667-1.973333-.928-3.104-.928-1.173333 0-2.32.304-3.44.912s-2.037333 1.488-2.752 2.64-1.072 2.496-1.072 4.032c0 1.7493333.448 3.1093333 1.344 4.08s2.005333 1.456 3.328 1.456c.917333 0 1.765333-.224 2.544-.672s1.541333-1.056 2.288-1.824v5.152c0 2.0266667-.277333 3.4186667-.832 4.176s-1.312 1.136-2.272 1.136c-.768 0-1.344-.144-1.728-.432s-.768-.72-1.152-1.296c-.256-.4266667-.501333-.7413333-.736-.944s-.544-.304-.928-.304c-.32 0-.597333.1013333-.832.304s-.352.5173333-.352.944c0 .7253333.416 1.3066667 1.248 1.744s1.909333.656 3.232.656zm.768-9.92c-1.066667 0-1.904-.4746667-2.512-1.424s-.912-2.224-.912-3.824c0-1.7493333.362667-3.1786667 1.088-4.288s1.685333-1.664 2.88-1.664c.832 0 1.546667.2666667 2.144.8s.896 1.1946667.896 1.984v6.656c-1.258667 1.1733333-2.453333 1.76-3.584 1.76zm19.616 1.28c.064 0 .117333-.0106667.16-.032l3.968-1.888c.064-.0426667.074667-.112.032-.208s-.106667-.144-.192-.144h-.032c-.704.2986667-1.226667.448-1.568.448-.384 0-.656-.16-.816-.48s-.24-.8426667-.24-1.568v-8.8c0-.0853333-.042667-.16-.128-.224s-.170667-.096-.256-.096l-.128.032-3.776 1.76c-.064.0213333-.085333.0853333-.064.192s.064.16.128.16h.064c.405333-.1706667.746667-.256 1.024-.256.341333 0 .586667.176.736.528s.224.9333333.224 1.744v5.536c-.512.5333333-1.088.9493333-1.728 1.248s-1.258667.448-1.856.448c-1.792 0-2.688-1.2053333-2.688-3.616v-7.456c0-.0853333-.042667-.16-.128-.224s-.170667-.096-.256-.096l-.128.032-3.776 1.76c-.064.0213333-.08.0853333-.048.192s.08.16.144.16h.064c.362667-.1706667.693333-.256.992-.256.341333 0 .586667.176.736.528s.224.9333333.224 1.744v4.832c0 1.2373333.314667 2.2026667.944 2.896s1.488 1.04 2.576 1.04c1.706667 0 3.349333-.8853333 4.928-2.656 0 .8106667.096 1.4666667.288 1.968s.384.752.576.752zm9.056 0c1.429333 0 2.554667-.3893333 3.376-1.168s1.232-1.712 1.232-2.8c0-.6613333-.149333-1.216-.448-1.664s-.656-.816-1.072-1.104-1.008-.6346667-1.776-1.04c-.896-.4693333-1.584-.928-2.064-1.376s-.72-1.024-.72-1.728c0-.5546667.144-.9546667.432-1.2s.677333-.368 1.168-.368c.533333 0 1.061333.1333333 1.584.4s.954667.6133333 1.296 1.04.512.8533333.512 1.28c0 .0426667.064.064.192.064s.192-.0213333.192-.064l.032-1.44c.021333-.256.032-.6186667.032-1.088 0-.1706667-.096-.288-.288-.352-.789333-.32-1.6-.48-2.432-.48-1.216 0-2.261333.304-3.136.912s-1.312 1.5093333-1.312 2.704c0 .6826667.144 1.248.432 1.696s.64.8106667 1.056 1.088.976.5866667 1.68.928c.64.3413333 1.146667.6346667 1.52.88s.688.576.944.992.384.9226667.384 1.52c0 .576-.165333 1.0133333-.496 1.312s-.794667.448-1.392.448c-.853333 0-1.626667-.3093333-2.32-.928s-1.232-1.4613333-1.616-2.528c-.021333-.064-.090667-.0906667-.208-.08s-.176.048-.176.112l.064 2.72c0 .128.064.256.192.384.981333.6186667 2.026667.928 3.136.928zm11.936.032c.725333 0 1.418667-.1493333 2.08-.448s1.386667-.7786667 2.176-1.44c.064-.0426667.074667-.112.032-.208s-.106667-.144-.192-.144l-.064.032c-.746667.6186667-1.589333.928-2.528.928-.789333 0-1.397333-.208-1.824-.624s-.64-1.0506667-.64-1.904v-7.84c1.493333.0426667 2.912.2026667 4.256.48.085333.0213333.16-.0586667.224-.24s.096-.368.096-.56-.021333-.3626667-.064-.512-.096-.224-.16-.224c-1.856.192-3.306667.2986667-4.352.32v-2.464c0-.064-.074667-.096-.224-.096s-.234667.032-.256.096c-.170667.768-.544 1.3706667-1.12 1.808s-1.333333.6666667-2.272.688c-.064 0-.096.0746667-.096.224 0 .1706667.032.256.096.256.704 0 1.157333.1066667 1.36.32s.304.6933333.304 1.44v7.392c0 .9813333.304 1.68.912 2.096s1.36.624 2.256.624z"/></g><path d="m64.5 10.5-11.5 23" stroke="#a0b9b6"/><path d="m202 10.5-11.5 23" stroke="#a0b9b6"/></g><g stroke="#a0b9b6"><path d="m514.5.5v12h12v271h-12v12h-502v-12h-12v-271h12v-12z"/><path d="m16.5 17.5h494v262h-494z"/><g transform="matrix(-1 0 0 -1 34 35)"><path d="m17.5.5-17 17"/><path d="m.5 17.5v-8l9-9h8"/><path d="m17.5 17.5-5-12-6-2"/><path d="m17.5 17.5-12-5-2-6"/></g><g transform="matrix(-1 0 0 1 34 262)"><path d="m17.5.5-17 17"/><path d="m.5 17.5v-8l9-9h8"/><path d="m17.5 17.5-5-12-6-2"/><path d="m17.5 17.5-12-5-2-6"/></g><g transform="matrix(1 0 0 -1 493 35)"><path d="m17.5.5-17 17"/><path d="m.5 17.5v-8l9-9h8"/><path d="m17.5 17.5-5-12-6-2"/><path d="m17.5 17.5-12-5-2-6"/></g><g transform="translate(493 262)"><path d="m17.5.5-17 17"/><path d="m.5 17.5v-8l9-9h8"/><path d="m17.5 17.5-5-12-6-2"/><path d="m17.5 17.5-12-5-2-6"/></g></g><path d="m2.34 60.584c3.432 0 6.11-1.092 8.034-3.276s2.886-5.2173333 2.886-9.1v-28.392c0-1.04.0693333-1.8113333.208-2.314s.4246667-.858.858-1.066 1.1006667-.312 2.002-.312c.104 0 .156-.104.156-.312s-.052-.312-.156-.312l-2.444.052c-1.456.0693333-2.6693333.104-3.64.104-1.00533333 0-2.34-.0346667-4.004-.104l-3.224-.052c-.06933333 0-.104.104-.104.312s.03466667.312.104.312c1.28266667 0 2.21866667.0953333 2.808.286s.99666667.5286667 1.222 1.014.338 1.248.338 2.288v32.136c0 2.7386667-.17333333 4.6973333-.52 5.876s-.884 1.768-1.612 1.768c-.312 0-.572-.1473333-.78-.442s-.416-.7193333-.624-1.274c-.38133333-.936-.806-1.664-1.274-2.184s-1.13533333-.78-2.002-.78c-.90133333 0-1.57733333.2686667-2.028.806s-.676 1.1526667-.676 1.846c0 .9706667.416 1.7333333 1.248 2.288.832.5546667 1.90666667.832 3.224.832zm34.164-11.856c.104 0 .1906667-.0173333.26-.052l7.176-3.484c.104-.0346667.1126667-.1386667.026-.312s-.182-.26-.286-.26h-.104c-.9706667.3813333-1.6813333.572-2.132.572-.52 0-.8926667-.2166667-1.118-.65s-.338-1.17-.338-2.21v-14.82c0-.0693333-.0433333-.13-.13-.182s-.1646667-.078-.234-.078-.1213333.0173333-.156.052c-.5546667.5546667-1.2306667 1.0053333-2.028 1.352-1.4906667-.9013333-3.172-1.352-5.044-1.352-2.1493333 0-4.16.4853333-6.032 1.456s-3.38 2.3833333-4.524 4.238-1.716 4.0126667-1.716 6.474c0 1.9413333.3466667 3.6053333 1.04 4.992s1.638 2.4353333 2.834 3.146 2.5046667 1.066 3.926 1.066c1.3866667 0 2.652-.3033333 3.796-.91s2.288-1.4473333 3.432-2.522c.0693333 1.0746667.234 1.924.494 2.548s.546.936.858.936zm-5.928-2.808c-1.6293333 0-2.886-.7193333-3.77-2.158s-1.326-3.458-1.326-6.058c0-2.7386667.494-4.9746667 1.482-6.708s2.3486667-2.6 4.082-2.6c1.2133333 0 2.1926667.4333333 2.938 1.3s1.118 1.976 1.118 3.328v11.232c-1.6293333 1.1093333-3.1373333 1.664-4.524 1.664zm15.392 2.08c.9013333 0 1.612-.0173333 2.132-.052l3.068-.052 3.12.052c.52.0346667 1.2306667.052 2.132.052.104 0 .156-.104.156-.312s-.052-.312-.156-.312c-1.0746667 0-1.8113333-.2513333-2.21-.754s-.598-1.4473333-.598-2.834v-11.076c.6586667-.5893333 1.43-1.0573333 2.314-1.404s1.742-.52 2.574-.52c1.456 0 2.522.4506667 3.198 1.352s1.014 2.288 1.014 4.16v7.488c0 1.3866667-.1906667 2.3313333-.572 2.834s-1.1093333.754-2.184.754c-.104 0-.156.104-.156.312s.052.312.156.312c.9013333 0 1.6293333-.0173333 2.184-.052l3.016-.052 3.12.052c.52.0346667 1.2306667.052 2.132.052.104 0 .156-.104.156-.312s-.052-.312-.156-.312c-1.0746667 0-1.8113333-.2513333-2.21-.754s-.598-1.4473333-.598-2.834v-9.984c0-1.9413333-.546-3.51-1.638-4.706s-2.574-1.794-4.446-1.794c-2.8773333 0-5.512 1.4213333-7.904 4.264-.0693333-1.2826667-.2773333-2.2966667-.624-3.042s-.7106667-1.118-1.092-1.118c-.0346667 0-.156.0346667-.364.104l-7.228 3.536c-.0693333.0346667-.078.1386667-.026.312s.13.26.234.26h.104c1.0746667-.4853333 1.9066667-.728 2.496-.728.5546667 0 .962.2513333 1.222.754s.39 1.2913333.39 2.366v9.776c0 1.3866667-.1906667 2.3313333-.572 2.834s-1.1093333.754-2.184.754c-.104 0-.156.104-.156.312s.052.312.156.312zm37.544.624c1.56 0 2.9986667-.2773333 4.316-.832s2.6173333-1.456 3.9-2.704c.0693333-.0693333.0606667-.1733333-.026-.312s-.1646667-.208-.234-.208l-.104.052c-.7626667.4853333-1.612.8493333-2.548 1.092s-1.8373333.364-2.704.364c-2.4613333 0-4.394-.8666667-5.798-2.6s-2.106-4.0906667-2.106-7.072c0-.7973333.052-1.5253333.156-2.184l9.36-.104h3.172c.3813333 0 .572-.5026667.572-1.508 0-1.5946667-.572-2.8513333-1.716-3.77s-2.7906667-1.378-4.94-1.378c-2.2186667 0-4.2293333.494-6.032 1.482s-3.224 2.34-4.264 4.056-1.56 3.5793333-1.56 5.59c0 1.768.416 3.4233333 1.248 4.966s2.0453333 2.7733333 3.64 3.692 3.484 1.378 5.668 1.378zm-4.992-15.444c.3466667-1.456.9013333-2.6 1.664-3.432s1.664-1.248 2.704-1.248c1.9066667 0 2.912 1.508 3.016 4.524zm24.076 15.444c1.352 0 2.634667-.3033333 3.848-.91s2.461333-1.5513333 3.744-2.834c.104-.0693333.112667-.1733333.026-.312s-.199333-.208-.338-.208l-.104.052c-1.317333 1.04-2.669333 1.56-4.056 1.56-1.109333 0-2.002-.312-2.678-.936s-1.014-1.5946667-1.014-2.912v-12.324c2.114667.0346667 4.298667.2946667 6.552.78.138667.0346667.268667-.1126667.39-.442s.182-.6673333.182-1.014c0-.312-.043333-.598-.13-.858s-.164667-.39-.234-.39c-2.496.2773333-4.749333.4333333-6.76.468v-4.16c0-.1386667-.112667-.208-.338-.208s-.372667.0693333-.442.208c-.589333 1.4213333-1.43 2.4786667-2.522 3.172s-2.522 1.0746667-4.29 1.144c-.0693333 0-.1213333.0433333-.156.13s-.052.1993333-.052.338c0 .104.026.208.078.312s.0953333.156.13.156c1.0053333 0 1.6986667.208 2.08.624s.572 1.1613333.572 2.236v11.544c0 1.7333333.5373333 2.964 1.612 3.692s2.374667 1.092 3.9 1.092z" fill="#021631" fill-rule="nonzero" transform="translate(85 152)"/><path d="m1.404 48c.936 0 1.68133333-.0173333 2.236-.052l3.276-.052 2.86.052c.52.0346667 1.248.052 2.184.052.104 0 .156-.104.156-.312s-.052-.312-.156-.312c-1.4213333 0-2.522-.5286667-3.302-1.586s-1.15266667-2.522-1.118-4.394l.416-18.772 13.156 25.012c.0693333.1386667.208.208.416.208s.3466667-.0693333.416-.208l10.712-25.116 1.092 21.268.052.884c0 1.1093333-.26 1.8373333-.78 2.184s-1.508.52-2.964.52c-.104 0-.156.104-.156.312s.052.312.156.312c1.144 0 2.0453333-.0173333 2.704-.052l3.9-.052 3.848.052c.6933333.0346667 1.6293333.052 2.808.052.0693333 0 .104-.104.104-.312s-.0346667-.312-.104-.312c-1.0746667 0-1.8633333-.0866667-2.366-.26s-.8493333-.5026667-1.04-.988-.3206667-1.2653333-.39-2.34l-1.248-23.608c-.0693333-1.3866667.26-2.4093333.988-3.068s1.9066667-.988 3.536-.988c.104 0 .156-.104.156-.312s-.052-.312-.156-.312c-.9013333 0-1.5946667.0173333-2.08.052l-3.068.052c-.52 0-.9793333-.0173333-1.378-.052s-.754-.052-1.066-.052c-.3813333 0-.6846667.0953333-.91.286s-.442.5286667-.65 1.014l-9.88 22.672-11.336-21.268c-.6586667-1.1786667-1.1093333-1.924-1.352-2.236s-.5893333-.468-1.04-.468c-.48533333 0-.884.0173333-1.196.052l-2.756.052c-.76266667 0-1.38666667-.0173333-1.872-.052l-2.444-.052c-.104 0-.156.104-.156.312s.052.312.156.312c.97066667 0 1.82866667.2946667 2.574.884s1.46466667 1.5253333 2.158 2.808l.052.052-.468 21.528c-.03466667 1.8373333-.468 3.2933333-1.3 4.368s-1.95866667 1.612-3.38 1.612c-.104 0-.156.104-.156.312s.052.312.156.312zm61.204.728c.104 0 .1906667-.0173333.26-.052l7.176-3.484c.104-.0346667.1126667-.1386667.026-.312s-.182-.26-.286-.26h-.104c-.9706667.3813333-1.6813333.572-2.132.572-.52 0-.8926667-.2166667-1.118-.65s-.338-1.17-.338-2.21v-14.82c0-.0693333-.0433333-.13-.13-.182s-.1646667-.078-.234-.078-.1213333.0173333-.156.052c-.5546667.5546667-1.2306667 1.0053333-2.028 1.352-1.4906667-.9013333-3.172-1.352-5.044-1.352-2.1493333 0-4.16.4853333-6.032 1.456s-3.38 2.3833333-4.524 4.238-1.716 4.0126667-1.716 6.474c0 1.9413333.3466667 3.6053333 1.04 4.992s1.638 2.4353333 2.834 3.146 2.5046667 1.066 3.926 1.066c1.3866667 0 2.652-.3033333 3.796-.91s2.288-1.4473333 3.432-2.522c.0693333 1.0746667.234 1.924.494 2.548s.546.936.858.936zm-5.928-2.808c-1.6293333 0-2.886-.7193333-3.77-2.158s-1.326-3.458-1.326-6.058c0-2.7386667.494-4.9746667 1.482-6.708s2.3486667-2.6 4.082-2.6c1.2133333 0 2.1926667.4333333 2.938 1.3s1.118 1.976 1.118 3.328v11.232c-1.6293333 1.1093333-3.1373333 1.664-4.524 1.664zm15.392 2.08c.9013333 0 1.612-.0173333 2.132-.052l3.068-.052 4.212.052c.6933333.0346667 1.6466667.052 2.86.052.1386667 0 .208-.104.208-.312s-.0693333-.312-.208-.312c-1.768 0-2.9813333-.2513333-3.64-.754s-.988-1.4473333-.988-2.834v-11.18c.832-.832 1.4473333-1.378 1.846-1.638s.7713333-.39 1.118-.39c.312 0 .5806667.078.806.234s.494.4073333.806.754c.3466667.416.6846667.728 1.014.936s.754.312 1.274.312c.728 0 1.3173333-.234 1.768-.702s.676-1.066.676-1.794c0-.7973333-.3726667-1.482-1.118-2.054s-1.5166667-.858-2.314-.858c-.6933333 0-1.4993333.2946667-2.418.884s-2.0886667 1.612-3.51 3.068c-.0693333-1.2133333-.2686667-2.1753333-.598-2.886s-.6846667-1.066-1.066-1.066c-.0346667 0-.156.0346667-.364.104l-7.228 3.536c-.0693333.0346667-.078.1386667-.026.312s.13.26.234.26h.104c1.0746667-.4853333 1.9066667-.728 2.496-.728.5546667 0 .962.2513333 1.222.754s.39 1.2913333.39 2.366v9.776c0 1.3866667-.1906667 2.3313333-.572 2.834s-1.1093333.754-2.184.754c-.104 0-.156.104-.156.312s.052.312.156.312zm27.248.624c1.352 0 2.634667-.3033333 3.848-.91s2.461333-1.5513333 3.744-2.834c.104-.0693333.112667-.1733333.026-.312s-.199333-.208-.338-.208l-.104.052c-1.317333 1.04-2.669333 1.56-4.056 1.56-1.109333 0-2.002-.312-2.678-.936s-1.014-1.5946667-1.014-2.912v-12.324c2.114667.0346667 4.298667.2946667 6.552.78.138667.0346667.268667-.1126667.39-.442s.182-.6673333.182-1.014c0-.312-.043333-.598-.13-.858s-.164667-.39-.234-.39c-2.496.2773333-4.749333.4333333-6.76.468v-4.16c0-.1386667-.1126667-.208-.338-.208s-.3726667.0693333-.442.208c-.5893333 1.4213333-1.43 2.4786667-2.522 3.172s-2.522 1.0746667-4.29 1.144c-.0693333 0-.1213333.0433333-.156.13s-.052.1993333-.052.338c0 .104.026.208.078.312s.0953333.156.13.156c1.0053333 0 1.6986667.208 2.08.624s.572 1.1613333.572 2.236v11.544c0 1.7333333.5373333 2.964 1.612 3.692s2.3746667 1.092 3.9 1.092zm14.924-26.364c.970667 0 1.716-.2773333 2.236-.832s.78-1.3346667.78-2.34c0-.936-.26-1.664-.78-2.184s-1.265333-.78-2.236-.78-1.742.2686667-2.314.806-.858 1.2566667-.858 2.158c0 1.0053333.277333 1.7853333.832 2.34s1.334667.832 2.34.832zm-4.992 25.74c.901333 0 1.612-.0173333 2.132-.052l3.068-.052 3.12.052c.52.0346667 1.230667.052 2.132.052.104 0 .156-.104.156-.312s-.052-.312-.156-.312c-1.074667 0-1.811333-.2513333-2.21-.754s-.598-1.4473333-.598-2.834v-9.412c0-2.0106667.034667-3.7093333.104-5.096v-1.144c0-.1386667-.086667-.2946667-.26-.468s-.346667-.26-.52-.26l-.156.052-7.852 3.64c-.104.0346667-.121333.1473333-.052.338s.173333.286.312.286h.052c.832-.3813333 1.473333-.572 1.924-.572.554667 0 .953333.26 1.196.78s.364 1.3693333.364 2.548v9.308c0 1.3866667-.190667 2.3313333-.572 2.834s-1.109333.754-2.184.754c-.104 0-.156.104-.156.312s.052.312.156.312zm13.676 0c.901333 0 1.612-.0173333 2.132-.052l3.068-.052 3.12.052c.52.0346667 1.230667.052 2.132.052.104 0 .156-.104.156-.312s-.052-.312-.156-.312c-1.074667 0-1.811333-.2513333-2.21-.754s-.598-1.4473333-.598-2.834v-11.076c.658667-.5893333 1.43-1.0573333 2.314-1.404s1.742-.52 2.574-.52c1.456 0 2.522.4506667 3.198 1.352s1.014 2.288 1.014 4.16v7.488c0 1.3866667-.190667 2.3313333-.572 2.834s-1.109333.754-2.184.754c-.104 0-.156.104-.156.312s.052.312.156.312c.901333 0 1.629333-.0173333 2.184-.052l3.016-.052 3.12.052c.52.0346667 1.230667.052 2.132.052.104 0 .156-.104.156-.312s-.052-.312-.156-.312c-1.074667 0-1.811333-.2513333-2.21-.754s-.598-1.4473333-.598-2.834v-9.984c0-1.9413333-.546-3.51-1.638-4.706s-2.574-1.794-4.446-1.794c-2.877333 0-5.512 1.4213333-7.904 4.264-.069333-1.2826667-.277333-2.2966667-.624-3.042s-.710667-1.118-1.092-1.118c-.034667 0-.156.0346667-.364.104l-7.228 3.536c-.069333.0346667-.078.1386667-.026.312s.13.26.234.26h.104c1.074667-.4853333 1.906667-.728 2.496-.728.554667 0 .962.2513333 1.222.754s.39 1.2913333.39 2.366v9.776c0 1.3866667-.190667 2.3313333-.572 2.834s-1.109333.754-2.184.754c-.104 0-.156.104-.156.312s.052.312.156.312z" fill="#021631" fill-rule="nonzero" transform="translate(307 152)"/><g stroke="#a0b9b6" stroke-width="1.34" transform="translate(226 140)"><g stroke-linecap="round" stroke-linejoin="round"><path d="m3.36856831 37.9244544c2.06498584-5.1597911 3.07288286-10.4569985 1.92489617-16.6824335 3.64767825 2.9985605 10.62916972 4.9967096 15.32805522 5.1330565"/><path d="m15.340888 16.108964-10.047424 5.133057"/><path d="m41.8664918 37.9244544c-2.0649858-5.1597911-3.0728829-10.4569985-1.9248962-16.6824335-3.6476782 2.9985605-10.6291697 4.9967096-15.3280552 5.1330565"/><path d="m29.894172 16.108964 10.047424 5.133057"/><path d="m21.0364417 64.3923115 1.5810884.1598733c9.0304365 0 16.3616174-7.3311809 16.3616174-16.3616175l-.1598733-1.5810883c2.0034961.1732407 3.9005882.7122116 5.6137458 1.5768108 0 12.0445031-9.7752644 21.8197675-21.8154899 21.8197675"/><path d="m16.3487848 69.0799684c-8.98979978-2.6868343-15.54674473-11.0285857-15.54674473-20.8894011 0-12.0402255 9.77526443-21.8154899 21.81549003-21.8154899 9.8608153 0 18.2025668 6.5569449 20.889401 15.5467447l-1.874635-.4822934c-.7213014-.1106815-1.4431374-.2208284-2.1649735-.3309752l-2.2248592-.1128203c-2.6114424-5.4399705-8.1861556-9.1667834-14.6249333-9.1667834-9.0304366 0-16.36161753 7.331181-16.36161753 16.3616175 0 6.4387777 3.72681287 12.0134909 9.16678333 14.6249334"/><path d="m43.5069311 41.9218221c8.9897998 2.6868343 15.5467448 11.0285857 15.5467448 20.8894011 0 12.0402255-9.7752644 21.81549-21.81549 21.81549-9.8608154 0-18.2025668-6.556945-20.8894011-15.5467448l1.874635.4822934c.7213014.1106815 1.4431375.2208284 2.1649735.3309752l2.2248592.1128203c2.6114425 5.4399705 8.1861557 9.1667834 14.6249334 9.1667834 9.0304365 0 16.3616175-7.331181 16.3616175-16.3616175 0-6.4387777-3.7268129-12.0134909-9.1667834-14.6249334"/><path d="m38.8192742 46.609479-1.5810883-.1598733c-9.0304365 0-16.3616175 7.3311809-16.3616175 16.3616175l.1598733 1.5810883c-2.0034961-.1732407-3.9005882-.7122116-5.6137458-1.5768108v-.0042775c0-12.0402256 9.7752644-21.81549 21.81549-21.81549h.0042775"/><path d="m29.575495 14.3925987h-13.9159299c-1.192901 4.4128244 2.2719122 9.4646075 6.957965 11.1323162 4.6860528-1.6677087 8.1508659-6.7194918 6.9579649-11.1323162z"/><path d="m29.575495 14.392599h-13.91593"/></g><path d="m33.444444 9.555556-5.972222-4.777778" transform="matrix(1 0 0 -1 0 14.333334)"/><path d="m17.916667 9.555556-5.972223-4.777778" transform="matrix(-1 0 0 -1 29.861112 14.333334)"/><path d="m22.694444 8.361111v-8.361111" transform="matrix(-1 0 0 -1 45.388888 8.361112)"/><path d="m20.6926339 14.3925987-1.6751944 3.0937359 3.6000906 8.0385803 3.6139925-8.0883068-1.6890964-3.0440094" stroke-linecap="round" stroke-linejoin="round"/></g></g></svg>