<svg height="83" width="528" xmlns="http://www.w3.org/2000/svg"><g fill="none" fill-rule="evenodd"><g fill="#a0b9b6"><path d="M12.866 67.788a.67.67 0 01.663.571l.007.1.001 8.037.15.003.455.016.597.032.581.044.566.056.277.032.539.074c3.002.453 5.068 1.467 5.068 2.876 0 1.41-2.066 2.424-5.068 2.876l-.54.074-.557.062c-.094.01-.189.019-.285.027l-.581.044-.297.018-.603.025-.306.008-.621.006-.622-.006-.306-.008-.603-.025-.296-.018-.582-.044a13.1 13.1 0 01-.285-.027l-.557-.062-.54-.074-.52-.085c-2.717-.488-4.548-1.464-4.548-2.79 0-1.41 2.067-2.424 5.068-2.877l.54-.074.276-.032.566-.056.582-.044.596-.032c.17-.007.341-.013.514-.017l.001-8.04c0-.37.3-.67.67-.67zm.046 10.041l-.599.007c-.395.01-.782.028-1.158.055l-.556.046c-.091.008-.182.017-.272.027l-.528.062-.507.071-.485.08-.461.09-.434.095-.407.102c-.13.035-.256.07-.376.107l-.345.111c-.875.303-1.39.644-1.39.947 0 .323.582.687 1.558 1.004l.361.11c.126.035.256.07.392.104l.42.099c.145.031.294.062.448.092l.473.084.246.04.507.071.528.062c.18.019.362.036.548.051l.564.04c.477.028.97.043 1.473.043l.5-.005c.33-.006.655-.02.972-.038l.565-.04c.185-.015.367-.032.547-.05l.528-.063.257-.035.496-.076.473-.084c.154-.03.303-.06.448-.093l.42-.098c.136-.034.267-.07.392-.105l.36-.11c.977-.316 1.56-.68 1.56-1.003 0-.303-.516-.644-1.391-.947l-.345-.111a10.32 10.32 0 00-.376-.107l-.406-.102-.435-.096-.46-.088c-.158-.028-.32-.055-.485-.08l-.508-.072-.528-.062c-.09-.01-.18-.019-.272-.027l-.555-.046a25.003 25.003 0 00-1.757-.062zM25.056 4.533l.007.17.001.643.009 2.006.02 1.985.03 2.021.044 2.115.055 2.266.095 3.584.058 2.471.04 2.25.013 1.045.01 1.478-.002 1.247-.009.964-.017.913-.025.867-.016.416-.037.8-.047.762-.056.724-.031.35-.07.674c-.164 1.429-.4 2.65-.723 3.803l-.156.527c-.108.349-.224.693-.35 1.036l-.195.516c-.068.172-.138.344-.21.517l-.224.522-.239.53-.253.542c-1.334 2.795-3.29 5.59-6.154 8.811a5.221 5.221 0 01-3.087 1.732v7.81a.67.67 0 01-1.333.098l-.008-.099v-7.76a5.215 5.215 0 01-3.316-1.617c-1.626-1.684-2.945-3.29-4.017-4.894-2.41-3.605-3.648-7.287-4.17-12.124l-.044-.428-.08-.837-.03-.356-.051-.69-.06-1.073-.03-.76-.026-1.024-.01-.665-.006-1.468.016-2.316.043-2.825.187-9.404.033-2.27.029-3.24.005-2.175c0-5.669 23.909-5.725 24.387-.17zM1.75 23.075l-.015 1.907-.001 1.393.006 1.057.012 1.01.019.966.026.922.033.882.04.843.049.805.057.771.065.737.075.706.04.342.088.663c.14.974.313 1.858.523 2.683l.146.541c.151.534.32 1.043.508 1.538l.194.49c.133.324.275.642.426.958l.234.471c.12.236.245.47.376.705l.268.47.284.472.298.477.154.241.322.488c1.025 1.534 2.294 3.079 3.873 4.714a3.882 3.882 0 005.767-.122c2.791-3.14 4.677-5.835 5.951-8.505l.263-.561.166-.368.234-.545.148-.36.207-.538.13-.359.062-.18.12-.362.113-.365.107-.37.1-.375.094-.382.088-.39.082-.398.112-.617.068-.426.063-.438.057-.453.052-.468.046-.484.042-.501.037-.52.047-.817.037-.865.027-.917.018-.972.01-1.39-.002-1.116-.014-1.596-.02-1.182c-4.083 1.622-6.6 1.41-10.86-.164l-.406-.152c-4.464-1.693-6.763-1.878-11.046.006zM10 31a2 2 0 110 4 2 2 0 010-4zm0 1a1 1 0 100 2 1 1 0 000-2zM23.727 6.336l-.151.075c-1.547.732-4.205 1.165-7.517 1.327l-.878.036-.907.024-.932.012h-.951l-.932-.012-.907-.024-.878-.036c-3.312-.162-5.97-.595-7.517-1.327l-.151-.075-.01 1.72-.032 2.912-.04 2.49-.112 5.506-.034 1.938-.009.707c4.193-1.738 6.778-1.54 11.106.059l.404.151c4.386 1.664 6.621 1.865 10.756.129l-.03-1.461-.137-5.274-.06-2.618-.044-2.44-.022-1.772zm-10.86-4.587l-.74.006-.37.007-.733.025C6.396 1.98 2.228 2.908 2.018 4.57l-.009.132.006.049c.04.182.308.367.762.545l.266.097c.142.047.297.094.465.14l.352.092.384.089.415.085.219.042.458.08.737.113.522.07.547.065.568.06.588.053.608.048.626.041.641.035.657.028.67.02.681.012.685.005.679-.004.668-.012.657-.02.324-.012.637-.03.622-.037.607-.044.589-.049.57-.055.55-.06.528-.065.505-.07.481-.073.456-.078.429-.081.4-.085.189-.043.355-.089.324-.09.29-.094.257-.095c.477-.19.74-.389.74-.583 0-1.746-4.264-2.718-9.014-2.916l-.734-.025a44.327 44.327 0 00-.369-.007z" fill-rule="nonzero"/><path d="M23.292 59h-4.41c-1.035 0-2.288.473-2.941 1.051l-.708.683h-4.52l-.708-.63c-.654-.631-1.906-1.051-2.94-1.051H2.652a.65.65 0 00-.653.63v6.938c0 .368.327.63.653.63h4.302l-2.559 2.47c-.218.21-.272.473-.163.736s.326.42.653.42h1.852v1.788c0 .262.163.525.435.63a.506.506 0 00.273.053.677.677 0 00.49-.21L13 68.25l5.064 4.888c.11.105.327.21.49.21.11 0 .164 0 .273-.053a.683.683 0 00.435-.63v-1.787h1.852c.272 0 .544-.158.653-.42s.055-.526-.163-.737l-2.56-2.47h4.303a.65.65 0 00.653-.63v-6.938c-.054-.368-.327-.683-.708-.683zm-8.495 5.571l-1.851 1.787-1.852-1.787v-2.47h3.703zm-7.733 1.366H3.307v-5.623h3.757c.708 0 1.634.368 1.96.683l.709.683v.789h-2.94a.65.65 0 00-.654.63c0 .316.326.631.653.631h2.94v.788l-.762.736c-.326.316-1.198.683-1.906.683zM8.1 71.035v-.84a.632.632 0 00-.218-.474.677.677 0 00-.49-.21H6.52l3.485-3.363.054-.053.436-.42 1.58 1.524zm10.455-1.471a.677.677 0 00-.49.21.632.632 0 00-.217.473v.84l-3.921-3.783 1.579-1.524.436.42.054.053 3.485 3.363h-.926zm-2.396-4.993v-.788H19.1a.65.65 0 00.653-.631c0-.315-.326-.63-.653-.63h-2.94v-.79l.707-.682c.327-.316 1.253-.684 1.96-.684h3.758v5.624h-3.757c-.708 0-1.58-.368-1.96-.683z" fill-rule="nonzero"/><path d="M15.336 42.578a.824.824 0 110 1.648.824.824 0 010-1.648zm-4.94-3.293a.824.824 0 11-.001 1.648.824.824 0 01.001-1.648zm4.94-10.527a.824.824 0 110 1.648.824.824 0 010-1.648zm-4.94-2.941a.824.824 0 11-.001 1.648.824.824 0 01.001-1.648z"/></g><circle cx="15" cy="37" fill="#fff" r="1.5" stroke="#a0b9b6"/><g fill="#a0b9b6"><path d="M514.866 67.788a.67.67 0 01.663.571l.007.1.001 8.037.15.003.455.016.597.032.581.044.566.056.277.032.539.074c3.002.453 5.068 1.467 5.068 2.876 0 1.41-2.066 2.424-5.068 2.876l-.54.074-.557.062c-.094.01-.189.019-.285.027l-.581.044-.297.018-.603.025-.306.008-.621.006-.622-.006-.306-.008-.603-.025-.296-.018-.582-.044a13.1 13.1 0 01-.285-.027l-.557-.062-.54-.074-.52-.085c-2.717-.488-4.548-1.464-4.548-2.79 0-1.41 2.067-2.424 5.068-2.877l.54-.074.276-.032.566-.056.582-.044.596-.032c.17-.007.341-.013.514-.017l.001-8.04c0-.37.3-.67.67-.67zm.046 10.041l-.599.007c-.395.01-.782.028-1.158.055l-.556.046c-.091.008-.182.017-.272.027l-.528.062-.507.071-.485.08-.461.09-.434.095-.407.102c-.13.035-.256.07-.376.107l-.345.111c-.875.303-1.39.644-1.39.947 0 .323.582.687 1.558 1.004l.361.11c.126.035.256.07.392.104l.42.099c.145.031.294.062.448.092l.473.084.246.04.507.071.528.062c.18.019.362.036.548.051l.564.04c.477.028.97.043 1.473.043l.5-.005c.33-.006.655-.02.972-.038l.565-.04c.185-.015.367-.032.547-.05l.528-.063.257-.035.496-.076.473-.084c.154-.03.303-.06.448-.093l.42-.098c.136-.034.267-.07.392-.105l.36-.11c.977-.316 1.56-.68 1.56-1.003 0-.303-.516-.644-1.391-.947l-.345-.111a10.32 10.32 0 00-.376-.107l-.406-.102-.435-.096-.46-.088c-.158-.028-.32-.055-.485-.08l-.508-.072-.528-.062c-.09-.01-.18-.019-.272-.027l-.555-.046a25.003 25.003 0 00-1.757-.062zm12.144-73.296l.007.17.001.643.009 2.006.02 1.985.03 2.021.044 2.115.055 2.266.095 3.584.058 2.471.04 2.25.013 1.045.01 1.478-.002 1.247-.009.964-.017.913-.025.867-.016.416-.037.8-.047.762-.056.724-.031.35-.07.674c-.164 1.429-.4 2.65-.723 3.803l-.156.527c-.108.349-.224.693-.35 1.036l-.195.516c-.068.172-.138.344-.21.517l-.224.522-.239.53-.253.542c-1.334 2.795-3.29 5.59-6.154 8.811a5.221 5.221 0 01-3.087 1.732v7.81a.67.67 0 01-1.333.098l-.008-.099v-7.76a5.215 5.215 0 01-3.316-1.617c-1.626-1.684-2.945-3.29-4.017-4.894-2.41-3.605-3.648-7.287-4.17-12.124l-.044-.428-.08-.837-.03-.356-.051-.69-.06-1.073-.03-.76-.026-1.024-.01-.665-.006-1.468.016-2.316.043-2.825.187-9.404.033-2.27.029-3.24.005-2.175c0-5.669 23.909-5.725 24.387-.17zM503.75 23.075l-.015 1.907-.001 1.393.006 1.057.012 1.01.019.966.026.922.033.882.04.843.049.805.057.771.065.737.075.706.04.342.088.663c.14.974.313 1.858.523 2.683l.146.541c.151.534.32 1.043.508 1.538l.194.49c.133.324.275.642.426.958l.234.471c.12.236.245.47.376.705l.268.47.284.472.298.477.154.241.322.488c1.025 1.534 2.294 3.079 3.873 4.714a3.882 3.882 0 005.767-.122c2.791-3.14 4.677-5.835 5.951-8.505l.263-.561.166-.368.234-.545.148-.36.207-.538.13-.359.062-.18.12-.362.113-.365.107-.37.1-.375.094-.382.088-.39.082-.398.112-.617.068-.426.063-.438.057-.453.052-.468.046-.484.042-.501.037-.52.047-.817.037-.865.027-.917.018-.972.01-1.39-.002-1.116-.014-1.596-.02-1.182c-4.083 1.622-6.6 1.41-10.86-.164l-.406-.152c-4.464-1.693-6.763-1.878-11.046.006zM517 35a2 2 0 110 4 2 2 0 010-4zm0 1a1 1 0 100 2 1 1 0 000-2zm-5-5a2 2 0 110 4 2 2 0 010-4zm0 1a1 1 0 100 2 1 1 0 000-2zm13.727-25.664l-.151.075c-1.547.732-4.205 1.165-7.517 1.327l-.878.036-.907.024-.932.012h-.951l-.932-.012-.907-.024-.878-.036c-3.312-.162-5.97-.595-7.517-1.327l-.151-.075-.01 1.72-.032 2.912-.04 2.49-.112 5.506-.034 1.938-.009.707c4.193-1.738 6.778-1.54 11.106.059l.404.151c4.386 1.664 6.621 1.865 10.756.129l-.03-1.461-.137-5.274-.06-2.618-.044-2.44-.022-1.772zm-10.86-4.587l-.74.006-.37.007-.733.025c-4.628.193-8.796 1.121-9.006 2.784l-.009.132.006.049c.04.182.308.367.762.545l.266.097c.142.047.297.094.465.14l.352.092.384.089.415.085.219.042.458.08.737.113.522.07.547.065.568.06.588.053.608.048.626.041.641.035.657.028.67.02.681.012.685.005.679-.004.668-.012.657-.02.324-.012.637-.03.622-.037.607-.044.589-.049.57-.055.55-.06.528-.065.505-.07.481-.073.456-.078.429-.081.4-.085.189-.043.355-.089.324-.09.29-.094.257-.095c.477-.19.74-.389.74-.583 0-1.746-4.264-2.718-9.014-2.916l-.734-.025a44.327 44.327 0 00-.369-.007z" fill-rule="nonzero"/><path d="M525.292 59h-4.41c-1.035 0-2.288.473-2.941 1.051l-.708.683h-4.52l-.708-.63c-.654-.631-1.906-1.051-2.94-1.051h-4.412a.65.65 0 00-.653.63v6.938c0 .368.327.63.653.63h4.302l-2.559 2.47c-.218.21-.272.473-.163.736s.326.42.653.42h1.852v1.788c0 .262.163.525.435.63a.506.506 0 00.273.053.677.677 0 00.49-.21L515 68.25l5.064 4.888c.11.105.327.21.49.21.11 0 .164 0 .273-.053a.683.683 0 00.435-.63v-1.787h1.852c.272 0 .544-.158.653-.42s.055-.526-.163-.737l-2.56-2.47h4.303a.65.65 0 00.653-.63v-6.938c-.054-.368-.327-.683-.708-.683zm-8.495 5.571l-1.851 1.787-1.852-1.787v-2.47h3.703zm-7.733 1.366h-3.757v-5.623h3.757c.708 0 1.634.368 1.96.683l.709.683v.789h-2.94a.65.65 0 00-.654.63c0 .316.326.631.653.631h2.94v.788l-.762.736c-.326.316-1.198.683-1.906.683zm1.035 5.098v-.84a.632.632 0 00-.218-.474.677.677 0 00-.49-.21h-.871l3.485-3.363.054-.053.436-.42 1.58 1.524zm10.455-1.471a.677.677 0 00-.49.21.632.632 0 00-.217.473v.84l-3.921-3.783 1.579-1.524.436.42.054.053 3.485 3.363h-.926zm-2.396-4.993v-.788h2.941a.65.65 0 00.653-.631c0-.315-.326-.63-.653-.63h-2.94v-.79l.707-.682c.327-.316 1.253-.684 1.96-.684h3.758v5.624h-3.757c-.708 0-1.58-.368-1.96-.683z" fill-rule="nonzero"/><path d="M517.336 42.578a.824.824 0 110 1.648.824.824 0 010-1.648zm-4.94-3.293a.824.824 0 11-.001 1.648.824.824 0 01.001-1.648zm4.94-10.527a.824.824 0 110 1.648.824.824 0 010-1.648zm-4.94-2.941a.824.824 0 11-.001 1.648.824.824 0 01.001-1.648z"/></g><path d="M243 63v1H24v-1zm42 0v1h219v-1z" fill="#a0b9b6" fill-rule="nonzero"/><path d="M120.27 22.24c1.28 0 2.533-.24 3.76-.72.12-.053.197-.103.23-.15s.063-.15.09-.31l.28-2.42c0-.027-.017-.047-.05-.06s-.07-.02-.11-.02c-.053 0-.08.02-.08.06-.827 2.2-2.2 3.3-4.12 3.3-.973 0-1.87-.303-2.69-.91s-1.47-1.43-1.95-2.47-.72-2.18-.72-3.42c0-1.067.19-2.007.57-2.82s.93-1.443 1.65-1.89 1.567-.67 2.54-.67c1.107 0 2.053.257 2.84.77.787.513 1.353 1.29 1.7 2.33.013.04.053.057.12.05s.1-.03.1-.07l-.22-2.42c-.027-.147-.057-.25-.09-.31s-.103-.117-.21-.17c-.387-.2-.907-.357-1.56-.47a11.112 11.112 0 00-1.9-.17c-1.28 0-2.483.27-3.61.81s-2.033 1.293-2.72 2.26-1.03 2.07-1.03 3.31c0 1.093.253 2.14.76 3.14s1.3 1.823 2.38 2.47 2.427.97 4.04.97zm10.08.02c.773 0 1.487-.17 2.14-.51s1.177-.823 1.57-1.45.59-1.347.59-2.16c0-.707-.16-1.377-.48-2.01s-.78-1.143-1.38-1.53-1.293-.58-2.08-.58c-.693 0-1.373.15-2.04.45s-1.213.753-1.64 1.36-.64 1.343-.64 2.21c0 .76.163 1.463.49 2.11s.79 1.16 1.39 1.54 1.293.57 2.08.57zm.58-.38c-.56 0-1.063-.197-1.51-.59s-.797-.933-1.05-1.62-.38-1.45-.38-2.29c0-.973.177-1.71.53-2.21s.857-.75 1.51-.75c.56 0 1.067.177 1.52.53s.81.86 1.07 1.52.39 1.423.39 2.29c0 1.04-.18 1.82-.54 2.34s-.873.78-1.54.78zm8.5 5.62c.453 0 .813-.007 1.08-.02l1.52-.02 1.4.02c.253.013.6.02 1.04.02.027 0 .04-.04.04-.12s-.013-.12-.04-.12c-.52 0-.903-.037-1.15-.11s-.413-.203-.5-.39-.13-.48-.13-.88v-4.46c.547.56 1.12.84 1.72.84.493 0 1-.16 1.52-.48s.96-.807 1.32-1.46.54-1.453.54-2.4c0-.787-.117-1.477-.35-2.07s-.55-1.047-.95-1.36-.84-.47-1.32-.47c-.813 0-1.64.427-2.48 1.28V7.7c0-.053-.023-.1-.07-.14s-.097-.06-.15-.06a.223.223 0 00-.1.02l-2.64 1.28c-.04.013-.047.053-.02.12s.06.1.1.1h.04c.347-.173.633-.26.86-.26.24 0 .403.103.49.31s.13.55.13 1.03v4.76c-.547-.56-1.12-.84-1.72-.84-.493 0-1.003.157-1.53.47s-.967.8-1.32 1.46-.53 1.463-.53 2.41c0 .787.113 1.477.34 2.07s.54 1.047.94 1.36.84.47 1.32.47c.813 0 1.647-.427 2.5-1.28v4.9c0 .4-.047.693-.14.88s-.273.317-.54.39-.673.11-1.22.11c-.04 0-.06.04-.06.12s.02.12.06.12zm.1-5.9c-.52 0-.94-.333-1.26-1s-.48-1.6-.48-2.8c0-1.04.147-1.86.44-2.46s.7-.9 1.22-.9c.32 0 .643.117.97.35s.63.55.91.95v4.88c-.6.653-1.2.98-1.8.98zm5.04.24c-.32 0-.643-.113-.97-.34s-.63-.54-.91-.94v-4.92c.587-.64 1.18-.96 1.78-.96.52 0 .943.337 1.27 1.01s.49 1.603.49 2.79c0 1.04-.147 1.86-.44 2.46s-.7.9-1.22.9zm11.42.38c.04 0 .073-.007.1-.02l2.48-1.18c.04-.027.047-.07.02-.13s-.067-.09-.12-.09h-.02c-.44.187-.767.28-.98.28-.24 0-.41-.1-.51-.3s-.15-.527-.15-.98v-5.5c0-.053-.027-.1-.08-.14s-.107-.06-.16-.06l-.08.02-2.36 1.1c-.04.013-.053.053-.04.12s.04.1.08.1h.04c.253-.107.467-.16.64-.16.213 0 .367.11.46.33s.14.583.14 1.09v3.46c-.32.333-.68.593-1.08.78s-.787.28-1.16.28c-1.12 0-1.68-.753-1.68-2.26V14.3c0-.053-.027-.1-.08-.14s-.107-.06-.16-.06l-.08.02-2.36 1.1c-.04.013-.05.053-.03.12s.05.1.09.1h.04a1.47 1.47 0 01.62-.16c.213 0 .367.11.46.33s.14.583.14 1.09v3.02c0 .773.197 1.377.59 1.81s.93.65 1.61.65c1.067 0 2.093-.553 3.08-1.66 0 .507.06.917.18 1.23s.24.47.36.47zm4.72-.22c.147 0 .283-.093.41-.28s.37-.633.73-1.34c.387-.76.76-1.3 1.12-1.62s.767-.507 1.22-.56v2.18c0 .413-.027.713-.08.9s-.153.313-.3.38-.387.1-.72.1c-.027 0-.04.04-.04.12s.013.12.04.12c.333 0 .593-.007.78-.02l1.06-.02 1.02.02c.173.013.413.02.72.02.027 0 .04-.04.04-.12s-.013-.12-.04-.12c-.307 0-.537-.037-.69-.11s-.263-.207-.33-.4-.1-.483-.1-.87V15.9c0-.4.03-.693.09-.88s.167-.317.32-.39.383-.11.69-.11c.027 0 .04-.04.04-.12s-.013-.12-.04-.12c-.307 0-.547.007-.72.02l-1 .02c-.293 0-.62-.02-.98-.06-.427-.027-.713-.04-.86-.04-.853 0-1.53.187-2.03.56s-.75.88-.75 1.52c0 .547.193.983.58 1.31s1.033.53 1.94.61c-.973.173-1.72.76-2.24 1.76-.04.08-.137.267-.29.56s-.347.57-.58.83-.55.39-.95.39c-.027 0-.04.04-.04.12s.013.12.04.12zm2.82-4.04c-.573 0-1.013-.197-1.32-.59s-.46-.903-.46-1.53c0-.44.11-.78.33-1.02s.55-.36.99-.36c.32 0 .557.04.71.12s.26.22.32.42.09.513.09.94v1.98c-.293.027-.513.04-.66.04zm5.82 7.24c.027 0 .047-.007.06-.02.493-.48.863-.957 1.11-1.43s.37-.99.37-1.55c0-.587-.12-1.04-.36-1.36s-.567-.48-.98-.48c-.333 0-.59.077-.77.23s-.27.377-.27.67c0 .267.077.483.23.65s.363.25.63.25c.32 0 .54-.1.66-.3.133.173.2.447.2.82 0 .907-.327 1.693-.98 2.36-.027.027-.027.06 0 .1s.06.06.1.06zm13.86-3.12c.813 0 1.54-.163 2.18-.49s1.137-.777 1.49-1.35.53-1.227.53-1.96c0-1.16-.427-2.007-1.28-2.54s-1.987-.8-3.4-.8c-.48 0-1.02.033-1.62.1v-3.8c0-.36.04-.633.12-.82s.22-.317.42-.39.507-.11.92-.11h1.04c.667 0 1.23.227 1.69.68s.77 1.1.93 1.94c.013.04.057.057.13.05s.11-.03.11-.07l-.24-2.7c0-.133-.017-.22-.05-.26s-.11-.06-.23-.06h-8.04c-.027 0-.04.04-.04.12s.013.12.04.12c.48 0 .83.037 1.05.11s.37.203.45.39.12.48.12.88v9.26c0 .4-.04.697-.12.89s-.233.323-.46.39-.58.1-1.06.1c-.04 0-.06.04-.06.12s.02.12.06.12c.427 0 .767-.007 1.02-.02l1.4-.02c.333 0 .64.007.92.02s.52.027.72.04c.48.04.9.06 1.26.06zm-.38-.4c-.68 0-1.137-.107-1.37-.32s-.35-.54-.35-.98v-4.9a6.88 6.88 0 011.08-.08c1.133 0 2.003.267 2.61.8s.91 1.4.91 2.6c0 .96-.23 1.68-.69 2.16s-1.19.72-2.19.72zm11.48.58c1.08 0 1.9-.23 2.46-.69s.84-1.103.84-1.93c0-.733-.233-1.28-.7-1.64s-1.187-.54-2.16-.54c-.693 0-1.307.08-1.84.24v-1.76c0-.573.023-.953.07-1.14s.15-.28.31-.28c.027 0 .04-.04.04-.12s-.013-.12-.04-.12l-1.14.02c-.24.013-.547.02-.92.02-.693 0-1.2-.023-1.52-.07s-.48-.163-.48-.35c0-.067-.04-.1-.12-.1s-.12.033-.12.1l.02 2.64c0 .027.04.04.12.04s.12-.013.12-.04c.067-.56.253-1.007.56-1.34s.647-.5 1.02-.5c.227 0 .39.03.49.09s.163.17.19.33.04.42.04.78v4.42c0 .64.237 1.123.71 1.45s1.157.49 2.05.49zm.28-.28c-1.12 0-1.68-.72-1.68-2.16v-1.8c.36-.12.74-.18 1.14-.18 1.373 0 2.06.747 2.06 2.24 0 1.267-.507 1.9-1.52 1.9zm12.56.02c.067 0 .1-.04.1-.12s-.033-.12-.1-.12c-.293 0-.533-.063-.72-.19s-.373-.35-.56-.67-.46-.867-.82-1.64l-2.48-5.28c-.013-.053-.05-.08-.11-.08s-.103.027-.13.08l-2.3 5.38c-.413.933-.753 1.567-1.02 1.9s-.52.5-.76.5c-.067 0-.1.04-.1.12s.033.12.1.12c.187 0 .4-.013.64-.04a8.035 8.035 0 011.6 0c.24.027.433.04.58.04.067 0 .1-.04.1-.12s-.033-.12-.1-.12c-.627 0-.94-.287-.94-.86 0-.347.12-.8.36-1.36l1.46-3.44 1.98 4.22c.173.347.26.633.26.86 0 .387-.267.58-.8.58-.053 0-.08.04-.08.12s.027.12.08.12c.173 0 .46-.013.86-.04s.693-.04.88-.04c.227 0 .567.013 1.02.04s.787.04 1 .04zm3.52.2c.627 0 1.22-.15 1.78-.45s1.02-.737 1.38-1.31c.027-.04.027-.08 0-.12s-.06-.06-.1-.06-.067.013-.08.04c-.253.373-.557.653-.91.84s-.723.28-1.11.28c-.507 0-.943-.147-1.31-.44s-.55-.68-.55-1.16c0-.467.137-.83.41-1.09s.703-.55 1.29-.87c.653-.36 1.13-.69 1.43-.99s.45-.71.45-1.23c0-.507-.153-.903-.46-1.19s-.76-.43-1.36-.43c-.28 0-.53.027-.75.08s-.457.133-.71.24c-.32.107-.527.16-.62.16-.213 0-.32-.133-.32-.4 0-.08.007-.147.02-.2.013-.013.003-.03-.03-.05s-.07-.03-.11-.03c-.053 0-.08.013-.08.04l-.64 2.66c-.013.053.04.08.16.08.04 0 .067-.007.08-.02.187-.613.477-1.113.87-1.5s.817-.58 1.27-.58c.36 0 .64.127.84.38s.3.607.3 1.06c0 .52-.147.95-.44 1.29s-.733.67-1.32.99c-.6.347-1.04.667-1.32.96s-.42.673-.42 1.14c0 .64.237 1.113.71 1.42s1.023.46 1.65.46zm10.78.02c.04 0 .073-.007.1-.02l2.46-1.2c.04-.013.05-.053.03-.12s-.05-.1-.09-.1l-.04.02c-.48.173-.807.26-.98.26-.24 0-.41-.093-.51-.28s-.15-.493-.15-.92v-5.72c0-.013-.017-.03-.05-.05s-.063-.03-.09-.03-.047.007-.06.02a1.6 1.6 0 01-.62.52 3.452 3.452 0 00-1.94-.58c-.733 0-1.45.19-2.15.57s-1.273.93-1.72 1.65-.67 1.56-.67 2.52c0 1.093.28 1.943.84 2.55s1.253.91 2.08.91c.587 0 1.12-.14 1.6-.42s.953-.66 1.42-1.14c.027.453.097.827.21 1.12s.223.44.33.44zm-2.78-.8c-.667 0-1.19-.297-1.57-.89s-.57-1.39-.57-2.39c0-1.093.227-1.987.68-2.68s1.053-1.04 1.8-1.04c.52 0 .967.167 1.34.5s.56.747.56 1.24v4.16c-.787.733-1.533 1.1-2.24 1.1zm6.2 6.08c.333 0 .593-.007.78-.02l1.12-.02 1.5.02c.267.013.633.02 1.1.02.04 0 .06-.04.06-.12s-.02-.12-.06-.12c-.56 0-.973-.037-1.24-.11s-.447-.203-.54-.39-.14-.48-.14-.88v-4.02c.333.147.65.25.95.31s.643.09 1.03.09c.667 0 1.333-.16 2-.48s1.223-.823 1.67-1.51.67-1.543.67-2.57c0-.747-.14-1.4-.42-1.96s-.657-.987-1.13-1.28-.99-.44-1.55-.44c-1.093 0-2.167.527-3.22 1.58-.027-.467-.103-.833-.23-1.1s-.27-.4-.43-.4l-.12.04-2.42 1.16c-.053.013-.063.053-.03.12s.077.1.13.1h.02c.427-.2.767-.3 1.02-.3s.433.103.54.31.16.537.16.99v9.36c0 .4-.03.693-.09.88s-.177.317-.35.39-.433.11-.78.11c-.04 0-.06.04-.06.12s.02.12.06.12zm5.1-5.68c-.56 0-1.033-.1-1.42-.3s-.753-.493-1.1-.88v-4.66c.36-.347.717-.613 1.07-.8s.743-.28 1.17-.28c.747 0 1.36.297 1.84.89s.72 1.437.72 2.53c0 1.12-.207 1.983-.62 2.59s-.967.91-1.66.91zm12.04.4c.04 0 .073-.007.1-.02l2.48-1.18c.04-.027.047-.07.02-.13s-.067-.09-.12-.09h-.02c-.44.187-.767.28-.98.28-.24 0-.41-.1-.51-.3s-.15-.527-.15-.98v-5.5c0-.053-.027-.1-.08-.14s-.107-.06-.16-.06l-.08.02-2.36 1.1c-.04.013-.053.053-.04.12s.04.1.08.1h.04c.253-.107.467-.16.64-.16.213 0 .367.11.46.33s.14.583.14 1.09v3.46c-.32.333-.68.593-1.08.78s-.787.28-1.16.28c-1.12 0-1.68-.753-1.68-2.26V14.3c0-.053-.027-.1-.08-.14s-.107-.06-.16-.06l-.08.02-2.36 1.1c-.04.013-.05.053-.03.12s.05.1.09.1h.04a1.47 1.47 0 01.62-.16c.213 0 .367.11.46.33s.14.583.14 1.09v3.02c0 .773.197 1.377.59 1.81s.93.65 1.61.65c1.067 0 2.093-.553 3.08-1.66 0 .507.06.917.18 1.23s.24.47.36.47zm4.72-.22c.147 0 .283-.093.41-.28s.37-.633.73-1.34c.387-.76.76-1.3 1.12-1.62s.767-.507 1.22-.56v2.18c0 .413-.027.713-.08.9s-.153.313-.3.38-.387.1-.72.1c-.027 0-.04.04-.04.12s.013.12.04.12c.333 0 .593-.007.78-.02l1.06-.02 1.02.02c.173.013.413.02.72.02.027 0 .04-.04.04-.12s-.013-.12-.04-.12c-.307 0-.537-.037-.69-.11s-.263-.207-.33-.4-.1-.483-.1-.87V15.9c0-.4.03-.693.09-.88s.167-.317.32-.39.383-.11.69-.11c.027 0 .04-.04.04-.12s-.013-.12-.04-.12c-.307 0-.547.007-.72.02l-1 .02c-.293 0-.62-.02-.98-.06-.427-.027-.713-.04-.86-.04-.853 0-1.53.187-2.03.56s-.75.88-.75 1.52c0 .547.193.983.58 1.31s1.033.53 1.94.61c-.973.173-1.72.76-2.24 1.76-.04.08-.137.267-.29.56s-.347.57-.58.83-.55.39-.95.39c-.027 0-.04.04-.04.12s.013.12.04.12zm2.82-4.04c-.573 0-1.013-.197-1.32-.59s-.46-.903-.46-1.53c0-.44.11-.78.33-1.02s.55-.36.99-.36c.32 0 .557.04.71.12s.26.22.32.42.09.513.09.94v1.98c-.293.027-.513.04-.66.04zm5.82 7.24c.027 0 .047-.007.06-.02.493-.48.863-.957 1.11-1.43s.37-.99.37-1.55c0-.587-.12-1.04-.36-1.36s-.567-.48-.98-.48c-.333 0-.59.077-.77.23s-.27.377-.27.67c0 .267.077.483.23.65s.363.25.63.25c.32 0 .54-.1.66-.3.133.173.2.447.2.82 0 .907-.327 1.693-.98 2.36-.027.027-.027.06 0 .1s.06.06.1.06zm8.46-3.2c.44 0 .787-.007 1.04-.02l1.38-.02 1.74.02c.307.013.733.02 1.28.02.04 0 .06-.04.06-.12s-.02-.12-.06-.12c-.667 0-1.15-.04-1.45-.12s-.503-.217-.61-.41-.16-.503-.16-.93v-9.14c0-.413.04-.717.12-.91s.217-.32.41-.38.49-.09.89-.09c.88 0 1.587.297 2.12.89s.8 1.417.8 2.47c0 1.08-.273 1.907-.82 2.48s-1.213.86-2 .86c-.267 0-.507-.027-.72-.08-.027-.013-.05 0-.07.04s-.03.08-.03.12c0 .067.02.1.06.1.253.067.573.1.96.1.72 0 1.417-.147 2.09-.44s1.227-.74 1.66-1.34.65-1.333.65-2.2c0-1.12-.38-1.957-1.14-2.51s-1.767-.83-3.02-.83c-.253 0-.55.01-.89.03s-.59.03-.75.03c-.44.04-.82.06-1.14.06-.347 0-.8-.013-1.36-.04l-1.04-.02c-.027 0-.04.04-.04.12s.013.12.04.12c.48 0 .83.037 1.05.11s.37.203.45.39.12.48.12.88v9.26c0 .4-.04.697-.12.89s-.23.323-.45.39-.57.1-1.05.1c-.027 0-.04.04-.04.12s.013.12.04.12zm14.42.24c.56 0 1.083-.097 1.57-.29s.963-.503 1.43-.93c.027-.04.023-.083-.01-.13s-.07-.07-.11-.07h-.02c-.587.413-1.267.62-2.04.62-.973 0-1.737-.353-2.29-1.06s-.83-1.633-.83-2.78c0-.387.027-.713.08-.98l3.94-.04h.96c.147 0 .22-.167.22-.5 0-.613-.207-1.097-.62-1.45s-.993-.53-1.74-.53c-.813 0-1.557.19-2.23.57s-1.2.9-1.58 1.56-.57 1.383-.57 2.17c0 .68.15 1.313.45 1.9s.74 1.057 1.32 1.41 1.27.53 2.07.53zm-2.16-5.94c.147-.573.393-1.017.74-1.33s.767-.47 1.26-.47c.44 0 .787.153 1.04.46s.387.727.4 1.26zm9.42 11.32c.84 0 1.59-.177 2.25-.53s1.17-.837 1.53-1.45.54-1.307.54-2.08c0-.587-.127-1.14-.38-1.66s-.623-.947-1.11-1.28-1.063-.513-1.73-.54c.76-.28 1.36-.73 1.8-1.35s.66-1.297.66-2.03c0-.76-.253-1.397-.76-1.91s-1.213-.77-2.12-.77c-.347 0-.647.027-.9.08s-.533.133-.84.24c-.28.107-.5.16-.66.16-.08 0-.153-.03-.22-.09s-.1-.157-.1-.29a.95.95 0 01.02-.22c.013-.013 0-.03-.04-.05s-.08-.03-.12-.03c-.053 0-.08.013-.08.04l-.7 3.12c-.013.053.04.08.16.08.04 0 .067-.007.08-.02.293-.84.69-1.487 1.19-1.94s1.037-.68 1.61-.68c1.24 0 1.86.9 1.86 2.7 0 .947-.227 1.677-.68 2.19s-1.233.77-2.34.77c-.08 0-.113.04-.1.12s.047.12.1.12c2.467 0 3.7 1.167 3.7 3.5 0 .973-.16 1.793-.48 2.46s-.827 1-1.52 1c-.467 0-.823-.097-1.07-.29s-.503-.477-.77-.85c-.173-.28-.34-.49-.5-.63s-.367-.21-.62-.21c-.2 0-.373.063-.52.19s-.22.317-.22.57c0 .453.29.827.87 1.12s1.317.44 2.21.44zm12.18-5.4c.04 0 .073-.007.1-.02l2.48-1.18c.04-.027.047-.07.02-.13s-.067-.09-.12-.09h-.02c-.44.187-.767.28-.98.28-.24 0-.41-.1-.51-.3s-.15-.527-.15-.98v-5.5c0-.053-.027-.1-.08-.14s-.107-.06-.16-.06l-.08.02-2.36 1.1c-.04.013-.053.053-.04.12s.04.1.08.1h.04c.253-.107.467-.16.64-.16.213 0 .367.11.46.33s.14.583.14 1.09v3.46c-.32.333-.68.593-1.08.78s-.787.28-1.16.28c-1.12 0-1.68-.753-1.68-2.26V14.3c0-.053-.027-.1-.08-.14s-.107-.06-.16-.06l-.08.02-2.36 1.1c-.04.013-.05.053-.03.12s.05.1.09.1h.04a1.47 1.47 0 01.62-.16c.213 0 .367.11.46.33s.14.583.14 1.09v3.02c0 .773.197 1.377.59 1.81s.93.65 1.61.65c1.067 0 2.093-.553 3.08-1.66 0 .507.06.917.18 1.23s.24.47.36.47zm6.74 5.4c1.28 0 2.28-.387 3-1.16s1.08-1.793 1.08-3.06v-9.26c0-.013-.017-.03-.05-.05s-.063-.03-.09-.03-.047.007-.06.02a1.6 1.6 0 01-.62.52 3.452 3.452 0 00-1.94-.58c-.733 0-1.45.19-2.15.57s-1.273.93-1.72 1.65-.67 1.56-.67 2.52c0 1.093.28 1.943.84 2.55s1.253.91 2.08.91c.573 0 1.103-.14 1.59-.42s.963-.66 1.43-1.14v3.22c0 1.267-.173 2.137-.52 2.61s-.82.71-1.42.71c-.48 0-.84-.09-1.08-.27s-.48-.45-.72-.81c-.16-.267-.313-.463-.46-.59s-.34-.19-.58-.19c-.2 0-.373.063-.52.19s-.22.323-.22.59c0 .453.26.817.78 1.09s1.193.41 2.02.41zm.48-6.2c-.667 0-1.19-.297-1.57-.89s-.57-1.39-.57-2.39c0-1.093.227-1.987.68-2.68s1.053-1.04 1.8-1.04c.52 0 .967.167 1.34.5s.56.747.56 1.24v4.16c-.787.733-1.533 1.1-2.24 1.1zm9.68.82c.56 0 1.083-.097 1.57-.29s.963-.503 1.43-.93c.027-.04.023-.083-.01-.13s-.07-.07-.11-.07h-.02c-.587.413-1.267.62-2.04.62-.973 0-1.737-.353-2.29-1.06s-.83-1.633-.83-2.78c0-.387.027-.713.08-.98l3.94-.04h.96c.147 0 .22-.167.22-.5 0-.613-.207-1.097-.62-1.45s-.993-.53-1.74-.53c-.813 0-1.557.19-2.23.57s-1.2.9-1.58 1.56-.57 1.383-.57 2.17c0 .68.15 1.313.45 1.9s.74 1.057 1.32 1.41 1.27.53 2.07.53zm-2.16-5.94c.147-.573.393-1.017.74-1.33s.767-.47 1.26-.47c.44 0 .787.153 1.04.46s.387.727.4 1.26zm6.68 5.7c.36 0 .64-.007.84-.02l1.08-.02 1.04.02c.2.013.48.02.84.02.027 0 .04-.04.04-.12s-.013-.12-.04-.12c-.36 0-.623-.033-.79-.1s-.28-.197-.34-.39-.09-.49-.09-.89v-2.04h4.02v2.04c0 .4-.03.697-.09.89s-.173.323-.34.39-.43.1-.79.1c-.04 0-.06.04-.06.12s.02.12.06.12c.347 0 .62-.007.82-.02l1.1-.02 1.04.02c.2.013.48.02.84.02.027 0 .04-.04.04-.12s-.013-.12-.04-.12c-.36 0-.623-.033-.79-.1s-.28-.197-.34-.39-.09-.49-.09-.89V14.3c0-.053-.027-.1-.08-.14s-.107-.06-.16-.06l-.08.02-2.36 1.1c-.04.013-.05.053-.03.12s.05.1.09.1h.04c.28-.107.487-.16.62-.16.213 0 .367.11.46.33s.14.583.14 1.09v1.24h-4.02V14.3c0-.053-.027-.1-.08-.14s-.107-.06-.16-.06l-.08.02-2.36 1.1c-.04.013-.05.053-.03.12s.05.1.09.1h.04c.28-.107.487-.16.62-.16.213 0 .367.11.46.33s.14.583.14 1.09v3.68c0 .4-.03.697-.09.89s-.173.323-.34.39-.43.1-.79.1c-.04 0-.06.04-.06.12s.02.12.06.12zm19.24 2.78c.08 0 .12-.033.12-.1 0-.76.033-1.473.1-2.14.027-.293.04-.473.04-.54 0-.12-.01-.19-.03-.21s-.077-.03-.17-.03c-.453 0-.78-.157-.98-.47s-.3-.823-.3-1.53V14.3c0-.053-.027-.1-.08-.14s-.107-.06-.16-.06l-.08.02-2.36 1.1c-.04.013-.053.053-.04.12s.04.1.08.1h.04c.253-.107.467-.16.64-.16.213 0 .367.11.46.33s.14.583.14 1.09v3.46c-.32.333-.68.593-1.08.78s-.787.28-1.16.28c-1.12 0-1.68-.753-1.68-2.26V14.3c0-.053-.027-.1-.08-.14s-.107-.06-.16-.06l-.08.02-2.36 1.1c-.04.013-.05.053-.03.12s.05.1.09.1h.04a1.47 1.47 0 01.62-.16c.213 0 .367.11.46.33s.14.583.14 1.09v3.02c0 .773.197 1.377.59 1.81s.93.65 1.61.65c1.067 0 2.093-.553 3.08-1.66 0 .6.013.997.04 1.19s.093.29.2.29c.707 0 1.253.21 1.64.63s.58 1.103.58 2.05c0 .067.04.1.12.1zm8-2.56c.04 0 .073-.007.1-.02l2.48-1.18c.04-.027.047-.07.02-.13s-.067-.09-.12-.09h-.02c-.44.187-.767.28-.98.28-.24 0-.41-.1-.51-.3s-.15-.527-.15-.98v-5.5c0-.053-.027-.1-.08-.14s-.107-.06-.16-.06l-.08.02-2.36 1.1c-.04.013-.053.053-.04.12s.04.1.08.1h.04c.253-.107.467-.16.64-.16.213 0 .367.11.46.33s.14.583.14 1.09v3.46c-.32.333-.68.593-1.08.78s-.787.28-1.16.28c-1.12 0-1.68-.753-1.68-2.26V14.3c0-.053-.027-.1-.08-.14s-.107-.06-.16-.06l-.08.02-2.36 1.1c-.04.013-.05.053-.03.12s.05.1.09.1h.04a1.47 1.47 0 01.62-.16c.213 0 .367.11.46.33s.14.583.14 1.09v3.02c0 .773.197 1.377.59 1.81s.93.65 1.61.65c1.067 0 2.093-.553 3.08-1.66 0 .507.06.917.18 1.23s.24.47.36.47zm4.72-.22c.147 0 .283-.093.41-.28s.37-.633.73-1.34c.387-.76.76-1.3 1.12-1.62s.767-.507 1.22-.56v2.18c0 .413-.027.713-.08.9s-.153.313-.3.38-.387.1-.72.1c-.027 0-.04.04-.04.12s.013.12.04.12c.333 0 .593-.007.78-.02l1.06-.02 1.02.02c.173.013.413.02.72.02.027 0 .04-.04.04-.12s-.013-.12-.04-.12c-.307 0-.537-.037-.69-.11s-.263-.207-.33-.4-.1-.483-.1-.87V15.9c0-.4.03-.693.09-.88s.167-.317.32-.39.383-.11.69-.11c.027 0 .04-.04.04-.12s-.013-.12-.04-.12c-.307 0-.547.007-.72.02l-1 .02c-.293 0-.62-.02-.98-.06-.427-.027-.713-.04-.86-.04-.853 0-1.53.187-2.03.56s-.75.88-.75 1.52c0 .547.193.983.58 1.31s1.033.53 1.94.61c-.973.173-1.72.76-2.24 1.76-.04.08-.137.267-.29.56s-.347.57-.58.83-.55.39-.95.39c-.027 0-.04.04-.04.12s.013.12.04.12zm2.82-4.04c-.573 0-1.013-.197-1.32-.59s-.46-.903-.46-1.53c0-.44.11-.78.33-1.02s.55-.36.99-.36c.32 0 .557.04.71.12s.26.22.32.42.09.513.09.94v1.98c-.293.027-.513.04-.66.04zm10.6-4.02c.333 0 .59-.077.77-.23s.27-.377.27-.67c0-.267-.077-.483-.23-.65s-.363-.25-.63-.25c-.32 0-.54.1-.66.3-.133-.173-.2-.447-.2-.82 0-.907.327-1.693.98-2.36.027-.027.027-.06 0-.1s-.06-.06-.1-.06c-.027 0-.047.007-.06.02-.493.48-.863.957-1.11 1.43s-.37.99-.37 1.55c0 .587.12 1.04.36 1.36s.567.48.98.48zm3.12 0c.333 0 .59-.077.77-.23s.27-.377.27-.67c0-.267-.077-.483-.23-.65s-.363-.25-.63-.25c-.32 0-.54.1-.66.3-.133-.173-.2-.447-.2-.82 0-.907.327-1.693.98-2.36.027-.027.027-.06 0-.1s-.06-.06-.1-.06c-.027 0-.047.007-.06.02-.493.48-.863.957-1.11 1.43s-.37.99-.37 1.55c0 .587.12 1.04.36 1.36s.567.48.98.48zm6.08 8.06c.48 0 .853-.007 1.12-.02l1.54-.02 1.58.02c.267.013.633.02 1.1.02.027 0 .04-.04.04-.12s-.013-.12-.04-.12c-.56 0-.967-.033-1.22-.1s-.423-.193-.51-.38-.13-.487-.13-.9v-9.22c0-.387.04-.663.12-.83s.227-.28.44-.34.567-.09 1.06-.09c.867 0 1.52.227 1.96.68s.707 1.193.8 2.22c0 .027.037.04.11.04s.11-.013.11-.04c0-.507.023-1.173.07-2s.09-1.427.13-1.8c0-.053-.037-.08-.11-.08s-.117.027-.13.08c-.067.2-.213.333-.44.4s-.587.1-1.08.1l-1.36.02c-.88.027-1.713.04-2.5.04-1.547 0-2.887-.02-4.02-.06-.733 0-1.1-.147-1.1-.44 0-.067-.04-.1-.12-.1s-.12.033-.12.1c0 .427-.033 1.06-.1 1.9s-.127 1.453-.18 1.84c0 .027.037.04.11.04s.117-.013.13-.04c.227-1.013.573-1.75 1.04-2.21s1.113-.69 1.94-.69c.493 0 .847.027 1.06.08s.36.163.44.33.12.437.12.81v9.26c0 .4-.047.697-.14.89s-.267.323-.52.39-.653.1-1.2.1c-.04 0-.06.04-.06.12s.02.12.06.12zm12.1.24c.56 0 1.083-.097 1.57-.29s.963-.503 1.43-.93c.027-.04.023-.083-.01-.13s-.07-.07-.11-.07h-.02c-.587.413-1.267.62-2.04.62-.973 0-1.737-.353-2.29-1.06s-.83-1.633-.83-2.78c0-.387.027-.713.08-.98l3.94-.04h.96c.147 0 .22-.167.22-.5 0-.613-.207-1.097-.62-1.45s-.993-.53-1.74-.53c-.813 0-1.557.19-2.23.57s-1.2.9-1.58 1.56-.57 1.383-.57 2.17c0 .68.15 1.313.45 1.9s.74 1.057 1.32 1.41 1.27.53 2.07.53zm-2.16-5.94c.147-.573.393-1.017.74-1.33s.767-.47 1.26-.47c.44 0 .787.153 1.04.46s.387.727.4 1.26zm6.64 11.2c.333 0 .593-.007.78-.02l1.12-.02 1.5.02c.267.013.633.02 1.1.02.04 0 .06-.04.06-.12s-.02-.12-.06-.12c-.56 0-.973-.037-1.24-.11s-.447-.203-.54-.39-.14-.48-.14-.88v-4.02c.333.147.65.25.95.31s.643.09 1.03.09c.667 0 1.333-.16 2-.48s1.223-.823 1.67-1.51.67-1.543.67-2.57c0-.747-.14-1.4-.42-1.96s-.657-.987-1.13-1.28-.99-.44-1.55-.44c-1.093 0-2.167.527-3.22 1.58-.027-.467-.103-.833-.23-1.1s-.27-.4-.43-.4l-.12.04-2.42 1.16c-.053.013-.063.053-.03.12s.077.1.13.1h.02c.427-.2.767-.3 1.02-.3s.433.103.54.31.16.537.16.99v9.36c0 .4-.03.693-.09.88s-.177.317-.35.39-.433.11-.78.11c-.04 0-.06.04-.06.12s.02.12.06.12zm5.1-5.68c-.56 0-1.033-.1-1.42-.3s-.753-.493-1.1-.88v-4.66c.36-.347.717-.613 1.07-.8s.743-.28 1.17-.28c.747 0 1.36.297 1.84.89s.72 1.437.72 2.53c0 1.12-.207 1.983-.62 2.59s-.967.91-1.66.91zm11.9.4c.04 0 .073-.007.1-.02l2.46-1.2c.04-.013.05-.053.03-.12s-.05-.1-.09-.1l-.04.02c-.48.173-.807.26-.98.26-.24 0-.41-.093-.51-.28s-.15-.493-.15-.92v-5.72c0-.013-.017-.03-.05-.05s-.063-.03-.09-.03-.047.007-.06.02a1.6 1.6 0 01-.62.52 3.452 3.452 0 00-1.94-.58c-.733 0-1.45.19-2.15.57s-1.273.93-1.72 1.65-.67 1.56-.67 2.52c0 1.093.28 1.943.84 2.55s1.253.91 2.08.91c.587 0 1.12-.14 1.6-.42s.953-.66 1.42-1.14c.027.453.097.827.21 1.12s.223.44.33.44zm-2.78-.8c-.667 0-1.19-.297-1.57-.89s-.57-1.39-.57-2.39c0-1.093.227-1.987.68-2.68s1.053-1.04 1.8-1.04c.52 0 .967.167 1.34.5s.56.747.56 1.24v4.16c-.787.733-1.533 1.1-2.24 1.1zm6.14-7.18c.027 0 .047-.007.06-.02.493-.48.863-.957 1.11-1.43s.37-.99.37-1.55c0-.587-.12-1.04-.36-1.36s-.567-.48-.98-.48c-.333 0-.59.077-.77.23s-.27.377-.27.67c0 .267.077.483.23.65s.363.25.63.25c.32 0 .54-.1.66-.3.133.173.2.447.2.82 0 .907-.327 1.693-.98 2.36-.027.027-.027.06 0 .1s.06.06.1.06zm3.12 0c.027 0 .047-.007.06-.02.493-.48.863-.957 1.11-1.43s.37-.99.37-1.55c0-.587-.12-1.04-.36-1.36s-.567-.48-.98-.48c-.333 0-.59.077-.77.23s-.27.377-.27.67c0 .267.077.483.23.65s.363.25.63.25c.32 0 .54-.1.66-.3.133.173.2.447.2.82 0 .907-.327 1.693-.98 2.36-.027.027-.027.06 0 .1s.06.06.1.06z" fill="#021631" fill-rule="nonzero"/><path d="M263.5 56.669c2.526-3.314 7.579-3.314 10.105-1.25 2.527 2.065 2.527 6.194 0 10.323-1.768 3.097-6.316 6.194-10.105 8.258-3.79-2.064-8.337-5.161-10.105-8.258-2.527-4.129-2.527-8.258 0-10.322s7.579-2.065 10.105 1.249z" fill="#fbdcdc" stroke="#a0b9b6"/></g></svg>