<svg height="70" viewBox="0 0 296 70" width="296" xmlns="http://www.w3.org/2000/svg"><g fill="none" fill-rule="evenodd"><g fill="#a0b9b6"><path d="m1.59287845 4.1828958-.00737898.11145558-.00612094 2.01664295-.02375907 2.39491651-.05118218 3.03323146-.08550372 4.2690782-.03146456 2.3088835-.00866776 1.2764069v1.1997439l.00509743.7592709.01587509 1.0811168.02639688 1.0154273.02380284.6424894.0290184.6163422.0537786.8781544.04300094.5563085.04897141.5344287.05515756.5137682.06155941.494327.06817693.476105.07501014.4591023.08205904.4433188.08932362.4287546.0968039.4154097.10449985.4032841.11241149.3923777c.01940654.0645551.03915171.1287067.05924002.19248l.12468337.3783042.13313423.370446.14180077.363807c.02436766.060149.04910541.1200722.07421774.1797949l.155205.3561347.16441077.3525439.1738322.3501724c.02976914.0582322.05993983.1164163.09051655.1745779l.18836879.3489012.19832945.3495778.2085058.3514737.21889783.3545889.34830362.5403914c.04005333.0607377.08056213.1217322.12153089.1830089.81336464 1.2165442 1.81283306 2.4332223 3.04298739 3.7078741.78831415.8386642 1.90318725 1.3077899 3.06222731 1.284325 1.1592452-.023469 2.2543418-.5372688 3.0134765-1.4137637 2.1639824-2.4341525 3.645813-4.551323 4.6572938-6.671304l.2634286-.5662184.1634881-.3690853.1540374-.3644402.1448044-.3615692.1357895-.3604724.1269923-.3611498.1184129-.3636012.1100513-.3678268.1019077-.3738267.0939818-.3816005.0862738-.3911486c.0137487-.0660857.0271853-.1326431.0403144-.1997093l.0751202-.4087972.0679567-.4227807.0610111-.4385383.0542833-.45607.0477734-.4753758.0599304-.7531433.0324516-.5314024.026704-.5569179.0297558-.8870991.0180493-.9544882.0070778-1.0278653-.0031584-1.1072299-.0188637-1.610112-.0340117-1.7760428-.0611619-2.4750161-.0762802-2.936383-.0539125-2.69239879-.0145193-1.02243824-.0114469-1.11253688-.009044-2.25693901c0-.85449276-1.2260113-.89164462-1.332621-.11145558l-.007379.11145558c0 .09869194-.1617659.20714199-.4571602.31694191l-.2164176.07330767c-.0392661.01222051-.0801048.02443463-.1224774.0366308l-.2723342.07286956c-.048354.01207829-.0981647.02411558-.1493936.03610033l-.3240822.07118578-.3562652.06937123-.3865954.06700305c-.0668571.01093907-.1349008.0217564-.2040925.03244045l-.4286169.06241273-.4543154.05866048-.7256051.07974418-.7730054.06818745-.5385827.03811519-.8381108.04477403-.5761967.02077615c-.0970679.00281937-.1946275.00530938-.2926404.0074585l-.5932071.00871184h-.6002069l-.6233505-.00938385-.61122428-.01839438-.59694537-.02676165-.58051394-.03448569-.56192993-.04156648-.54119335-.04800402-.51830421-.05379832-.49326247-.05894938-.46606819-.06345718c-.07529225-.01091612-.14936171-.02199325-.22216355-.03321801l-.42124066-.06901282-.38866494-.07191251-.35393664-.07416896c-.11195166-.0250276-.2177565-.05032406-.31705577-.07578218l-.27802233-.07675214-.23683631-.07707885c-.28736771-.10270374-.45916585-.2045634-.49243366-.29871772l-.00595273-.03324719c0-.85449276-1.22601134-.89164462-1.33262102-.11145558zm17.32748075 1.61715756.0266408-.01305336.0227257 2.2932099.0372578 2.1451439.070725 2.9511615.1013865 4.0395872.03021 1.695845.0129595 1.165805.0038956 1.0813478-.0058444 1.0027111-.0162604.9298952-.016961.5823511-.0220912.5543-.0274217.5279736-.0515657.7463708-.0416247.4697025-.0476564.4494123-.0538885.4308466-.060321.4140056-.0669537.3988892-.0737868.3854974c-.0128784.0632294-.0260498.1259726-.0395185.1882657l-.0844121.3686434-.0917461.3595631-.0992804.3522076c-.0171857.0581841-.0346937.1161336-.0525281.1738843l-.1109575.3444079-.1189926.3413638-.127228.3400444-.1356639.3404496-.1443.3425795-.2330811.5216353-.1667669.3554493c-.9517243 1.9947362-2.3632347 4.0114365-4.4550915 6.3645401-.5165316.5963005-1.2534221.9420364-2.0334043.9578272-.7797897.0157869-1.53008731-.2999296-2.06483635-.8687762-1.18341532-1.2263052-2.13273804-2.3819396-2.89929591-3.5284753l-.33704932-.5153248-.21185195-.3377455-.20181516-.3345431-.19198517-.3325762-.18236198-.3318446-.17294559-.3323483-.16373601-.3340874-.15473324-.3370617-.14593726-.3412715-.1373481-.3467166-.12896573-.3533971c-.02080725-.0595248-.04127384-.1193795-.0614041-.1795897l-.11677994-.3657339-.10891459-.3755027-.10125603-.3865068-.09380429-.3987463-.08655934-.4122211-.07952121-.4269312-.07268987-.4428768-.06606534-.4600575-.05964761-.4784737-.05343669-.4981252-.04743257-.5190121-.04163526-.5411342-.03604475-.5644918-.04403729-.8932354-.02297323-.6282902-.01810654-.6559714-.01848714-1.0385618-.00870033-1.1077933.00038849-1.1811941.0189492-2.1430938.04895586-2.8833137.07143797-3.4943535.0279663-1.65409784.02541362-2.05845761.01043285-1.53198295.02704426.01205336c1.59403047.69413122 4.46744347 1.00010428 7.98565744 1.00010428 3.5182141 0 6.3916271-.30597306 7.9856575-1.00010428z" fill-rule="nonzero"/><circle cx="11.5" cy="35.5" r="1"/><circle cx="7.5" cy="31.5" r="1"/><circle cx="14.5" cy="25.5" r="1"/><circle cx="9.5" cy="21.5" r="1"/><g fill-rule="nonzero"><path d="m8 24c-1.1045695 0-2 .8954305-2 2s.8954305 2 2 2 2-.8954305 2-2-.8954305-2-2-2zm0 1c.55228475 0 1 .4477153 1 1s-.44771525 1-1 1-1-.4477153-1-1 .44771525-1 1-1z"/><path d="m13 29c-1.1045695 0-2 .8954305-2 2s.8954305 2 2 2 2-.8954305 2-2-.8954305-2-2-2zm0 1c.5522847 0 1 .4477153 1 1s-.4477153 1-1 1-1-.4477153-1-1 .4477153-1 1-1z"/><path d="m10.9347017 39.5810465c.3363917 0 .6148812.2479085.6627355.5709923l.0072645.0990077v9.1522373c0 .3700308-.2999692.67-.67.67-.3363916 0-.6148811-.2479084-.6627354-.5709923l-.0072646-.0990077v-9.1522373c0-.3700307.2999693-.67.67-.67z"/><path d="m10.9347017 55.6281054c.3363917 0 .6148812.2479084.6627355.5709923l.0072645.0990077v8.1522373c0 .3700307-.2999692.67-.67.67-.3363916 0-.6148811-.2479085-.6627354-.5709923l-.0072646-.0990077v-8.1522373c0-.3700308.2999693-.67.67-.67z"/><path d="m1.98273941 17.1001836c3.50581495-1.5625816 5.52260768-1.4720957 8.96623529-.2063009l.3550251.132679c3.2922831 1.2488963 4.934259 1.3895625 8.0482889.0687752.3406561-.1444861.7339415.014541.8784277.3551971.1444861.340656-.014541.7339415-.3551971.8784276-3.3717788 1.430109-5.3287942 1.3197526-8.6935713.0824809l-.3532179-.1319966c-3.36598757-1.2768533-5.0550349-1.4018586-8.30047057.044669-.3379793.1506412-.73408449-.0012263-.88472571-.3392056s.0012263-.7340845.33920559-.8847257z"/><path d="m1.58549947 4.29435138c0-1.75963721 2.81834776-2.83612114 6.26667914-3.22945181l.63342415-.06398681c1.59847954-.14114737 3.29971844-.14114737 4.89819794 0l.6334242.06398681c3.4483314.39333067 6.2666791 1.4698146 6.2666791 3.22945181 0 .37003078-.2999692.67-.67.67-.3363916 0-.6148811-.24790845-.6627355-.57099231l-.0072645-.09900769c0-1.33248769-3.7725005-2.01832693-7.655957-2.05751775h-.7064905c-3.76577598.03800322-7.42721875.68405785-7.64566636 1.9381639l-.01029067.11935385c0 .37003078-.29996922.67-.67.67s-.67-.29996922-.67-.67z"/><path d="m10.9687986 64.1793371c-3.79326838 0-6.83533332.9176717-6.83533332 2.5298291 0 1.57082 2.88806166 2.4823124 6.54506372 2.5280228l.2902696.0018063c3.7929443 0 6.8353333-.9177164 6.8353333-2.5298291s-3.042389-2.5298291-6.8353333-2.5298291zm0 1.34c.7302513 0 1.4293994.0440181 2.0696082.1169927l.4686705.059925c.2283747.0324419.4474825.0684262.6558554.1071589l.4019977.0808943c.2578764.0560586.4949288.1160617.7076777.1781266l.3004607.0944083c.5627264.1909679.8910631.3920198.8910631.5523233s-.3283367.3613554-.8910631.5523233l-.3004607.0944083c-.2659361.0775811-.5698465.1519407-.9049352.2194016l-.416637.0774064c-.1435776.0245415-.2917088.0477439-.4439586.0693718l-.4686705.059925-.4907728.0490663c-.0834923.0071943-.1677969.0138774-.2528592.0200198l-.5190331.0301307c-.2636285.0115858-.5330989.0177759-.8069431.0177759-.2738762 0-.5433728-.0061896-.8070225-.0177745l-.51906896-.0301284c-.08506729-.006142-.16937626-.0128246-.25287257-.0200184l-.49079117-.049063c-.32011321-.036485-.62548499-.0802089-.9126377-.1292893l-.41663006-.0774027c-.06701606-.0134916-.13278475-.0272592-.19725173-.0412733l-.37074673-.0868079c-.05904281-.0148827-.11667523-.0299531-.17284294-.0451818l-.31899486-.0930367c-.65118909-.2046761-1.0364741-.4261662-1.0364741-.5998531 0-.2137685.58362699-.499949 1.5283119-.7380716l.37074673-.0868079.40198767-.0808908c.13891291-.0258205.28259794-.0504195.43062039-.0735618l.45664488-.0648211c.70318157-.0899702 1.48539295-.1456759 2.30702175-.1456759z"/><path d="m21.2920792 47h-4.4108911c-1.0346534 0-2.2871287.4730053-2.940594 1.0511228l-.7079208.6832298h-4.51980201l-.70792079-.6306737c-.65346535-.6306736-1.9059406-1.0511228-2.94059406-1.0511228h-4.41089109c-.38118812 0-.65346535.3153369-.65346535.6306737v6.9374104c0 .367893.32673267.6306737.65346535.6306737h4.30198019l-2.55940594 2.4701386c-.21782178.2102245-.27227722.4730052-.16336633.7357859s.32673267.4204491.65346534.4204491h1.85148515v1.7869088c0 .2627807.16336634.5255614.43564357.6306736.10891089.0525562.16336633.0525562.27227722.0525562.16336634 0 .32673268-.0525562.49009901-.2102246l5.06435644-4.8877209 5.0643564 4.8877209c.1089109.1051123.3267327.2102246.490099.2102246.1089109 0 .1633664 0 .2722773-.0525562.2722772-.1051122.4356435-.3678929.4356435-.6306736v-1.7869088h1.8514852c.2722772 0 .5445544-.1576684.6534653-.4204491s.0544555-.5255614-.1633663-.7357859l-2.5594059-2.4701386h4.3019802c.3811881 0 .6534653-.3153368.6534653-.6306737v-6.9374104c-.0544554-.367893-.3267327-.6832298-.7079208-.6832298zm-8.4950495 5.5709508-1.8514851 1.7869087-1.85148519-1.7869087v-1.4190158-1.0511228h3.70297029zm-7.73267326 1.3664596h-3.75742575v-5.6235069h3.75742575c.70792079 0 1.63366336.367893 1.96039604.6832298l.70792079.6832298v.7883421h-2.94059406c-.38118812 0-.65346535.3153368-.65346535.6306737 0 .3153368.32673267.6306737.65346535.6306737h2.94059406v.788342l-.76237624.735786c-.32673267.3153368-1.1980198.6832298-1.90594059.6832298zm1.03465346 5.0979455v-.8408982c0-.1576684-.05445544-.3153368-.21782178-.4730052-.16336634-.1576685-.32673267-.2102246-.49009901-.2102246h-.87128713l3.48514852-3.3635929s0 0 .05445544-.0525562l.43564356-.4204491 1.5792079 1.5241281zm10.4554455-1.4715719c-.1633663 0-.3267326.0525562-.490099.2102246-.1633663.1576684-.2178217.3153368-.2178217.4730053v.8408982l-3.9207921-3.7840421 1.5792079-1.524128.4356436.4204491s0 0 .0544554.0525562l3.4851485 3.3635929h-.9257426zm-2.3960396-4.9928332v-.7883421h2.9405941c.3811881 0 .6534653-.3153368.6534653-.6306737 0-.3153368-.3267326-.6306737-.6534653-.6306737h-2.9405941v-.788342l.7079208-.6832299c.3267327-.3153368 1.2524753-.6832298 1.9603961-.6832298h3.7574257v5.623507h-3.7574257c-.7079208 0-1.5792079-.367893-1.9603961-.6832299z"/></g></g><g fill="#a0b9b6" transform="translate(274)"><path d="m1.59287845 4.1828958-.00737898.11145558-.00612094 2.01664295-.02375907 2.39491651-.05118218 3.03323146-.08550372 4.2690782-.03146456 2.3088835-.00866776 1.2764069v1.1997439l.00509743.7592709.01587509 1.0811168.02639688 1.0154273.02380284.6424894.0290184.6163422.0537786.8781544.04300094.5563085.04897141.5344287.05515756.5137682.06155941.494327.06817693.476105.07501014.4591023.08205904.4433188.08932362.4287546.0968039.4154097.10449985.4032841.11241149.3923777c.01940654.0645551.03915171.1287067.05924002.19248l.12468337.3783042.13313423.370446.14180077.363807c.02436766.060149.04910541.1200722.07421774.1797949l.155205.3561347.16441077.3525439.1738322.3501724c.02976914.0582322.05993983.1164163.09051655.1745779l.18836879.3489012.19832945.3495778.2085058.3514737.21889783.3545889.34830362.5403914c.04005333.0607377.08056213.1217322.12153089.1830089.81336464 1.2165442 1.81283306 2.4332223 3.04298739 3.7078741.78831415.8386642 1.90318725 1.3077899 3.06222731 1.284325 1.1592452-.023469 2.2543418-.5372688 3.0134765-1.4137637 2.1639824-2.4341525 3.645813-4.551323 4.6572938-6.671304l.2634286-.5662184.1634881-.3690853.1540374-.3644402.1448044-.3615692.1357895-.3604724.1269923-.3611498.1184129-.3636012.1100513-.3678268.1019077-.3738267.0939818-.3816005.0862738-.3911486c.0137487-.0660857.0271853-.1326431.0403144-.1997093l.0751202-.4087972.0679567-.4227807.0610111-.4385383.0542833-.45607.0477734-.4753758.0599304-.7531433.0324516-.5314024.026704-.5569179.0297558-.8870991.0180493-.9544882.0070778-1.0278653-.0031584-1.1072299-.0188637-1.610112-.0340117-1.7760428-.0611619-2.4750161-.0762802-2.936383-.0539125-2.69239879-.0145193-1.02243824-.0114469-1.11253688-.009044-2.25693901c0-.85449276-1.2260113-.89164462-1.332621-.11145558l-.007379.11145558c0 .09869194-.1617659.20714199-.4571602.31694191l-.2164176.07330767c-.0392661.01222051-.0801048.02443463-.1224774.0366308l-.2723342.07286956c-.048354.01207829-.0981647.02411558-.1493936.03610033l-.3240822.07118578-.3562652.06937123-.3865954.06700305c-.0668571.01093907-.1349008.0217564-.2040925.03244045l-.4286169.06241273-.4543154.05866048-.7256051.07974418-.7730054.06818745-.5385827.03811519-.8381108.04477403-.5761967.02077615c-.0970679.00281937-.1946275.00530938-.2926404.0074585l-.5932071.00871184h-.6002069l-.6233505-.00938385-.61122428-.01839438-.59694537-.02676165-.58051394-.03448569-.56192993-.04156648-.54119335-.04800402-.51830421-.05379832-.49326247-.05894938-.46606819-.06345718c-.07529225-.01091612-.14936171-.02199325-.22216355-.03321801l-.42124066-.06901282-.38866494-.07191251-.35393664-.07416896c-.11195166-.0250276-.2177565-.05032406-.31705577-.07578218l-.27802233-.07675214-.23683631-.07707885c-.28736771-.10270374-.45916585-.2045634-.49243366-.29871772l-.00595273-.03324719c0-.85449276-1.22601134-.89164462-1.33262102-.11145558zm17.32748075 1.61715756.0266408-.01305336.0227257 2.2932099.0372578 2.1451439.070725 2.9511615.1013865 4.0395872.03021 1.695845.0129595 1.165805.0038956 1.0813478-.0058444 1.0027111-.0162604.9298952-.016961.5823511-.0220912.5543-.0274217.5279736-.0515657.7463708-.0416247.4697025-.0476564.4494123-.0538885.4308466-.060321.4140056-.0669537.3988892-.0737868.3854974c-.0128784.0632294-.0260498.1259726-.0395185.1882657l-.0844121.3686434-.0917461.3595631-.0992804.3522076c-.0171857.0581841-.0346937.1161336-.0525281.1738843l-.1109575.3444079-.1189926.3413638-.127228.3400444-.1356639.3404496-.1443.3425795-.2330811.5216353-.1667669.3554493c-.9517243 1.9947362-2.3632347 4.0114365-4.4550915 6.3645401-.5165316.5963005-1.2534221.9420364-2.0334043.9578272-.7797897.0157869-1.53008731-.2999296-2.06483635-.8687762-1.18341532-1.2263052-2.13273804-2.3819396-2.89929591-3.5284753l-.33704932-.5153248-.21185195-.3377455-.20181516-.3345431-.19198517-.3325762-.18236198-.3318446-.17294559-.3323483-.16373601-.3340874-.15473324-.3370617-.14593726-.3412715-.1373481-.3467166-.12896573-.3533971c-.02080725-.0595248-.04127384-.1193795-.0614041-.1795897l-.11677994-.3657339-.10891459-.3755027-.10125603-.3865068-.09380429-.3987463-.08655934-.4122211-.07952121-.4269312-.07268987-.4428768-.06606534-.4600575-.05964761-.4784737-.05343669-.4981252-.04743257-.5190121-.04163526-.5411342-.03604475-.5644918-.04403729-.8932354-.02297323-.6282902-.01810654-.6559714-.01848714-1.0385618-.00870033-1.1077933.00038849-1.1811941.0189492-2.1430938.04895586-2.8833137.07143797-3.4943535.0279663-1.65409784.02541362-2.05845761.01043285-1.53198295.02704426.01205336c1.59403047.69413122 4.46744347 1.00010428 7.98565744 1.00010428 3.5182141 0 6.3916271-.30597306 7.9856575-1.00010428z" fill-rule="nonzero"/><circle cx="11.5" cy="35.5" r="1"/><circle cx="7.5" cy="31.5" r="1"/><circle cx="14.5" cy="25.5" r="1"/><circle cx="9.5" cy="21.5" r="1"/><g fill-rule="nonzero"><path d="m8 24c-1.1045695 0-2 .8954305-2 2s.8954305 2 2 2 2-.8954305 2-2-.8954305-2-2-2zm0 1c.55228475 0 1 .4477153 1 1s-.44771525 1-1 1-1-.4477153-1-1 .44771525-1 1-1z"/><path d="m13 29c-1.1045695 0-2 .8954305-2 2s.8954305 2 2 2 2-.8954305 2-2-.8954305-2-2-2zm0 1c.5522847 0 1 .4477153 1 1s-.4477153 1-1 1-1-.4477153-1-1 .4477153-1 1-1z"/><path d="m10.9347017 39.5810465c.3363917 0 .6148812.2479085.6627355.5709923l.0072645.0990077v9.1522373c0 .3700308-.2999692.67-.67.67-.3363916 0-.6148811-.2479084-.6627354-.5709923l-.0072646-.0990077v-9.1522373c0-.3700307.2999693-.67.67-.67z"/><path d="m10.9347017 55.6281054c.3363917 0 .6148812.2479084.6627355.5709923l.0072645.0990077v8.1522373c0 .3700307-.2999692.67-.67.67-.3363916 0-.6148811-.2479085-.6627354-.5709923l-.0072646-.0990077v-8.1522373c0-.3700308.2999693-.67.67-.67z"/><path d="m1.98273941 17.1001836c3.50581495-1.5625816 5.52260768-1.4720957 8.96623529-.2063009l.3550251.132679c3.2922831 1.2488963 4.934259 1.3895625 8.0482889.0687752.3406561-.1444861.7339415.014541.8784277.3551971.1444861.340656-.014541.7339415-.3551971.8784276-3.3717788 1.430109-5.3287942 1.3197526-8.6935713.0824809l-.3532179-.1319966c-3.36598757-1.2768533-5.0550349-1.4018586-8.30047057.044669-.3379793.1506412-.73408449-.0012263-.88472571-.3392056s.0012263-.7340845.33920559-.8847257z"/><path d="m1.58549947 4.29435138c0-1.75963721 2.81834776-2.83612114 6.26667914-3.22945181l.63342415-.06398681c1.59847954-.14114737 3.29971844-.14114737 4.89819794 0l.6334242.06398681c3.4483314.39333067 6.2666791 1.4698146 6.2666791 3.22945181 0 .37003078-.2999692.67-.67.67-.3363916 0-.6148811-.24790845-.6627355-.57099231l-.0072645-.09900769c0-1.33248769-3.7725005-2.01832693-7.655957-2.05751775h-.7064905c-3.76577598.03800322-7.42721875.68405785-7.64566636 1.9381639l-.01029067.11935385c0 .37003078-.29996922.67-.67.67s-.67-.29996922-.67-.67z"/><path d="m10.9687986 64.1793371c-3.79326838 0-6.83533332.9176717-6.83533332 2.5298291 0 1.57082 2.88806166 2.4823124 6.54506372 2.5280228l.2902696.0018063c3.7929443 0 6.8353333-.9177164 6.8353333-2.5298291s-3.042389-2.5298291-6.8353333-2.5298291zm0 1.34c.7302513 0 1.4293994.0440181 2.0696082.1169927l.4686705.059925c.2283747.0324419.4474825.0684262.6558554.1071589l.4019977.0808943c.2578764.0560586.4949288.1160617.7076777.1781266l.3004607.0944083c.5627264.1909679.8910631.3920198.8910631.5523233s-.3283367.3613554-.8910631.5523233l-.3004607.0944083c-.2659361.0775811-.5698465.1519407-.9049352.2194016l-.416637.0774064c-.1435776.0245415-.2917088.0477439-.4439586.0693718l-.4686705.059925-.4907728.0490663c-.0834923.0071943-.1677969.0138774-.2528592.0200198l-.5190331.0301307c-.2636285.0115858-.5330989.0177759-.8069431.0177759-.2738762 0-.5433728-.0061896-.8070225-.0177745l-.51906896-.0301284c-.08506729-.006142-.16937626-.0128246-.25287257-.0200184l-.49079117-.049063c-.32011321-.036485-.62548499-.0802089-.9126377-.1292893l-.41663006-.0774027c-.06701606-.0134916-.13278475-.0272592-.19725173-.0412733l-.37074673-.0868079c-.05904281-.0148827-.11667523-.0299531-.17284294-.0451818l-.31899486-.0930367c-.65118909-.2046761-1.0364741-.4261662-1.0364741-.5998531 0-.2137685.58362699-.499949 1.5283119-.7380716l.37074673-.0868079.40198767-.0808908c.13891291-.0258205.28259794-.0504195.43062039-.0735618l.45664488-.0648211c.70318157-.0899702 1.48539295-.1456759 2.30702175-.1456759z"/><path d="m21.2920792 47h-4.4108911c-1.0346534 0-2.2871287.4730053-2.940594 1.0511228l-.7079208.6832298h-4.51980201l-.70792079-.6306737c-.65346535-.6306736-1.9059406-1.0511228-2.94059406-1.0511228h-4.41089109c-.38118812 0-.65346535.3153369-.65346535.6306737v6.9374104c0 .367893.32673267.6306737.65346535.6306737h4.30198019l-2.55940594 2.4701386c-.21782178.2102245-.27227722.4730052-.16336633.7357859s.32673267.4204491.65346534.4204491h1.85148515v1.7869088c0 .2627807.16336634.5255614.43564357.6306736.10891089.0525562.16336633.0525562.27227722.0525562.16336634 0 .32673268-.0525562.49009901-.2102246l5.06435644-4.8877209 5.0643564 4.8877209c.1089109.1051123.3267327.2102246.490099.2102246.1089109 0 .1633664 0 .2722773-.0525562.2722772-.1051122.4356435-.3678929.4356435-.6306736v-1.7869088h1.8514852c.2722772 0 .5445544-.1576684.6534653-.4204491s.0544555-.5255614-.1633663-.7357859l-2.5594059-2.4701386h4.3019802c.3811881 0 .6534653-.3153368.6534653-.6306737v-6.9374104c-.0544554-.367893-.3267327-.6832298-.7079208-.6832298zm-8.4950495 5.5709508-1.8514851 1.7869087-1.85148519-1.7869087v-1.4190158-1.0511228h3.70297029zm-7.73267326 1.3664596h-3.75742575v-5.6235069h3.75742575c.70792079 0 1.63366336.367893 1.96039604.6832298l.70792079.6832298v.7883421h-2.94059406c-.38118812 0-.65346535.3153368-.65346535.6306737 0 .3153368.32673267.6306737.65346535.6306737h2.94059406v.788342l-.76237624.735786c-.32673267.3153368-1.1980198.6832298-1.90594059.6832298zm1.03465346 5.0979455v-.8408982c0-.1576684-.05445544-.3153368-.21782178-.4730052-.16336634-.1576685-.32673267-.2102246-.49009901-.2102246h-.87128713l3.48514852-3.3635929s0 0 .05445544-.0525562l.43564356-.4204491 1.5792079 1.5241281zm10.4554455-1.4715719c-.1633663 0-.3267326.0525562-.490099.2102246-.1633663.1576684-.2178217.3153368-.2178217.4730053v.8408982l-3.9207921-3.7840421 1.5792079-1.524128.4356436.4204491s0 0 .0544554.0525562l3.4851485 3.3635929h-.9257426zm-2.3960396-4.9928332v-.7883421h2.9405941c.3811881 0 .6534653-.3153368.6534653-.6306737 0-.3153368-.3267326-.6306737-.6534653-.6306737h-2.9405941v-.788342l.7079208-.6832299c.3267327-.3153368 1.2524753-.6832298 1.9603961-.6832298h3.7574257v5.623507h-3.7574257c-.7079208 0-1.5792079-.367893-1.9603961-.6832299z"/></g></g><path d="m147.499915 45.1348256c1.999983-2.6506553 5.999947-2.6506553 7.999929-.9990723 2.000208 1.651583 2.000208 4.9547489 0 8.2579148-1.400055 2.4773745-4.999844 4.9547489-7.999929 6.6063319-3.000086-1.651583-6.599873-4.1289574-7.999928-6.6063319-1.999987-3.3031659-1.999987-6.6063318 0-8.2579148 1.999982-1.651583 5.999946-1.651583 7.999928.9990723z" fill="#fbdcdc" stroke="#a0b9b6" stroke-width=".8"/><path d="m122.5 50.5v1h-101v-1z" fill="#a0b9b6" fill-rule="nonzero"/><path d="m173.5 51h101" stroke="#a0b9b6"/><path d="m52.96 20.16c.5013333 0 .976-.12 1.424-.36s.816-.5893333 1.104-1.048c.0213333-.032.0213333-.064 0-.096s-.048-.048-.08-.048-.0533333.0106667-.064.032c-.2026667.2986667-.4453333.5226667-.728.672s-.5786667.224-.888.224c-.4053333 0-.7546667-.1173333-1.048-.352s-.44-.544-.44-.928c0-.3733333.1093333-.664.328-.872s.5626667-.44 1.032-.696c.5226667-.288.904-.552 1.144-.792s.36-.568.36-.984c0-.4053333-.1226667-.7226667-.368-.952s-.608-.344-1.088-.344c-.224 0-.424.0213333-.6.064s-.3653333.1066667-.568.192c-.256.0853333-.4213333.128-.496.128-.1706667 0-.256-.1066667-.256-.32 0-.064.0053333-.1173333.016-.16.0106667-.0106667.0026667-.024-.024-.04s-.056-.024-.088-.024c-.0426667 0-.064.0106667-.064.032l-.512 2.128c-.0106667.0426667.032.064.128.064.032 0 .0533333-.0053333.064-.016.1493333-.4906667.3813333-.8906667.696-1.2s.6533333-.464 1.016-.464c.288 0 .512.1013333.672.304s.24.4853333.24.848c0 .416-.1173333.76-.352 1.032s-.5866667.536-1.056.792c-.48.2773333-.832.5333333-1.056.768s-.336.5386667-.336.912c0 .512.1893333.8906667.568 1.136s.8186667.368 1.32.368zm6.96 4.24c.032 0 .048-.032.048-.096s-.016-.096-.048-.096c-.448 0-.7786667-.0293333-.992-.088s-.3573333-.1626667-.432-.312-.112-.384-.112-.704v-3.216c.2666667.1173333.52.2.76.248s.5146667.072.824.072c.5333333 0 1.0666667-.128 1.6-.384s.9786667-.6586667 1.336-1.208.536-1.2346667.536-2.056c0-.5973333-.112-1.12-.336-1.568s-.5253333-.7893333-.904-1.024-.792-.352-1.24-.352c-.8746667 0-1.7333333.4213333-2.576 1.264-.0213333-.3733333-.0826667-.6666667-.184-.88s-.216-.32-.344-.32l-.096.032-1.936.928c-.0426667.0106667-.0506667.0426667-.024.096s.0613333.08.104.08h.016c.3413333-.16.6133333-.24.816-.24s.3466667.0826667.432.248.128.4293333.128.792v7.488c0 .32-.024.5546667-.072.704s-.1413333.2533333-.28.312-.3466667.088-.624.088c-.032 0-.048.032-.048.096s.016.096.048.096c.2666667 0 .4746667-.0053333.624-.016l.896-.016 1.2.016c.2133333.0106667.5066667.016.88.016zm.48-4.544c-.448 0-.8266667-.08-1.136-.24s-.6026667-.3946667-.88-.704v-3.728c.288-.2773333.5733333-.4906667.856-.64s.5946667-.224.936-.224c.5973333 0 1.088.2373333 1.472.712s.576 1.1493333.576 2.024c0 .896-.1653333 1.5866667-.496 2.072s-.7733333.728-1.328.728zm5.392.32c.2453333 0 .4346667-.0693333.568-.208s.2-.3306667.2-.576c0-.2346667-.0666667-.4186667-.2-.552s-.3226667-.2-.568-.2-.4373333.0666667-.576.2-.208.3173333-.208.552.072.424.216.568.3333333.216.568.216zm12.176.016c1.024 0 2.0266667-.192 3.008-.576.096-.0426667.1573333-.0826667.184-.12s.0506667-.12.072-.248l.224-1.936c0-.0213333-.0133333-.0373333-.04-.048s-.056-.016-.088-.016c-.0426667 0-.064.016-.064.048-.6613333 1.76-1.76 2.64-3.296 2.64-.7786667 0-1.496-.2426667-2.152-.728s-1.176-1.144-1.56-1.976-.576-1.744-.576-2.736c0-.8533333.152-1.6053333.456-2.256s.744-1.1546667 1.32-1.512 1.2533333-.536 2.032-.536c.8853333 0 1.6426667.2053333 2.272.616s1.0826667 1.032 1.36 1.864c.0106667.032.0426667.0453333.096.04s.08-.024.08-.056l-.176-1.936c-.0213333-.1173333-.0453333-.2-.072-.248s-.0826667-.0933333-.168-.136c-.3093333-.16-.7253333-.2853333-1.248-.376-.5226667-.09066667-1.0293333-.136-1.52-.136-1.024 0-1.9866667.216-2.888.648s-1.6266667 1.0346667-2.176 1.808-.824 1.656-.824 2.648c0 .8746667.2026667 1.712.608 2.512s1.04 1.4586667 1.904 1.976 1.9413333.776 3.232.776zm8.064.016c.6186667 0 1.1893333-.136 1.712-.408s.9413333-.6586667 1.256-1.16.472-1.0773333.472-1.728c0-.5653333-.128-1.1013333-.384-1.608s-.624-.9146667-1.104-1.224-1.0346667-.464-1.664-.464c-.5546667 0-1.0986667.12-1.632.36s-.9706667.6026667-1.312 1.088-.512 1.0746667-.512 1.768c0 .608.1306667 1.1706667.392 1.688s.632.928 1.112 1.232 1.0346667.456 1.664.456zm.464-.304c-.448 0-.8506667-.1573333-1.208-.472s-.6373333-.7466667-.84-1.296-.304-1.16-.304-1.832c0-.7786667.1413333-1.368.424-1.768s.6853333-.6 1.208-.6c.448 0 .8533333.1413333 1.216.424s.648.688.856 1.216.312 1.1386667.312 1.832c0 .832-.144 1.456-.432 1.872s-.6986667.624-1.232.624zm10.832 4.496c.0213333 0 .032-.032.032-.096s-.0106667-.096-.032-.096c-.416 0-.7226667-.0293333-.92-.088s-.3306667-.1626667-.4-.312-.104-.384-.104-.704v-3.568c.4373333.448.896.672 1.376.672.3946667 0 .8-.128 1.216-.384s.768-.6453333 1.056-1.168.432-1.1626667.432-1.92c0-.6293333-.0933333-1.1813333-.28-1.656s-.44-.8373333-.76-1.088-.672-.376-1.056-.376c-.6506667 0-1.312.3413333-1.984 1.024v-6.08c0-.04266667-.0186667-.08-.056-.112s-.0773333-.048-.12-.048c-.032 0-.0586667.00533333-.08.016l-2.112 1.024c-.032.01066667-.0373333.04266667-.016.096s.048.08.08.08h.032c.2773333-.13866667.5066667-.208.688-.208.192 0 .3226667.08266667.392.248s.104.44.104.824v3.808c-.4373333-.448-.896-.672-1.376-.672-.3946667 0-.8026667.1253333-1.224.376s-.7733333.64-1.056 1.168-.424 1.1706667-.424 1.928c0 .6293333.0906667 1.1813333.272 1.656s.432.8373333.752 1.088.672.376 1.056.376c.6506667 0 1.3173333-.3413333 2-1.024v3.92c0 .32-.0373333.5546667-.112.704s-.2186667.2533333-.432.312-.5386667.088-.976.088c-.032 0-.048.032-.048.096s.016.096.048.096c.3626667 0 .6506667-.0053333.864-.016l1.216-.016 1.12.016c.2026667.0106667.48.016.832.016zm-3.952-4.72c-.416 0-.752-.2666667-1.008-.8s-.384-1.28-.384-2.24c0-.832.1173333-1.488.352-1.968s.56-.72.976-.72c.256 0 .5146667.0933333.776.28s.504.44.728.76v3.904c-.48.5226667-.96.784-1.44.784zm4.032.192c-.256 0-.5146667-.0906667-.776-.272s-.504-.432-.728-.752v-3.936c.4693333-.512.944-.768 1.424-.768.416 0 .7546667.2693333 1.016.808s.392 1.2826667.392 2.232c0 .832-.1173333 1.488-.352 1.968s-.56.72-.976.72zm9.136.304c.032 0 .058667-.0053333.08-.016l1.984-.944c.032-.0213333.037333-.056.016-.104s-.053333-.072-.096-.072h-.016c-.352.1493333-.613333.224-.784.224-.192 0-.328-.08-.408-.24s-.12-.4213333-.12-.784v-4.4c0-.0426667-.021333-.08-.064-.112s-.085333-.048-.128-.048l-.064.016-1.888.88c-.032.0106667-.042667.0426667-.032.096s.032.08.064.08h.032c.202667-.0853333.373333-.128.512-.128.170667 0 .293333.088.368.264s.112.4666667.112.872v2.768c-.256.2666667-.544.4746667-.864.624s-.629333.224-.928.224c-.896 0-1.344-.6026667-1.344-1.808v-3.728c0-.0426667-.021333-.08-.064-.112s-.085333-.048-.128-.048l-.064.016-1.888.88c-.032.0106667-.04.0426667-.024.096s.04.08.072.08h.032c.181333-.0853333.346667-.128.496-.128.170667 0 .293333.088.368.264s.112.4666667.112.872v2.416c0 .6186667.157333 1.1013333.472 1.448s.744.52 1.288.52c.853333 0 1.674667-.4426667 2.464-1.328 0 .4053333.048.7333333.144.984s.192.376.288.376zm3.776-.176c.117333 0 .226667-.0746667.328-.224s.296-.5066667.584-1.072c.309333-.608.608-1.04.896-1.296s.613333-.4053333.976-.448v1.744c0 .3306667-.021333.5706667-.064.72s-.122667.2506667-.24.304-.309333.08-.576.08c-.021333 0-.032.032-.032.096s.010667.096.032.096c.266667 0 .474667-.0053333.624-.016l.848-.016.816.016c.138667.0106667.330667.016.576.016.021333 0 .032-.032.032-.096s-.010667-.096-.032-.096c-.245333 0-.429333-.0293333-.552-.088s-.210667-.1653333-.264-.32-.08-.3866667-.08-.696v-3.584c0-.32.024-.5546667.072-.704s.133333-.2533333.256-.312.306667-.088.552-.088c.021333 0 .032-.032.032-.096s-.010667-.096-.032-.096c-.245333 0-.437333.0053333-.576.016l-.8.016c-.234667 0-.496-.016-.784-.048-.341333-.0213333-.570667-.032-.688-.032-.682667 0-1.224.1493333-1.624.448s-.6.704-.6 1.216c0 .4373333.154667.7866667.464 1.048s.826667.424 1.552.488c-.778667.1386667-1.376.608-1.792 1.408-.032.064-.109333.2133333-.232.448s-.277333.456-.464.664-.44.312-.76.312c-.021333 0-.032.032-.032.096s.010667.096.032.096zm2.256-3.232c-.458667 0-.810667-.1573333-1.056-.472s-.368-.7226667-.368-1.224c0-.352.088-.624.264-.816s.44-.288.792-.288c.256 0 .445333.032.568.096s.208.176.256.336.072.4106667.072.752v1.584c-.234667.0213333-.410667.032-.528.032zm4.656 5.792c.021333 0 .037333-.0053333.048-.016.394667-.384.690667-.7653333.888-1.144s.296-.792.296-1.24c0-.4693333-.096-.832-.288-1.088s-.453333-.384-.784-.384c-.266667 0-.472.0613333-.616.184s-.216.3013333-.216.536c0 .2133333.061333.3866667.184.52s.290667.2.504.2c.256 0 .432-.08.528-.24.106667.1386667.16.3573333.16.656 0 .7253333-.261333 1.3546667-.784 1.888-.021333.0213333-.021333.048 0 .08s.048.048.08.048zm6.768-2.56c.352 0 .629333-.0053333.832-.016l1.104-.016 1.392.016c.245333.0106667.586667.016 1.024.016.032 0 .048-.032.048-.096s-.016-.096-.048-.096c-.533333 0-.92-.032-1.16-.096s-.402667-.1733333-.488-.328-.128-.4026667-.128-.744v-7.312c0-.3306667.032-.5733333.096-.728s.173333-.256.328-.304.392-.072.712-.072c.704 0 1.269333.2373333 1.696.712s.64 1.1333333.64 1.976c0 .864-.218667 1.5253333-.656 1.984s-.970667.688-1.6.688c-.213333 0-.405333-.0213333-.576-.064-.021333-.0106667-.04 0-.056.032s-.024.064-.024.096c0 .0533333.016.08.048.08.202667.0533333.458667.08.768.08.576 0 1.133333-.1173333 1.672-.352s.981333-.592 1.328-1.072.52-1.0666667.52-1.76c0-.896-.304-1.5653333-.912-2.008s-1.413333-.664-2.416-.664c-.202667 0-.44.008-.712.024s-.472.024-.6.024c-.352.032-.656.048-.912.048-.277333 0-.64-.0106667-1.088-.032l-.832-.016c-.021333 0-.032.032-.032.096s.010667.096.032.096c.384 0 .664.0293333.84.088s.296.1626667.36.312.096.384.096.704v7.408c0 .32-.032.5573333-.096.712s-.184.2586667-.36.312-.456.08-.84.08c-.021333 0-.032.032-.032.096s.010667.096.032.096zm11.536.192c.448 0 .866667-.0773333 1.256-.232s.770667-.4026667 1.144-.744c.021333-.032.018667-.0666667-.008-.104s-.056-.056-.088-.056h-.016c-.469333.3306667-1.013333.496-1.632.496-.778667 0-1.389333-.2826667-1.832-.848s-.664-1.3066667-.664-2.224c0-.3093333.021333-.5706667.064-.784l3.152-.032h.768c.117333 0 .176-.1333333.176-.4 0-.4906667-.165333-.8773333-.496-1.16s-.794667-.424-1.392-.424c-.650667 0-1.245333.152-1.784.456s-.96.72-1.264 1.248-.456 1.1066667-.456 1.736c0 .544.12 1.0506667.36 1.52s.592.8453333 1.056 1.128 1.016.424 1.656.424zm-1.728-4.752c.117333-.4586667.314667-.8133333.592-1.064s.613333-.376 1.008-.376c.352 0 .629333.1226667.832.368s.309333.5813333.32 1.008zm7.536 9.056c.672 0 1.272-.1413333 1.8-.424s.936-.6693333 1.224-1.16.432-1.0453333.432-1.664c0-.4693333-.101333-.912-.304-1.328s-.498667-.7573333-.888-1.024-.850667-.4106667-1.384-.432c.608-.224 1.088-.584 1.44-1.08s.528-1.0373333.528-1.624c0-.608-.202667-1.1173333-.608-1.528s-.970667-.616-1.696-.616c-.277333 0-.517333.0213333-.72.064s-.426667.1066667-.672.192c-.224.0853333-.4.128-.528.128-.064 0-.122667-.024-.176-.072s-.08-.1253333-.08-.232c0-.0746667.005333-.1333333.016-.176.010667-.0106667 0-.024-.032-.04s-.064-.024-.096-.024c-.042667 0-.064.0106667-.064.032l-.56 2.496c-.010667.0426667.032.064.128.064.032 0 .053333-.0053333.064-.016.234667-.672.552-1.1893333.952-1.552s.829333-.544 1.288-.544c.992 0 1.488.72 1.488 2.16 0 .7573333-.181333 1.3413333-.544 1.752s-.986667.616-1.872.616c-.064 0-.090667.032-.08.096s.037333.096.08.096c1.973333 0 2.96.9333333 2.96 2.8 0 .7786667-.128 1.4346667-.384 1.968s-.661333.8-1.216.8c-.373333 0-.658667-.0773333-.856-.232s-.402667-.3813333-.616-.68c-.138667-.224-.272-.392-.4-.504s-.293333-.168-.496-.168c-.16 0-.298667.0506667-.416.152s-.176.2533333-.176.456c0 .3626667.232.6613333.696.896s1.053333.352 1.768.352zm9.744-4.32c.032 0 .058667-.0053333.08-.016l1.984-.944c.032-.0213333.037333-.056.016-.104s-.053333-.072-.096-.072h-.016c-.352.1493333-.613333.224-.784.224-.192 0-.328-.08-.408-.24s-.12-.4213333-.12-.784v-4.4c0-.0426667-.021333-.08-.064-.112s-.085333-.048-.128-.048l-.064.016-1.888.88c-.032.0106667-.042667.0426667-.032.096s.032.08.064.08h.032c.202667-.0853333.373333-.128.512-.128.170667 0 .293333.088.368.264s.112.4666667.112.872v2.768c-.256.2666667-.544.4746667-.864.624s-.629333.224-.928.224c-.896 0-1.344-.6026667-1.344-1.808v-3.728c0-.0426667-.021333-.08-.064-.112s-.085333-.048-.128-.048l-.064.016-1.888.88c-.032.0106667-.04.0426667-.024.096s.04.08.072.08h.032c.181333-.0853333.346667-.128.496-.128.170667 0 .293333.088.368.264s.112.4666667.112.872v2.416c0 .6186667.157333 1.1013333.472 1.448s.744.52 1.288.52c.853333 0 1.674667-.4426667 2.464-1.328 0 .4053333.048.7333333.144.984s.192.376.288.376zm5.392 4.32c1.024 0 1.824-.3093333 2.4-.928s.864-1.4346667.864-2.448v-7.408c0-.0106667-.013333-.024-.04-.04s-.050667-.024-.072-.024-.037333.0053333-.048.016c-.117333.1706667-.282667.3093333-.496.416-.469333-.3093333-.986667-.464-1.552-.464-.586667 0-1.16.152-1.72.456s-1.018667.744-1.376 1.32-.536 1.248-.536 2.016c0 .8746667.224 1.5546667.672 2.04s1.002667.728 1.664.728c.458667 0 .882667-.112 1.272-.336s.770667-.528 1.144-.912v2.576c0 1.0133333-.138667 1.7093333-.416 2.088s-.656.568-1.136.568c-.384 0-.672-.072-.864-.216s-.384-.36-.576-.648c-.128-.2133333-.250667-.3706667-.368-.472s-.272-.152-.464-.152c-.16 0-.298667.0506667-.416.152s-.176.2586667-.176.472c0 .3626667.208.6533333.624.872s.954667.328 1.616.328zm.384-4.96c-.533333 0-.952-.2373333-1.256-.712s-.456-1.112-.456-1.912c0-.8746667.181333-1.5893333.544-2.144s.842667-.832 1.44-.832c.416 0 .773333.1333333 1.072.4s.448.5973333.448.992v3.328c-.629333.5866667-1.226667.88-1.792.88zm7.744.656c.448 0 .866667-.0773333 1.256-.232s.770667-.4026667 1.144-.744c.021333-.032.018667-.0666667-.008-.104s-.056-.056-.088-.056h-.016c-.469333.3306667-1.013333.496-1.632.496-.778667 0-1.389333-.2826667-1.832-.848s-.664-1.3066667-.664-2.224c0-.3093333.021333-.5706667.064-.784l3.152-.032h.768c.117333 0 .176-.1333333.176-.4 0-.4906667-.165333-.8773333-.496-1.16s-.794667-.424-1.392-.424c-.650667 0-1.245333.152-1.784.456s-.96.72-1.264 1.248-.456 1.1066667-.456 1.736c0 .544.12 1.0506667.36 1.52s.592.8453333 1.056 1.128 1.016.424 1.656.424zm-1.728-4.752c.117333-.4586667.314667-.8133333.592-1.064s.613333-.376 1.008-.376c.352 0 .629333.1226667.832.368s.309333.5813333.32 1.008zm5.344 4.56c.288 0 .512-.0053333.672-.016l.864-.016.832.016c.16.0106667.384.016.672.016.021333 0 .032-.032.032-.096s-.010667-.096-.032-.096c-.288 0-.498667-.0266667-.632-.08s-.224-.1573333-.272-.312-.072-.392-.072-.712v-1.632h3.216v1.632c0 .32-.024.5573333-.072.712s-.138667.2586667-.272.312-.344.08-.632.08c-.032 0-.048.032-.048.096s.016.096.048.096c.277333 0 .496-.0053333.656-.016l.88-.016.832.016c.16.0106667.384.016.672.016.021333 0 .032-.032.032-.096s-.010667-.096-.032-.096c-.288 0-.498667-.0266667-.632-.08s-.224-.1573333-.272-.312-.072-.392-.072-.712v-4.864c0-.0426667-.021333-.08-.064-.112s-.085333-.048-.128-.048l-.064.016-1.888.88c-.032.0106667-.04.0426667-.024.096s.04.08.072.08h.032c.224-.0853333.389333-.128.496-.128.170667 0 .293333.088.368.264s.112.4666667.112.872v.992h-3.216v-2.912c0-.0426667-.021333-.08-.064-.112s-.085333-.048-.128-.048l-.064.016-1.888.88c-.032.0106667-.04.0426667-.024.096s.04.08.072.08h.032c.224-.0853333.389333-.128.496-.128.170667 0 .293333.088.368.264s.112.4666667.112.872v2.944c0 .32-.024.5573333-.072.712s-.138667.2586667-.272.312-.344.08-.632.08c-.032 0-.048.032-.048.096s.016.096.048.096zm15.392 2.224c.064 0 .096-.0266667.096-.08 0-.608.026667-1.1786667.08-1.712.021333-.2346667.032-.3786667.032-.432 0-.096-.008-.152-.024-.168s-.061333-.024-.136-.024c-.362667 0-.624-.1253333-.784-.376s-.24-.6586667-.24-1.224v-4.368c0-.0426667-.021333-.08-.064-.112s-.085333-.048-.128-.048l-.064.016-1.888.88c-.032.0106667-.042667.0426667-.032.096s.032.08.064.08h.032c.202667-.0853333.373333-.128.512-.128.170667 0 .293333.088.368.264s.112.4666667.112.872v2.768c-.256.2666667-.544.4746667-.864.624s-.629333.224-.928.224c-.896 0-1.344-.6026667-1.344-1.808v-3.728c0-.0426667-.021333-.08-.064-.112s-.085333-.048-.128-.048l-.064.016-1.888.88c-.032.0106667-.04.0426667-.024.096s.04.08.072.08h.032c.181333-.0853333.346667-.128.496-.128.170667 0 .293333.088.368.264s.112.4666667.112.872v2.416c0 .6186667.157333 1.1013333.472 1.448s.744.52 1.288.52c.853333 0 1.674667-.4426667 2.464-1.328 0 .48.010667.7973333.032.952s.074667.232.16.232c.565333 0 1.002667.168 1.312.504s.464.8826667.464 1.64c0 .0533333.032.08.096.08zm6.4-2.048c.032 0 .058667-.0053333.08-.016l1.984-.944c.032-.0213333.037333-.056.016-.104s-.053333-.072-.096-.072h-.016c-.352.1493333-.613333.224-.784.224-.192 0-.328-.08-.408-.24s-.12-.4213333-.12-.784v-4.4c0-.0426667-.021333-.08-.064-.112s-.085333-.048-.128-.048l-.064.016-1.888.88c-.032.0106667-.042667.0426667-.032.096s.032.08.064.08h.032c.202667-.0853333.373333-.128.512-.128.170667 0 .293333.088.368.264s.112.4666667.112.872v2.768c-.256.2666667-.544.4746667-.864.624s-.629333.224-.928.224c-.896 0-1.344-.6026667-1.344-1.808v-3.728c0-.0426667-.021333-.08-.064-.112s-.085333-.048-.128-.048l-.064.016-1.888.88c-.032.0106667-.04.0426667-.024.096s.04.08.072.08h.032c.181333-.0853333.346667-.128.496-.128.170667 0 .293333.088.368.264s.112.4666667.112.872v2.416c0 .6186667.157333 1.1013333.472 1.448s.744.52 1.288.52c.853333 0 1.674667-.4426667 2.464-1.328 0 .4053333.048.7333333.144.984s.192.376.288.376zm3.776-.176c.117333 0 .226667-.0746667.328-.224s.296-.5066667.584-1.072c.309333-.608.608-1.04.896-1.296s.613333-.4053333.976-.448v1.744c0 .3306667-.021333.5706667-.064.72s-.122667.2506667-.24.304-.309333.08-.576.08c-.021333 0-.032.032-.032.096s.010667.096.032.096c.266667 0 .474667-.0053333.624-.016l.848-.016.816.016c.138667.0106667.330667.016.576.016.021333 0 .032-.032.032-.096s-.010667-.096-.032-.096c-.245333 0-.429333-.0293333-.552-.088s-.210667-.1653333-.264-.32-.08-.3866667-.08-.696v-3.584c0-.32.024-.5546667.072-.704s.133333-.2533333.256-.312.306667-.088.552-.088c.021333 0 .032-.032.032-.096s-.010667-.096-.032-.096c-.245333 0-.437333.0053333-.576.016l-.8.016c-.234667 0-.496-.016-.784-.048-.341333-.0213333-.570667-.032-.688-.032-.682667 0-1.224.1493333-1.624.448s-.6.704-.6 1.216c0 .4373333.154667.7866667.464 1.048s.826667.424 1.552.488c-.778667.1386667-1.376.608-1.792 1.408-.032.064-.109333.2133333-.232.448s-.277333.456-.464.664-.44.312-.76.312c-.021333 0-.032.032-.032.096s.010667.096.032.096zm2.256-3.232c-.458667 0-.810667-.1573333-1.056-.472s-.368-.7226667-.368-1.224c0-.352.088-.624.264-.816s.44-.288.792-.288c.256 0 .445333.032.568.096s.208.176.256.336.072.4106667.072.752v1.584c-.234667.0213333-.410667.032-.528.032zm8.48-3.216c.266667 0 .472-.0613333.616-.184s.216-.3013333.216-.536c0-.2133333-.061333-.3866667-.184-.52s-.290667-.2-.504-.2c-.256 0-.432.08-.528.24-.106667-.1386667-.16-.3573333-.16-.656 0-.7253333.261333-1.3546667.784-1.888.021333-.02133333.021333-.048 0-.08s-.048-.048-.08-.048c-.021333 0-.037333.00533333-.048.016-.394667.384-.690667.7653333-.888 1.144s-.296.792-.296 1.24c0 .4693333.096.832.288 1.088s.453333.384.784.384zm2.496 0c.266667 0 .472-.0613333.616-.184s.216-.3013333.216-.536c0-.2133333-.061333-.3866667-.184-.52s-.290667-.2-.504-.2c-.256 0-.432.08-.528.24-.106667-.1386667-.16-.3573333-.16-.656 0-.7253333.261333-1.3546667.784-1.888.021333-.02133333.021333-.048 0-.08s-.048-.048-.08-.048c-.021333 0-.037333.00533333-.048.016-.394667.384-.690667.7653333-.888 1.144s-.296.792-.296 1.24c0 .4693333.096.832.288 1.088s.453333.384.784.384zm4.864 6.448c.384 0 .682667-.0053333.896-.016l1.232-.016 1.264.016c.213333.0106667.506667.016.88.016.021333 0 .032-.032.032-.096s-.010667-.096-.032-.096c-.448 0-.773333-.0266667-.976-.08s-.338667-.1546667-.408-.304-.104-.3893333-.104-.72v-7.376c0-.3093333.032-.5306667.096-.664s.181333-.224.352-.272.453333-.072.848-.072c.693333 0 1.216.1813333 1.568.544s.565333.9546667.64 1.776c0 .0213333.029333.032.088.032s.088-.0106667.088-.032c0-.4053333.018667-.9386667.056-1.6s.072-1.14133333.104-1.44c0-.04266667-.029333-.064-.088-.064s-.093333.02133333-.104.064c-.053333.16-.170667.26666667-.352.32s-.469333.08-.864.08l-1.088.016c-.704.0213333-1.370667.032-2 .032-1.237333 0-2.309333-.016-3.216-.048-.586667 0-.88-.11733333-.88-.352 0-.05333333-.032-.08-.096-.08s-.096.02666667-.096.08c0 .34133333-.026667.848-.08 1.52s-.101333 1.1626667-.144 1.472c0 .0213333.029333.032.088.032s.093333-.0106667.104-.032c.181333-.8106667.458667-1.4.832-1.768s.890667-.552 1.552-.552c.394667 0 .677333.0213333.848.064s.288.1306667.352.264.096.3493333.096.648v7.408c0 .32-.037333.5573333-.112.712s-.213333.2586667-.416.312-.522667.08-.96.08c-.032 0-.048.032-.048.096s.016.096.048.096zm9.68.192c.448 0 .866667-.0773333 1.256-.232s.770667-.4026667 1.144-.744c.021333-.032.018667-.0666667-.008-.104s-.056-.056-.088-.056h-.016c-.469333.3306667-1.013333.496-1.632.496-.778667 0-1.389333-.2826667-1.832-.848s-.664-1.3066667-.664-2.224c0-.3093333.021333-.5706667.064-.784l3.152-.032h.768c.117333 0 .176-.1333333.176-.4 0-.4906667-.165333-.8773333-.496-1.16s-.794667-.424-1.392-.424c-.650667 0-1.245333.152-1.784.456s-.96.72-1.264 1.248-.456 1.1066667-.456 1.736c0 .544.12 1.0506667.36 1.52s.592.8453333 1.056 1.128 1.016.424 1.656.424zm-1.728-4.752c.117333-.4586667.314667-.8133333.592-1.064s.613333-.376 1.008-.376c.352 0 .629333.1226667.832.368s.309333.5813333.32 1.008zm8.912 8.96c.032 0 .048-.032.048-.096s-.016-.096-.048-.096c-.448 0-.778667-.0293333-.992-.088s-.357333-.1626667-.432-.312-.112-.384-.112-.704v-3.216c.266667.1173333.52.2.76.248s.514667.072.824.072c.533333 0 1.066667-.128 1.6-.384s.978667-.6586667 1.336-1.208.536-1.2346667.536-2.056c0-.5973333-.112-1.12-.336-1.568s-.525333-.7893333-.904-1.024-.792-.352-1.24-.352c-.874667 0-1.733333.4213333-2.576 1.264-.021333-.3733333-.082667-.6666667-.184-.88s-.216-.32-.344-.32l-.096.032-1.936.928c-.042667.0106667-.050667.0426667-.024.096s.061333.08.104.08h.016c.341333-.16.613333-.24.816-.24s.346667.0826667.432.248.128.4293333.128.792v7.488c0 .32-.024.5546667-.072.704s-.141333.2533333-.28.312-.346667.088-.624.088c-.032 0-.048.032-.048.096s.016.096.048.096c.266667 0 .474667-.0053333.624-.016l.896-.016 1.2.016c.213333.0106667.506667.016.88.016zm.48-4.544c-.448 0-.826667-.08-1.136-.24s-.602667-.3946667-.88-.704v-3.728c.288-.2773333.573333-.4906667.856-.64s.594667-.224.936-.224c.597333 0 1.088.2373333 1.472.712s.576 1.1493333.576 2.024c0 .896-.165333 1.5866667-.496 2.072s-.773333.728-1.328.728zm9.52.32c.032 0 .058667-.0053333.08-.016l1.968-.96c.032-.0106667.04-.0426667.024-.096s-.04-.08-.072-.08l-.032.016c-.384.1386667-.645333.208-.784.208-.192 0-.328-.0746667-.408-.224s-.12-.3946667-.12-.736v-4.576c0-.0106667-.013333-.024-.04-.04s-.050667-.024-.072-.024-.037333.0053333-.048.016c-.117333.1706667-.282667.3093333-.496.416-.469333-.3093333-.986667-.464-1.552-.464-.586667 0-1.16.152-1.72.456s-1.018667.744-1.376 1.32-.536 1.248-.536 2.016c0 .8746667.224 1.5546667.672 2.04s1.002667.728 1.664.728c.469333 0 .896-.112 1.28-.336s.762667-.528 1.136-.912c.021333.3626667.077333.6613333.168.896s.178667.352.264.352zm-2.224-.64c-.533333 0-.952-.2373333-1.256-.712s-.456-1.112-.456-1.912c0-.8746667.181333-1.5893333.544-2.144s.842667-.832 1.44-.832c.416 0 .773333.1333333 1.072.4s.448.5973333.448.992v3.328c-.629333.5866667-1.226667.88-1.792.88zm4.912-5.744c.021333 0 .037333-.0053333.048-.016.394667-.384.690667-.7653333.888-1.144s.296-.792.296-1.24c0-.4693333-.096-.832-.288-1.088s-.453333-.384-.784-.384c-.266667 0-.472.06133333-.616.184-.144.1226667-.216.3013333-.216.536 0 .2133333.061333.3866667.184.52s.290667.2.504.2c.256 0 .432-.08.528-.24.106667.1386667.16.3573333.16.656 0 .7253333-.261333 1.3546667-.784 1.888-.021333.0213333-.021333.048 0 .08s.048.048.08.048zm2.496 0c.021333 0 .037333-.0053333.048-.016.394667-.384.690667-.7653333.888-1.144s.296-.792.296-1.24c0-.4693333-.096-.832-.288-1.088s-.453333-.384-.784-.384c-.266667 0-.472.06133333-.616.184-.144.1226667-.216.3013333-.216.536 0 .2133333.061333.3866667.184.52s.290667.2.504.2c.256 0 .432-.08.528-.24.106667.1386667.16.3573333.16.656 0 .7253333-.261333 1.3546667-.784 1.888-.021333.0213333-.021333.048 0 .08s.048.048.08.048z" fill="#021631" fill-rule="nonzero"/></g></svg>