<svg height="70" viewBox="0 0 296 70" width="296" xmlns="http://www.w3.org/2000/svg"><g fill="none" fill-rule="evenodd"><g fill="#a0b9b6"><path d="m1.59287845 4.1828958-.00737898.11145558-.00612094 2.01664295-.02375907 2.39491651-.05118218 3.03323146-.08550372 4.2690782-.03146456 2.3088835-.00866776 1.2764069v1.1997439l.00509743.7592709.01587509 1.0811168.02639688 1.0154273.02380284.6424894.0290184.6163422.0537786.8781544.04300094.5563085.04897141.5344287.05515756.5137682.06155941.494327.06817693.476105.07501014.4591023.08205904.4433188.08932362.4287546.0968039.4154097.10449985.4032841.11241149.3923777c.01940654.0645551.03915171.1287067.05924002.19248l.12468337.3783042.13313423.370446.14180077.363807c.02436766.060149.04910541.1200722.07421774.1797949l.155205.3561347.16441077.3525439.1738322.3501724c.02976914.0582322.05993983.1164163.09051655.1745779l.18836879.3489012.19832945.3495778.2085058.3514737.21889783.3545889.34830362.5403914c.04005333.0607377.08056213.1217322.12153089.1830089.81336464 1.2165442 1.81283306 2.4332223 3.04298739 3.7078741.78831415.8386642 1.90318725 1.3077899 3.06222731 1.284325 1.1592452-.023469 2.2543418-.5372688 3.0134765-1.4137637 2.1639824-2.4341525 3.645813-4.551323 4.6572938-6.671304l.2634286-.5662184.1634881-.3690853.1540374-.3644402.1448044-.3615692.1357895-.3604724.1269923-.3611498.1184129-.3636012.1100513-.3678268.1019077-.3738267.0939818-.3816005.0862738-.3911486c.0137487-.0660857.0271853-.1326431.0403144-.1997093l.0751202-.4087972.0679567-.4227807.0610111-.4385383.0542833-.45607.0477734-.4753758.0599304-.7531433.0324516-.5314024.026704-.5569179.0297558-.8870991.0180493-.9544882.0070778-1.0278653-.0031584-1.1072299-.0188637-1.610112-.0340117-1.7760428-.0611619-2.4750161-.0762802-2.936383-.0539125-2.69239879-.0145193-1.02243824-.0114469-1.11253688-.009044-2.25693901c0-.85449276-1.2260113-.89164462-1.332621-.11145558l-.007379.11145558c0 .09869194-.1617659.20714199-.4571602.31694191l-.2164176.07330767c-.0392661.01222051-.0801048.02443463-.1224774.0366308l-.2723342.07286956c-.048354.01207829-.0981647.02411558-.1493936.03610033l-.3240822.07118578-.3562652.06937123-.3865954.06700305c-.0668571.01093907-.1349008.0217564-.2040925.03244045l-.4286169.06241273-.4543154.05866048-.7256051.07974418-.7730054.06818745-.5385827.03811519-.8381108.04477403-.5761967.02077615c-.0970679.00281937-.1946275.00530938-.2926404.0074585l-.5932071.00871184h-.6002069l-.6233505-.00938385-.61122428-.01839438-.59694537-.02676165-.58051394-.03448569-.56192993-.04156648-.54119335-.04800402-.51830421-.05379832-.49326247-.05894938-.46606819-.06345718c-.07529225-.01091612-.14936171-.02199325-.22216355-.03321801l-.42124066-.06901282-.38866494-.07191251-.35393664-.07416896c-.11195166-.0250276-.2177565-.05032406-.31705577-.07578218l-.27802233-.07675214-.23683631-.07707885c-.28736771-.10270374-.45916585-.2045634-.49243366-.29871772l-.00595273-.03324719c0-.85449276-1.22601134-.89164462-1.33262102-.11145558zm17.32748075 1.61715756.0266408-.01305336.0227257 2.2932099.0372578 2.1451439.070725 2.9511615.1013865 4.0395872.03021 1.695845.0129595 1.165805.0038956 1.0813478-.0058444 1.0027111-.0162604.9298952-.016961.5823511-.0220912.5543-.0274217.5279736-.0515657.7463708-.0416247.4697025-.0476564.4494123-.0538885.4308466-.060321.4140056-.0669537.3988892-.0737868.3854974c-.0128784.0632294-.0260498.1259726-.0395185.1882657l-.0844121.3686434-.0917461.3595631-.0992804.3522076c-.0171857.0581841-.0346937.1161336-.0525281.1738843l-.1109575.3444079-.1189926.3413638-.127228.3400444-.1356639.3404496-.1443.3425795-.2330811.5216353-.1667669.3554493c-.9517243 1.9947362-2.3632347 4.0114365-4.4550915 6.3645401-.5165316.5963005-1.2534221.9420364-2.0334043.9578272-.7797897.0157869-1.53008731-.2999296-2.06483635-.8687762-1.18341532-1.2263052-2.13273804-2.3819396-2.89929591-3.5284753l-.33704932-.5153248-.21185195-.3377455-.20181516-.3345431-.19198517-.3325762-.18236198-.3318446-.17294559-.3323483-.16373601-.3340874-.15473324-.3370617-.14593726-.3412715-.1373481-.3467166-.12896573-.3533971c-.02080725-.0595248-.04127384-.1193795-.0614041-.1795897l-.11677994-.3657339-.10891459-.3755027-.10125603-.3865068-.09380429-.3987463-.08655934-.4122211-.07952121-.4269312-.07268987-.4428768-.06606534-.4600575-.05964761-.4784737-.05343669-.4981252-.04743257-.5190121-.04163526-.5411342-.03604475-.5644918-.04403729-.8932354-.02297323-.6282902-.01810654-.6559714-.01848714-1.0385618-.00870033-1.1077933.00038849-1.1811941.0189492-2.1430938.04895586-2.8833137.07143797-3.4943535.0279663-1.65409784.02541362-2.05845761.01043285-1.53198295.02704426.01205336c1.59403047.69413122 4.46744347 1.00010428 7.98565744 1.00010428 3.5182141 0 6.3916271-.30597306 7.9856575-1.00010428z" fill-rule="nonzero"/><circle cx="11.5" cy="35.5" r="1"/><circle cx="7.5" cy="31.5" r="1"/><circle cx="14.5" cy="25.5" r="1"/><circle cx="9.5" cy="21.5" r="1"/><g fill-rule="nonzero"><path d="m8 24c-1.1045695 0-2 .8954305-2 2s.8954305 2 2 2 2-.8954305 2-2-.8954305-2-2-2zm0 1c.55228475 0 1 .4477153 1 1s-.44771525 1-1 1-1-.4477153-1-1 .44771525-1 1-1z"/><path d="m13 29c-1.1045695 0-2 .8954305-2 2s.8954305 2 2 2 2-.8954305 2-2-.8954305-2-2-2zm0 1c.5522847 0 1 .4477153 1 1s-.4477153 1-1 1-1-.4477153-1-1 .4477153-1 1-1z"/><path d="m10.9347017 39.5810465c.3363917 0 .6148812.2479085.6627355.5709923l.0072645.0990077v9.1522373c0 .3700308-.2999692.67-.67.67-.3363916 0-.6148811-.2479084-.6627354-.5709923l-.0072646-.0990077v-9.1522373c0-.3700307.2999693-.67.67-.67z"/><path d="m10.9347017 55.6281054c.3363917 0 .6148812.2479084.6627355.5709923l.0072645.0990077v8.1522373c0 .3700307-.2999692.67-.67.67-.3363916 0-.6148811-.2479085-.6627354-.5709923l-.0072646-.0990077v-8.1522373c0-.3700308.2999693-.67.67-.67z"/><path d="m1.98273941 17.1001836c3.50581495-1.5625816 5.52260768-1.4720957 8.96623529-.2063009l.3550251.132679c3.2922831 1.2488963 4.934259 1.3895625 8.0482889.0687752.3406561-.1444861.7339415.014541.8784277.3551971.1444861.340656-.014541.7339415-.3551971.8784276-3.3717788 1.430109-5.3287942 1.3197526-8.6935713.0824809l-.3532179-.1319966c-3.36598757-1.2768533-5.0550349-1.4018586-8.30047057.044669-.3379793.1506412-.73408449-.0012263-.88472571-.3392056s.0012263-.7340845.33920559-.8847257z"/><path d="m1.58549947 4.29435138c0-1.75963721 2.81834776-2.83612114 6.26667914-3.22945181l.63342415-.06398681c1.59847954-.14114737 3.29971844-.14114737 4.89819794 0l.6334242.06398681c3.4483314.39333067 6.2666791 1.4698146 6.2666791 3.22945181 0 .37003078-.2999692.67-.67.67-.3363916 0-.6148811-.24790845-.6627355-.57099231l-.0072645-.09900769c0-1.33248769-3.7725005-2.01832693-7.655957-2.05751775h-.7064905c-3.76577598.03800322-7.42721875.68405785-7.64566636 1.9381639l-.01029067.11935385c0 .37003078-.29996922.67-.67.67s-.67-.29996922-.67-.67z"/><path d="m10.9687986 64.1793371c-3.79326838 0-6.83533332.9176717-6.83533332 2.5298291 0 1.57082 2.88806166 2.4823124 6.54506372 2.5280228l.2902696.0018063c3.7929443 0 6.8353333-.9177164 6.8353333-2.5298291s-3.042389-2.5298291-6.8353333-2.5298291zm0 1.34c.7302513 0 1.4293994.0440181 2.0696082.1169927l.4686705.059925c.2283747.0324419.4474825.0684262.6558554.1071589l.4019977.0808943c.2578764.0560586.4949288.1160617.7076777.1781266l.3004607.0944083c.5627264.1909679.8910631.3920198.8910631.5523233s-.3283367.3613554-.8910631.5523233l-.3004607.0944083c-.2659361.0775811-.5698465.1519407-.9049352.2194016l-.416637.0774064c-.1435776.0245415-.2917088.0477439-.4439586.0693718l-.4686705.059925-.4907728.0490663c-.0834923.0071943-.1677969.0138774-.2528592.0200198l-.5190331.0301307c-.2636285.0115858-.5330989.0177759-.8069431.0177759-.2738762 0-.5433728-.0061896-.8070225-.0177745l-.51906896-.0301284c-.08506729-.006142-.16937626-.0128246-.25287257-.0200184l-.49079117-.049063c-.32011321-.036485-.62548499-.0802089-.9126377-.1292893l-.41663006-.0774027c-.06701606-.0134916-.13278475-.0272592-.19725173-.0412733l-.37074673-.0868079c-.05904281-.0148827-.11667523-.0299531-.17284294-.0451818l-.31899486-.0930367c-.65118909-.2046761-1.0364741-.4261662-1.0364741-.5998531 0-.2137685.58362699-.499949 1.5283119-.7380716l.37074673-.0868079.40198767-.0808908c.13891291-.0258205.28259794-.0504195.43062039-.0735618l.45664488-.0648211c.70318157-.0899702 1.48539295-.1456759 2.30702175-.1456759z"/><path d="m21.2920792 47h-4.4108911c-1.0346534 0-2.2871287.4730053-2.940594 1.0511228l-.7079208.6832298h-4.51980201l-.70792079-.6306737c-.65346535-.6306736-1.9059406-1.0511228-2.94059406-1.0511228h-4.41089109c-.38118812 0-.65346535.3153369-.65346535.6306737v6.9374104c0 .367893.32673267.6306737.65346535.6306737h4.30198019l-2.55940594 2.4701386c-.21782178.2102245-.27227722.4730052-.16336633.7357859s.32673267.4204491.65346534.4204491h1.85148515v1.7869088c0 .2627807.16336634.5255614.43564357.6306736.10891089.0525562.16336633.0525562.27227722.0525562.16336634 0 .32673268-.0525562.49009901-.2102246l5.06435644-4.8877209 5.0643564 4.8877209c.1089109.1051123.3267327.2102246.490099.2102246.1089109 0 .1633664 0 .2722773-.0525562.2722772-.1051122.4356435-.3678929.4356435-.6306736v-1.7869088h1.8514852c.2722772 0 .5445544-.1576684.6534653-.4204491s.0544555-.5255614-.1633663-.7357859l-2.5594059-2.4701386h4.3019802c.3811881 0 .6534653-.3153368.6534653-.6306737v-6.9374104c-.0544554-.367893-.3267327-.6832298-.7079208-.6832298zm-8.4950495 5.5709508-1.8514851 1.7869087-1.85148519-1.7869087v-1.4190158-1.0511228h3.70297029zm-7.73267326 1.3664596h-3.75742575v-5.6235069h3.75742575c.70792079 0 1.63366336.367893 1.96039604.6832298l.70792079.6832298v.7883421h-2.94059406c-.38118812 0-.65346535.3153368-.65346535.6306737 0 .3153368.32673267.6306737.65346535.6306737h2.94059406v.788342l-.76237624.735786c-.32673267.3153368-1.1980198.6832298-1.90594059.6832298zm1.03465346 5.0979455v-.8408982c0-.1576684-.05445544-.3153368-.21782178-.4730052-.16336634-.1576685-.32673267-.2102246-.49009901-.2102246h-.87128713l3.48514852-3.3635929s0 0 .05445544-.0525562l.43564356-.4204491 1.5792079 1.5241281zm10.4554455-1.4715719c-.1633663 0-.3267326.0525562-.490099.2102246-.1633663.1576684-.2178217.3153368-.2178217.4730053v.8408982l-3.9207921-3.7840421 1.5792079-1.524128.4356436.4204491s0 0 .0544554.0525562l3.4851485 3.3635929h-.9257426zm-2.3960396-4.9928332v-.7883421h2.9405941c.3811881 0 .6534653-.3153368.6534653-.6306737 0-.3153368-.3267326-.6306737-.6534653-.6306737h-2.9405941v-.788342l.7079208-.6832299c.3267327-.3153368 1.2524753-.6832298 1.9603961-.6832298h3.7574257v5.623507h-3.7574257c-.7079208 0-1.5792079-.367893-1.9603961-.6832299z"/></g></g><g fill="#a0b9b6" transform="translate(274)"><path d="m1.59287845 4.1828958-.00737898.11145558-.00612094 2.01664295-.02375907 2.39491651-.05118218 3.03323146-.08550372 4.2690782-.03146456 2.3088835-.00866776 1.2764069v1.1997439l.00509743.7592709.01587509 1.0811168.02639688 1.0154273.02380284.6424894.0290184.6163422.0537786.8781544.04300094.5563085.04897141.5344287.05515756.5137682.06155941.494327.06817693.476105.07501014.4591023.08205904.4433188.08932362.4287546.0968039.4154097.10449985.4032841.11241149.3923777c.01940654.0645551.03915171.1287067.05924002.19248l.12468337.3783042.13313423.370446.14180077.363807c.02436766.060149.04910541.1200722.07421774.1797949l.155205.3561347.16441077.3525439.1738322.3501724c.02976914.0582322.05993983.1164163.09051655.1745779l.18836879.3489012.19832945.3495778.2085058.3514737.21889783.3545889.34830362.5403914c.04005333.0607377.08056213.1217322.12153089.1830089.81336464 1.2165442 1.81283306 2.4332223 3.04298739 3.7078741.78831415.8386642 1.90318725 1.3077899 3.06222731 1.284325 1.1592452-.023469 2.2543418-.5372688 3.0134765-1.4137637 2.1639824-2.4341525 3.645813-4.551323 4.6572938-6.671304l.2634286-.5662184.1634881-.3690853.1540374-.3644402.1448044-.3615692.1357895-.3604724.1269923-.3611498.1184129-.3636012.1100513-.3678268.1019077-.3738267.0939818-.3816005.0862738-.3911486c.0137487-.0660857.0271853-.1326431.0403144-.1997093l.0751202-.4087972.0679567-.4227807.0610111-.4385383.0542833-.45607.0477734-.4753758.0599304-.7531433.0324516-.5314024.026704-.5569179.0297558-.8870991.0180493-.9544882.0070778-1.0278653-.0031584-1.1072299-.0188637-1.610112-.0340117-1.7760428-.0611619-2.4750161-.0762802-2.936383-.0539125-2.69239879-.0145193-1.02243824-.0114469-1.11253688-.009044-2.25693901c0-.85449276-1.2260113-.89164462-1.332621-.11145558l-.007379.11145558c0 .09869194-.1617659.20714199-.4571602.31694191l-.2164176.07330767c-.0392661.01222051-.0801048.02443463-.1224774.0366308l-.2723342.07286956c-.048354.01207829-.0981647.02411558-.1493936.03610033l-.3240822.07118578-.3562652.06937123-.3865954.06700305c-.0668571.01093907-.1349008.0217564-.2040925.03244045l-.4286169.06241273-.4543154.05866048-.7256051.07974418-.7730054.06818745-.5385827.03811519-.8381108.04477403-.5761967.02077615c-.0970679.00281937-.1946275.00530938-.2926404.0074585l-.5932071.00871184h-.6002069l-.6233505-.00938385-.61122428-.01839438-.59694537-.02676165-.58051394-.03448569-.56192993-.04156648-.54119335-.04800402-.51830421-.05379832-.49326247-.05894938-.46606819-.06345718c-.07529225-.01091612-.14936171-.02199325-.22216355-.03321801l-.42124066-.06901282-.38866494-.07191251-.35393664-.07416896c-.11195166-.0250276-.2177565-.05032406-.31705577-.07578218l-.27802233-.07675214-.23683631-.07707885c-.28736771-.10270374-.45916585-.2045634-.49243366-.29871772l-.00595273-.03324719c0-.85449276-1.22601134-.89164462-1.33262102-.11145558zm17.32748075 1.61715756.0266408-.01305336.0227257 2.2932099.0372578 2.1451439.070725 2.9511615.1013865 4.0395872.03021 1.695845.0129595 1.165805.0038956 1.0813478-.0058444 1.0027111-.0162604.9298952-.016961.5823511-.0220912.5543-.0274217.5279736-.0515657.7463708-.0416247.4697025-.0476564.4494123-.0538885.4308466-.060321.4140056-.0669537.3988892-.0737868.3854974c-.0128784.0632294-.0260498.1259726-.0395185.1882657l-.0844121.3686434-.0917461.3595631-.0992804.3522076c-.0171857.0581841-.0346937.1161336-.0525281.1738843l-.1109575.3444079-.1189926.3413638-.127228.3400444-.1356639.3404496-.1443.3425795-.2330811.5216353-.1667669.3554493c-.9517243 1.9947362-2.3632347 4.0114365-4.4550915 6.3645401-.5165316.5963005-1.2534221.9420364-2.0334043.9578272-.7797897.0157869-1.53008731-.2999296-2.06483635-.8687762-1.18341532-1.2263052-2.13273804-2.3819396-2.89929591-3.5284753l-.33704932-.5153248-.21185195-.3377455-.20181516-.3345431-.19198517-.3325762-.18236198-.3318446-.17294559-.3323483-.16373601-.3340874-.15473324-.3370617-.14593726-.3412715-.1373481-.3467166-.12896573-.3533971c-.02080725-.0595248-.04127384-.1193795-.0614041-.1795897l-.11677994-.3657339-.10891459-.3755027-.10125603-.3865068-.09380429-.3987463-.08655934-.4122211-.07952121-.4269312-.07268987-.4428768-.06606534-.4600575-.05964761-.4784737-.05343669-.4981252-.04743257-.5190121-.04163526-.5411342-.03604475-.5644918-.04403729-.8932354-.02297323-.6282902-.01810654-.6559714-.01848714-1.0385618-.00870033-1.1077933.00038849-1.1811941.0189492-2.1430938.04895586-2.8833137.07143797-3.4943535.0279663-1.65409784.02541362-2.05845761.01043285-1.53198295.02704426.01205336c1.59403047.69413122 4.46744347 1.00010428 7.98565744 1.00010428 3.5182141 0 6.3916271-.30597306 7.9856575-1.00010428z" fill-rule="nonzero"/><circle cx="11.5" cy="35.5" r="1"/><circle cx="7.5" cy="31.5" r="1"/><circle cx="14.5" cy="25.5" r="1"/><circle cx="9.5" cy="21.5" r="1"/><g fill-rule="nonzero"><path d="m8 24c-1.1045695 0-2 .8954305-2 2s.8954305 2 2 2 2-.8954305 2-2-.8954305-2-2-2zm0 1c.55228475 0 1 .4477153 1 1s-.44771525 1-1 1-1-.4477153-1-1 .44771525-1 1-1z"/><path d="m13 29c-1.1045695 0-2 .8954305-2 2s.8954305 2 2 2 2-.8954305 2-2-.8954305-2-2-2zm0 1c.5522847 0 1 .4477153 1 1s-.4477153 1-1 1-1-.4477153-1-1 .4477153-1 1-1z"/><path d="m10.9347017 39.5810465c.3363917 0 .6148812.2479085.6627355.5709923l.0072645.0990077v9.1522373c0 .3700308-.2999692.67-.67.67-.3363916 0-.6148811-.2479084-.6627354-.5709923l-.0072646-.0990077v-9.1522373c0-.3700307.2999693-.67.67-.67z"/><path d="m10.9347017 55.6281054c.3363917 0 .6148812.2479084.6627355.5709923l.0072645.0990077v8.1522373c0 .3700307-.2999692.67-.67.67-.3363916 0-.6148811-.2479085-.6627354-.5709923l-.0072646-.0990077v-8.1522373c0-.3700308.2999693-.67.67-.67z"/><path d="m1.98273941 17.1001836c3.50581495-1.5625816 5.52260768-1.4720957 8.96623529-.2063009l.3550251.132679c3.2922831 1.2488963 4.934259 1.3895625 8.0482889.0687752.3406561-.1444861.7339415.014541.8784277.3551971.1444861.340656-.014541.7339415-.3551971.8784276-3.3717788 1.430109-5.3287942 1.3197526-8.6935713.0824809l-.3532179-.1319966c-3.36598757-1.2768533-5.0550349-1.4018586-8.30047057.044669-.3379793.1506412-.73408449-.0012263-.88472571-.3392056s.0012263-.7340845.33920559-.8847257z"/><path d="m1.58549947 4.29435138c0-1.75963721 2.81834776-2.83612114 6.26667914-3.22945181l.63342415-.06398681c1.59847954-.14114737 3.29971844-.14114737 4.89819794 0l.6334242.06398681c3.4483314.39333067 6.2666791 1.4698146 6.2666791 3.22945181 0 .37003078-.2999692.67-.67.67-.3363916 0-.6148811-.24790845-.6627355-.57099231l-.0072645-.09900769c0-1.33248769-3.7725005-2.01832693-7.655957-2.05751775h-.7064905c-3.76577598.03800322-7.42721875.68405785-7.64566636 1.9381639l-.01029067.11935385c0 .37003078-.29996922.67-.67.67s-.67-.29996922-.67-.67z"/><path d="m10.9687986 64.1793371c-3.79326838 0-6.83533332.9176717-6.83533332 2.5298291 0 1.57082 2.88806166 2.4823124 6.54506372 2.5280228l.2902696.0018063c3.7929443 0 6.8353333-.9177164 6.8353333-2.5298291s-3.042389-2.5298291-6.8353333-2.5298291zm0 1.34c.7302513 0 1.4293994.0440181 2.0696082.1169927l.4686705.059925c.2283747.0324419.4474825.0684262.6558554.1071589l.4019977.0808943c.2578764.0560586.4949288.1160617.7076777.1781266l.3004607.0944083c.5627264.1909679.8910631.3920198.8910631.5523233s-.3283367.3613554-.8910631.5523233l-.3004607.0944083c-.2659361.0775811-.5698465.1519407-.9049352.2194016l-.416637.0774064c-.1435776.0245415-.2917088.0477439-.4439586.0693718l-.4686705.059925-.4907728.0490663c-.0834923.0071943-.1677969.0138774-.2528592.0200198l-.5190331.0301307c-.2636285.0115858-.5330989.0177759-.8069431.0177759-.2738762 0-.5433728-.0061896-.8070225-.0177745l-.51906896-.0301284c-.08506729-.006142-.16937626-.0128246-.25287257-.0200184l-.49079117-.049063c-.32011321-.036485-.62548499-.0802089-.9126377-.1292893l-.41663006-.0774027c-.06701606-.0134916-.13278475-.0272592-.19725173-.0412733l-.37074673-.0868079c-.05904281-.0148827-.11667523-.0299531-.17284294-.0451818l-.31899486-.0930367c-.65118909-.2046761-1.0364741-.4261662-1.0364741-.5998531 0-.2137685.58362699-.499949 1.5283119-.7380716l.37074673-.0868079.40198767-.0808908c.13891291-.0258205.28259794-.0504195.43062039-.0735618l.45664488-.0648211c.70318157-.0899702 1.48539295-.1456759 2.30702175-.1456759z"/><path d="m21.2920792 47h-4.4108911c-1.0346534 0-2.2871287.4730053-2.940594 1.0511228l-.7079208.6832298h-4.51980201l-.70792079-.6306737c-.65346535-.6306736-1.9059406-1.0511228-2.94059406-1.0511228h-4.41089109c-.38118812 0-.65346535.3153369-.65346535.6306737v6.9374104c0 .367893.32673267.6306737.65346535.6306737h4.30198019l-2.55940594 2.4701386c-.21782178.2102245-.27227722.4730052-.16336633.7357859s.32673267.4204491.65346534.4204491h1.85148515v1.7869088c0 .2627807.16336634.5255614.43564357.6306736.10891089.0525562.16336633.0525562.27227722.0525562.16336634 0 .32673268-.0525562.49009901-.2102246l5.06435644-4.8877209 5.0643564 4.8877209c.1089109.1051123.3267327.2102246.490099.2102246.1089109 0 .1633664 0 .2722773-.0525562.2722772-.1051122.4356435-.3678929.4356435-.6306736v-1.7869088h1.8514852c.2722772 0 .5445544-.1576684.6534653-.4204491s.0544555-.5255614-.1633663-.7357859l-2.5594059-2.4701386h4.3019802c.3811881 0 .6534653-.3153368.6534653-.6306737v-6.9374104c-.0544554-.367893-.3267327-.6832298-.7079208-.6832298zm-8.4950495 5.5709508-1.8514851 1.7869087-1.85148519-1.7869087v-1.4190158-1.0511228h3.70297029zm-7.73267326 1.3664596h-3.75742575v-5.6235069h3.75742575c.70792079 0 1.63366336.367893 1.96039604.6832298l.70792079.6832298v.7883421h-2.94059406c-.38118812 0-.65346535.3153368-.65346535.6306737 0 .3153368.32673267.6306737.65346535.6306737h2.94059406v.788342l-.76237624.735786c-.32673267.3153368-1.1980198.6832298-1.90594059.6832298zm1.03465346 5.0979455v-.8408982c0-.1576684-.05445544-.3153368-.21782178-.4730052-.16336634-.1576685-.32673267-.2102246-.49009901-.2102246h-.87128713l3.48514852-3.3635929s0 0 .05445544-.0525562l.43564356-.4204491 1.5792079 1.5241281zm10.4554455-1.4715719c-.1633663 0-.3267326.0525562-.490099.2102246-.1633663.1576684-.2178217.3153368-.2178217.4730053v.8408982l-3.9207921-3.7840421 1.5792079-1.524128.4356436.4204491s0 0 .0544554.0525562l3.4851485 3.3635929h-.9257426zm-2.3960396-4.9928332v-.7883421h2.9405941c.3811881 0 .6534653-.3153368.6534653-.6306737 0-.3153368-.3267326-.6306737-.6534653-.6306737h-2.9405941v-.788342l.7079208-.6832299c.3267327-.3153368 1.2524753-.6832298 1.9603961-.6832298h3.7574257v5.623507h-3.7574257c-.7079208 0-1.5792079-.367893-1.9603961-.6832299z"/></g></g><path d="m147.499915 45.1348256c1.999983-2.6506553 5.999947-2.6506553 7.999929-.9990723 2.000208 1.651583 2.000208 4.9547489 0 8.2579148-1.400055 2.4773745-4.999844 4.9547489-7.999929 6.6063319-3.000086-1.651583-6.599873-4.1289574-7.999928-6.6063319-1.999987-3.3031659-1.999987-6.6063318 0-8.2579148 1.999982-1.651583 5.999946-1.651583 7.999928.9990723z" fill="#fbdcdc" stroke="#a0b9b6" stroke-width=".8"/><path d="m122.5 50.5v1h-101v-1z" fill="#a0b9b6" fill-rule="nonzero"/><path d="m173.5 51h101" stroke="#a0b9b6"/><path d="m47.6612297 19.7259186c.6726997 0 1.2626467-.1191659 1.7698409-.3574975.5071943-.2383317.896933-.5666998 1.1692162-.9851043s.4084249-.8871235.4084249-1.4061569c0-.4766634-.1121167-.8897716-.3363499-1.2393247-.2242333-.3495532-.493847-.6434956-.8088413-.8818273-.3149944-.2383316-.7394359-.5216815-1.2733245-.8500496-.5125332-.3071831-.9129497-.5693479-1.2012495-.7864945-.2882999-.2171467-.5338887-.4766634-.7367664-.7785502s-.3043165-.654088-.3043165-1.0566038c0-.4872558.1468193-.8897716.4404581-1.2075471.2936388-.31777561.7074025-.4766634 1.2412912-.4766634.704733 0 1.2492995.25686859 1.6336993.7706058.3843998.5137371.6353275 1.0566037.752783 1.6285998.0106778.04237.0427111.0582588.0961.0476663s.0800833-.0370738.0800833-.0794439l-.0800833-1.9860973c0-.12711024-.0800833-.22244291-.2402499-.28599802-.5765998-.24362794-1.2226051-.36544191-1.9380159-.36544191-.5232109 0-1.0223968.09268454-1.4975577.27805362-.4751609.18536909-.8595608.46871901-1.1531995.85004961-.2936388.3813307-.4404582.8421053-.4404582 1.3823238 0 .4448858.1014389.8341609.3043165 1.1678252.2028777.3336644.451136.6143661.7447747.8421053.2936388.2277391.6913859.5004965 1.1932412.8182721.5125331.307183.920958.5799404 1.2252745.8182721.3043166.2383316.5632526.532274.776808.8818272.2135555.3495531.3203332.7573651.3203332 1.2234359 0 .6143661-.1681749 1.0566038-.5045248 1.326713-.3363498.2701093-.7554524.4051639-1.2573078.4051639-.7367663 0-1.3347217-.2807018-1.7938659-.8421053-.4591443-.5614035-.8168497-1.244621-1.0731162-2.0496524-.0106778-.0423701-.0453806-.0582589-.1041083-.0476664-.0587278.0105926-.0827528.0370739-.072075.0794439l.1601666 2.2720954c0 .0847401.0106778.1482952.0320333.1906653.0213556.0423701.0587278.0794439.1121166.1112215.3096555.1906653.6726998.3363124 1.0891329.4369414.4164332.1006289.8382052.1509434 1.2653162.1509434zm8.10443.0158887c.6193109 0 1.1905717-.1350546 1.7137826-.4051638s.9423135-.6540881 1.2573079-1.1519364c.3149943-.4978484.4724914-1.0698445.4724914-1.7159881 0-.5614035-.1281332-1.0936776-.3843998-1.5968223-.2562666-.5031446-.6246498-.9083085-1.1051496-1.2154915-.4804998-.3071831-1.035744-.4607746-1.6657326-.4607746-.5552442 0-1.0998107.1191658-1.6336993.3574975-.5338887.2383317-.9716774.5984773-1.3133662 1.0804369-.3416887.4819597-.5125331 1.0671963-.5125331 1.7557101 0 .6037736.1308027 1.1625289.3924082 1.6762661.2616054.5137372.6326581.9215492 1.1131579 1.223436s1.035744.4528301 1.6657326.4528301zm.4644832-.3018867c-.4484665 0-.8515525-.1562397-1.2092579-.468719s-.6379969-.7414763-.8408746-1.2869911c-.2028777-.5455147-.3043166-1.1519364-.3043166-1.8192651 0-.7732539.1414805-1.3584906.4244415-1.75571.282961-.3972195.6860469-.5958292 1.2092578-.5958292.4484665 0 .8542219.1403508 1.2172662.4210526.3630443.2807017.6486748.6832175.8568913 1.2075472.2082166.5243297.3123249 1.1307514.3123249 1.8192651 0 .8262165-.1441499 1.4458789-.4324498 1.8589871s-.6993942.6196624-1.2332828.6196624zm4.1643316.0953326c.2882999 0 .5125331-.0052962.6726997-.0158888l.9289663-.0158887c.4591443 0 .800833.0052962 1.0250662.0158887l1.0731163.0158888c.0320333 0 .04805-.0317775.04805-.0953326 0-.0635552-.0160167-.0953327-.04805-.0953327-.4591443 0-.7954941-.0264813-1.0090496-.0794439s-.355036-.1535915-.4244415-.3018868-.1041083-.3866269-.1041083-.714995v-4.3535254c.6406664.0317776 1.2813328.1377028 1.9219992.3177756.0213556.0211851.0533889-.0185369.0961-.1191658.0427111-.100629.0640666-.1986098.0640666-.2939424 0-.0953327-.0106778-.182721-.0320333-.2621649s-.04805-.1191658-.0800833-.1191658c-.8328663.0953327-1.4895494.1482953-1.9700492.1588878v-1.0168819c0-1.42999.2055471-2.4998344.6166414-3.20953322.4110943-.70969878.9476524-1.06454817 1.6096744-1.06454817.3416887 0 .6006247.07414764.776808.2224429.1761832.14829527.3496971.36014565.5205414.63555115.1174555.21185038.2295722.36809003.3363499.46871896s.2509277.1509434.4324498.1509434c.1921999 0 .3390193-.05031447.4404582-.1509434.1014388-.10062893.1521582-.23568355.1521582-.40516385 0-.33896061-.1948693-.62495862-.5846081-.85799404-.3897387-.23303542-.9049412-.34955313-1.5456077-.34955313-1.1959106 0-2.1248769.38927507-2.7868988 1.16782522-.662022.77855015-1.0250663 2.02052298-1.0891329 3.72591858-.0106778.2754055-.0934305.4634227-.2482582.5640516-.1548278.100629-.4404582.1509434-.8568914.1509434-.0320333 0-.0480499.0370738-.0480499.1112215 0 .0741476.0160166.1112214.0480499.1112214.3416888 0 .5872776.0185369.7367664.0556108.1494888.0370738.2509277.1138695.3043166.2303872.0533888.1165178.0800833.3018868.0800833.5561073v3.5749752c0 .3177755-.0266945.5534591-.0800833.7070506-.0533889.1535915-.1521583.2568686-.2963083.3098312-.1441499.0529626-.3710526.0794439-.680708.0794439-.0320333 0-.04805.0317775-.04805.0953327 0 .0635551.0160167.0953326.04805.0953326zm5.0932979 0c.2562666 0 .4591443-.0052962.6086331-.0158888l.9129496-.0158887.8809163.0158887c.1494889.0105926.3577054.0158888.6246498.0158888.0320333 0 .04805-.0317775.04805-.0953326 0-.0635552-.0160167-.0953327-.04805-.0953327-.3950776 0-.6566831-.0714995-.7848164-.2144985s-.1921999-.4369414-.1921999-.8818272v-2.9553128c0-.4766634.0080083-.8897716.024025-1.2393248.0160167-.3495531.024025-.5614035.024025-.6355511 0-.0317776-.0186861-.0688514-.0560583-.1112215-.0373722-.04237-.0774139-.0635551-.120125-.0635551l-.04805.0158888-2.1942824 1.0168818c-.0320333.0211851-.0373722.0582589-.0160167.1112215.0213556.0529626.0533889.0794439.0961.0794439h.0160167c.2882998-.1377028.5232109-.2065542.704733-.2065542.1815222 0 .306986.0820921.3763915.2462761.0694056.1641841.1041083.4369414.1041083.8182721v2.9235353c0 .4448858-.0613972.7388282-.1841916.8818272s-.3817304.2144985-.776808.2144985c-.0213555 0-.0320333.0317775-.0320333.0953327 0 .0635551.0106778.0953326.0320333.0953326zm9.4498295.1747766c.0320333 0 .0587277-.0052963.0800833-.0158888l1.9700492-.9533267c.0320333-.0105925.0400416-.0423701.024025-.0953327-.0160167-.0529626-.0400417-.0794439-.072075-.0794439l-.0320333.0158888c-.3843999.1377028-.6460053.2065541-.7848164.2065541-.1921999 0-.3283415-.0741476-.4084248-.2224429-.0800833-.1482952-.1201249-.3919232-.1201249-.7308838v-4.5441906c0-.0105926-.0133473-.0238332-.0400417-.039722s-.0507194-.0238332-.072075-.0238332c-.0213555 0-.0373722.0052963-.04805.0158888-.1174555.1694803-.2829609.3071831-.4965164.4131083-.469822-.3071831-.9876941-.4607746-1.553616-.4607746-.5872776 0-1.1612079.1509434-1.721791.4528302s-1.0197274.7388282-1.3774328 1.3108242-.5365581 1.2393247-.5365581 2.0019861c0 .8685866.2242332 1.5438597.6726997 2.0258193s1.0037107.7229394 1.6657327.7229394c.469822 0 .8969329-.1112215 1.2813328-.3336644.3843998-.2224429.7634608-.5243297 1.1371829-.9056603.0213555.3601456.0774138.6567361.1681749.8897716.0907611.2330354.1788527.3495531.2642749.3495531zm-2.2263158-.6355512c-.5338886 0-.9529913-.2356835-1.2573078-.7070506s-.4564748-1.1042701-.4564748-1.898709c0-.8685866.1815221-1.5782854.5445664-2.1290964.3630443-.5508109.8435441-.8262164 1.4414994-.8262164.4164332 0 .7741386.1324064 1.0731163.3972194.2989776.264813.4484665.5931811.4484665.9851043v3.3048659c-.6299887.5825886-1.227944.8738828-1.793866.8738828zm5.9581976 3.0029792c.0213555 0 .0373722-.0052963.04805-.0158888.3950776-.3813307.6913858-.7600132.8889246-1.1360476.1975388-.3760345.2963082-.7864946.2963082-1.2313804 0-.4660708-.0960999-.8262165-.2882999-1.0804369-.1921999-.2542205-.4538053-.3813307-.7848163-.3813307-.2669443 0-.4724915.060907-.6166414.1827209-.14415.121814-.2162249.2992387-.2162249.5322741 0 .2118504.0613972.3839788.1841916.5163853s.2909693.1986098.5045248.1986098c.2562665 0 .4324498-.0794439.5285497-.2383317.1067778.1377027.1601666.3548494.1601666.6514399 0 .7202913-.2616054 1.3452499-.7848163 1.8748759-.0213556.021185-.0213556.0476663 0 .0794439.0213555.0317775.04805.0476663.0800833.0476663zm11.1155621-2.4786495c.6299887 0 1.1985801-.1297583 1.7057743-.389275.5071943-.2595167.9076108-.6143661 1.2012495-1.0645482.2936388-.4501821.4404582-.9559748.4404582-1.5173783 0-.7202913-.2616055-1.3293612-.7848164-1.8272096s-1.2119272-.7838464-2.0661491-.857994c.5979553-.2118504 1.0624384-.5216816 1.3934494-.9294936s.4965165-.8659384.4965165-1.3743793c0-.6355512-.2402499-1.1413439-.7207497-1.5173784-.4804998-.37603439-1.179894-.5640516-2.0981825-.5640516-.1921999 0-.3710526.00529626-.5365581.01588878s-.306986.02118503-.4244415.03177755c-.3416888.03177756-.6566831.04766634-.944983.04766634-.2776221 0-.6513441-.01059252-1.1211662-.03177756l-.800833-.01588878c-.0213555 0-.0320333.03177756-.0320333.09533267 0 .06355512.0106778.09533268.0320333.09533268.3737221 0 .6486748.02912942.824858.08738828.1761833.05825885.2989777.16153594.3683832.30983114.0694055.1482953.1041083.3813307.1041083.6991063v7.3565045c0 .3177755-.0373722.550811-.1121166.6991062-.0747444.1482953-.2002083.2515723-.3763915.3098312-.1761833.0582589-.451136.0873883-.824858.0873883-.0320333 0-.04805.0317775-.04805.0953327 0 .0635551.0160167.0953326.04805.0953326.3416887 0 .6139719-.0052962.8168496-.0158888l1.1211662-.0158887c.2562666 0 .4858387.0052962.6887164.0158887.2028777.0105926.379061.0211851.5285498.0317776.4057554.0317776.7794775.0476663 1.1211662.0476663zm-.9930329-5.6405163-.704733-.0158888v-3.0188679c0-.3177756.0293638-.5534592.0880916-.7070507.0587277-.1535915.1548277-.25686858.2882999-.30983117.1334721-.0529626.3283415-.0794439.5846081-.0794439.6299886 0 1.0971412.17212844 1.4014577.51638527.3043166.3442569.4564748.8182721.4564748 1.4220457 0 .6567362-.1761832 1.1863621-.5285497 1.5888779-.3523666.4025157-.8809164.6037736-1.5856494.6037736zm.7367664 5.3227408c-.4057554 0-.710072-.0344257-.9129497-.1032771s-.3416887-.1747766-.4164331-.3177756-.1121166-.346905-.1121166-.6117179v-3.8927508c.4484664-.0317775.8168496-.0423701 1.1051495-.0317775.8221886.0105925 1.4575161.2595167 1.9059826.7467726.4484664.4872558.6726997 1.1333995.6726997 1.9384309 0 .7308839-.1841916 1.2922874-.5525748 1.6842106s-.9316357.5878848-1.6897576.5878848zm10.4428624.428997c.0320333 0 .0587273-.0052963.0800833-.0158888l1.986066-.9374379c.032033-.0211851.037372-.0556107.016016-.1032771-.021355-.0476663-.053388-.0714995-.096099-.0714995h-.016017c-.352367.1482953-.613972.2224429-.784816.2224429-.1922 0-.328342-.0794439-.408425-.2383317-.080084-.1588877-.120125-.4184045-.120125-.7785501v-4.3694141c0-.0423701-.021356-.0794439-.064067-.1112215-.042711-.0317775-.085422-.0476663-.128133-.0476663l-.064067.0158888-1.8899657.8738828c-.0320333.0105925-.0427111.0423701-.0320333.0953327.0106777.0529626.0320333.0794439.0640666.0794439h.0320333c.2028777-.0847402.3737221-.1271103.5125331-.1271103.1708444 0 .2936388.0873883.3683832.2621649.0747444.1747765.1121166.4634227.1121166.8659384v2.7487587c-.2562665.264813-.5445664.4713671-.8648996.6196624-.3203332.1482952-.6299886.2224429-.9289663.2224429-.896933 0-1.3453994-.5984774-1.3453994-1.795432v-3.7020854c0-.0423701-.0213556-.0794439-.0640667-.1112215-.0427111-.0317775-.0854222-.0476663-.1281333-.0476663l-.0640666.0158888-1.8899659.8738828c-.0320333.0105925-.0400416.0423701-.024025.0953327.0160167.0529626.0400417.0794439.072075.0794439h.0320333c.1815222-.0847402.3470276-.1271103.4965165-.1271103.1708443 0 .2936387.0873883.3683832.2621649.0747444.1747765.1121166.4634227.1121166.8659384v2.3992056c0 .6143661.1574971 1.0936776.4724914 1.4379344.3149944.3442569.7447747.5163853 1.2893412.5163853.8542219 0 1.6764104-.4395895 2.4665656-1.3187686 0 .4025157.04805.7282357.14415.9771599.0960999.2489242.1921999.3733863.2882999.3733863zm2.8669823-.1747766c.266944 0 .475161-.0052962.62465-.0158888l.896933-.0158887.928966.0158887c.149489.0105926.347027.0158888.592616.0158888.042711 0 .064067-.0317775.064067-.0953326 0-.0635552-.021356-.0953327-.064067-.0953327-.3844 0-.637997-.0714995-.760791-.2144985s-.184192-.4369414-.184192-.8818272v-10.07348564c0-.04237007-.021355-.07944389-.064066-.11122145-.042711-.03177755-.085423-.04766633-.128134-.04766633l-.064066.01588878-2.146233 1.01688182c-.032033.01059252-.037372.04237008-.016016.09533268.021355.05296259.04805.07944389.080083.07944389h.032033c.277622-.13770275.507194-.20655412.688717-.20655412.181522 0 .309655.08209202.384399.24627606.074745.16418405.112117.43694141.112117.81827211l-.016017 8.1668322c0 .4448858-.061397.7388282-.184191.8818272-.122795.142999-.381731.2144985-.776808.2144985-.021356 0-.032033.0317775-.032033.0953327 0 .0635551.010677.0953326.032033.0953326zm6.871147 4.4647468c1.025066 0 1.825899-.3071831 2.402499-.9215492s.8649-1.4246938.8649-2.4309831v-7.3565044c0-.0105926-.013348-.0238332-.040042-.039722s-.050719-.0238332-.072075-.0238332c-.021355 0-.037372.0052963-.04805.0158888-.117455.1694803-.282961.3071831-.496516.4131083-.469822-.3071831-.987694-.4607746-1.553616-.4607746-.587278 0-1.161208.1509434-1.721791.4528302s-1.019728.7388282-1.377433 1.3108242c-.357706.571996-.536558 1.2393247-.536558 2.0019861 0 .8685866.224233 1.5438597.672699 2.0258193.448467.4819596 1.003711.7229394 1.665733.7229394.459144 0 .883586-.1112215 1.273325-.3336644.389738-.2224429.771469-.5243297 1.145191-.9056603v2.5580933c0 1.0062893-.138811 1.6974512-.416433 2.0734856s-.656683.5640517-1.137183.5640517c-.3844 0-.6727-.0714996-.8649-.2144986s-.3844-.3574975-.5766-.6434955c-.128133-.2118504-.250927-.36809-.368383-.468719-.117455-.1006289-.272283-.1509434-.464483-.1509434-.160167 0-.298978.0503145-.416433.1509434-.117456.100629-.176183.2568686-.176183.468719 0 .3601457.208216.6487918.624649.8659384.416434.2171467.955661.32572 1.617683.32572zm.3844-4.9255214c-.533889 0-.952991-.2356835-1.257308-.7070506-.304316-.4713671-.456475-1.1042701-.456475-1.898709 0-.8685866.181522-1.5782854.544567-2.1290964.363044-.5508109.843544-.8262164 1.441499-.8262164.416433 0 .774139.1324064 1.073116.3972194.298978.264813.448467.5931811.448467.9851043v3.3048659c-.629989.5825886-1.227944.8738828-1.793866.8738828zm9.866263.6355512c.032033 0 .058727-.0052963.080083-.0158888l1.970049-.9533267c.032033-.0105925.040042-.0423701.024025-.0953327s-.040042-.0794439-.072075-.0794439l-.032033.0158888c-.3844.1377028-.646006.2065541-.784817.2065541-.1922 0-.328341-.0741476-.408424-.2224429-.080084-.1482952-.120125-.3919232-.120125-.7308838v-4.5441906c0-.0105926-.013348-.0238332-.040042-.039722-.026695-.0158888-.050719-.0238332-.072075-.0238332s-.037372.0052963-.04805.0158888c-.117456.1694803-.282961.3071831-.496516.4131083-.469823-.3071831-.987695-.4607746-1.553617-.4607746-.587277 0-1.161207.1509434-1.72179.4528302-.560584.3018868-1.019728.7388282-1.377433 1.3108242-.357706.571996-.536558 1.2393247-.536558 2.0019861 0 .8685866.224233 1.5438597.672699 2.0258193.448467.4819596 1.003711.7229394 1.665733.7229394.469822 0 .896933-.1112215 1.281333-.3336644s.763461-.5243297 1.137183-.9056603c.021355.3601456.077414.6567361.168175.8897716.090761.2330354.178852.3495531.264275.3495531zm-2.226316-.6355512c-.533889 0-.952992-.2356835-1.257308-.7070506-.304317-.4713671-.456475-1.1042701-.456475-1.898709 0-.8685866.181522-1.5782854.544567-2.1290964.363044-.5508109.843544-.8262164 1.441499-.8262164.416433 0 .774139.1324064 1.073116.3972194.298978.264813.448467.5931811.448467.9851043v3.3048659c-.629989.5825886-1.227944.8738828-1.793866.8738828zm5.173381.4607746c.256267 0 .459144-.0052962.608633-.0158888l.896933-.0158887 1.217266.0158887c.213556.0105926.496517.0158888.848883.0158888.032034 0 .04805-.0317775.04805-.0953326 0-.0635552-.016016-.0953327-.04805-.0953327-.427111 0-.747444-.0291294-.960999-.0873883-.213556-.0582589-.360375-.164184-.440459-.3177756-.080083-.1535915-.120125-.3839788-.120125-.6911618v-3.4160874c.298978-.3389606.523211-.5587554.6727-.6593843.149489-.100629.2883-.1509434.416433-.1509434.117456 0 .216225.0238331.296309.0714995.080083.0476663.162836.1138696.248258.1986097.021355.0105925.058728.039722.112116.0873883.053389.0476663.117456.0900364.1922.1271102.074745.0370738.165506.0556107.272284.0556107.181522 0 .325672-.0556107.432449-.1668321.106778-.1112215.160167-.2462761.160167-.4051639 0-.2012578-.106778-.3733863-.320333-.5163853-.213556-.142999-.443128-.2144985-.688717-.2144985-.234911 0-.483169.0900364-.744774.2701092-.261606.1800729-.611303.5137372-1.049092 1.0009931-.010677-.3813307-.066736-.6885138-.168174-.9215492-.101439-.2330354-.205548-.3495531-.312325-.3495531-.042711 0-.074745.0052963-.0961.0158888l-1.986066.9374379c-.032033.0105925-.040042.0423701-.024025.0953327s.040042.0794439.072075.0794439h.032033c.363044-.1482953.646005-.2224429.848883-.2224429.1922 0 .328342.0767957.408425.2303873.080083.1535915.120125.4051638.120125.7547169v3.0983119c0 .4448858-.061397.7388282-.184192.8818272-.122794.142999-.376391.2144985-.760791.2144985-.032033 0-.04805.0317775-.04805.0953327 0 .0635551.016017.0953326.04805.0953326zm7.57588-8.0397219c.234911 0 .419103-.0688514.552575-.2065541.133472-.1377028.200208-.3283681.200208-.5719961 0-.2330354-.066736-.4157563-.200208-.5481628s-.317664-.19860976-.552575-.19860976c-.245589 0-.440458.06620326-.584608.19860976s-.216225.3151274-.216225.5481628c0 .243628.072075.4342933.216225.5719961.14415.1377027.339019.2065541.584608.2065541zm-1.409466 8.0397219c.256267 0 .464483-.0052962.62465-.0158888l.880916-.0158887.880916.0158887c.160167.0105926.368384.0158888.62465.0158888.032034 0 .04805-.0317775.04805-.0953326 0-.0635552-.016016-.0953327-.04805-.0953327-.395077 0-.654013-.0714995-.776808-.2144985-.122794-.142999-.184191-.4369414-.184191-.8818272l.00064-3.2336842c.001709-.3609931.006834-.6813109.015376-.9609534.010678-.3495531.016017-.5614035.016017-.6355511 0-.0423701-.018686-.0794439-.056058-.1112215-.037373-.0317775-.072075-.0476663-.104109-.0476663l-.064066.0158888-2.178266 1.000993c-.042711.0105925-.053389.0450182-.032033.1032771.021355.0582588.053388.0873883.0961.0873883h.016016c.277622-.1377028.507194-.2065542.688717-.2065542.1922 0 .325672.0820921.400416.2462761.074745.1641841.112117.4369414.112117.8182721v2.9235353c0 .4448858-.064067.7388282-.1922.8818272s-.3844.2144985-.7688.2144985c-.032033 0-.04805.0317775-.04805.0953327 0 .0635551.016017.0953326.04805.0953326zm9.44983.1747766c.032033 0 .058727-.0052963.080083-.0158888l1.970049-.9533267c.032033-.0105925.040042-.0423701.024025-.0953327s-.040042-.0794439-.072075-.0794439l-.032033.0158888c-.3844.1377028-.646005.2065541-.784817.2065541-.192199 0-.328341-.0741476-.408424-.2224429-.080084-.1482952-.120125-.3919232-.120125-.7308838v-4.5441906c0-.0105926-.013348-.0238332-.040042-.039722s-.050719-.0238332-.072075-.0238332c-.021355 0-.037372.0052963-.04805.0158888-.117455.1694803-.282961.3071831-.496516.4131083-.469822-.3071831-.987694-.4607746-1.553616-.4607746-.587278 0-1.161208.1509434-1.721791.4528302s-1.019728.7388282-1.377433 1.3108242c-.357706.571996-.536558 1.2393247-.536558 2.0019861 0 .8685866.224233 1.5438597.672699 2.0258193.448467.4819596 1.003711.7229394 1.665733.7229394.469822 0 .896933-.1112215 1.281333-.3336644s.763461-.5243297 1.137183-.9056603c.021355.3601456.077414.6567361.168175.8897716.090761.2330354.178852.3495531.264275.3495531zm-2.226316-.6355512c-.533889 0-.952991-.2356835-1.257308-.7070506s-.456475-1.1042701-.456475-1.898709c0-.8685866.181522-1.5782854.544567-2.1290964.363044-.5508109.843544-.8262164 1.441499-.8262164.416433 0 .774139.1324064 1.073116.3972194.298978.264813.448467.5931811.448467.9851043v3.3048659c-.629989.5825886-1.227944.8738828-1.793866.8738828zm5.958197 3.0029792c.021356 0 .037373-.0052963.04805-.0158888.395078-.3813307.691386-.7600132.888925-1.1360476.197539-.3760345.296308-.7864946.296308-1.2313804 0-.4660708-.0961-.8262165-.2883-1.0804369-.1922-.2542205-.453805-.3813307-.784816-.3813307-.266944 0-.472491.060907-.616641.1827209-.14415.121814-.216225.2992387-.216225.5322741 0 .2118504.061397.3839788.184191.5163853.122795.1324065.29097.1986098.504525.1986098.256267 0 .43245-.0794439.52855-.2383317.106778.1377027.160166.3548494.160166.6514399 0 .7202913-.261605 1.3452499-.784816 1.8748759-.021355.021185-.021355.0476663 0 .0794439.021356.0317775.04805.0476663.080083.0476663zm9.145513-2.5422046c.3844 0 .683378-.0052962.896933-.0158888l1.233283-.0158887 1.265316.0158887c.213556.0105926.507195.0158888.880917.0158888.021355 0 .032033-.0317775.032033-.0953326 0-.0635552-.010678-.0953327-.032033-.0953327-.448467 0-.774139-.0264813-.977017-.0794439-.202877-.0529626-.339019-.1535915-.408424-.3018868-.069406-.1482953-.104109-.3866269-.104109-.714995v-7.3247269c0-.3071831.032034-.5269779.0961-.6593844.064067-.1324064.181522-.2224429.352367-.27010919.170844-.04766634.453805-.07149951.848883-.07149951.694055 0 1.217266.1800728 1.569632.5402185.352367.3601456.565922.9480304.640667 1.7636544 0 .021185.029364.0317776.088091.0317776.058728 0 .088092-.0105926.088092-.0317776 0-.4025157.018686-.9321417.056058-1.5888779.037373-.65673614.072075-1.1333995.104109-1.42999003 0-.04237008-.029364-.06355511-.088092-.06355511s-.093431.02118503-.104108.06355511c-.053389.15888779-.170845.26481298-.352367.31777557-.181522.0529626-.469822.07944389-.864899.07944389l-1.089133.01588878c-.704733.02118504-1.372094.03177756-2.002083.03177756-1.238622 0-2.311738-.01588878-3.219349-.04766634-.587277 0-.880916-.11651771-.880916-.34955312 0-.0529626-.032033-.0794439-.0961-.0794439-.064066 0-.0961.0264813-.0961.0794439 0 .3389606-.026694.84210529-.080083 1.50943399s-.101439 1.1545845-.14415 1.4617676c0 .021185.029364.0317776.088092.0317776.058727 0 .09343-.0105926.104108-.0317776.181522-.8050315.459144-1.3902681.832866-1.75571s.891594-.5481629 1.553616-.5481629c.395078 0 .678039.02118504.848883.06355512.170845.04237008.2883.12975838.352367.26216488.064066.1324065.0961.346905.0961.6434955v7.3565045c0 .3177755-.037372.5534591-.112117.7070506-.074744.1535915-.213555.2568686-.416433.3098312s-.523211.0794439-.961.0794439c-.032033 0-.04805.0317775-.04805.0953327 0 .0635551.016017.0953326.04805.0953326zm9.69008.1906654c.448466 0 .867569-.0767958 1.257308-.2303873.389738-.1535915.771469-.3998676 1.145191-.7388282.021355-.0317776.018686-.0662033-.008009-.1032771-.026694-.0370738-.056058-.0556107-.088091-.0556107h-.016017c-.469822.3283681-1.014388.4925521-1.633699.4925521-.779478 0-1.39078-.2807017-1.833908-.8421052-.443127-.5614035-.664691-1.2975836-.664691-2.2085403 0-.307183.021355-.5666997.064066-.7785501l3.155282-.0317776h.7688c.117456 0 .176183-.1324064.176183-.3972194 0-.4872559-.165505-.8712347-.496516-1.1519365-.331011-.2807017-.795494-.4210526-1.393449-.4210526-.651345 0-1.24663.1509434-1.785858.4528302s-.961.714995-1.265316 1.2393247c-.304317.5243297-.456475 1.0989739-.456475 1.7239325 0 .5402185.120125 1.0433631.360375 1.509434.24025.4660708.592616.8394571 1.057099 1.1201588.464484.2807018 1.017058.4210527 1.657725.4210527zm-1.7298-4.7189673c.117456-.4554783.314995-.8076795.592617-1.0566037s.613972-.3733863 1.009049-.3733863c.352367 0 .629989.1218139.832867.3654419.202877.2436279.309655.5772923.320333 1.000993zm5.525748 4.5283019c.256267 0 .459144-.0052962.608633-.0158888l.896933-.0158887 1.217266.0158887c.213556.0105926.496517.0158888.848883.0158888.032034 0 .04805-.0317775.04805-.0953326 0-.0635552-.016016-.0953327-.04805-.0953327-.427111 0-.747444-.0291294-.960999-.0873883-.213556-.0582589-.360375-.164184-.440458-.3177756-.080084-.1535915-.120125-.3839788-.120125-.6911618v-3.4160874c.298977-.3389606.523211-.5587554.672699-.6593843.149489-.100629.2883-.1509434.416434-.1509434.117455 0 .216224.0238331.296308.0714995.080083.0476663.162836.1138696.248258.1986097.021356.0105925.058728.039722.112117.0873883.053388.0476663.117455.0900364.1922.1271102.074744.0370738.165505.0556107.272283.0556107.181522 0 .325672-.0556107.43245-.1668321.106777-.1112215.160166-.2462761.160166-.4051639 0-.2012578-.106778-.3733863-.320333-.5163853s-.443128-.2144985-.688716-.2144985c-.234911 0-.48317.0900364-.744775.2701092-.261606.1800729-.611303.5137372-1.049091 1.0009931-.010678-.3813307-.066736-.6885138-.168175-.9215492s-.205547-.3495531-.312325-.3495531c-.042711 0-.074745.0052963-.0961.0158888l-1.986066.9374379c-.032033.0105925-.040042.0423701-.024025.0953327s.040042.0794439.072075.0794439h.032033c.363045-.1482953.646006-.2224429.848883-.2224429.1922 0 .328342.0767957.408425.2303873.080083.1535915.120125.4051638.120125.7547169v3.0983119c0 .4448858-.061397.7388282-.184191.8818272-.122795.142999-.376392.2144985-.760792.2144985-.032033 0-.04805.0317775-.04805.0953327 0 .0635551.016017.0953326.04805.0953326zm6.070314 0c.256267 0 .459145-.0052962.608633-.0158888l.896933-.0158887 1.217267.0158887c.213555.0105926.496516.0158888.848883.0158888.032033 0 .04805-.0317775.04805-.0953326 0-.0635552-.016017-.0953327-.04805-.0953327-.427111 0-.747445-.0291294-.961-.0873883s-.360375-.164184-.440458-.3177756c-.080083-.1535915-.120125-.3839788-.120125-.6911618v-3.4160874c.298978-.3389606.523211-.5587554.6727-.6593843.149488-.100629.288299-.1509434.416433-.1509434.117455 0 .216225.0238331.296308.0714995.080083.0476663.162836.1138696.248258.1986097.021356.0105925.058728.039722.112117.0873883s.117455.0900364.1922.1271102c.074744.0370738.165505.0556107.272283.0556107.181522 0 .325672-.0556107.43245-.1668321.106778-.1112215.160166-.2462761.160166-.4051639 0-.2012578-.106777-.3733863-.320333-.5163853-.213555-.142999-.443127-.2144985-.688716-.2144985-.234911 0-.483169.0900364-.744775.2701092-.261605.1800729-.611302.5137372-1.049091 1.0009931-.010678-.3813307-.066736-.6885138-.168175-.9215492s-.205547-.3495531-.312325-.3495531c-.042711 0-.074744.0052963-.0961.0158888l-1.986066.9374379c-.032033.0105925-.040041.0423701-.024025.0953327.016017.0529626.040042.0794439.072075.0794439h.032034c.363044-.1482953.646005-.2224429.848883-.2224429.192199 0 .328341.0767957.408424.2303873.080084.1535915.120125.4051638.120125.7547169v3.0983119c0 .4448858-.061397.7388282-.184191.8818272-.122795.142999-.376392.2144985-.760792.2144985-.032033 0-.04805.0317775-.04805.0953327 0 .0635551.016017.0953326.04805.0953326zm10.939379.1747766c.032034 0 .058728-.0052963.080084-.0158888l1.970049-.9533267c.032033-.0105925.040041-.0423701.024025-.0953327-.016017-.0529626-.040042-.0794439-.072075-.0794439l-.032034.0158888c-.384399.1377028-.646005.2065541-.784816.2065541-.1922 0-.328341-.0741476-.408425-.2224429-.080083-.1482952-.120125-.3919232-.120125-.7308838v-4.5441906c0-.0105926-.013347-.0238332-.040041-.039722-.026695-.0158888-.05072-.0238332-.072075-.0238332-.021356 0-.037373.0052963-.04805.0158888-.117456.1694803-.282961.3071831-.496517.4131083-.469822-.3071831-.987694-.4607746-1.553616-.4607746-.587277 0-1.161208.1509434-1.721791.4528302s-1.019727.7388282-1.377433 1.3108242c-.357705.571996-.536558 1.2393247-.536558 2.0019861 0 .8685866.224234 1.5438597.6727 2.0258193.448467.4819596 1.003711.7229394 1.665733.7229394.469822 0 .896933-.1112215 1.281333-.3336644.384399-.2224429.76346-.5243297 1.137182-.9056603.021356.3601456.077414.6567361.168175.8897716.090761.2330354.178853.3495531.264275.3495531zm-2.226316-.6355512c-.533888 0-.952991-.2356835-1.257307-.7070506-.304317-.4713671-.456475-1.1042701-.456475-1.898709 0-.8685866.181522-1.5782854.544566-2.1290964.363045-.5508109.843544-.8262164 1.4415-.8262164.416433 0 .774138.1324064 1.073116.3972194s.448466.5931811.448466.9851043v3.3048659c-.629988.5825886-1.227944.8738828-1.793866.8738828zm9.081447.4607746c.341689 0 .613972-.0052962.816849-.0158888l1.121167-.0158887 1.153199.0158887c.1922.0105926.453806.0158888.784817.0158888.032033 0 .04805-.0317775.04805-.0953326 0-.0635552-.016017-.0953327-.04805-.0953327-.3844 0-.664692-.0264813-.840875-.0794439s-.296308-.1562397-.360375-.3098312-.0961-.3892751-.0961-.7070506v-3.7497518c.320333.0211851.581939.0317776.784816.0317776.224234 0 .459145-.0264813.704733-.0794439.982356 1.5782853 1.828569 2.8202582 2.538641 3.7259186.710072.9056603 1.193241 1.3584905 1.449508 1.3584905h2.322416c.021355 0 .032033-.0317775.032033-.0953326 0-.0635552-.010678-.0953327-.032033-.0953327-.448467 0-.907611-.1668322-1.377433-.5004965-.469822-.3336644-1.00638-.8791791-1.609675-1.6365442-.603294-.7573651-1.353407-1.8086727-2.25034-3.1539226.480499-.2754055.870238-.6355511 1.169216-1.0804369s.448466-.9162529.448466-1.4141013c0-.6249586-.245588-1.1148626-.736766-1.469712-.491178-.35484941-1.190572-.5322741-2.098182-.5322741-.309656 0-.640667.01588878-.993033.04766633-.128134.01059252-.277623.02118504-.448467.03177756s-.352366.01588878-.544566.01588878c-.277622 0-.651345-.01059252-1.121167-.03177756l-.800833-.01588878c-.021355 0-.032033.03177756-.032033.09533267 0 .06355512.010678.09533268.032033.09533268.3844 0 .664692.02912942.840875.08738828.176183.05825885.296308.16153594.360375.30983114.064067.1482953.0961.3813307.0961.6991063v7.3565045c0 .3177755-.032033.5534591-.0961.7070506s-.186861.2568686-.368383.3098312-.464483.0794439-.848883.0794439c-.032034 0-.04805.0317775-.04805.0953327 0 .0635551.016016.0953326.04805.0953326zm3.523665-5.3862959c-.224233 0-.539228-.021185-.944983-.0635551v-3.1618669c0-.3177756.032033-.5534592.0961-.7070507s.168175-.25686858.312325-.30983117c.14415-.0529626.355036-.0794439.632658-.0794439.565922 0 1.00905.17477657 1.329383.52432967.320333.3495532.4805.9427342.4805 1.7795432 0 .7414764-.14682 1.2631579-.440459 1.5650447-.293638.3018868-.782146.4528302-1.465524.4528302zm10.202613 5.5769613c.448466 0 .867569-.0767958 1.257307-.2303873.389739-.1535915.771469-.3998676 1.145192-.7388282.021355-.0317776.018686-.0662033-.008009-.1032771-.026694-.0370738-.056058-.0556107-.088091-.0556107h-.016017c-.469822.3283681-1.014389.4925521-1.633699.4925521-.779478 0-1.39078-.2807017-1.833908-.8421052s-.664691-1.2975836-.664691-2.2085403c0-.307183.021355-.5666997.064066-.7785501l3.155282-.0317776h.7688c.117455 0 .176183-.1324064.176183-.3972194 0-.4872559-.165505-.8712347-.496516-1.1519365-.331011-.2807017-.795494-.4210526-1.39345-.4210526-.651344 0-1.24663.1509434-1.785857.4528302-.539228.3018868-.961.714995-1.265316 1.2393247-.304317.5243297-.456475 1.0989739-.456475 1.7239325 0 .5402185.120125 1.0433631.360375 1.509434.24025.4660708.592616.8394571 1.057099 1.1201588.464483.2807018 1.017058.4210527 1.657725.4210527zm-1.7298-4.7189673c.117456-.4554783.314995-.8076795.592617-1.0566037s.613972-.3733863 1.009049-.3733863c.352367 0 .629989.1218139.832867.3654419.202877.2436279.309655.5772923.320333 1.000993zm7.271564 4.7030785c.715411 0 1.278663-.1933135 1.689758-.5799404.411094-.386627.616641-.8500497.616641-1.3902681 0-.3283681-.074744-.6037736-.224233-.8262165s-.328342-.4051639-.536558-.5481629c-.208217-.142999-.504525-.3151274-.888925-.5163853-.448467-.2330354-.792825-.4607746-1.033075-.6832175s-.360374-.5084409-.360374-.857994c0-.2754055.072075-.4740152.216224-.5958292.14415-.121814.33902-.182721.584609-.182721.266944 0 .531219.0662033.792824.1986098.261606.1324065.477831.3045349.648675.5163853s.256267.4237007.256267.6355511c0 .0211851.032033.0317776.096099.0317776.064067 0 .0961-.0105925.0961-.0317776l.016017-.714995c.010678-.1271103.016017-.3071831.016017-.5402185 0-.0847401-.04805-.142999-.14415-.1747766-.395078-.1588877-.800833-.2383316-1.217266-.2383316-.608633 0-1.131844.1509434-1.569633.4528302-.437789.3018867-.656683.7494207-.656683 1.3426017 0 .3389606.072075.6196624.216225.8421053s.320333.4025157.52855.5402185c.208216.1377027.488508.2912942.840874.4607746.320333.1694803.573931.3151274.760792.4369414.186861.1218139.344358.285998.472491.4925521s.1922.4581264.1922.754717c0 .285998-.082753.5031446-.248258.6514399-.165506.1482953-.397747.2224429-.696725.2224429-.427111 0-.81418-.1535915-1.161208-.4607746-.347027-.307183-.616641-.7255875-.808841-1.2552135-.010678-.0317775-.045381-.0450182-.104108-.0397219-.058728.0052962-.088092.0238331-.088092.0556107l.032033 1.3505462c0 .0635551.032034.1271102.0961.1906653.491178.3071831 1.014389.4607746 1.569633.4607746zm5.333548-8.2144985c.234911 0 .419102-.0688514.552575-.2065541.133472-.1377028.200208-.3283681.200208-.5719961 0-.2330354-.066736-.4157563-.200208-.5481628-.133473-.1324065-.317664-.19860976-.552575-.19860976-.245589 0-.440458.06620326-.584608.19860976s-.216225.3151274-.216225.5481628c0 .243628.072075.4342933.216225.5719961.14415.1377027.339019.2065541.584608.2065541zm-1.409466 8.0397219c.256266 0 .464483-.0052962.624649-.0158888l.880917-.0158887.880916.0158887c.160167.0105926.368383.0158888.62465.0158888.032033 0 .04805-.0317775.04805-.0953326 0-.0635552-.016017-.0953327-.04805-.0953327-.395078 0-.654014-.0714995-.776808-.2144985-.122795-.142999-.184192-.4369414-.184192-.8818272l.000641-3.2336842c.001708-.3609931.006834-.6813109.015376-.9609534.010678-.3495531.016016-.5614035.016016-.6355511 0-.0423701-.018686-.0794439-.056058-.1112215-.037372-.0317775-.072075-.0476663-.104108-.0476663l-.064067.0158888-2.178266 1.000993c-.042711.0105925-.053388.0450182-.032033.1032771.021356.0582588.053389.0873883.0961.0873883h.016017c.277622-.1377028.507194-.2065542.688716-.2065542.1922 0 .325672.0820921.400417.2462761.074744.1641841.112116.4369414.112116.8182721v2.9235353c0 .4448858-.064066.7388282-.1922.8818272-.128133.142999-.3844.2144985-.768799.2144985-.032034 0-.04805.0317775-.04805.0953327 0 .0635551.016016.0953326.04805.0953326zm6.75903.2065541c.512533 0 .977016-.1165177 1.39345-.3495531.416433-.2330354.816849-.5455147 1.201249-.9374379.010678.3919232.064067.6991062.160167.9215491s.208216.3336644.33635.3336644c.010677 0 .04805-.0105925.112116-.0317776l1.905983-.9056603c.032033-.0211851.037372-.0582589.016016-.1112215-.021355-.0529626-.04805-.0794439-.080083-.0794439l-.032033.0158888c-.277622.1377027-.539228.2065541-.784817.2065541-.192199 0-.328341-.082092-.408424-.2462761-.080084-.164184-.120125-.4316451-.120125-.8023833v-9.58093344c0-.04237007-.024025-.07944389-.072075-.11122145-.04805-.03177755-.088092-.04766633-.120125-.04766633-.032034 0-.058728.00529626-.080084.01588878l-2.130215 1.01688182c-.032034.02118504-.037373.05825886-.016017.11122145.021356.0529626.053389.0794439.0961.0794439h.016017c.320333-.14829527.549905-.2224429.688716-.2224429.1922 0 .325672.08209202.400417.24627606.074744.16418405.112116.44223767.112116.83416091v3.4319761c-.469822-.2224429-.950322-.3336643-1.441499-.3336643-.565922 0-1.129175.1271102-1.689758.3813307-.560583.2542204-1.027736.6434955-1.401458 1.1678252s-.560583 1.1731215-.560583 1.9463754c0 .6037736.112117 1.1386958.33635 1.6047666s.52855.8235684.91295 1.0724926c.3844.2489241.800833.3733862 1.249299.3733862zm.704733-.6355511c-.5766 0-1.049091-.2621648-1.417474-.7864945s-.552575-1.2313804-.552575-2.121152c0-.879179.181522-1.5412115.544567-1.9860973.363044-.4448858.864899-.6673287 1.505566-.6673287.395077 0 .739435.0847402 1.033074.2542205s.552575.4131082.776808.7308838v3.6385303c-.298977.2965905-.597955.5269778-.896933.6911618-.298977.1641841-.629988.2462761-.993033.2462761zm8.232564.6196624c.448466 0 .867569-.0767958 1.257307-.2303873.389739-.1535915.77147-.3998676 1.145192-.7388282.021355-.0317776.018686-.0662033-.008009-.1032771-.026694-.0370738-.056058-.0556107-.088091-.0556107h-.016017c-.469822.3283681-1.014389.4925521-1.633699.4925521-.779478 0-1.39078-.2807017-1.833908-.8421052s-.664691-1.2975836-.664691-2.2085403c0-.307183.021355-.5666997.064066-.7785501l3.155282-.0317776h.7688c.117456 0 .176183-.1324064.176183-.3972194 0-.4872559-.165505-.8712347-.496516-1.1519365-.331011-.2807017-.795494-.4210526-1.39345-.4210526-.651344 0-1.24663.1509434-1.785857.4528302-.539228.3018868-.961.714995-1.265316 1.2393247-.304317.5243297-.456475 1.0989739-.456475 1.7239325 0 .5402185.120125 1.0433631.360375 1.509434.24025.4660708.592616.8394571 1.057099 1.1201588.464483.2807018 1.017058.4210527 1.657725.4210527zm-1.7298-4.7189673c.117456-.4554783.314995-.8076795.592617-1.0566037s.613972-.3733863 1.009049-.3733863c.352367 0 .629989.1218139.832867.3654419.202877.2436279.309655.5772923.320333 1.000993zm5.525748 4.5283019c.256267 0 .459144-.0052962.608633-.0158888l.896933-.0158887.880916.0158887c.160167.0105926.368384.0158888.62465.0158888.032033 0 .04805-.0317775.04805-.0953326 0-.0635552-.016017-.0953327-.04805-.0953327-.395077 0-.654013-.0714995-.776808-.2144985-.122794-.142999-.184191-.4369414-.184191-.8818272v-3.4160874c.256266-.264813.544566-.4713671.864899-.6196624s.629989-.2224429.928966-.2224429c.491178 0 .848883.142999 1.073117.428997.224233.285998.33635.7361801.33635 1.3505462v2.4786495c0 .4448858-.061398.7388282-.184192.8818272s-.376392.2144985-.760791.2144985c-.032034 0-.04805.0317775-.04805.0953327 0 .0635551.016016.0953326.04805.0953326.256266 0 .464483-.0052962.624649-.0158888l.880917-.0158887.880916.0158887c.160167.0105926.368383.0158888.62465.0158888.032033 0 .04805-.0317775.04805-.0953326 0-.0635552-.016017-.0953327-.04805-.0953327-.395078 0-.654014-.0714995-.776808-.2144985-.122795-.142999-.184192-.4369414-.184192-.8818272v-3.0983119c0-.6143661-.162836-1.0936775-.488508-1.4379344s-.782147-.5163853-1.369424-.5163853c-.854222 0-1.671072.450182-2.450549 1.3505462-.010678-.3813307-.066737-.6911619-.168175-.9294936-.101439-.2383317-.205548-.3574975-.312325-.3574975-.042711 0-.074745.0052963-.0961.0158888l-1.986066.9374379c-.032033.0105925-.040042.0423701-.024025.0953327s.040042.0794439.072075.0794439h.032033c.363044-.1482953.646005-.2224429.848883-.2224429.1922 0 .328342.0767957.408425.2303873.080083.1535915.120125.4051638.120125.7547169v3.0983119c0 .4448858-.061397.7388282-.184192.8818272-.122794.142999-.376391.2144985-.760791.2144985-.032033 0-.04805.0317775-.04805.0953327 0 .0635551.016017.0953326.04805.0953326zm11.515979.1906654c.469822 0 .896933-.0794439 1.281332-.2383317.3844-.1588878.763461-.407812 1.137183-.7467726.032034-.021185.034703-.0476663.008009-.0794439-.026695-.0317775-.056059-.0476663-.088092-.0476663h-.032033c-.4805.3283681-1.014389.4925521-1.601666.4925521-.886255 0-1.542939-.2807017-1.970049-.8421053-.427111-.5614035-.640667-1.2816948-.640667-2.1608738 0-.7626614.157497-1.3743794.472492-1.835154.314994-.4607745.750113-.6911618 1.305357-.6911618.277622 0 .485839.0529626.62465.1588878.138811.1059251.266944.2807017.3844.5243296.181522.4131083.448466.6196624.800833.6196624.202878 0 .363044-.0582588.4805-.1747766.117455-.1165177.176183-.2542204.176183-.4131082 0-.2965905-.197539-.5428666-.592616-.7388282-.395078-.1959616-.832867-.2939424-1.313367-.2939424-.576599 0-1.142521.1350546-1.697765.4051639-.555245.2701092-1.00905.6567361-1.361417 1.1598808-.352366.5031446-.528549 1.0936776-.528549 1.7715988 0 .5296259.114786 1.0327706.344358 1.509434.229572.4766633.581938.8659384 1.057099 1.1678252s1.059769.4528302 1.753825.4528302zm6.630897 0c.448466 0 .867569-.0767958 1.257308-.2303873.389738-.1535915.771469-.3998676 1.145191-.7388282.021356-.0317776.018686-.0662033-.008008-.1032771-.026695-.0370738-.056059-.0556107-.088092-.0556107h-.016017c-.469822.3283681-1.014388.4925521-1.633699.4925521-.779477 0-1.39078-.2807017-1.833908-.8421052-.443127-.5614035-.664691-1.2975836-.664691-2.2085403 0-.307183.021356-.5666997.064067-.7785501l3.155282-.0317776h.768799c.117456 0 .176184-.1324064.176184-.3972194 0-.4872559-.165506-.8712347-.496517-1.1519365-.331011-.2807017-.795494-.4210526-1.393449-.4210526-.651344 0-1.24663.1509434-1.785858.4528302-.539227.3018868-.960999.714995-1.265316 1.2393247s-.456475 1.0989739-.456475 1.7239325c0 .5402185.120125 1.0433631.360375 1.509434.24025.4660708.592616.8394571 1.0571 1.1201588.464483.2807018 1.017058.4210527 1.657724.4210527zm-1.729799-4.7189673c.117455-.4554783.314994-.8076795.592616-1.0566037s.613972-.3733863 1.00905-.3733863c.352366 0 .629988.1218139.832866.3654419.202878.2436279.309655.5772923.320333 1.000993z" fill="#021631" fill-rule="nonzero"/></g></svg>