<svg height="85" viewBox="0 0 528 85" width="528" xmlns="http://www.w3.org/2000/svg"><g fill="none" fill-rule="evenodd" transform="translate(1)"><path d="m.33933523 5.70343542c0 3.25090694 23.05413107 3.25090694 23.05413107 0 0 27.10712968 3.1630817 33.07924738-8.2754725 45.94633428-.8432597.9736254-2.0597768 1.5444896-3.3476519 1.5705627s-2.52634855-.4953894-3.40871797-1.4340219c-10.75516382-11.1442022-8.0222887-18.9201685-8.0222887-46.08287508z" stroke="#a0b9b6" stroke-linecap="round" stroke-linejoin="round" stroke-width="1.34"/><path d="m11.866401 53.458421v8.17094" stroke="#a0b9b6" stroke-linecap="round" stroke-linejoin="round" stroke-width="1.34"/><path d="m11.866401 69.458421v8.17094" stroke="#a0b9b6" stroke-linecap="round" stroke-linejoin="round" stroke-width="1.34"/><path d="m21.2920792 0h-4.4108911c-1.0346534 0-2.2871287.47300526-2.940594 1.05112279l-.7079208.68322981h-4.51980201l-.70792079-.63067367c-.65346535-.63067367-1.9059406-1.05112279-2.94059406-1.05112279h-4.41089109c-.38118812 0-.65346535.31533684-.65346535.63067367v6.93741042c0 .36789298.32673267.63067367.65346535.63067367h4.30198019l-2.55940594 2.4701386c-.21782178.2102245-.27227722.4730052-.16336633.7357859s.32673267.4204491.65346534.4204491h1.85148515v1.7869088c0 .2627807.16336634.5255614.43564357.6306736.10891089.0525562.16336633.0525562.27227722.0525562.16336634 0 .32673268-.0525562.49009901-.2102246l5.06435644-4.88772095 5.0643564 4.88772095c.1089109.1051123.3267327.2102246.490099.2102246.1089109 0 .1633664 0 .2722773-.0525562.2722772-.1051122.4356435-.3678929.4356435-.6306736v-1.7869088h1.8514852c.2722772 0 .5445544-.1576684.6534653-.4204491s.0544555-.5255614-.1633663-.7357859l-2.5594059-2.4701386h4.3019802c.3811881 0 .6534653-.31533683.6534653-.63067367v-6.93741042c-.0544554-.36789297-.3267327-.68322981-.7079208-.68322981zm-8.4950495 5.57095079-1.8514851 1.78690874-1.85148519-1.78690874v-1.41901577-1.05112279h3.70297029zm-7.73267326 1.36645963h-3.75742575v-5.62350693h3.75742575c.70792079 0 1.63366336.36789297 1.96039604.68322981l.70792079.68322982v.78834209h-2.94059406c-.38118812 0-.65346535.31533683-.65346535.63067367s.32673267.63067368.65346535.63067368h2.94059406v.78834209l-.76237624.73578595c-.32673267.31533684-1.1980198.68322982-1.90594059.68322982zm1.03465346 5.09794548v-.8408982c0-.1576684-.05445544-.3153368-.21782178-.4730052-.16336634-.1576685-.32673267-.2102246-.49009901-.2102246h-.87128713l3.48514852-3.36359293s0 0 .05445544-.05255614l.43564356-.42044911 1.5792079 1.52412804zm10.4554455-1.4715719c-.1633663 0-.3267326.0525562-.490099.2102246-.1633663.1576684-.2178217.3153368-.2178217.4730053v.8408982l-3.9207921-3.78404206 1.5792079-1.52412804.4356436.42044911s0 0 .0544554.05255614l3.4851485 3.36359295h-.9257426zm-2.3960396-4.99283321v-.78834209h2.9405941c.3811881 0 .6534653-.31533684.6534653-.63067368s-.3267326-.63067367-.6534653-.63067367h-2.9405941v-.7883421l.7079208-.68322981c.3267327-.31533684 1.2524753-.68322981 1.9603961-.68322981h3.7574257v5.62350693h-3.7574257c-.7079208 0-1.5792079-.36789298-1.9603961-.68322982z" fill="#a0b9b6" fill-rule="nonzero" transform="translate(1 60)"/><g stroke="#a0b9b6"><path d="m.33933523 23.5239482c10.83132477-4.8276448 12.41286567 4.5133951 23.05413107 0" stroke-linecap="round" stroke-linejoin="round" stroke-width="1.34"/><path d="m.33933523 5.70343542c0-4.8331339 23.05413107-4.8331339 23.05413107 0" stroke-linecap="round" stroke-linejoin="round" stroke-width="1.34"/><path d="m11.9116857 78.1592759c4.5188841 0 8.1883333 1.1067355 8.1883333 2.4700854 0 1.36335-3.6694492 2.4700855-8.1883333 2.4700855-4.51957032 0-8.18833337-1.1067355-8.18833337-2.4700855 0-1.3633499 3.66876305-2.4700854 8.18833337-2.4700854z" stroke-linecap="round" stroke-linejoin="round" stroke-width="1.34"/><path d="m11.9116857 78.1592759c4.5188841 0 8.1883333 1.1067355 8.1883333 2.4700854 0 1.36335-3.6694492 2.4700855-8.1883333 2.4700855-4.51957032 0-8.18833337-1.1067355-8.18833337-2.4700855 0-1.3633499 3.66876305-2.4700854 8.18833337-2.4700854z" stroke-linecap="round" stroke-linejoin="round" stroke-width="1.34"/></g><path d="m14.3364862 43.5780793c.4542213 0 .8233619.3691405.8233619.8233618s-.3691406.8233618-.8233619.8233618c-.4549074 0-.8233618-.3691405-.8233618-.8233618s.3684544-.8233618.8233618-.8233618z" fill="#a0b9b6"/><path d="m9.39631529 40.284632c.45422127 0 .82336181.3691406.82336181.8233618 0 .4542213-.36914054.8233619-.82336181.8233619-.45490741 0-.82336182-.3691406-.82336182-.8233619 0-.4542212.36845441-.8233618.82336182-.8233618z" fill="#a0b9b6"/><path d="m14.3364862 29.7575665c.4542213 0 .8233619.3691405.8233619.8233618s-.3691406.8233618-.8233619.8233618c-.4549074 0-.8233618-.3691405-.8233618-.8233618s.3684544-.8233618.8233618-.8233618z" fill="#a0b9b6"/><path d="m9.39631529 26.8173955c.45422127 0 .82336181.3691406.82336181.8233619 0 .4542212-.36914054.8233618-.82336181.8233618-.45490741 0-.82336182-.3691406-.82336182-.8233618 0-.4542213.36845441-.8233619.82336182-.8233619z" fill="#a0b9b6"/><circle cx="9" cy="34" fill="#fff" r="1.5" stroke="#a0b9b6"/><circle cx="14" cy="38" fill="#fff" r="1.5" stroke="#a0b9b6"/><g transform="translate(502)"><path d="m.33933523 5.70343542c0 3.25090694 23.05413107 3.25090694 23.05413107 0 0 27.10712968 3.1630817 33.07924738-8.2754725 45.94633428-.8432597.9736254-2.0597768 1.5444896-3.3476519 1.5705627s-2.52634855-.4953894-3.40871797-1.4340219c-10.75516382-11.1442022-8.0222887-18.9201685-8.0222887-46.08287508z" stroke="#a0b9b6" stroke-linecap="round" stroke-linejoin="round" stroke-width="1.34"/><path d="m11.866401 53.458421v8.17094" stroke="#a0b9b6" stroke-linecap="round" stroke-linejoin="round" stroke-width="1.34"/><path d="m11.866401 69.458421v8.17094" stroke="#a0b9b6" stroke-linecap="round" stroke-linejoin="round" stroke-width="1.34"/><path d="m21.2920792 0h-4.4108911c-1.0346534 0-2.2871287.47300526-2.940594 1.05112279l-.7079208.68322981h-4.51980201l-.70792079-.63067367c-.65346535-.63067367-1.9059406-1.05112279-2.94059406-1.05112279h-4.41089109c-.38118812 0-.65346535.31533684-.65346535.63067367v6.93741042c0 .36789298.32673267.63067367.65346535.63067367h4.30198019l-2.55940594 2.4701386c-.21782178.2102245-.27227722.4730052-.16336633.7357859s.32673267.4204491.65346534.4204491h1.85148515v1.7869088c0 .2627807.16336634.5255614.43564357.6306736.10891089.0525562.16336633.0525562.27227722.0525562.16336634 0 .32673268-.0525562.49009901-.2102246l5.06435644-4.88772095 5.0643564 4.88772095c.1089109.1051123.3267327.2102246.490099.2102246.1089109 0 .1633664 0 .2722773-.0525562.2722772-.1051122.4356435-.3678929.4356435-.6306736v-1.7869088h1.8514852c.2722772 0 .5445544-.1576684.6534653-.4204491s.0544555-.5255614-.1633663-.7357859l-2.5594059-2.4701386h4.3019802c.3811881 0 .6534653-.31533683.6534653-.63067367v-6.93741042c-.0544554-.36789297-.3267327-.68322981-.7079208-.68322981zm-8.4950495 5.57095079-1.8514851 1.78690874-1.85148519-1.78690874v-1.41901577-1.05112279h3.70297029zm-7.73267326 1.36645963h-3.75742575v-5.62350693h3.75742575c.70792079 0 1.63366336.36789297 1.96039604.68322981l.70792079.68322982v.78834209h-2.94059406c-.38118812 0-.65346535.31533683-.65346535.63067367s.32673267.63067368.65346535.63067368h2.94059406v.78834209l-.76237624.73578595c-.32673267.31533684-1.1980198.68322982-1.90594059.68322982zm1.03465346 5.09794548v-.8408982c0-.1576684-.05445544-.3153368-.21782178-.4730052-.16336634-.1576685-.32673267-.2102246-.49009901-.2102246h-.87128713l3.48514852-3.36359293s0 0 .05445544-.05255614l.43564356-.42044911 1.5792079 1.52412804zm10.4554455-1.4715719c-.1633663 0-.3267326.0525562-.490099.2102246-.1633663.1576684-.2178217.3153368-.2178217.4730053v.8408982l-3.9207921-3.78404206 1.5792079-1.52412804.4356436.42044911s0 0 .0544554.05255614l3.4851485 3.36359295h-.9257426zm-2.3960396-4.99283321v-.78834209h2.9405941c.3811881 0 .6534653-.31533684.6534653-.63067368s-.3267326-.63067367-.6534653-.63067367h-2.9405941v-.7883421l.7079208-.68322981c.3267327-.31533684 1.2524753-.68322981 1.9603961-.68322981h3.7574257v5.62350693h-3.7574257c-.7079208 0-1.5792079-.36789298-1.9603961-.68322982z" fill="#a0b9b6" fill-rule="nonzero" transform="translate(1 60)"/><g stroke="#a0b9b6"><path d="m.33933523 23.5239482c10.83132477-4.8276448 12.41286567 4.5133951 23.05413107 0" stroke-linecap="round" stroke-linejoin="round" stroke-width="1.34"/><path d="m.33933523 5.70343542c0-4.8331339 23.05413107-4.8331339 23.05413107 0" stroke-linecap="round" stroke-linejoin="round" stroke-width="1.34"/><path d="m11.9116857 78.1592759c4.5188841 0 8.1883333 1.1067355 8.1883333 2.4700854 0 1.36335-3.6694492 2.4700855-8.1883333 2.4700855-4.51957032 0-8.18833337-1.1067355-8.18833337-2.4700855 0-1.3633499 3.66876305-2.4700854 8.18833337-2.4700854z" stroke-linecap="round" stroke-linejoin="round" stroke-width="1.34"/><path d="m11.9116857 78.1592759c4.5188841 0 8.1883333 1.1067355 8.1883333 2.4700854 0 1.36335-3.6694492 2.4700855-8.1883333 2.4700855-4.51957032 0-8.18833337-1.1067355-8.18833337-2.4700855 0-1.3633499 3.66876305-2.4700854 8.18833337-2.4700854z" stroke-linecap="round" stroke-linejoin="round" stroke-width="1.34"/></g><path d="m14.3364862 43.5780793c.4542213 0 .8233619.3691405.8233619.8233618s-.3691406.8233618-.8233619.8233618c-.4549074 0-.8233618-.3691405-.8233618-.8233618s.3684544-.8233618.8233618-.8233618z" fill="#a0b9b6"/><path d="m9.39631529 40.284632c.45422127 0 .82336181.3691406.82336181.8233618 0 .4542213-.36914054.8233619-.82336181.8233619-.45490741 0-.82336182-.3691406-.82336182-.8233619 0-.4542212.36845441-.8233618.82336182-.8233618z" fill="#a0b9b6"/><path d="m14.3364862 29.7575665c.4542213 0 .8233619.3691405.8233619.8233618s-.3691406.8233618-.8233619.8233618c-.4549074 0-.8233618-.3691405-.8233618-.8233618s.3684544-.8233618.8233618-.8233618z" fill="#a0b9b6"/><path d="m9.39631529 26.8173955c.45422127 0 .82336181.3691406.82336181.8233619 0 .4542212-.36914054.8233618-.82336181.8233618-.45490741 0-.82336182-.3691406-.82336182-.8233618 0-.4542213.36845441-.8233619.82336182-.8233619z" fill="#a0b9b6"/><circle cx="9" cy="34" fill="#fff" r="1.5" stroke="#a0b9b6"/><circle cx="14" cy="38" fill="#fff" r="1.5" stroke="#a0b9b6"/></g><path d="m23 64.5h219" stroke="#a0b9b6"/><path d="m284 64.5h219" stroke="#a0b9b6" transform="matrix(-1 0 0 1 787 0)"/><path d="m5.35 18.24c.84 0 1.57666667-.15 2.21-.45s1.12-.7133333 1.46-1.24.51-1.1166667.51-1.77c0-.6-.14-1.12-.42-1.56s-.61666667-.81-1.01-1.11-.92333333-.6566667-1.59-1.07c-.64-.3866667-1.14-.7166667-1.5-.99-.36-.27333333-.66666667-.6-.92-.98s-.38-.82333333-.38-1.33c0-.61333333.18333333-1.12.55-1.52s.88333333-.6 1.55-.6c.88 0 1.56.32333333 2.04.97s.79333333 1.33.94 2.05c.01333333.05333333.05333333.07333333.12.06s.1-.04666667.1-.1l-.1-2.5c0-.16-.1-.28-.3-.36-.72-.30666667-1.52666667-.46-2.42-.46-.65333333 0-1.27666667.11666667-1.87.35s-1.07333333.59-1.44 1.07-.55 1.06-.55 1.74c0 .56.12666667 1.05.38 1.47s.56333333.7733333.93 1.06.86333333.63 1.49 1.03c.64.3866667 1.15.73 1.53 1.03s.70333333.67.97 1.11.4.9533333.4 1.54c0 .7733333-.21 1.33-.63 1.67s-.94333333.51-1.57.51c-.92 0-1.66666667-.3533333-2.24-1.06s-1.02-1.5666667-1.34-2.58c-.01333333-.0533333-.05666667-.0733333-.13-.06s-.10333333.0466667-.09.1l.2 2.86c0 .1066667.01333333.1866667.04.24s.07333333.1.14.14c.38666667.24.84.4233333 1.36.55s1.04666667.19 1.58.19zm10.12.02c.7733333 0 1.4866667-.17 2.14-.51s1.1766667-.8233333 1.57-1.45.59-1.3466667.59-2.16c0-.7066667-.16-1.3766667-.48-2.01s-.78-1.1433333-1.38-1.53-1.2933333-.58-2.08-.58c-.6933333 0-1.3733333.15-2.04.45s-1.2133333.7533333-1.64 1.36-.64 1.3433333-.64 2.21c0 .76.1633333 1.4633333.49 2.11s.79 1.16 1.39 1.54 1.2933333.57 2.08.57zm.58-.38c-.56 0-1.0633333-.1966667-1.51-.59s-.7966667-.9333333-1.05-1.62-.38-1.45-.38-2.29c0-.9733333.1766667-1.71.53-2.21s.8566667-.75 1.51-.75c.56 0 1.0666667.1766667 1.52.53s.81.86 1.07 1.52.39 1.4233333.39 2.29c0 1.04-.18 1.82-.54 2.34s-.8733333.78-1.54.78zm5.2.12c.36 0 .64-.0066667.84-.02l1.16-.02c.5733333 0 1 .0066667 1.28.02l1.34.02c.04 0 .06-.04.06-.12s-.02-.12-.06-.12c-.5733333 0-.9933333-.0333333-1.26-.1s-.4433333-.1933333-.53-.38-.13-.4866667-.13-.9v-5.48c.8.04 1.6.1733333 2.4.4.0266667.0266667.0666667-.0233333.12-.15s.08-.25.08-.37-.0133333-.23-.04-.33-.06-.15-.1-.15c-1.04.12-1.86.1866667-2.46.2v-1.28c0-1.8.2566667-3.14666667.77-4.04s1.1833333-1.34 2.01-1.34c.4266667 0 .75.09333333.97.28s.4366667.45333333.65.8c.1466667.26666667.2866667.46333333.42.59s.3133333.19.54.19c.24 0 .4233333-.06333333.55-.19s.19-.29666667.19-.51c0-.42666667-.2433333-.78666667-.73-1.08s-1.13-.44-1.93-.44c-1.4933333 0-2.6533333.49-3.48 1.47s-1.28 2.54333333-1.36 4.69c-.0133333.34666667-.1166667.5833333-.31.71s-.55.19-1.07.19c-.04 0-.06.0466667-.06.14s.02.14.06.14c.4266667 0 .7333333.0233333.92.07s.3133333.1433333.38.29.1.38.1.7v4.5c0 .4-.0333333.6966667-.1.89s-.19.3233333-.37.39-.4633333.1-.85.1c-.04 0-.06.04-.06.12s.02.12.06.12zm6.36 0c.32 0 .5733333-.0066667.76-.02l1.14-.02 1.1.02c.1866667.0133333.4466667.02.78.02.04 0 .06-.04.06-.12s-.02-.12-.06-.12c-.4933333 0-.82-.09-.98-.27s-.24-.55-.24-1.11v-3.72c0-.6.01-1.12.03-1.56s.03-.7066667.03-.8c0-.04-.0233333-.0866667-.07-.14s-.0966667-.08-.15-.08l-.06.02-2.74 1.28c-.04.0266667-.0466667.0733333-.02.14s.0666667.1.12.1h.02c.36-.1733333.6533333-.26.88-.26s.3833333.1033333.47.31.13.55.13 1.03v3.68c0 .56-.0766667.93-.23 1.11s-.4766667.27-.97.27c-.0266667 0-.04.04-.04.12s.0133333.12.04.12zm11.8.22c.04 0 .0733333-.0066667.1-.02l2.46-1.2c.04-.0133333.05-.0533333.03-.12s-.05-.1-.09-.1l-.04.02c-.48.1733333-.8066667.26-.98.26-.24 0-.41-.0933333-.51-.28s-.15-.4933333-.15-.92v-5.72c0-.0133333-.0166667-.03-.05-.05s-.0633333-.03-.09-.03-.0466667.0066667-.06.02c-.1466667.2133333-.3533333.3866667-.62.52-.5866667-.3866667-1.2333333-.58-1.94-.58-.7333333 0-1.45.19-2.15.57s-1.2733333.93-1.72 1.65-.67 1.56-.67 2.52c0 1.0933333.28 1.9433333.84 2.55s1.2533333.91 2.08.91c.5866667 0 1.12-.14 1.6-.42s.9533333-.66 1.42-1.14c.0266667.4533333.0966667.8266667.21 1.12s.2233333.44.33.44zm-2.78-.8c-.6666667 0-1.19-.2966667-1.57-.89s-.57-1.39-.57-2.39c0-1.0933333.2266667-1.9866667.68-2.68s1.0533333-1.04 1.8-1.04c.52 0 .9666667.1666667 1.34.5s.56.7466667.56 1.24v4.16c-.7866667.7333333-1.5333333 1.1-2.24 1.1zm7.44 3.78c.0266667 0 .0466667-.0066667.06-.02.4933333-.48.8633333-.9566667 1.11-1.43s.37-.99.37-1.55c0-.5866667-.12-1.04-.36-1.36s-.5666667-.48-.98-.48c-.3333333 0-.59.0766667-.77.23s-.27.3766667-.27.67c0 .2666667.0766667.4833333.23.65s.3633333.25.63.25c.32 0 .54-.1.66-.3.1333333.1733333.2.4466667.2.82 0 .9066667-.3266667 1.6933333-.98 2.36-.0266667.0266667-.0266667.06 0 .1s.06.06.1.06zm13.88-3.12c.7866667 0 1.4966667-.1633333 2.13-.49s1.1333333-.7733333 1.5-1.34.55-1.2033333.55-1.91c0-.9066667-.3266667-1.6733333-.98-2.3s-1.5133333-.9866667-2.58-1.08c.7466667-.2666667 1.3266667-.6566667 1.74-1.17.4133333-.51333333.62-1.09.62-1.73 0-.8-.3-1.43666667-.9-1.91s-1.4733333-.71-2.62-.71c-.24 0-.4633333.00666667-.67.02s-.3833333.02666667-.53.04c-.4266667.04-.82.06-1.18.06-.3466667 0-.8133333-.01333333-1.4-.04l-1-.02c-.0266667 0-.04.04-.04.12s.0133333.12.04.12c.4666667 0 .81.03666667 1.03.11s.3733333.20333333.46.39.13.48.13.88v9.26c0 .4-.0466667.6933333-.14.88s-.25.3166667-.47.39-.5633333.11-1.03.11c-.04 0-.06.04-.06.12s.02.12.06.12c.4266667 0 .7666667-.0066667 1.02-.02l1.4-.02c.32 0 .6066667.0066667.86.02s.4733333.0266667.66.04c.5066667.04.9733333.06 1.4.06zm-1.24-7.1-.88-.02v-3.8c0-.4.0366667-.69666667.11-.89s.1933333-.32333333.36-.39.41-.1.73-.1c.7866667 0 1.37.21666667 1.75.65s.57 1.03.57 1.79c0 .82666667-.22 1.49333333-.66 2-.44.5066667-1.1.76-1.98.76zm.92 6.7c-.5066667 0-.8866667-.0433333-1.14-.13s-.4266667-.22-.52-.4-.14-.4366667-.14-.77v-4.9c.56-.04 1.02-.0533333 1.38-.04 1.0266667.0133333 1.82.3266667 2.38.94s.84 1.4266667.84 2.44c0 .92-.23 1.6266667-.69 2.12s-1.1633333.74-2.11.74zm13.04.54c.04 0 .0733333-.0066667.1-.02l2.48-1.18c.04-.0266667.0466667-.07.02-.13s-.0666667-.09-.12-.09h-.02c-.44.1866667-.7666667.28-.98.28-.24 0-.41-.1-.51-.3s-.15-.5266667-.15-.98v-5.5c0-.0533333-.0266667-.1-.08-.14s-.1066667-.06-.16-.06l-.08.02-2.36 1.1c-.04.0133333-.0533333.0533333-.04.12s.04.1.08.1h.04c.2533333-.1066667.4666667-.16.64-.16.2133333 0 .3666667.11.46.33s.14.5833333.14 1.09v3.46c-.32.3333333-.68.5933333-1.08.78s-.7866667.28-1.16.28c-1.12 0-1.68-.7533333-1.68-2.26v-4.66c0-.0533333-.0266667-.1-.08-.14s-.1066667-.06-.16-.06l-.08.02-2.36 1.1c-.04.0133333-.05.0533333-.03.12s.05.1.09.1h.04c.2266667-.1066667.4333333-.16.62-.16.2133333 0 .3666667.11.46.33s.14.5833333.14 1.09v3.02c0 .7733333.1966667 1.3766667.59 1.81s.93.65 1.61.65c1.0666667 0 2.0933333-.5533333 3.08-1.66 0 .5066667.06.9166667.18 1.23s.24.47.36.47zm3.58-.22c.3333333 0 .5933333-.0066667.78-.02l1.12-.02 1.16.02c.1866667.0133333.4333333.02.74.02.0533333 0 .08-.04.08-.12s-.0266667-.12-.08-.12c-.48 0-.7966667-.09-.95-.27s-.23-.55-.23-1.11v-12.68c0-.05333333-.0266667-.1-.08-.14s-.1066667-.06-.16-.06l-.08.02-2.68 1.28c-.04.01333333-.0466667.05333333-.02.12s.06.1.1.1h.04c.3466667-.17333333.6333333-.26.86-.26s.3866667.10333333.48.31.14.55.14 1.03l-.02 10.28c0 .56-.0766667.93-.23 1.11s-.4766667.27-.97.27c-.0266667 0-.04.04-.04.12s.0133333.12.04.12zm8.58 5.62c1.28 0 2.28-.3866667 3-1.16s1.08-1.7933333 1.08-3.06v-9.26c0-.0133333-.0166667-.03-.05-.05s-.0633333-.03-.09-.03-.0466667.0066667-.06.02c-.1466667.2133333-.3533333.3866667-.62.52-.5866667-.3866667-1.2333333-.58-1.94-.58-.7333333 0-1.45.19-2.15.57s-1.2733333.93-1.72 1.65-.67 1.56-.67 2.52c0 1.0933333.28 1.9433333.84 2.55s1.2533333.91 2.08.91c.5733333 0 1.1033333-.14 1.59-.42s.9633333-.66 1.43-1.14v3.22c0 1.2666667-.1733333 2.1366667-.52 2.61s-.82.71-1.42.71c-.48 0-.84-.09-1.08-.27s-.48-.45-.72-.81c-.16-.2666667-.3133333-.4633333-.46-.59s-.34-.19-.58-.19c-.2 0-.3733333.0633333-.52.19s-.22.3233333-.22.59c0 .4533333.26.8166667.78 1.09s1.1933333.41 2.02.41zm.48-6.2c-.6666667 0-1.19-.2966667-1.57-.89s-.57-1.39-.57-2.39c0-1.0933333.2266667-1.9866667.68-2.68s1.0533333-1.04 1.8-1.04c.52 0 .9666667.1666667 1.34.5s.56.7466667.56 1.24v4.16c-.7866667.7333333-1.5333333 1.1-2.24 1.1zm12.32.8c.04 0 .0733333-.0066667.1-.02l2.46-1.2c.04-.0133333.05-.0533333.03-.12s-.05-.1-.09-.1l-.04.02c-.48.1733333-.8066667.26-.98.26-.24 0-.41-.0933333-.51-.28s-.15-.4933333-.15-.92v-5.72c0-.0133333-.0166667-.03-.05-.05s-.0633333-.03-.09-.03-.0466667.0066667-.06.02c-.1466667.2133333-.3533333.3866667-.62.52-.5866667-.3866667-1.2333333-.58-1.94-.58-.7333333 0-1.45.19-2.15.57s-1.2733333.93-1.72 1.65-.67 1.56-.67 2.52c0 1.0933333.28 1.9433333.84 2.55s1.2533333.91 2.08.91c.5866667 0 1.12-.14 1.6-.42s.9533333-.66 1.42-1.14c.0266667.4533333.0966667.8266667.21 1.12s.2233333.44.33.44zm-2.78-.8c-.6666667 0-1.19-.2966667-1.57-.89s-.57-1.39-.57-2.39c0-1.0933333.2266667-1.9866667.68-2.68s1.0533333-1.04 1.8-1.04c.52 0 .9666667.1666667 1.34.5s.56.7466667.56 1.24v4.16c-.7866667.7333333-1.5333333 1.1-2.24 1.1zm6.46.58c.32 0 .5733333-.0066667.76-.02l1.12-.02 1.52.02c.266667.0133333.62.02 1.06.02.04 0 .06-.04.06-.12s-.02-.12-.06-.12c-.533333 0-.933333-.0366667-1.2-.11s-.45-.2066667-.55-.4-.15-.4833333-.15-.87v-4.3c.373333-.4266667.653333-.7033333.84-.83s.36-.19.52-.19c.146667 0 .27.03.37.09s.203333.1433333.31.25c.026667.0133333.073333.05.14.11s.146667.1133333.24.16.206667.07.34.07c.226667 0 .406667-.07.54-.21s.2-.31.2-.51c0-.2533333-.133333-.47-.4-.65s-.553333-.27-.86-.27c-.293333 0-.603333.1133333-.93.34s-.763333.6466667-1.31 1.26c-.013333-.48-.083333-.8666667-.21-1.16s-.256667-.44-.39-.44c-.053333 0-.093333.0066667-.12.02l-2.48 1.18c-.04.0133333-.05.0533333-.03.12s.05.1.09.1h.04c.4533333-.1866667.8066667-.28 1.06-.28.24 0 .41.0966667.51.29s.15.51.15.95v3.9c0 .56-.076667.93-.23 1.11s-.47.27-.95.27c-.04 0-.06.04-.06.12s.02.12.06.12zm9.46-10.12c.293333 0 .523333-.08666667.69-.26s.25-.41333333.25-.72c0-.29333333-.083333-.52333333-.25-.69s-.396667-.25-.69-.25c-.306667 0-.55.08333333-.73.25s-.27.39666667-.27.69c0 .30666667.09.54666667.27.72s.423333.26.73.26zm-1.76 10.12c.32 0 .58-.0066667.78-.02l1.1-.02 1.1.02c.2.0133333.46.02.78.02.04 0 .06-.04.06-.12s-.02-.12-.06-.12c-.493333 0-.816667-.09-.97-.27s-.23-.55-.23-1.11l.0008-4.0704c.002133-.4544.008533-.8576.0192-1.2096.013333-.44.02-.7066667.02-.8 0-.0533333-.023333-.1-.07-.14s-.09-.06-.13-.06l-.08.02-2.72 1.26c-.053333.0133333-.066667.0566667-.04.13s.066667.11.12.11h.02c.346667-.1733333.633333-.26.86-.26.24 0 .406667.1033333.5.31s.14.55.14 1.03v3.68c0 .56-.08.93-.24 1.11s-.48.27-.96.27c-.04 0-.06.04-.06.12s.02.12.06.12zm11.8.22c.04 0 .073333-.0066667.1-.02l2.46-1.2c.04-.0133333.05-.0533333.03-.12s-.05-.1-.09-.1l-.04.02c-.48.1733333-.806667.26-.98.26-.24 0-.41-.0933333-.51-.28s-.15-.4933333-.15-.92v-5.72c0-.0133333-.016667-.03-.05-.05s-.063333-.03-.09-.03-.046667.0066667-.06.02c-.146667.2133333-.353333.3866667-.62.52-.586667-.3866667-1.233333-.58-1.94-.58-.733333 0-1.45.19-2.15.57s-1.273333.93-1.72 1.65-.67 1.56-.67 2.52c0 1.0933333.28 1.9433333.84 2.55s1.253333.91 2.08.91c.586667 0 1.12-.14 1.6-.42s.953333-.66 1.42-1.14c.026667.4533333.096667.8266667.21 1.12s.223333.44.33.44zm-2.78-.8c-.666667 0-1.19-.2966667-1.57-.89s-.57-1.39-.57-2.39c0-1.0933333.226667-1.9866667.68-2.68s1.053333-1.04 1.8-1.04c.52 0 .966667.1666667 1.34.5s.56.7466667.56 1.24v4.16c-.786667.7333333-1.533333 1.1-2.24 1.1zm7.44 3.78c.026667 0 .046667-.0066667.06-.02.493333-.48.863333-.9566667 1.11-1.43s.37-.99.37-1.55c0-.5866667-.12-1.04-.36-1.36s-.566667-.48-.98-.48c-.333333 0-.59.0766667-.77.23s-.27.3766667-.27.67c0 .2666667.076667.4833333.23.65s.363333.25.63.25c.32 0 .54-.1.66-.3.133333.1733333.2.4466667.2.82 0 .9066667-.326667 1.6933333-.98 2.36-.026667.0266667-.026667.06 0 .1s.06.06.1.06zm11.42-3.2c.48 0 .853333-.0066667 1.12-.02l1.54-.02 1.58.02c.266667.0133333.633333.02 1.1.02.026667 0 .04-.04.04-.12s-.013333-.12-.04-.12c-.56 0-.966667-.0333333-1.22-.1s-.423333-.1933333-.51-.38-.13-.4866667-.13-.9v-9.22c0-.38666667.04-.66333333.12-.83s.226667-.28.44-.34.566667-.09 1.06-.09c.866667 0 1.52.22666667 1.96.68s.706667 1.19333333.8 2.22c0 .02666667.036667.04.11.04s.11-.01333333.11-.04c0-.50666667.023333-1.17333333.07-2s.09-1.42666667.13-1.8c0-.05333333-.036667-.08-.11-.08s-.116667.02666667-.13.08c-.066667.2-.213333.33333333-.44.4s-.586667.1-1.08.1l-1.36.02c-.88.02666667-1.713333.04-2.5.04-1.546667 0-2.886667-.02-4.02-.06-.733333 0-1.1-.14666667-1.1-.44 0-.06666667-.04-.1-.12-.1s-.12.03333333-.12.1c0 .42666667-.033333 1.06-.1 1.9s-.126667 1.45333333-.18 1.84c0 .02666667.036667.04.11.04s.116667-.01333333.13-.04c.226667-1.01333333.573333-1.75 1.04-2.21s1.113333-.69 1.94-.69c.493333 0 .846667.02666667 1.06.08s.36.16333333.44.33.12.43666667.12.81v9.26c0 .4-.046667.6966667-.14.89s-.266667.3233333-.52.39-.653333.1-1.2.1c-.04 0-.06.04-.06.12s.02.12.06.12zm12.1.24c.56 0 1.083333-.0966667 1.57-.29s.963333-.5033333 1.43-.93c.026667-.04.023333-.0833333-.01-.13s-.07-.07-.11-.07h-.02c-.586667.4133333-1.266667.62-2.04.62-.973333 0-1.736667-.3533333-2.29-1.06s-.83-1.6333333-.83-2.78c0-.3866667.026667-.7133333.08-.98l3.94-.04h.96c.146667 0 .22-.1666667.22-.5 0-.6133333-.206667-1.0966667-.62-1.45s-.993333-.53-1.74-.53c-.813333 0-1.556667.19-2.23.57s-1.2.9-1.58 1.56-.57 1.3833333-.57 2.17c0 .68.15 1.3133333.45 1.9s.74 1.0566667 1.32 1.41 1.27.53 2.07.53zm-2.16-5.94c.146667-.5733333.393333-1.0166667.74-1.33s.766667-.47 1.26-.47c.44 0 .786667.1533333 1.04.46s.386667.7266667.4 1.26zm6.9 5.7c.32 0 .573333-.0066667.76-.02l1.12-.02 1.52.02c.266667.0133333.62.02 1.06.02.04 0 .06-.04.06-.12s-.02-.12-.06-.12c-.533333 0-.933333-.0366667-1.2-.11s-.45-.2066667-.55-.4-.15-.4833333-.15-.87v-4.3c.373333-.4266667.653333-.7033333.84-.83s.36-.19.52-.19c.146667 0 .27.03.37.09s.203333.1433333.31.25c.026667.0133333.073333.05.14.11s.146667.1133333.24.16.206667.07.34.07c.226667 0 .406667-.07.54-.21s.2-.31.2-.51c0-.2533333-.133333-.47-.4-.65s-.553333-.27-.86-.27c-.293333 0-.603333.1133333-.93.34s-.763333.6466667-1.31 1.26c-.013333-.48-.083333-.8666667-.21-1.16s-.256667-.44-.39-.44c-.053333 0-.093333.0066667-.12.02l-2.48 1.18c-.04.0133333-.05.0533333-.03.12s.05.1.09.1h.04c.453333-.1866667.806667-.28 1.06-.28.24 0 .41.0966667.51.29s.15.51.15.95v3.9c0 .56-.076667.93-.23 1.11s-.47.27-.95.27c-.04 0-.06.04-.06.12s.02.12.06.12zm7.58 0c.32 0 .573333-.0066667.76-.02l1.12-.02 1.52.02c.266667.0133333.62.02 1.06.02.04 0 .06-.04.06-.12s-.02-.12-.06-.12c-.533333 0-.933333-.0366667-1.2-.11s-.45-.2066667-.55-.4-.15-.4833333-.15-.87v-4.3c.373333-.4266667.653333-.7033333.84-.83s.36-.19.52-.19c.146667 0 .27.03.37.09s.203333.1433333.31.25c.026667.0133333.073333.05.14.11s.146667.1133333.24.16.206667.07.34.07c.226667 0 .406667-.07.54-.21s.2-.31.2-.51c0-.2533333-.133333-.47-.4-.65s-.553333-.27-.86-.27c-.293333 0-.603333.1133333-.93.34s-.763333.6466667-1.31 1.26c-.013333-.48-.083333-.8666667-.21-1.16s-.256667-.44-.39-.44c-.053333 0-.093333.0066667-.12.02l-2.48 1.18c-.04.0133333-.05.0533333-.03.12s.05.1.09.1h.04c.453333-.1866667.806667-.28 1.06-.28.24 0 .41.0966667.51.29s.15.51.15.95v3.9c0 .56-.076667.93-.23 1.11s-.47.27-.95.27c-.04 0-.06.04-.06.12s.02.12.06.12zm13.66.22c.04 0 .073333-.0066667.1-.02l2.46-1.2c.04-.0133333.05-.0533333.03-.12s-.05-.1-.09-.1l-.04.02c-.48.1733333-.806667.26-.98.26-.24 0-.41-.0933333-.51-.28s-.15-.4933333-.15-.92v-5.72c0-.0133333-.016667-.03-.05-.05s-.063333-.03-.09-.03-.046667.0066667-.06.02c-.146667.2133333-.353333.3866667-.62.52-.586667-.3866667-1.233333-.58-1.94-.58-.733333 0-1.45.19-2.15.57s-1.273333.93-1.72 1.65-.67 1.56-.67 2.52c0 1.0933333.28 1.9433333.84 2.55s1.253333.91 2.08.91c.586667 0 1.12-.14 1.6-.42s.953333-.66 1.42-1.14c.026667.4533333.096667.8266667.21 1.12s.223333.44.33.44zm-2.78-.8c-.666667 0-1.19-.2966667-1.57-.89s-.57-1.39-.57-2.39c0-1.0933333.226667-1.9866667.68-2.68s1.053333-1.04 1.8-1.04c.52 0 .966667.1666667 1.34.5s.56.7466667.56 1.24v4.16c-.786667.7333333-1.533333 1.1-2.24 1.1zm11.34.58c.426667 0 .766667-.0066667 1.02-.02l1.4-.02 1.44.02c.24.0133333.566667.02.98.02.04 0 .06-.04.06-.12s-.02-.12-.06-.12c-.48 0-.83-.0333333-1.05-.1s-.37-.1966667-.45-.39-.12-.49-.12-.89v-4.72c.4.0266667.726667.04.98.04.28 0 .573333-.0333333.88-.1 1.226667 1.9866667 2.283333 3.55 3.17 4.69s1.49 1.71 1.81 1.71h2.9c.026667 0 .04-.04.04-.12s-.013333-.12-.04-.12c-.56 0-1.133333-.21-1.72-.63s-1.256667-1.1066667-2.01-2.06-1.69-2.2766667-2.81-3.97c.6-.3466667 1.086667-.8 1.46-1.36s.56-1.15333333.56-1.78c0-.78666667-.306667-1.40333333-.92-1.85s-1.486667-.67-2.62-.67c-.386667 0-.8.02-1.24.06-.16.01333333-.346667.02666667-.56.04s-.44.02-.68.02c-.346667 0-.813333-.01333333-1.4-.04l-1-.02c-.026667 0-.04.04-.04.12s.013333.12.04.12c.48 0 .83.03666667 1.05.11s.37.20333333.45.39.12.48.12.88v9.26c0 .4-.04.6966667-.12.89s-.233333.3233333-.46.39-.58.1-1.06.1c-.04 0-.06.04-.06.12s.02.12.06.12zm4.4-6.78c-.28 0-.673333-.0266667-1.18-.08v-3.98c0-.4.04-.69666667.12-.89s.21-.32333333.39-.39.443333-.1.79-.1c.706667 0 1.26.22 1.66.66s.6 1.18666667.6 2.24c0 .93333333-.183333 1.59-.55 1.97s-.976667.57-1.83.57zm12.74 7.02c.56 0 1.083333-.0966667 1.57-.29s.963333-.5033333 1.43-.93c.026667-.04.023333-.0833333-.01-.13s-.07-.07-.11-.07h-.02c-.586667.4133333-1.266667.62-2.04.62-.973333 0-1.736667-.3533333-2.29-1.06s-.83-1.6333333-.83-2.78c0-.3866667.026667-.7133333.08-.98l3.94-.04h.96c.146667 0 .22-.1666667.22-.5 0-.6133333-.206667-1.0966667-.62-1.45s-.993333-.53-1.74-.53c-.813333 0-1.556667.19-2.23.57s-1.2.9-1.58 1.56-.57 1.3833333-.57 2.17c0 .68.15 1.3133333.45 1.9s.74 1.0566667 1.32 1.41 1.27.53 2.07.53zm-2.16-5.94c.146667-.5733333.393333-1.0166667.74-1.33s.766667-.47 1.26-.47c.44 0 .786667.1533333 1.04.46s.386667.7266667.4 1.26zm9.08 5.92c.893333 0 1.596667-.2433333 2.11-.73s.77-1.07.77-1.75c0-.4133333-.093333-.76-.28-1.04s-.41-.51-.67-.69-.63-.3966667-1.11-.65c-.56-.2933333-.99-.58-1.29-.86s-.45-.64-.45-1.08c0-.3466667.09-.5966667.27-.75s.423333-.23.73-.23c.333333 0 .663333.0833333.99.25s.596667.3833333.81.65.32.5333333.32.8c0 .0266667.04.04.12.04s.12-.0133333.12-.04l.02-.9c.013333-.16.02-.3866667.02-.68 0-.1066667-.06-.18-.18-.22-.493333-.2-1-.3-1.52-.3-.76 0-1.413333.19-1.96.57s-.82.9433333-.82 1.69c0 .4266667.09.78.27 1.06s.4.5066667.66.68.61.3666667 1.05.58c.4.2133333.716667.3966667.95.55s.43.36.59.62.24.5766667.24.95c0 .36-.103333.6333333-.31.82s-.496667.28-.87.28c-.533333 0-1.016667-.1933333-1.45-.58s-.77-.9133333-1.01-1.58c-.013333-.04-.056667-.0566667-.13-.05s-.11.03-.11.07l.04 1.7c0 .08.04.16.12.24.613333.3866667 1.266667.58 1.96.58zm6.66-10.34c.293333 0 .523333-.08666667.69-.26s.25-.41333333.25-.72c0-.29333333-.083333-.52333333-.25-.69s-.396667-.25-.69-.25c-.306667 0-.55.08333333-.73.25s-.27.39666667-.27.69c0 .30666667.09.54666667.27.72s.423333.26.73.26zm-1.76 10.12c.32 0 .58-.0066667.78-.02l1.1-.02 1.1.02c.2.0133333.46.02.78.02.04 0 .06-.04.06-.12s-.02-.12-.06-.12c-.493333 0-.816667-.09-.97-.27s-.23-.55-.23-1.11l.0008-4.0704c.002133-.4544.008533-.8576.0192-1.2096.013333-.44.02-.7066667.02-.8 0-.0533333-.023333-.1-.07-.14s-.09-.06-.13-.06l-.08.02-2.72 1.26c-.053333.0133333-.066667.0566667-.04.13s.066667.11.12.11h.02c.346667-.1733333.633333-.26.86-.26.24 0 .406667.1033333.5.31s.14.55.14 1.03v3.68c0 .56-.08.93-.24 1.11s-.48.27-.96.27c-.04 0-.06.04-.06.12s.02.12.06.12zm8.44.26c.64 0 1.22-.1466667 1.74-.44s1.02-.6866667 1.5-1.18c.013333.4933333.08.88.2 1.16s.26.42.42.42c.013333 0 .06-.0133333.14-.04l2.38-1.14c.04-.0266667.046667-.0733333.02-.14s-.06-.1-.1-.1l-.04.02c-.346667.1733333-.673333.26-.98.26-.24 0-.41-.1033333-.51-.31s-.15-.5433333-.15-1.01v-12.06c0-.05333333-.03-.1-.09-.14s-.11-.06-.15-.06-.073333.00666667-.1.02l-2.66 1.28c-.04.02666667-.046667.07333333-.02.14s.066667.1.12.1h.02c.4-.18666667.686667-.28.86-.28.24 0 .406667.10333333.5.31s.14.55666667.14 1.05v4.32c-.586667-.28-1.186667-.42-1.8-.42-.706667 0-1.41.16-2.11.48s-1.283333.81-1.75 1.47-.7 1.4766667-.7 2.45c0 .76.14 1.4333333.42 2.02s.66 1.0366667 1.14 1.35 1 .47 1.56.47zm.88-.8c-.72 0-1.31-.33-1.77-.99s-.69-1.55-.69-2.67c0-1.1066667.226667-1.94.68-2.5s1.08-.84 1.88-.84c.493333 0 .923333.1066667 1.29.32s.69.52.97.92v4.58c-.373333.3733333-.746667.6633333-1.12.87s-.786667.31-1.24.31zm10.28.78c.56 0 1.083333-.0966667 1.57-.29s.963333-.5033333 1.43-.93c.026667-.04.023333-.0833333-.01-.13s-.07-.07-.11-.07h-.02c-.586667.4133333-1.266667.62-2.04.62-.973333 0-1.736667-.3533333-2.29-1.06s-.83-1.6333333-.83-2.78c0-.3866667.026667-.7133333.08-.98l3.94-.04h.96c.146667 0 .22-.1666667.22-.5 0-.6133333-.206667-1.0966667-.62-1.45s-.993333-.53-1.74-.53c-.813333 0-1.556667.19-2.23.57s-1.2.9-1.58 1.56-.57 1.3833333-.57 2.17c0 .68.15 1.3133333.45 1.9s.74 1.0566667 1.32 1.41 1.27.53 2.07.53zm-2.16-5.94c.146667-.5733333.393333-1.0166667.74-1.33s.766667-.47 1.26-.47c.44 0 .786667.1533333 1.04.46s.386667.7266667.4 1.26zm6.9 5.7c.32 0 .573333-.0066667.76-.02l1.12-.02 1.1.02c.2.0133333.46.02.78.02.04 0 .06-.04.06-.12s-.02-.12-.06-.12c-.493333 0-.816667-.09-.97-.27s-.23-.55-.23-1.11v-4.3c.32-.3333333.68-.5933333 1.08-.78s.786667-.28 1.16-.28c.613333 0 1.06.18 1.34.54s.42.9266667.42 1.7v3.12c0 .56-.076667.93-.23 1.11s-.47.27-.95.27c-.04 0-.06.04-.06.12s.02.12.06.12c.32 0 .58-.0066667.78-.02l1.1-.02 1.1.02c.2.0133333.46.02.78.02.04 0 .06-.04.06-.12s-.02-.12-.06-.12c-.493333 0-.816667-.09-.97-.27s-.23-.55-.23-1.11v-3.9c0-.7733333-.203333-1.3766667-.61-1.81s-.976667-.65-1.71-.65c-1.066667 0-2.086667.5666667-3.06 1.7-.013333-.48-.083333-.87-.21-1.17s-.256667-.45-.39-.45c-.053333 0-.093333.0066667-.12.02l-2.48 1.18c-.04.0133333-.05.0533333-.03.12s.05.1.09.1h.04c.453333-.1866667.806667-.28 1.06-.28.24 0 .41.0966667.51.29s.15.51.15.95v3.9c0 .56-.076667.93-.23 1.11s-.47.27-.95.27c-.04 0-.06.04-.06.12s.02.12.06.12zm14.38.24c.586667 0 1.12-.1 1.6-.3s.953333-.5133333 1.42-.94c.04-.0266667.043333-.06.01-.1s-.07-.06-.11-.06h-.04c-.6.4133333-1.266667.62-2 .62-1.106667 0-1.926667-.3533333-2.46-1.06s-.8-1.6133333-.8-2.72c0-.96.196667-1.73.59-2.31s.936667-.87 1.63-.87c.346667 0 .606667.0666667.78.2s.333333.3533333.48.66c.226667.52.56.78 1 .78.253333 0 .453333-.0733333.6-.22s.22-.32.22-.52c0-.3733333-.246667-.6833333-.74-.93s-1.04-.37-1.64-.37c-.72 0-1.426667.17-2.12.51s-1.26.8266667-1.7 1.46-.66 1.3766667-.66 2.23c0 .6666667.143333 1.3.43 1.9s.726667 1.09 1.32 1.47 1.323333.57 2.19.57zm8.28 0c.56 0 1.083333-.0966667 1.57-.29s.963333-.5033333 1.43-.93c.026667-.04.023333-.0833333-.01-.13s-.07-.07-.11-.07h-.02c-.586667.4133333-1.266667.62-2.04.62-.973333 0-1.736667-.3533333-2.29-1.06s-.83-1.6333333-.83-2.78c0-.3866667.026667-.7133333.08-.98l3.94-.04h.96c.146667 0 .22-.1666667.22-.5 0-.6133333-.206667-1.0966667-.62-1.45s-.993333-.53-1.74-.53c-.813333 0-1.556667.19-2.23.57s-1.2.9-1.58 1.56-.57 1.3833333-.57 2.17c0 .68.15 1.3133333.45 1.9s.74 1.0566667 1.32 1.41 1.27.53 2.07.53zm-2.16-5.94c.146667-.5733333.393333-1.0166667.74-1.33s.766667-.47 1.26-.47c.44 0 .786667.1533333 1.04.46s.386667.7266667.4 1.26z" fill="#021631" fill-rule="nonzero" transform="translate(132 5)"/><path d="m262.499893 57.668532c2.526293-3.3133191 7.57888-3.3133191 10.105173-1.2488404 2.526579 2.0644787 2.526579 6.1934362 0 10.3223936-1.768491 3.096718-6.31559 6.1934361-10.105173 8.2579148-3.789582-2.0644787-8.336682-5.1611968-10.105173-8.2579148-2.526293-4.1289574-2.526293-8.2579149 0-10.3223936s7.57888-2.0644787 10.105173 1.2488404z" fill="#fbdcdc" stroke="#a0b9b6"/></g></svg>