<svg height="83" viewBox="0 0 528 83" width="528" xmlns="http://www.w3.org/2000/svg"><g fill="none" fill-rule="evenodd"><g fill="#a0b9b6"><path d="m12.8664008 67.7884212c.3363916 0 .6148811.2479084.6627354.5709923l.0072646.0990077.0005694 8.0373757.1495321.0035243.4559406.0155706.596271.0317193.5816905.0440598.5657283.0561999c.0928812.0103671.1850396.0212318.2764466.0325898l.5391946.0740342c3.0017285.4526941 5.0682451 1.4660064 5.0682451 2.8758665 0 1.4098602-2.0665166 2.4231725-5.0682451 2.8758666l-.5391946.0740342-.5572291.0621947c-.0942977.0093681-.1892892.0182344-.2849458.026595l-.5816905.0440597c-.0982018.0063205-.1970112.0121268-.2963993.0174148l-.6030432.025474-.3062985.0080091-.6212872.0064374-.6213382-.006437-.3063206-.0080088-.6030811-.0254728c-.0993937-.0052877-.1982084-.0110938-.2964152-.017414l-.5817167-.0440579c-.0956603-.0083602-.1906553-.0172263-.2849562-.0265939l-.55724495-.0621924-.53920431-.0740318-.5197826-.0856707c-2.71792762-.487592-4.54827351-1.4632365-4.54827351-2.7902062 0-1.4099052 2.06628892-2.4231973 5.06805611-2.8758768l.53920431-.0740318c.09140913-.0113575.18356996-.0222218.27645372-.0325886l.56574743-.0561977.5817167-.0440579.5963048-.0317179c.1699903-.0071817.3415543-.0128692.5145528-.0170423l.0010126-8.0394271c0-.3700308.2999692-.67.67-.67zm.0452849 10.0408547-.598687.0071511c-.3951924.0094369-.7821101.0280164-1.1582935.0545621l-.5559166.045646c-.0912085.0085545-.1816692.01757-.2713437.0270283l-.52830507.0619155-.50759123.0716587-.48503252.0805196-.46062894.0884981-.4343805.0955942-.40628717.1018078c-.13054185.0348735-.25609401.0706356-.37634898.1071391l-.34456591.111588c-.87482513.3027156-1.39095225.6434738-1.39095225.9469769 0 .3224721.58265913.6870017 1.55914701 1.0032719l.36068806.1094739c.12547528.0357253.256094.0706356.39154869.1045838l.42056444.0988113c.14481912.0318769.29416672.0626448.44773533.0921564l.47306134.0846191c.08085156.0134261.16268151.0265013.2454514.0392074l.50759123.0716587.52830507.0619155c.179349.0189166.3618428.0360622.547174.0512898l.5641981.0397818c.476746.0281113.9693037.0433159 1.4728687.0433159l.4996659-.0049835c.3304303-.0065879.6552623-.0195934.973072-.0383356l.5641656-.0397844c.1853221-.0152287.3678084-.0323754.5471514-.0512931l.5282912-.0619191c.0863744-.0111564.1718859-.0227187.2564963-.0346686l.4965402-.0762033.4730655-.0846231c.1535709-.0295129.3029218-.0602819.4477449-.0921601l.4205787-.0988146c.13546-.0339492.2660847-.0688604.3915663-.1045866l.3607084-.1094759c.9765481-.316275 1.5592869-.6807989 1.5592869-1.0032376 0-.3034716-.5161977-.6442229-1.3910813-.9469418l-.3445872-.1115897c-.1202617-.0365042-.2458203-.0722671-.3763681-.1071416l-.4063032-.1018109-.4343925-.0955977-.460636-.0885018c-.1577141-.02822-.3194945-.0551102-.4850335-.0805236l-.5075854-.0716626-.5282912-.0619191c-.0896715-.0094589-.1801288-.018475-.2713336-.0270299l-.5558892-.0456491c-.5642425-.0398212-1.1526219-.0617176-1.7568321-.0617176zm12.1445111-73.29591655.0072695.17007607.0005268.64291387.0087975 2.006114.0198685 1.98476415.0312426 2.02095486.04292 2.1146861.0549006 2.265958.0953296 3.5841781.0576413 2.4714876.0403903 2.2486234.0130646 1.0461592.0099397 1.4776475-.0016488 1.2470658-.0093799.9638728-.0170071.9135728-.0249989.8662633c-.0048528.1406008-.0100537.2793551-.0156104.416325l-.0376707.8009059-.0465745.7610723-.0558431.724229c-.0100998.1178007-.020601.2341909-.0315112.3492328l-.07043.674571c-.1634953 1.4286761-.3986786 2.650557-.722246 3.8025142l-.1556754.5272059c-.1080485.3488251-.2247079.6930239-.3504646 1.0365833l-.1955189.5153581c-.0674878.1719585-.1373107.3442556-.2095295.5173896l-.223905.5224114-.2386453.5304236-.2537503.5414261c-1.3335692 2.7950517-3.2900885 5.5904354-6.1532314 8.811065-.8012174.9250834-1.8960829 1.5331529-3.0878403 1.7318203l-.0002057 7.8091309c0 .3700308-.2999693.67-.67.67-.3363917 0-.6148812-.2479084-.6627355-.5709923l-.0072645-.0990077-.0002358-7.7603873c-1.261383-.1169383-2.44462147-.689694-3.31664284-1.6173916-1.62513564-1.6839205-2.9443276-3.2898061-4.01689828-4.8940431-2.40986124-3.604414-3.64785267-7.2869788-4.16919024-12.1232462-.01554853-.1442383-.03051484-.286751-.04490814-.4280452l-.07955742-.8372022-.02999578-.3558827-.05104263-.6904236-.06032575-1.0727315-.02975517-.7598926-.02586232-1.0243123-.00966077-.6645818-.00663481-1.4686612.01623104-2.3155685.04306329-2.8245813.18703429-9.404321.03342813-2.2709035.02857533-3.23868797.0053123-2.17506231c0-5.66920256 23.90868787-5.72589459 24.38686157-.17007607zm-23.30570971 18.54127645-.01563392 1.9070665-.00097339 1.3928798.00591308 1.0571961.01220823 1.0104199.01883023.965582.02577905.9226825.03305469.8817215.04065716.8426989.04858645.8056146.05684258.7704689.06542552.7372615.0743353.7059926c.01314986.1151674.02668457.2291126.04061095.3418762l.08831276.6627237c.13968257.9737837.31219322 1.8583903.52249564 2.6832593l.14585486.5413857c.15156259.5331819.32041175 1.0427214.50801821 1.5373415l.19391337.4899699c.13351649.323762.27558744.6421853.42664862.9578546l.23338892.4717615c.12012027.2351711.2454201.4695199.37608333.7041368l.26853214.4699145.28316138.4725678.29811745.4771597c.05095073.080017.10253826.160306.15476938.2409076l.32116433.4876819c1.02576392 1.5342285 2.29481018 3.0790705 3.87320681 4.7146444.75280908.8008109 1.80911128 1.2452906 2.90699028 1.2230639 1.0981366-.0222318 2.1355876-.5089854 2.8604712-1.3458485 2.7910173-3.1395806 4.6772165-5.8344942 5.9510291-8.5043011l.2627418-.5618034.1656656-.3678722.2345843-.5446276.1473056-.3599397.2076616-.5380056.1297687-.359043.0623321-.1800554.1196417-.3618822.1130551-.3651821.1066002-.3696079.1002769-.3751594.0940854-.3818366.0880255-.3896396.0820975-.3985682.1123192-.6170563.0678535-.4258152.0623863-.438684.057051-.4526785.0518473-.4677988.0467754-.4840448.0418351-.5014167.0370266-.5199141.046812-.8170167.0367337-.8649683.0270999-.9167195.0179106-.97227.0103549-1.3893386-.0018022-1.1166632-.0143155-1.5956533-.0200985-1.1824406c-4.082743 1.6225483-6.599468 1.4110076-10.8594703-.1633926l-.4065107-.1523091c-4.46410571-1.6934133-6.76258221-1.8779752-11.04544401.005719zm8.24951291 7.9253642c1.1045695 0 2 .8954305 2 2s-.8954305 2-2 2-2-.8954305-2-2 .8954305-2 2-2zm0 1c-.55228475 0-1 .4477153-1 1s.44771525 1 1 1c.5522847 0 1-.4477153 1-1s-.4477153-1-1-1zm13.727-25.664-.151237.07472163c-1.5470992.73235743-4.2050252 1.16518116-7.5167807 1.32729277l-.8784674.03616802-.9063279.02399989-.9323854.01194546h-.9508017l-.9323854-.01194546-.9063279-.02399989-.8784674-.03616802c-3.31175552-.16211161-5.96968149-.59493534-7.51678071-1.32729277l-.15103849-.07472163-.00969009 1.7192741-.03216276 2.9122863-.04069389 2.4913484-.11160693 5.505151-.03410329 1.9376966-.00864981.7077283c4.1925379-1.7381653 6.7783902-1.5404563 11.10605027.0582253l.4037573.1512436c4.3864291 1.6639501 6.621141 1.8653354 10.7561371.1290406l-.0298777-1.4612011-.1372737-5.2739421-.0602967-2.6178305-.0437285-2.4407717-.0222216-1.77151786zm-10.8605992-4.587415-.7397447.00610506c-.1231208.00203502-.2461142.0045788-.3689164.00763133l-.7340092.02442025c-4.62773753.19332699-8.79536508 1.12129654-9.00604701 2.78390867l-.00834826.13278511.00545106.04853248c.04068489.18189892.3079298.36702786.76191986.5451541l.26591182.09640377c.14197669.04779314.29730507.09492704.46517748.14119411l.35223088.09131688.38424578.08863632.41482483.08558675c.07160595.01398982.14442621.0278372.21843085.04153446l.45800118.08032046.73715824.11291761.52278253.0696982.54618234.0648035.56814629.05953978.58867441.05390704.60776668.04790526.62542309.04153447.64164365.03479465.6564284.02768581.6697772.02020794.6816903.01236105.6851987.00414556.6783264-.00406283.6682779-.01195693.6568781-.01950373c.1084546-.00386022.2163779-.00802042.3237417-.01247337l.6372443-.03017267.6224659-.03685116.606336-.04318231.5888548-.04916614.5700222-.05480266.5498381-.06009185.5283027-.06503371.5054157-.06962826.4811775-.07387548.4555878-.07777538.4286467-.08132796.4003542-.08453321c.0642929-.01433667.1273507-.02879243.1891451-.04336003l.3553816-.08868986.3237105-.09102681.2906881-.09301643.2563143-.09465874c.4773537-.19072822.7403559-.38922632.7403559-.58299068 0-1.74604798-4.2648752-2.71827924-9.0143953-2.91669378l-.7340092-.02442025c-.1228022-.00305253-.2457956-.00559631-.3689164-.00763133z" fill-rule="nonzero"/><path d="m23.2920792 59h-4.4108911c-1.0346534 0-2.2871287.4730053-2.940594 1.0511228l-.7079208.6832298h-4.519802l-.7079208-.6306737c-.65346535-.6306736-1.9059406-1.0511228-2.94059406-1.0511228h-4.41089109c-.38118812 0-.65346535.3153369-.65346535.6306737v6.9374104c0 .367893.32673267.6306737.65346535.6306737h4.30198019l-2.55940594 2.4701386c-.21782178.2102245-.27227722.4730052-.16336633.7357859s.32673267.4204491.65346534.4204491h1.85148515v1.7869088c0 .2627807.16336634.5255614.43564357.6306736.10891089.0525562.16336633.0525562.27227722.0525562.16336634 0 .32673268-.0525562.49009901-.2102246l5.06435644-4.8877209 5.0643564 4.8877209c.1089109.1051123.3267327.2102246.490099.2102246.1089109 0 .1633664 0 .2722773-.0525562.2722772-.1051122.4356435-.3678929.4356435-.6306736v-1.7869088h1.8514852c.2722772 0 .5445544-.1576684.6534653-.4204491s.0544555-.5255614-.1633663-.7357859l-2.5594059-2.4701386h4.3019802c.3811881 0 .6534653-.3153368.6534653-.6306737v-6.9374104c-.0544554-.367893-.3267327-.6832298-.7079208-.6832298zm-8.4950495 5.5709508-1.8514851 1.7869087-1.8514852-1.7869087v-1.4190158-1.0511228h3.7029703zm-7.73267326 1.3664596h-3.75742575v-5.6235069h3.75742575c.70792079 0 1.63366336.367893 1.96039604.6832298l.70792079.6832298v.7883421h-2.94059406c-.38118812 0-.65346535.3153368-.65346535.6306737 0 .3153368.32673267.6306737.65346535.6306737h2.94059406v.788342l-.76237624.735786c-.32673267.3153368-1.1980198.6832298-1.90594059.6832298zm1.03465346 5.0979455v-.8408982c0-.1576684-.05445544-.3153368-.21782178-.4730052-.16336634-.1576685-.32673267-.2102246-.49009901-.2102246h-.87128713l3.48514852-3.3635929s0 0 .0544554-.0525562l.4356436-.4204491 1.5792079 1.5241281zm10.4554455-1.4715719c-.1633663 0-.3267326.0525562-.490099.2102246-.1633663.1576684-.2178217.3153368-.2178217.4730053v.8408982l-3.9207921-3.7840421 1.5792079-1.524128.4356436.4204491s0 0 .0544554.0525562l3.4851485 3.3635929h-.9257426zm-2.3960396-4.9928332v-.7883421h2.9405941c.3811881 0 .6534653-.3153368.6534653-.6306737 0-.3153368-.3267326-.6306737-.6534653-.6306737h-2.9405941v-.788342l.7079208-.6832299c.3267327-.3153368 1.2524753-.6832298 1.9603961-.6832298h3.7574257v5.623507h-3.7574257c-.7079208 0-1.5792079-.367893-1.9603961-.6832299z" fill-rule="nonzero"/><path d="m15.3364862 42.5780793c.4542213 0 .8233619.3691405.8233619.8233618s-.3691406.8233618-.8233619.8233618c-.4549074 0-.8233618-.3691405-.8233618-.8233618s.3684544-.8233618.8233618-.8233618z"/><path d="m10.3963153 39.284632c.4542213 0 .8233618.3691406.8233618.8233618 0 .4542213-.3691405.8233619-.8233618.8233619-.45490742 0-.82336183-.3691406-.82336183-.8233619 0-.4542212.36845441-.8233618.82336183-.8233618z"/><path d="m15.3364862 28.7575665c.4542213 0 .8233619.3691405.8233619.8233618s-.3691406.8233618-.8233619.8233618c-.4549074 0-.8233618-.3691405-.8233618-.8233618s.3684544-.8233618.8233618-.8233618z"/><path d="m10.3963153 25.8173955c.4542213 0 .8233618.3691406.8233618.8233619 0 .4542212-.3691405.8233618-.8233618.8233618-.45490742 0-.82336183-.3691406-.82336183-.8233618 0-.4542213.36845441-.8233619.82336183-.8233619z"/></g><circle cx="15" cy="37" fill="#fff" r="1.5" stroke="#a0b9b6"/><g fill="#a0b9b6" transform="translate(502)"><path d="m12.8664008 67.7884212c.3363916 0 .6148811.2479084.6627354.5709923l.0072646.0990077.0005694 8.0373757.1495321.0035243.4559406.0155706.596271.0317193.5816905.0440598.5657283.0561999c.0928812.0103671.1850396.0212318.2764466.0325898l.5391946.0740342c3.0017285.4526941 5.0682451 1.4660064 5.0682451 2.8758665 0 1.4098602-2.0665166 2.4231725-5.0682451 2.8758666l-.5391946.0740342-.5572291.0621947c-.0942977.0093681-.1892892.0182344-.2849458.026595l-.5816905.0440597c-.0982018.0063205-.1970112.0121268-.2963993.0174148l-.6030432.025474-.3062985.0080091-.6212872.0064374-.6213382-.006437-.3063206-.0080088-.6030811-.0254728c-.0993937-.0052877-.1982084-.0110938-.2964152-.017414l-.5817167-.0440579c-.0956603-.0083602-.1906553-.0172263-.2849562-.0265939l-.55724495-.0621924-.53920431-.0740318-.5197826-.0856707c-2.71792762-.487592-4.54827351-1.4632365-4.54827351-2.7902062 0-1.4099052 2.06628892-2.4231973 5.06805611-2.8758768l.53920431-.0740318c.09140913-.0113575.18356996-.0222218.27645372-.0325886l.56574743-.0561977.5817167-.0440579.5963048-.0317179c.1699903-.0071817.3415543-.0128692.5145528-.0170423l.0010126-8.0394271c0-.3700308.2999692-.67.67-.67zm.0452849 10.0408547-.598687.0071511c-.3951924.0094369-.7821101.0280164-1.1582935.0545621l-.5559166.045646c-.0912085.0085545-.1816692.01757-.2713437.0270283l-.52830507.0619155-.50759123.0716587-.48503252.0805196-.46062894.0884981-.4343805.0955942-.40628717.1018078c-.13054185.0348735-.25609401.0706356-.37634898.1071391l-.34456591.111588c-.87482513.3027156-1.39095225.6434738-1.39095225.9469769 0 .3224721.58265913.6870017 1.55914701 1.0032719l.36068806.1094739c.12547528.0357253.256094.0706356.39154869.1045838l.42056444.0988113c.14481912.0318769.29416672.0626448.44773533.0921564l.47306134.0846191c.08085156.0134261.16268151.0265013.2454514.0392074l.50759123.0716587.52830507.0619155c.179349.0189166.3618428.0360622.547174.0512898l.5641981.0397818c.476746.0281113.9693037.0433159 1.4728687.0433159l.4996659-.0049835c.3304303-.0065879.6552623-.0195934.973072-.0383356l.5641656-.0397844c.1853221-.0152287.3678084-.0323754.5471514-.0512931l.5282912-.0619191c.0863744-.0111564.1718859-.0227187.2564963-.0346686l.4965402-.0762033.4730655-.0846231c.1535709-.0295129.3029218-.0602819.4477449-.0921601l.4205787-.0988146c.13546-.0339492.2660847-.0688604.3915663-.1045866l.3607084-.1094759c.9765481-.316275 1.5592869-.6807989 1.5592869-1.0032376 0-.3034716-.5161977-.6442229-1.3910813-.9469418l-.3445872-.1115897c-.1202617-.0365042-.2458203-.0722671-.3763681-.1071416l-.4063032-.1018109-.4343925-.0955977-.460636-.0885018c-.1577141-.02822-.3194945-.0551102-.4850335-.0805236l-.5075854-.0716626-.5282912-.0619191c-.0896715-.0094589-.1801288-.018475-.2713336-.0270299l-.5558892-.0456491c-.5642425-.0398212-1.1526219-.0617176-1.7568321-.0617176zm12.1445111-73.29591655.0072695.17007607.0005268.64291387.0087975 2.006114.0198685 1.98476415.0312426 2.02095486.04292 2.1146861.0549006 2.265958.0953296 3.5841781.0576413 2.4714876.0403903 2.2486234.0130646 1.0461592.0099397 1.4776475-.0016488 1.2470658-.0093799.9638728-.0170071.9135728-.0249989.8662633c-.0048528.1406008-.0100537.2793551-.0156104.416325l-.0376707.8009059-.0465745.7610723-.0558431.724229c-.0100998.1178007-.020601.2341909-.0315112.3492328l-.07043.674571c-.1634953 1.4286761-.3986786 2.650557-.722246 3.8025142l-.1556754.5272059c-.1080485.3488251-.2247079.6930239-.3504646 1.0365833l-.1955189.5153581c-.0674878.1719585-.1373107.3442556-.2095295.5173896l-.223905.5224114-.2386453.5304236-.2537503.5414261c-1.3335692 2.7950517-3.2900885 5.5904354-6.1532314 8.811065-.8012174.9250834-1.8960829 1.5331529-3.0878403 1.7318203l-.0002057 7.8091309c0 .3700308-.2999693.67-.67.67-.3363917 0-.6148812-.2479084-.6627355-.5709923l-.0072645-.0990077-.0002358-7.7603873c-1.261383-.1169383-2.44462147-.689694-3.31664284-1.6173916-1.62513564-1.6839205-2.9443276-3.2898061-4.01689828-4.8940431-2.40986124-3.604414-3.64785267-7.2869788-4.16919024-12.1232462-.01554853-.1442383-.03051484-.286751-.04490814-.4280452l-.07955742-.8372022-.02999578-.3558827-.05104263-.6904236-.06032575-1.0727315-.02975517-.7598926-.02586232-1.0243123-.00966077-.6645818-.00663481-1.4686612.01623104-2.3155685.04306329-2.8245813.18703429-9.404321.03342813-2.2709035.02857533-3.23868797.0053123-2.17506231c0-5.66920256 23.90868787-5.72589459 24.38686157-.17007607zm-23.30570971 18.54127645-.01563392 1.9070665-.00097339 1.3928798.00591308 1.0571961.01220823 1.0104199.01883023.965582.02577905.9226825.03305469.8817215.04065716.8426989.04858645.8056146.05684258.7704689.06542552.7372615.0743353.7059926c.01314986.1151674.02668457.2291126.04061095.3418762l.08831276.6627237c.13968257.9737837.31219322 1.8583903.52249564 2.6832593l.14585486.5413857c.15156259.5331819.32041175 1.0427214.50801821 1.5373415l.19391337.4899699c.13351649.323762.27558744.6421853.42664862.9578546l.23338892.4717615c.12012027.2351711.2454201.4695199.37608333.7041368l.26853214.4699145.28316138.4725678.29811745.4771597c.05095073.080017.10253826.160306.15476938.2409076l.32116433.4876819c1.02576392 1.5342285 2.29481018 3.0790705 3.87320681 4.7146444.75280908.8008109 1.80911128 1.2452906 2.90699028 1.2230639 1.0981366-.0222318 2.1355876-.5089854 2.8604712-1.3458485 2.7910173-3.1395806 4.6772165-5.8344942 5.9510291-8.5043011l.2627418-.5618034.1656656-.3678722.2345843-.5446276.1473056-.3599397.2076616-.5380056.1297687-.359043.0623321-.1800554.1196417-.3618822.1130551-.3651821.1066002-.3696079.1002769-.3751594.0940854-.3818366.0880255-.3896396.0820975-.3985682.1123192-.6170563.0678535-.4258152.0623863-.438684.057051-.4526785.0518473-.4677988.0467754-.4840448.0418351-.5014167.0370266-.5199141.046812-.8170167.0367337-.8649683.0270999-.9167195.0179106-.97227.0103549-1.3893386-.0018022-1.1166632-.0143155-1.5956533-.0200985-1.1824406c-4.082743 1.6225483-6.599468 1.4110076-10.8594703-.1633926l-.4065107-.1523091c-4.46410571-1.6934133-6.76258221-1.8779752-11.04544401.005719zm13.24951291 11.9253642c1.1045695 0 2 .8954305 2 2s-.8954305 2-2 2-2-.8954305-2-2 .8954305-2 2-2zm0 1c-.5522847 0-1 .4477153-1 1s.4477153 1 1 1 1-.4477153 1-1-.4477153-1-1-1zm-5-5c1.1045695 0 2 .8954305 2 2s-.8954305 2-2 2-2-.8954305-2-2 .8954305-2 2-2zm0 1c-.55228475 0-1 .4477153-1 1s.44771525 1 1 1c.5522847 0 1-.4477153 1-1s-.4477153-1-1-1zm13.727-25.664-.151237.07472163c-1.5470992.73235743-4.2050252 1.16518116-7.5167807 1.32729277l-.8784674.03616802-.9063279.02399989-.9323854.01194546h-.9508017l-.9323854-.01194546-.9063279-.02399989-.8784674-.03616802c-3.31175552-.16211161-5.96968149-.59493534-7.51678071-1.32729277l-.15103849-.07472163-.00969009 1.7192741-.03216276 2.9122863-.04069389 2.4913484-.11160693 5.505151-.03410329 1.9376966-.00864981.7077283c4.1925379-1.7381653 6.7783902-1.5404563 11.10605027.0582253l.4037573.1512436c4.3864291 1.6639501 6.621141 1.8653354 10.7561371.1290406l-.0298777-1.4612011-.1372737-5.2739421-.0602967-2.6178305-.0437285-2.4407717-.0222216-1.77151786zm-10.8605992-4.587415-.7397447.00610506c-.1231208.00203502-.2461142.0045788-.3689164.00763133l-.7340092.02442025c-4.62773753.19332699-8.79536508 1.12129654-9.00604701 2.78390867l-.00834826.13278511.00545106.04853248c.04068489.18189892.3079298.36702786.76191986.5451541l.26591182.09640377c.14197669.04779314.29730507.09492704.46517748.14119411l.35223088.09131688.38424578.08863632.41482483.08558675c.07160595.01398982.14442621.0278372.21843085.04153446l.45800118.08032046.73715824.11291761.52278253.0696982.54618234.0648035.56814629.05953978.58867441.05390704.60776668.04790526.62542309.04153447.64164365.03479465.6564284.02768581.6697772.02020794.6816903.01236105.6851987.00414556.6783264-.00406283.6682779-.01195693.6568781-.01950373c.1084546-.00386022.2163779-.00802042.3237417-.01247337l.6372443-.03017267.6224659-.03685116.606336-.04318231.5888548-.04916614.5700222-.05480266.5498381-.06009185.5283027-.06503371.5054157-.06962826.4811775-.07387548.4555878-.07777538.4286467-.08132796.4003542-.08453321c.0642929-.01433667.1273507-.02879243.1891451-.04336003l.3553816-.08868986.3237105-.09102681.2906881-.09301643.2563143-.09465874c.4773537-.19072822.7403559-.38922632.7403559-.58299068 0-1.74604798-4.2648752-2.71827924-9.0143953-2.91669378l-.7340092-.02442025c-.1228022-.00305253-.2457956-.00559631-.3689164-.00763133z" fill-rule="nonzero"/><path d="m23.2920792 59h-4.4108911c-1.0346534 0-2.2871287.4730053-2.940594 1.0511228l-.7079208.6832298h-4.519802l-.7079208-.6306737c-.65346535-.6306736-1.9059406-1.0511228-2.94059406-1.0511228h-4.41089109c-.38118812 0-.65346535.3153369-.65346535.6306737v6.9374104c0 .367893.32673267.6306737.65346535.6306737h4.30198019l-2.55940594 2.4701386c-.21782178.2102245-.27227722.4730052-.16336633.7357859s.32673267.4204491.65346534.4204491h1.85148515v1.7869088c0 .2627807.16336634.5255614.43564357.6306736.10891089.0525562.16336633.0525562.27227722.0525562.16336634 0 .32673268-.0525562.49009901-.2102246l5.06435644-4.8877209 5.0643564 4.8877209c.1089109.1051123.3267327.2102246.490099.2102246.1089109 0 .1633664 0 .2722773-.0525562.2722772-.1051122.4356435-.3678929.4356435-.6306736v-1.7869088h1.8514852c.2722772 0 .5445544-.1576684.6534653-.4204491s.0544555-.5255614-.1633663-.7357859l-2.5594059-2.4701386h4.3019802c.3811881 0 .6534653-.3153368.6534653-.6306737v-6.9374104c-.0544554-.367893-.3267327-.6832298-.7079208-.6832298zm-8.4950495 5.5709508-1.8514851 1.7869087-1.8514852-1.7869087v-1.4190158-1.0511228h3.7029703zm-7.73267326 1.3664596h-3.75742575v-5.6235069h3.75742575c.70792079 0 1.63366336.367893 1.96039604.6832298l.70792079.6832298v.7883421h-2.94059406c-.38118812 0-.65346535.3153368-.65346535.6306737 0 .3153368.32673267.6306737.65346535.6306737h2.94059406v.788342l-.76237624.735786c-.32673267.3153368-1.1980198.6832298-1.90594059.6832298zm1.03465346 5.0979455v-.8408982c0-.1576684-.05445544-.3153368-.21782178-.4730052-.16336634-.1576685-.32673267-.2102246-.49009901-.2102246h-.87128713l3.48514852-3.3635929s0 0 .0544554-.0525562l.4356436-.4204491 1.5792079 1.5241281zm10.4554455-1.4715719c-.1633663 0-.3267326.0525562-.490099.2102246-.1633663.1576684-.2178217.3153368-.2178217.4730053v.8408982l-3.9207921-3.7840421 1.5792079-1.524128.4356436.4204491s0 0 .0544554.0525562l3.4851485 3.3635929h-.9257426zm-2.3960396-4.9928332v-.7883421h2.9405941c.3811881 0 .6534653-.3153368.6534653-.6306737 0-.3153368-.3267326-.6306737-.6534653-.6306737h-2.9405941v-.788342l.7079208-.6832299c.3267327-.3153368 1.2524753-.6832298 1.9603961-.6832298h3.7574257v5.623507h-3.7574257c-.7079208 0-1.5792079-.367893-1.9603961-.6832299z" fill-rule="nonzero"/><path d="m15.3364862 42.5780793c.4542213 0 .8233619.3691405.8233619.8233618s-.3691406.8233618-.8233619.8233618c-.4549074 0-.8233618-.3691405-.8233618-.8233618s.3684544-.8233618.8233618-.8233618z"/><path d="m10.3963153 39.284632c.4542213 0 .8233618.3691406.8233618.8233618 0 .4542213-.3691405.8233619-.8233618.8233619-.45490742 0-.82336183-.3691406-.82336183-.8233619 0-.4542212.36845441-.8233618.82336183-.8233618z"/><path d="m15.3364862 28.7575665c.4542213 0 .8233619.3691405.8233619.8233618s-.3691406.8233618-.8233619.8233618c-.4549074 0-.8233618-.3691405-.8233618-.8233618s.3684544-.8233618.8233618-.8233618z"/><path d="m10.3963153 25.8173955c.4542213 0 .8233618.3691406.8233618.8233619 0 .4542212-.3691405.8233618-.8233618.8233618-.45490742 0-.82336183-.3691406-.82336183-.8233618 0-.4542213.36845441-.8233619.82336183-.8233619z"/></g><path d="m243 63v1h-219v-1z" fill="#a0b9b6" fill-rule="nonzero"/><path d="m504 63v1h-219v-1z" fill="#a0b9b6" fill-rule="nonzero" transform="matrix(-1 0 0 1 789 0)"/><path d="m8.27 18.24c1.28 0 2.5333333-.24 3.76-.72.12-.0533333.1966667-.1033333.23-.15s.0633333-.15.09-.31l.28-2.42c0-.0266667-.0166667-.0466667-.05-.06s-.07-.02-.11-.02c-.0533333 0-.08.02-.08.06-.8266667 2.2-2.2 3.3-4.12 3.3-.97333333 0-1.87-.3033333-2.69-.91s-1.47-1.43-1.95-2.47-.72-2.18-.72-3.42c0-1.0666667.19-2.00666667.57-2.82s.93-1.44333333 1.65-1.89 1.56666667-.67 2.54-.67c1.10666667 0 2.05333333.25666667 2.84.77.7866667.51333333 1.3533333 1.29 1.7 2.33.0133333.04.0533333.05666667.12.05s.1-.03.1-.07l-.22-2.42c-.0266667-.14666667-.0566667-.25-.09-.31s-.1033333-.11666667-.21-.17c-.3866667-.2-.9066667-.35666667-1.56-.47-.65333333-.11333333-1.28666667-.17-1.9-.17-1.28 0-2.48333333.27-3.61.81s-2.03333333 1.29333333-2.72 2.26-1.03 2.07-1.03 3.31c0 1.0933333.25333333 2.14.76 3.14s1.3 1.8233333 2.38 2.47 2.42666667.97 4.04.97zm10.08.02c.7733333 0 1.4866667-.17 2.14-.51s1.1766667-.8233333 1.57-1.45.59-1.3466667.59-2.16c0-.7066667-.16-1.3766667-.48-2.01s-.78-1.1433333-1.38-1.53-1.2933333-.58-2.08-.58c-.6933333 0-1.3733333.15-2.04.45s-1.2133333.7533333-1.64 1.36-.64 1.3433333-.64 2.21c0 .76.1633333 1.4633333.49 2.11s.79 1.16 1.39 1.54 1.2933333.57 2.08.57zm.58-.38c-.56 0-1.0633333-.1966667-1.51-.59s-.7966667-.9333333-1.05-1.62-.38-1.45-.38-2.29c0-.9733333.1766667-1.71.53-2.21s.8566667-.75 1.51-.75c.56 0 1.0666667.1766667 1.52.53s.81.86 1.07 1.52.39 1.4233333.39 2.29c0 1.04-.18 1.82-.54 2.34s-.8733333.78-1.54.78zm8.5 5.62c.4533333 0 .8133333-.0066667 1.08-.02l1.52-.02 1.4.02c.2533333.0133333.6.02 1.04.02.0266667 0 .04-.04.04-.12s-.0133333-.12-.04-.12c-.52 0-.9033333-.0366667-1.15-.11s-.4133333-.2033333-.5-.39-.13-.48-.13-.88v-4.46c.5466667.56 1.12.84 1.72.84.4933333 0 1-.16 1.52-.48s.96-.8066667 1.32-1.46.54-1.4533333.54-2.4c0-.7866667-.1166667-1.4766667-.35-2.07s-.55-1.0466667-.95-1.36-.84-.47-1.32-.47c-.8133333 0-1.64.4266667-2.48 1.28v-7.6c0-.05333333-.0233333-.1-.07-.14s-.0966667-.06-.15-.06c-.04 0-.0733333.00666667-.1.02l-2.64 1.28c-.04.01333333-.0466667.05333333-.02.12s.06.1.1.1h.04c.3466667-.17333333.6333333-.26.86-.26.24 0 .4033333.10333333.49.31s.13.55.13 1.03v4.76c-.5466667-.56-1.12-.84-1.72-.84-.4933333 0-1.0033333.1566667-1.53.47s-.9666667.8-1.32 1.46-.53 1.4633333-.53 2.41c0 .7866667.1133333 1.4766667.34 2.07s.54 1.0466667.94 1.36.84.47 1.32.47c.8133333 0 1.6466667-.4266667 2.5-1.28v4.9c0 .4-.0466667.6933333-.14.88s-.2733333.3166667-.54.39-.6733333.11-1.22.11c-.04 0-.06.04-.06.12s.02.12.06.12zm.1-5.9c-.52 0-.94-.3333333-1.26-1s-.48-1.6-.48-2.8c0-1.04.1466667-1.86.44-2.46s.7-.9 1.22-.9c.32 0 .6433333.1166667.97.35s.63.55.91.95v4.88c-.6.6533333-1.2.98-1.8.98zm5.04.24c-.32 0-.6433333-.1133333-.97-.34s-.63-.54-.91-.94v-4.92c.5866667-.64 1.18-.96 1.78-.96.52 0 .9433333.3366667 1.27 1.01s.49 1.6033333.49 2.79c0 1.04-.1466667 1.86-.44 2.46s-.7.9-1.22.9zm11.42.38c.04 0 .0733333-.0066667.1-.02l2.48-1.18c.04-.0266667.0466667-.07.02-.13s-.0666667-.09-.12-.09h-.02c-.44.1866667-.7666667.28-.98.28-.24 0-.41-.1-.51-.3s-.15-.5266667-.15-.98v-5.5c0-.0533333-.0266667-.1-.08-.14s-.1066667-.06-.16-.06l-.08.02-2.36 1.1c-.04.0133333-.0533333.0533333-.04.12s.04.1.08.1h.04c.2533333-.1066667.4666667-.16.64-.16.2133333 0 .3666667.11.46.33s.14.5833333.14 1.09v3.46c-.32.3333333-.68.5933333-1.08.78s-.7866667.28-1.16.28c-1.12 0-1.68-.7533333-1.68-2.26v-4.66c0-.0533333-.0266667-.1-.08-.14s-.1066667-.06-.16-.06l-.08.02-2.36 1.1c-.04.0133333-.05.0533333-.03.12s.05.1.09.1h.04c.2266667-.1066667.4333333-.16.62-.16.2133333 0 .3666667.11.46.33s.14.5833333.14 1.09v3.02c0 .7733333.1966667 1.3766667.59 1.81s.93.65 1.61.65c1.0666667 0 2.0933333-.5533333 3.08-1.66 0 .5066667.06.9166667.18 1.23s.24.47.36.47zm4.72-.22c.1466667 0 .2833333-.0933333.41-.28s.37-.6333333.73-1.34c.3866667-.76.76-1.3 1.12-1.62s.7666667-.5066667 1.22-.56v2.18c0 .4133333-.0266667.7133333-.08.9s-.1533333.3133333-.3.38-.3866667.1-.72.1c-.0266667 0-.04.04-.04.12s.0133333.12.04.12c.3333333 0 .5933333-.0066667.78-.02l1.06-.02 1.02.02c.1733333.0133333.4133333.02.72.02.0266667 0 .04-.04.04-.12s-.0133333-.12-.04-.12c-.3066667 0-.5366667-.0366667-.69-.11s-.2633333-.2066667-.33-.4-.1-.4833333-.1-.87v-4.48c0-.4.03-.6933333.09-.88s.1666667-.3166667.32-.39.3833333-.11.69-.11c.0266667 0 .04-.04.04-.12s-.0133333-.12-.04-.12c-.3066667 0-.5466667.0066667-.72.02l-1 .02c-.2933333 0-.62-.02-.98-.06-.4266667-.0266667-.7133333-.04-.86-.04-.8533333 0-1.53.1866667-2.03.56s-.75.88-.75 1.52c0 .5466667.1933333.9833333.58 1.31s1.0333333.53 1.94.61c-.9733333.1733333-1.72.76-2.24 1.76-.04.08-.1366667.2666667-.29.56s-.3466667.57-.58.83-.55.39-.95.39c-.0266667 0-.04.04-.04.12s.0133333.12.04.12zm2.82-4.04c-.5733333 0-1.0133333-.1966667-1.32-.59s-.46-.9033333-.46-1.53c0-.44.11-.78.33-1.02s.55-.36.99-.36c.32 0 .5566667.04.71.12s.26.22.32.42.09.5133333.09.94v1.98c-.2933333.0266667-.5133333.04-.66.04zm5.82 7.24c.0266667 0 .0466667-.0066667.06-.02.4933333-.48.8633333-.9566667 1.11-1.43s.37-.99.37-1.55c0-.5866667-.12-1.04-.36-1.36s-.5666667-.48-.98-.48c-.3333333 0-.59.0766667-.77.23s-.27.3766667-.27.67c0 .2666667.0766667.4833333.23.65s.3633333.25.63.25c.32 0 .54-.1.66-.3.1333333.1733333.2.4466667.2.82 0 .9066667-.3266667 1.6933333-.98 2.36-.0266667.0266667-.0266667.06 0 .1s.06.06.1.06zm13.86-3.12c.8133333 0 1.54-.1633333 2.18-.49s1.1366667-.7766667 1.49-1.35.53-1.2266667.53-1.96c0-1.16-.4266667-2.0066667-1.28-2.54s-1.9866667-.8-3.4-.8c-.48 0-1.02.0333333-1.62.1v-3.8c0-.36.04-.63333333.12-.82s.22-.31666667.42-.39.5066667-.11.92-.11h1.04c.6666667 0 1.23.22666667 1.69.68s.77 1.1.93 1.94c.0133333.04.0566667.05666667.13.05s.11-.03.11-.07l-.24-2.7c0-.13333333-.0166667-.22-.05-.26s-.11-.06-.23-.06h-8.04c-.0266667 0-.04.04-.04.12s.0133333.12.04.12c.48 0 .83.03666667 1.05.11s.37.20333333.45.39.12.48.12.88v9.26c0 .4-.04.6966667-.12.89s-.2333333.3233333-.46.39-.58.1-1.06.1c-.04 0-.06.04-.06.12s.02.12.06.12c.4266667 0 .7666667-.0066667 1.02-.02l1.4-.02c.3333333 0 .64.0066667.92.02s.52.0266667.72.04c.48.04.9.06 1.26.06zm-.38-.4c-.68 0-1.1366667-.1066667-1.37-.32s-.35-.54-.35-.98v-4.9c.3333333-.0533333.6933333-.08 1.08-.08 1.1333333 0 2.0033333.2666667 2.61.8s.91 1.4.91 2.6c0 .96-.23 1.68-.69 2.16s-1.19.72-2.19.72zm11.48.58c1.08 0 1.9-.23 2.46-.69s.84-1.1033333.84-1.93c0-.7333333-.2333333-1.28-.7-1.64s-1.1866667-.54-2.16-.54c-.6933333 0-1.3066667.08-1.84.24v-1.76c0-.5733333.0233333-.9533333.07-1.14s.15-.28.31-.28c.0266667 0 .04-.04.04-.12s-.0133333-.12-.04-.12l-1.14.02c-.24.0133333-.5466667.02-.92.02-.6933333 0-1.2-.0233333-1.52-.07s-.48-.1633333-.48-.35c0-.06666667-.04-.1-.12-.1s-.12.03333333-.12.1l.02 2.64c0 .0266667.04.04.12.04s.12-.0133333.12-.04c.0666667-.56.2533333-1.0066667.56-1.34s.6466667-.5 1.02-.5c.2266667 0 .39.03.49.09s.1633333.17.19.33.04.42.04.78v4.42c0 .64.2366667 1.1233333.71 1.45s1.1566667.49 2.05.49zm.28-.28c-1.12 0-1.68-.72-1.68-2.16v-1.8c.36-.12.74-.18 1.14-.18 1.3733333 0 2.06.7466667 2.06 2.24 0 1.2666667-.5066667 1.9-1.52 1.9zm12.56.02c.0666667 0 .1-.04.1-.12s-.0333333-.12-.1-.12c-.2933333 0-.5333333-.0633333-.72-.19s-.3733333-.35-.56-.67-.46-.8666667-.82-1.64l-2.48-5.28c-.0133333-.05333333-.05-.08-.11-.08s-.1033333.02666667-.13.08l-2.3 5.38c-.4133333.9333333-.7533333 1.5666667-1.02 1.9s-.52.5-.76.5c-.0666667 0-.1.04-.1.12s.0333333.12.1.12c.1866667 0 .4-.0133333.64-.04.2666667-.0266667.5333333-.04.8-.04.24 0 .5066667.0133333.8.04.24.0266667.4333333.04.58.04.0666667 0 .1-.04.1-.12s-.0333333-.12-.1-.12c-.6266667 0-.94-.2866667-.94-.86 0-.3466667.12-.8.36-1.36l1.46-3.44 1.98 4.22c.1733333.3466667.26.6333333.26.86 0 .3866667-.2666667.58-.8.58-.0533333 0-.08.04-.08.12s.0266667.12.08.12c.1733333 0 .46-.0133333.86-.04s.6933333-.04.88-.04c.2266667 0 .5666667.0133333 1.02.04s.7866667.04 1 .04zm3.52.2c.6266667 0 1.22-.15 1.78-.45s1.02-.7366667 1.38-1.31c.026667-.04.026667-.08 0-.12s-.06-.06-.1-.06-.066667.0133333-.08.04c-.253333.3733333-.556667.6533333-.91.84s-.723333.28-1.11.28c-.5066667 0-.9433333-.1466667-1.31-.44s-.55-.68-.55-1.16c0-.4666667.1366667-.83.41-1.09s.7033333-.55 1.29-.87c.653333-.36 1.13-.69 1.43-.99s.45-.71.45-1.23c0-.5066667-.153333-.9033333-.46-1.19s-.76-.43-1.36-.43c-.28 0-.53.0266667-.75.08s-.4566667.1333333-.71.24c-.32.1066667-.5266667.16-.62.16-.2133333 0-.32-.1333333-.32-.4 0-.08.0066667-.14666667.02-.2.0133333-.01333333.0033333-.03-.03-.05s-.07-.03-.11-.03c-.0533333 0-.08.01333333-.08.04l-.64 2.66c-.0133333.0533333.04.08.16.08.04 0 .0666667-.0066667.08-.02.1866667-.6133333.4766667-1.1133333.87-1.5s.8166667-.58 1.27-.58c.36 0 .64.1266667.84.38s.3.6066667.3 1.06c0 .52-.1466667.95-.44 1.29s-.7333333.67-1.32.99c-.6.3466667-1.04.6666667-1.32.96s-.42.6733333-.42 1.14c0 .64.2366667 1.1133333.71 1.42s1.0233333.46 1.65.46zm10.78.02c.04 0 .073333-.0066667.1-.02l2.46-1.2c.04-.0133333.05-.0533333.03-.12s-.05-.1-.09-.1l-.04.02c-.48.1733333-.806667.26-.98.26-.24 0-.41-.0933333-.51-.28s-.15-.4933333-.15-.92v-5.72c0-.0133333-.016667-.03-.05-.05s-.063333-.03-.09-.03-.046667.0066667-.06.02c-.146667.2133333-.353333.3866667-.62.52-.586667-.3866667-1.233333-.58-1.94-.58-.733333 0-1.45.19-2.15.57s-1.273333.93-1.72 1.65-.67 1.56-.67 2.52c0 1.0933333.28 1.9433333.84 2.55s1.253333.91 2.08.91c.586667 0 1.12-.14 1.6-.42s.953333-.66 1.42-1.14c.026667.4533333.096667.8266667.21 1.12s.223333.44.33.44zm-2.78-.8c-.666667 0-1.19-.2966667-1.57-.89s-.57-1.39-.57-2.39c0-1.0933333.226667-1.9866667.68-2.68s1.053333-1.04 1.8-1.04c.52 0 .966667.1666667 1.34.5s.56.7466667.56 1.24v4.16c-.786667.7333333-1.533333 1.1-2.24 1.1zm6.2 6.08c.333333 0 .593333-.0066667.78-.02l1.12-.02 1.5.02c.266667.0133333.633333.02 1.1.02.04 0 .06-.04.06-.12s-.02-.12-.06-.12c-.56 0-.973333-.0366667-1.24-.11s-.446667-.2033333-.54-.39-.14-.48-.14-.88v-4.02c.333333.1466667.65.25.95.31s.643333.09 1.03.09c.666667 0 1.333333-.16 2-.48s1.223333-.8233333 1.67-1.51.67-1.5433333.67-2.57c0-.7466667-.14-1.4-.42-1.96s-.656667-.9866667-1.13-1.28-.99-.44-1.55-.44c-1.093333 0-2.166667.5266667-3.22 1.58-.026667-.4666667-.103333-.8333333-.23-1.1s-.27-.4-.43-.4l-.12.04-2.42 1.16c-.053333.0133333-.063333.0533333-.03.12s.076667.1.13.1h.02c.426667-.2.766667-.3 1.02-.3s.433333.1033333.54.31.16.5366667.16.99v9.36c0 .4-.03.6933333-.09.88s-.176667.3166667-.35.39-.433333.11-.78.11c-.04 0-.06.04-.06.12s.02.12.06.12zm5.1-5.68c-.56 0-1.033333-.1-1.42-.3s-.753333-.4933333-1.1-.88v-4.66c.36-.3466667.716667-.6133333 1.07-.8s.743333-.28 1.17-.28c.746667 0 1.36.2966667 1.84.89s.72 1.4366667.72 2.53c0 1.12-.206667 1.9833333-.62 2.59s-.966667.91-1.66.91zm12.04.4c.04 0 .073333-.0066667.1-.02l2.48-1.18c.04-.0266667.046667-.07.02-.13s-.066667-.09-.12-.09h-.02c-.44.1866667-.766667.28-.98.28-.24 0-.41-.1-.51-.3s-.15-.5266667-.15-.98v-5.5c0-.0533333-.026667-.1-.08-.14s-.106667-.06-.16-.06l-.08.02-2.36 1.1c-.04.0133333-.053333.0533333-.04.12s.04.1.08.1h.04c.253333-.1066667.466667-.16.64-.16.213333 0 .366667.11.46.33s.14.5833333.14 1.09v3.46c-.32.3333333-.68.5933333-1.08.78s-.786667.28-1.16.28c-1.12 0-1.68-.7533333-1.68-2.26v-4.66c0-.0533333-.026667-.1-.08-.14s-.106667-.06-.16-.06l-.08.02-2.36 1.1c-.04.0133333-.05.0533333-.03.12s.05.1.09.1h.04c.226667-.1066667.433333-.16.62-.16.213333 0 .366667.11.46.33s.14.5833333.14 1.09v3.02c0 .7733333.196667 1.3766667.59 1.81s.93.65 1.61.65c1.066667 0 2.093333-.5533333 3.08-1.66 0 .5066667.06.9166667.18 1.23s.24.47.36.47zm4.72-.22c.146667 0 .283333-.0933333.41-.28s.37-.6333333.73-1.34c.386667-.76.76-1.3 1.12-1.62s.766667-.5066667 1.22-.56v2.18c0 .4133333-.026667.7133333-.08.9s-.153333.3133333-.3.38-.386667.1-.72.1c-.026667 0-.04.04-.04.12s.013333.12.04.12c.333333 0 .593333-.0066667.78-.02l1.06-.02 1.02.02c.173333.0133333.413333.02.72.02.026667 0 .04-.04.04-.12s-.013333-.12-.04-.12c-.306667 0-.536667-.0366667-.69-.11s-.263333-.2066667-.33-.4-.1-.4833333-.1-.87v-4.48c0-.4.03-.6933333.09-.88s.166667-.3166667.32-.39.383333-.11.69-.11c.026667 0 .04-.04.04-.12s-.013333-.12-.04-.12c-.306667 0-.546667.0066667-.72.02l-1 .02c-.293333 0-.62-.02-.98-.06-.426667-.0266667-.713333-.04-.86-.04-.853333 0-1.53.1866667-2.03.56s-.75.88-.75 1.52c0 .5466667.193333.9833333.58 1.31s1.033333.53 1.94.61c-.973333.1733333-1.72.76-2.24 1.76-.04.08-.136667.2666667-.29.56s-.346667.57-.58.83-.55.39-.95.39c-.026667 0-.04.04-.04.12s.013333.12.04.12zm2.82-4.04c-.573333 0-1.013333-.1966667-1.32-.59s-.46-.9033333-.46-1.53c0-.44.11-.78.33-1.02s.55-.36.99-.36c.32 0 .556667.04.71.12s.26.22.32.42.09.5133333.09.94v1.98c-.293333.0266667-.513333.04-.66.04zm5.82 7.24c.026667 0 .046667-.0066667.06-.02.493333-.48.863333-.9566667 1.11-1.43s.37-.99.37-1.55c0-.5866667-.12-1.04-.36-1.36s-.566667-.48-.98-.48c-.333333 0-.59.0766667-.77.23s-.27.3766667-.27.67c0 .2666667.076667.4833333.23.65s.363333.25.63.25c.32 0 .54-.1.66-.3.133333.1733333.2.4466667.2.82 0 .9066667-.326667 1.6933333-.98 2.36-.026667.0266667-.026667.06 0 .1s.06.06.1.06zm8.46-3.2c.44 0 .786667-.0066667 1.04-.02l1.38-.02 1.74.02c.306667.0133333.733333.02 1.28.02.04 0 .06-.04.06-.12s-.02-.12-.06-.12c-.666667 0-1.15-.04-1.45-.12s-.503333-.2166667-.61-.41-.16-.5033333-.16-.93v-9.14c0-.41333333.04-.71666667.12-.91s.216667-.32.41-.38.49-.09.89-.09c.88 0 1.586667.29666667 2.12.89s.8 1.41666667.8 2.47c0 1.08-.273333 1.9066667-.82 2.48s-1.213333.86-2 .86c-.266667 0-.506667-.0266667-.72-.08-.026667-.0133333-.05 0-.07.04s-.03.08-.03.12c0 .0666667.02.1.06.1.253333.0666667.573333.1.96.1.72 0 1.416667-.1466667 2.09-.44s1.226667-.74 1.66-1.34.65-1.33333333.65-2.2c0-1.12-.38-1.95666667-1.14-2.51s-1.766667-.83-3.02-.83c-.253333 0-.55.01-.89.03s-.59.03-.75.03c-.44.04-.82.06-1.14.06-.346667 0-.8-.01333333-1.36-.04l-1.04-.02c-.026667 0-.04.04-.04.12s.013333.12.04.12c.48 0 .83.03666667 1.05.11s.37.20333333.45.39.12.48.12.88v9.26c0 .4-.04.6966667-.12.89s-.23.3233333-.45.39-.57.1-1.05.1c-.026667 0-.04.04-.04.12s.013333.12.04.12zm14.42.24c.56 0 1.083333-.0966667 1.57-.29s.963333-.5033333 1.43-.93c.026667-.04.023333-.0833333-.01-.13s-.07-.07-.11-.07h-.02c-.586667.4133333-1.266667.62-2.04.62-.973333 0-1.736667-.3533333-2.29-1.06s-.83-1.6333333-.83-2.78c0-.3866667.026667-.7133333.08-.98l3.94-.04h.96c.146667 0 .22-.1666667.22-.5 0-.6133333-.206667-1.0966667-.62-1.45s-.993333-.53-1.74-.53c-.813333 0-1.556667.19-2.23.57s-1.2.9-1.58 1.56-.57 1.3833333-.57 2.17c0 .68.15 1.3133333.45 1.9s.74 1.0566667 1.32 1.41 1.27.53 2.07.53zm-2.16-5.94c.146667-.5733333.393333-1.0166667.74-1.33s.766667-.47 1.26-.47c.44 0 .786667.1533333 1.04.46s.386667.7266667.4 1.26zm9.42 11.32c.84 0 1.59-.1766667 2.25-.53s1.17-.8366667 1.53-1.45.54-1.3066667.54-2.08c0-.5866667-.126667-1.14-.38-1.66s-.623333-.9466667-1.11-1.28-1.063333-.5133333-1.73-.54c.76-.28 1.36-.73 1.8-1.35s.66-1.2966667.66-2.03c0-.76-.253333-1.3966667-.76-1.91s-1.213333-.77-2.12-.77c-.346667 0-.646667.0266667-.9.08s-.533333.1333333-.84.24c-.28.1066667-.5.16-.66.16-.08 0-.153333-.03-.22-.09s-.1-.1566667-.1-.29c0-.0933333.006667-.16666667.02-.22.013333-.01333333 0-.03-.04-.05s-.08-.03-.12-.03c-.053333 0-.08.01333333-.08.04l-.7 3.12c-.013333.0533333.04.08.16.08.04 0 .066667-.0066667.08-.02.293333-.84.69-1.4866667 1.19-1.94s1.036667-.68 1.61-.68c1.24 0 1.86.9 1.86 2.7 0 .9466667-.226667 1.6766667-.68 2.19s-1.233333.77-2.34.77c-.08 0-.113333.04-.1.12s.046667.12.1.12c2.466667 0 3.7 1.1666667 3.7 3.5 0 .9733333-.16 1.7933333-.48 2.46s-.826667 1-1.52 1c-.466667 0-.823333-.0966667-1.07-.29s-.503333-.4766667-.77-.85c-.173333-.28-.34-.49-.5-.63s-.366667-.21-.62-.21c-.2 0-.373333.0633333-.52.19s-.22.3166667-.22.57c0 .4533333.29.8266667.87 1.12s1.316667.44 2.21.44zm12.18-5.4c.04 0 .073333-.0066667.1-.02l2.48-1.18c.04-.0266667.046667-.07.02-.13s-.066667-.09-.12-.09h-.02c-.44.1866667-.766667.28-.98.28-.24 0-.41-.1-.51-.3s-.15-.5266667-.15-.98v-5.5c0-.0533333-.026667-.1-.08-.14s-.106667-.06-.16-.06l-.08.02-2.36 1.1c-.04.0133333-.053333.0533333-.04.12s.04.1.08.1h.04c.253333-.1066667.466667-.16.64-.16.213333 0 .366667.11.46.33s.14.5833333.14 1.09v3.46c-.32.3333333-.68.5933333-1.08.78s-.786667.28-1.16.28c-1.12 0-1.68-.7533333-1.68-2.26v-4.66c0-.0533333-.026667-.1-.08-.14s-.106667-.06-.16-.06l-.08.02-2.36 1.1c-.04.0133333-.05.0533333-.03.12s.05.1.09.1h.04c.226667-.1066667.433333-.16.62-.16.213333 0 .366667.11.46.33s.14.5833333.14 1.09v3.02c0 .7733333.196667 1.3766667.59 1.81s.93.65 1.61.65c1.066667 0 2.093333-.5533333 3.08-1.66 0 .5066667.06.9166667.18 1.23s.24.47.36.47zm6.74 5.4c1.28 0 2.28-.3866667 3-1.16s1.08-1.7933333 1.08-3.06v-9.26c0-.0133333-.016667-.03-.05-.05s-.063333-.03-.09-.03-.046667.0066667-.06.02c-.146667.2133333-.353333.3866667-.62.52-.586667-.3866667-1.233333-.58-1.94-.58-.733333 0-1.45.19-2.15.57s-1.273333.93-1.72 1.65-.67 1.56-.67 2.52c0 1.0933333.28 1.9433333.84 2.55s1.253333.91 2.08.91c.573333 0 1.103333-.14 1.59-.42s.963333-.66 1.43-1.14v3.22c0 1.2666667-.173333 2.1366667-.52 2.61s-.82.71-1.42.71c-.48 0-.84-.09-1.08-.27s-.48-.45-.72-.81c-.16-.2666667-.313333-.4633333-.46-.59s-.34-.19-.58-.19c-.2 0-.373333.0633333-.52.19s-.22.3233333-.22.59c0 .4533333.26.8166667.78 1.09s1.193333.41 2.02.41zm.48-6.2c-.666667 0-1.19-.2966667-1.57-.89s-.57-1.39-.57-2.39c0-1.0933333.226667-1.9866667.68-2.68s1.053333-1.04 1.8-1.04c.52 0 .966667.1666667 1.34.5s.56.7466667.56 1.24v4.16c-.786667.7333333-1.533333 1.1-2.24 1.1zm9.68.82c.56 0 1.083333-.0966667 1.57-.29s.963333-.5033333 1.43-.93c.026667-.04.023333-.0833333-.01-.13s-.07-.07-.11-.07h-.02c-.586667.4133333-1.266667.62-2.04.62-.973333 0-1.736667-.3533333-2.29-1.06s-.83-1.6333333-.83-2.78c0-.3866667.026667-.7133333.08-.98l3.94-.04h.96c.146667 0 .22-.1666667.22-.5 0-.6133333-.206667-1.0966667-.62-1.45s-.993333-.53-1.74-.53c-.813333 0-1.556667.19-2.23.57s-1.2.9-1.58 1.56-.57 1.3833333-.57 2.17c0 .68.15 1.3133333.45 1.9s.74 1.0566667 1.32 1.41 1.27.53 2.07.53zm-2.16-5.94c.146667-.5733333.393333-1.0166667.74-1.33s.766667-.47 1.26-.47c.44 0 .786667.1533333 1.04.46s.386667.7266667.4 1.26zm6.68 5.7c.36 0 .64-.0066667.84-.02l1.08-.02 1.04.02c.2.0133333.48.02.84.02.026667 0 .04-.04.04-.12s-.013333-.12-.04-.12c-.36 0-.623333-.0333333-.79-.1s-.28-.1966667-.34-.39-.09-.49-.09-.89v-2.04h4.02v2.04c0 .4-.03.6966667-.09.89s-.173333.3233333-.34.39-.43.1-.79.1c-.04 0-.06.04-.06.12s.02.12.06.12c.346667 0 .62-.0066667.82-.02l1.1-.02 1.04.02c.2.0133333.48.02.84.02.026667 0 .04-.04.04-.12s-.013333-.12-.04-.12c-.36 0-.623333-.0333333-.79-.1s-.28-.1966667-.34-.39-.09-.49-.09-.89v-6.08c0-.0533333-.026667-.1-.08-.14s-.106667-.06-.16-.06l-.08.02-2.36 1.1c-.04.0133333-.05.0533333-.03.12s.05.1.09.1h.04c.28-.1066667.486667-.16.62-.16.213333 0 .366667.11.46.33s.14.5833333.14 1.09v1.24h-4.02v-3.64c0-.0533333-.026667-.1-.08-.14s-.106667-.06-.16-.06l-.08.02-2.36 1.1c-.04.0133333-.05.0533333-.03.12s.05.1.09.1h.04c.28-.1066667.486667-.16.62-.16.213333 0 .366667.11.46.33s.14.5833333.14 1.09v3.68c0 .4-.03.6966667-.09.89s-.173333.3233333-.34.39-.43.1-.79.1c-.04 0-.06.04-.06.12s.02.12.06.12zm19.24 2.78c.08 0 .12-.0333333.12-.1 0-.76.033333-1.4733333.1-2.14.026667-.2933333.04-.4733333.04-.54 0-.12-.01-.19-.03-.21s-.076667-.03-.17-.03c-.453333 0-.78-.1566667-.98-.47s-.3-.8233333-.3-1.53v-5.46c0-.0533333-.026667-.1-.08-.14s-.106667-.06-.16-.06l-.08.02-2.36 1.1c-.04.0133333-.053333.0533333-.04.12s.04.1.08.1h.04c.253333-.1066667.466667-.16.64-.16.213333 0 .366667.11.46.33s.14.5833333.14 1.09v3.46c-.32.3333333-.68.5933333-1.08.78s-.786667.28-1.16.28c-1.12 0-1.68-.7533333-1.68-2.26v-4.66c0-.0533333-.026667-.1-.08-.14s-.106667-.06-.16-.06l-.08.02-2.36 1.1c-.04.0133333-.05.0533333-.03.12s.05.1.09.1h.04c.226667-.1066667.433333-.16.62-.16.213333 0 .366667.11.46.33s.14.5833333.14 1.09v3.02c0 .7733333.196667 1.3766667.59 1.81s.93.65 1.61.65c1.066667 0 2.093333-.5533333 3.08-1.66 0 .6.013333.9966667.04 1.19s.093333.29.2.29c.706667 0 1.253333.21 1.64.63s.58 1.1033333.58 2.05c0 .0666667.04.1.12.1zm8-2.56c.04 0 .073333-.0066667.1-.02l2.48-1.18c.04-.0266667.046667-.07.02-.13s-.066667-.09-.12-.09h-.02c-.44.1866667-.766667.28-.98.28-.24 0-.41-.1-.51-.3s-.15-.5266667-.15-.98v-5.5c0-.0533333-.026667-.1-.08-.14s-.106667-.06-.16-.06l-.08.02-2.36 1.1c-.04.0133333-.053333.0533333-.04.12s.04.1.08.1h.04c.253333-.1066667.466667-.16.64-.16.213333 0 .366667.11.46.33s.14.5833333.14 1.09v3.46c-.32.3333333-.68.5933333-1.08.78s-.786667.28-1.16.28c-1.12 0-1.68-.7533333-1.68-2.26v-4.66c0-.0533333-.026667-.1-.08-.14s-.106667-.06-.16-.06l-.08.02-2.36 1.1c-.04.0133333-.05.0533333-.03.12s.05.1.09.1h.04c.226667-.1066667.433333-.16.62-.16.213333 0 .366667.11.46.33s.14.5833333.14 1.09v3.02c0 .7733333.196667 1.3766667.59 1.81s.93.65 1.61.65c1.066667 0 2.093333-.5533333 3.08-1.66 0 .5066667.06.9166667.18 1.23s.24.47.36.47zm4.72-.22c.146667 0 .283333-.0933333.41-.28s.37-.6333333.73-1.34c.386667-.76.76-1.3 1.12-1.62s.766667-.5066667 1.22-.56v2.18c0 .4133333-.026667.7133333-.08.9s-.153333.3133333-.3.38-.386667.1-.72.1c-.026667 0-.04.04-.04.12s.013333.12.04.12c.333333 0 .593333-.0066667.78-.02l1.06-.02 1.02.02c.173333.0133333.413333.02.72.02.026667 0 .04-.04.04-.12s-.013333-.12-.04-.12c-.306667 0-.536667-.0366667-.69-.11s-.263333-.2066667-.33-.4-.1-.4833333-.1-.87v-4.48c0-.4.03-.6933333.09-.88s.166667-.3166667.32-.39.383333-.11.69-.11c.026667 0 .04-.04.04-.12s-.013333-.12-.04-.12c-.306667 0-.546667.0066667-.72.02l-1 .02c-.293333 0-.62-.02-.98-.06-.426667-.0266667-.713333-.04-.86-.04-.853333 0-1.53.1866667-2.03.56s-.75.88-.75 1.52c0 .5466667.193333.9833333.58 1.31s1.033333.53 1.94.61c-.973333.1733333-1.72.76-2.24 1.76-.04.08-.136667.2666667-.29.56s-.346667.57-.58.83-.55.39-.95.39c-.026667 0-.04.04-.04.12s.013333.12.04.12zm2.82-4.04c-.573333 0-1.013333-.1966667-1.32-.59s-.46-.9033333-.46-1.53c0-.44.11-.78.33-1.02s.55-.36.99-.36c.32 0 .556667.04.71.12s.26.22.32.42.09.5133333.09.94v1.98c-.293333.0266667-.513333.04-.66.04zm10.6-4.02c.333333 0 .59-.07666667.77-.23s.27-.37666667.27-.67c0-.26666667-.076667-.48333333-.23-.65s-.363333-.25-.63-.25c-.32 0-.54.1-.66.3-.133333-.17333333-.2-.44666667-.2-.82 0-.90666667.326667-1.69333333.98-2.36.026667-.02666667.026667-.06 0-.1s-.06-.06-.1-.06c-.026667 0-.046667.00666667-.06.02-.493333.48-.863333.95666667-1.11 1.43s-.37.99-.37 1.55c0 .58666667.12 1.04.36 1.36s.566667.48.98.48zm3.12 0c.333333 0 .59-.07666667.77-.23s.27-.37666667.27-.67c0-.26666667-.076667-.48333333-.23-.65s-.363333-.25-.63-.25c-.32 0-.54.1-.66.3-.133333-.17333333-.2-.44666667-.2-.82 0-.90666667.326667-1.69333333.98-2.36.026667-.02666667.026667-.06 0-.1s-.06-.06-.1-.06c-.026667 0-.046667.00666667-.06.02-.493333.48-.863333.95666667-1.11 1.43s-.37.99-.37 1.55c0 .58666667.12 1.04.36 1.36s.566667.48.98.48zm6.08 8.06c.48 0 .853333-.0066667 1.12-.02l1.54-.02 1.58.02c.266667.0133333.633333.02 1.1.02.026667 0 .04-.04.04-.12s-.013333-.12-.04-.12c-.56 0-.966667-.0333333-1.22-.1s-.423333-.1933333-.51-.38-.13-.4866667-.13-.9v-9.22c0-.38666667.04-.66333333.12-.83s.226667-.28.44-.34.566667-.09 1.06-.09c.866667 0 1.52.22666667 1.96.68s.706667 1.19333333.8 2.22c0 .02666667.036667.04.11.04s.11-.01333333.11-.04c0-.50666667.023333-1.17333333.07-2s.09-1.42666667.13-1.8c0-.05333333-.036667-.08-.11-.08s-.116667.02666667-.13.08c-.066667.2-.213333.33333333-.44.4s-.586667.1-1.08.1l-1.36.02c-.88.02666667-1.713333.04-2.5.04-1.546667 0-2.886667-.02-4.02-.06-.733333 0-1.1-.14666667-1.1-.44 0-.06666667-.04-.1-.12-.1s-.12.03333333-.12.1c0 .42666667-.033333 1.06-.1 1.9s-.126667 1.45333333-.18 1.84c0 .02666667.036667.04.11.04s.116667-.01333333.13-.04c.226667-1.01333333.573333-1.75 1.04-2.21s1.113333-.69 1.94-.69c.493333 0 .846667.02666667 1.06.08s.36.16333333.44.33.12.43666667.12.81v9.26c0 .4-.046667.6966667-.14.89s-.266667.3233333-.52.39-.653333.1-1.2.1c-.04 0-.06.04-.06.12s.02.12.06.12zm12.1.24c.56 0 1.083333-.0966667 1.57-.29s.963333-.5033333 1.43-.93c.026667-.04.023333-.0833333-.01-.13s-.07-.07-.11-.07h-.02c-.586667.4133333-1.266667.62-2.04.62-.973333 0-1.736667-.3533333-2.29-1.06s-.83-1.6333333-.83-2.78c0-.3866667.026667-.7133333.08-.98l3.94-.04h.96c.146667 0 .22-.1666667.22-.5 0-.6133333-.206667-1.0966667-.62-1.45s-.993333-.53-1.74-.53c-.813333 0-1.556667.19-2.23.57s-1.2.9-1.58 1.56-.57 1.3833333-.57 2.17c0 .68.15 1.3133333.45 1.9s.74 1.0566667 1.32 1.41 1.27.53 2.07.53zm-2.16-5.94c.146667-.5733333.393333-1.0166667.74-1.33s.766667-.47 1.26-.47c.44 0 .786667.1533333 1.04.46s.386667.7266667.4 1.26zm6.64 11.2c.333333 0 .593333-.0066667.78-.02l1.12-.02 1.5.02c.266667.0133333.633333.02 1.1.02.04 0 .06-.04.06-.12s-.02-.12-.06-.12c-.56 0-.973333-.0366667-1.24-.11s-.446667-.2033333-.54-.39-.14-.48-.14-.88v-4.02c.333333.1466667.65.25.95.31s.643333.09 1.03.09c.666667 0 1.333333-.16 2-.48s1.223333-.8233333 1.67-1.51.67-1.5433333.67-2.57c0-.7466667-.14-1.4-.42-1.96s-.656667-.9866667-1.13-1.28-.99-.44-1.55-.44c-1.093333 0-2.166667.5266667-3.22 1.58-.026667-.4666667-.103333-.8333333-.23-1.1s-.27-.4-.43-.4l-.12.04-2.42 1.16c-.053333.0133333-.063333.0533333-.03.12s.076667.1.13.1h.02c.426667-.2.766667-.3 1.02-.3s.433333.1033333.54.31.16.5366667.16.99v9.36c0 .4-.03.6933333-.09.88s-.176667.3166667-.35.39-.433333.11-.78.11c-.04 0-.06.04-.06.12s.02.12.06.12zm5.1-5.68c-.56 0-1.033333-.1-1.42-.3s-.753333-.4933333-1.1-.88v-4.66c.36-.3466667.716667-.6133333 1.07-.8s.743333-.28 1.17-.28c.746667 0 1.36.2966667 1.84.89s.72 1.4366667.72 2.53c0 1.12-.206667 1.9833333-.62 2.59s-.966667.91-1.66.91zm11.9.4c.04 0 .073333-.0066667.1-.02l2.46-1.2c.04-.0133333.05-.0533333.03-.12s-.05-.1-.09-.1l-.04.02c-.48.1733333-.806667.26-.98.26-.24 0-.41-.0933333-.51-.28s-.15-.4933333-.15-.92v-5.72c0-.0133333-.016667-.03-.05-.05s-.063333-.03-.09-.03-.046667.0066667-.06.02c-.146667.2133333-.353333.3866667-.62.52-.586667-.3866667-1.233333-.58-1.94-.58-.733333 0-1.45.19-2.15.57s-1.273333.93-1.72 1.65-.67 1.56-.67 2.52c0 1.0933333.28 1.9433333.84 2.55s1.253333.91 2.08.91c.586667 0 1.12-.14 1.6-.42s.953333-.66 1.42-1.14c.026667.4533333.096667.8266667.21 1.12s.223333.44.33.44zm-2.78-.8c-.666667 0-1.19-.2966667-1.57-.89s-.57-1.39-.57-2.39c0-1.0933333.226667-1.9866667.68-2.68s1.053333-1.04 1.8-1.04c.52 0 .966667.1666667 1.34.5s.56.7466667.56 1.24v4.16c-.786667.7333333-1.533333 1.1-2.24 1.1zm6.14-7.18c.026667 0 .046667-.0066667.06-.02.493333-.48.863333-.95666667 1.11-1.43s.37-.99.37-1.55c0-.58666667-.12-1.04-.36-1.36s-.566667-.48-.98-.48c-.333333 0-.59.07666667-.77.23s-.27.37666667-.27.67c0 .26666667.076667.48333333.23.65s.363333.25.63.25c.32 0 .54-.1.66-.3.133333.17333333.2.44666667.2.82 0 .90666667-.326667 1.69333333-.98 2.36-.026667.0266667-.026667.06 0 .1s.06.06.1.06zm3.12 0c.026667 0 .046667-.0066667.06-.02.493333-.48.863333-.95666667 1.11-1.43s.37-.99.37-1.55c0-.58666667-.12-1.04-.36-1.36s-.566667-.48-.98-.48c-.333333 0-.59.07666667-.77.23s-.27.37666667-.27.67c0 .26666667.076667.48333333.23.65s.363333.25.63.25c.32 0 .54-.1.66-.3.133333.17333333.2.44666667.2.82 0 .90666667-.326667 1.69333333-.98 2.36-.026667.0266667-.026667.06 0 .1s.06.06.1.06z" fill="#021631" fill-rule="nonzero" transform="translate(112 4)"/><path d="m263.499893 56.668532c2.526293-3.3133191 7.57888-3.3133191 10.105173-1.2488404 2.526579 2.0644787 2.526579 6.1934362 0 10.3223936-1.768491 3.096718-6.31559 6.1934361-10.105173 8.2579148-3.789582-2.0644787-8.336682-5.1611968-10.105173-8.2579148-2.526293-4.1289574-2.526293-8.2579149 0-10.3223936s7.57888-2.0644787 10.105173 1.2488404z" fill="#fbdcdc" stroke="#a0b9b6"/></g></svg>