<svg height="70" width="296" xmlns="http://www.w3.org/2000/svg"><g fill="none" fill-rule="evenodd"><g fill="#a0b9b6"><path d="M1.593 4.183l-.008.111-.006 2.017-.023 2.395-.052 3.033-.085 4.27-.032 2.308-.008 1.277v1.2l.005.759.016 1.08.026 1.016.024.643.029.616.054.878.043.556.049.535.055.514.061.494.069.476.075.46.082.442.089.43.097.415.104.403.113.392.059.193.125.378.133.37.142.364.074.18.155.356.164.353.174.35.09.175.19.348.197.35.209.351.219.355.348.54c.04.061.08.122.122.183.813 1.217 1.813 2.434 3.043 3.708a4.093 4.093 0 006.075-.13c2.164-2.433 3.646-4.55 4.658-6.67l.263-.567.164-.369.154-.364.144-.362.136-.36.127-.361.119-.364.11-.368.102-.374.094-.381.086-.391.04-.2.075-.409.068-.423.061-.438.055-.456.047-.476.06-.753.033-.531.026-.557.03-.887.018-.955.007-1.028-.003-1.107-.019-1.61-.034-1.776-.06-2.475-.077-2.936-.054-2.693-.015-1.022-.011-1.113-.01-2.257c0-.854-1.225-.891-1.332-.111l-.007.111c0 .099-.162.207-.457.317l-.217.074-.122.036-.272.073-.15.036-.324.071-.356.07-.387.067-.204.032-.429.063-.454.058-.725.08-.773.068-.539.038-.838.045-.576.02c-.097.004-.195.006-.293.008l-.593.009h-.6l-.624-.01-.611-.018-.597-.026-.58-.035-.562-.042-.542-.048-.518-.053-.493-.06-.466-.063c-.075-.01-.15-.022-.222-.033l-.422-.069-.388-.072-.354-.074a8.842 8.842 0 01-.317-.076l-.278-.077-.237-.077c-.287-.102-.46-.204-.493-.298l-.006-.034c0-.854-1.226-.891-1.332-.111zM18.92 5.8l.027-.013.023 2.293.037 2.145.07 2.952.102 4.04.03 1.695.013 1.166.004 1.081-.006 1.003-.016.93-.017.582-.022.554-.027.528-.052.747-.042.47-.047.449-.054.43-.06.415-.067.399-.074.385-.04.188-.084.369-.092.36-.1.352a5.737 5.737 0 01-.052.174l-.11.344-.12.341-.127.34-.136.34-.144.343-.233.522-.167.356c-.951 1.994-2.363 4.011-4.455 6.364a2.758 2.758 0 01-4.098.09c-1.183-1.227-2.133-2.383-2.9-3.53l-.336-.515-.212-.337-.202-.335-.192-.333-.182-.331-.173-.333-.164-.334-.155-.337-.146-.341-.137-.347-.129-.353-.061-.18-.117-.366-.11-.375-.1-.387-.094-.398-.087-.413-.08-.426-.072-.443-.066-.46-.06-.479-.053-.498-.048-.519-.041-.541-.036-.565-.044-.893-.023-.628-.018-.656-.019-1.039-.009-1.108v-1.18l.02-2.144.049-2.883.071-3.494.028-1.655.026-2.058.01-1.532.027.012c1.594.694 4.467 1 7.986 1 3.518 0 6.391-.306 7.985-1z" fill-rule="nonzero"/><circle cx="11.5" cy="35.5" r="1"/><circle cx="7.5" cy="31.5" r="1"/><circle cx="14.5" cy="25.5" r="1"/><circle cx="9.5" cy="21.5" r="1"/><g fill-rule="nonzero"><path d="M8 24a2 2 0 100 4 2 2 0 000-4zm0 1a1 1 0 110 2 1 1 0 010-2zm5 4a2 2 0 100 4 2 2 0 000-4zm0 1a1 1 0 110 2 1 1 0 010-2zm-2.065 9.581a.67.67 0 01.662.571l.008.099v9.152a.67.67 0 01-1.333.1l-.007-.1v-9.152c0-.37.3-.67.67-.67zm0 16.047a.67.67 0 01.662.571l.008.1v8.151a.67.67 0 01-1.333.1l-.007-.1v-8.152c0-.37.3-.67.67-.67zM1.983 17.1c3.506-1.562 5.522-1.472 8.966-.206l.355.133c3.292 1.248 4.934 1.39 8.048.068a.67.67 0 01.524 1.234c-3.372 1.43-5.33 1.32-8.694.082l-.353-.132c-3.366-1.276-5.055-1.401-8.3.045a.67.67 0 01-.546-1.224zM1.585 4.294c0-1.76 2.819-2.836 6.267-3.23l.634-.063a28.41 28.41 0 014.898 0l.633.064c3.449.393 6.267 1.47 6.267 3.23a.67.67 0 01-1.333.098l-.007-.099c0-1.332-3.773-2.018-7.656-2.057h-.707c-3.765.038-7.427.684-7.645 1.938l-.01.12a.67.67 0 01-1.34 0z"/><path d="M10.969 64.18c-3.793 0-6.836.917-6.836 2.53 0 1.57 2.889 2.481 6.546 2.527l.29.002c3.793 0 6.835-.918 6.835-2.53s-3.042-2.53-6.835-2.53zm0 1.34c.73 0 1.43.043 2.07.116l.468.06c.228.033.448.069.656.107l.402.081c.258.056.495.116.708.178l.3.095c.563.19.891.392.891.552s-.328.362-.89.552l-.301.095c-.266.077-.57.152-.905.22l-.417.077c-.144.024-.292.047-.444.07l-.469.059-.49.05a18.29 18.29 0 01-.253.02l-.52.03a18.391 18.391 0 01-1.613 0l-.52-.03-.252-.02-.491-.05a16.56 16.56 0 01-.913-.13l-.416-.077a13.098 13.098 0 01-.197-.041l-.371-.087-.173-.045-.32-.093c-.65-.205-1.036-.426-1.036-.6 0-.214.584-.5 1.529-.738l.37-.087.403-.08c.138-.026.282-.051.43-.074l.457-.065c.703-.09 1.485-.146 2.307-.146zM21.292 47h-4.41c-1.035 0-2.288.473-2.941 1.051l-.708.683h-4.52l-.708-.63c-.654-.631-1.906-1.051-2.94-1.051H.652a.65.65 0 00-.653.63v6.938c0 .368.327.63.653.63h4.302l-2.559 2.47c-.218.21-.272.473-.163.736s.326.42.653.42h1.852v1.788c0 .262.163.525.435.63a.506.506 0 00.273.053.677.677 0 00.49-.21L11 56.25l5.064 4.888c.11.105.327.21.49.21.11 0 .164 0 .273-.053a.683.683 0 00.435-.63v-1.787h1.852c.272 0 .544-.158.653-.42s.055-.526-.163-.737l-2.56-2.47h4.303a.65.65 0 00.653-.63v-6.938c-.054-.368-.327-.683-.708-.683zm-8.495 5.571l-1.851 1.787-1.852-1.787v-2.47h3.703zm-7.733 1.366H1.307v-5.623h3.757c.708 0 1.634.368 1.96.683l.709.683v.789h-2.94a.65.65 0 00-.654.63c0 .316.326.631.653.631h2.94v.788l-.762.736c-.326.316-1.198.683-1.906.683zM6.1 59.035v-.84a.632.632 0 00-.218-.474.677.677 0 00-.49-.21H4.52l3.485-3.363.054-.053.436-.42 1.58 1.524zm10.455-1.471a.677.677 0 00-.49.21.632.632 0 00-.217.473v.84l-3.921-3.783 1.579-1.524.436.42.054.053 3.485 3.363h-.926zm-2.396-4.993v-.788H17.1a.65.65 0 00.653-.631c0-.315-.326-.63-.653-.63h-2.94v-.79l.707-.682c.327-.316 1.253-.684 1.96-.684h3.758v5.624h-3.757c-.708 0-1.58-.368-1.96-.683z"/></g></g><g fill="#a0b9b6" transform="translate(274)"><path d="M1.593 4.183l-.008.111-.006 2.017-.023 2.395-.052 3.033-.085 4.27-.032 2.308-.008 1.277v1.2l.005.759.016 1.08.026 1.016.024.643.029.616.054.878.043.556.049.535.055.514.061.494.069.476.075.46.082.442.089.43.097.415.104.403.113.392.059.193.125.378.133.37.142.364.074.18.155.356.164.353.174.35.09.175.19.348.197.35.209.351.219.355.348.54c.04.061.08.122.122.183.813 1.217 1.813 2.434 3.043 3.708a4.093 4.093 0 006.075-.13c2.164-2.433 3.646-4.55 4.658-6.67l.263-.567.164-.369.154-.364.144-.362.136-.36.127-.361.119-.364.11-.368.102-.374.094-.381.086-.391.04-.2.075-.409.068-.423.061-.438.055-.456.047-.476.06-.753.033-.531.026-.557.03-.887.018-.955.007-1.028-.003-1.107-.019-1.61-.034-1.776-.06-2.475-.077-2.936-.054-2.693-.015-1.022-.011-1.113-.01-2.257c0-.854-1.225-.891-1.332-.111l-.007.111c0 .099-.162.207-.457.317l-.217.074-.122.036-.272.073-.15.036-.324.071-.356.07-.387.067-.204.032-.429.063-.454.058-.725.08-.773.068-.539.038-.838.045-.576.02c-.097.004-.195.006-.293.008l-.593.009h-.6l-.624-.01-.611-.018-.597-.026-.58-.035-.562-.042-.542-.048-.518-.053-.493-.06-.466-.063c-.075-.01-.15-.022-.222-.033l-.422-.069-.388-.072-.354-.074a8.842 8.842 0 01-.317-.076l-.278-.077-.237-.077c-.287-.102-.46-.204-.493-.298l-.006-.034c0-.854-1.226-.891-1.332-.111zM18.92 5.8l.027-.013.023 2.293.037 2.145.07 2.952.102 4.04.03 1.695.013 1.166.004 1.081-.006 1.003-.016.93-.017.582-.022.554-.027.528-.052.747-.042.47-.047.449-.054.43-.06.415-.067.399-.074.385-.04.188-.084.369-.092.36-.1.352a5.737 5.737 0 01-.052.174l-.11.344-.12.341-.127.34-.136.34-.144.343-.233.522-.167.356c-.951 1.994-2.363 4.011-4.455 6.364a2.758 2.758 0 01-4.098.09c-1.183-1.227-2.133-2.383-2.9-3.53l-.336-.515-.212-.337-.202-.335-.192-.333-.182-.331-.173-.333-.164-.334-.155-.337-.146-.341-.137-.347-.129-.353-.061-.18-.117-.366-.11-.375-.1-.387-.094-.398-.087-.413-.08-.426-.072-.443-.066-.46-.06-.479-.053-.498-.048-.519-.041-.541-.036-.565-.044-.893-.023-.628-.018-.656-.019-1.039-.009-1.108v-1.18l.02-2.144.049-2.883.071-3.494.028-1.655.026-2.058.01-1.532.027.012c1.594.694 4.467 1 7.986 1 3.518 0 6.391-.306 7.985-1z" fill-rule="nonzero"/><circle cx="11.5" cy="35.5" r="1"/><circle cx="7.5" cy="31.5" r="1"/><circle cx="14.5" cy="25.5" r="1"/><circle cx="9.5" cy="21.5" r="1"/><g fill-rule="nonzero"><path d="M8 24a2 2 0 100 4 2 2 0 000-4zm0 1a1 1 0 110 2 1 1 0 010-2zm5 4a2 2 0 100 4 2 2 0 000-4zm0 1a1 1 0 110 2 1 1 0 010-2zm-2.065 9.581a.67.67 0 01.662.571l.008.099v9.152a.67.67 0 01-1.333.1l-.007-.1v-9.152c0-.37.3-.67.67-.67zm0 16.047a.67.67 0 01.662.571l.008.1v8.151a.67.67 0 01-1.333.1l-.007-.1v-8.152c0-.37.3-.67.67-.67zM1.983 17.1c3.506-1.562 5.522-1.472 8.966-.206l.355.133c3.292 1.248 4.934 1.39 8.048.068a.67.67 0 01.524 1.234c-3.372 1.43-5.33 1.32-8.694.082l-.353-.132c-3.366-1.276-5.055-1.401-8.3.045a.67.67 0 01-.546-1.224zM1.585 4.294c0-1.76 2.819-2.836 6.267-3.23l.634-.063a28.41 28.41 0 014.898 0l.633.064c3.449.393 6.267 1.47 6.267 3.23a.67.67 0 01-1.333.098l-.007-.099c0-1.332-3.773-2.018-7.656-2.057h-.707c-3.765.038-7.427.684-7.645 1.938l-.01.12a.67.67 0 01-1.34 0z"/><path d="M10.969 64.18c-3.793 0-6.836.917-6.836 2.53 0 1.57 2.889 2.481 6.546 2.527l.29.002c3.793 0 6.835-.918 6.835-2.53s-3.042-2.53-6.835-2.53zm0 1.34c.73 0 1.43.043 2.07.116l.468.06c.228.033.448.069.656.107l.402.081c.258.056.495.116.708.178l.3.095c.563.19.891.392.891.552s-.328.362-.89.552l-.301.095c-.266.077-.57.152-.905.22l-.417.077c-.144.024-.292.047-.444.07l-.469.059-.49.05a18.29 18.29 0 01-.253.02l-.52.03a18.391 18.391 0 01-1.613 0l-.52-.03-.252-.02-.491-.05a16.56 16.56 0 01-.913-.13l-.416-.077a13.098 13.098 0 01-.197-.041l-.371-.087-.173-.045-.32-.093c-.65-.205-1.036-.426-1.036-.6 0-.214.584-.5 1.529-.738l.37-.087.403-.08c.138-.026.282-.051.43-.074l.457-.065c.703-.09 1.485-.146 2.307-.146zM21.292 47h-4.41c-1.035 0-2.288.473-2.941 1.051l-.708.683h-4.52l-.708-.63c-.654-.631-1.906-1.051-2.94-1.051H.652a.65.65 0 00-.653.63v6.938c0 .368.327.63.653.63h4.302l-2.559 2.47c-.218.21-.272.473-.163.736s.326.42.653.42h1.852v1.788c0 .262.163.525.435.63a.506.506 0 00.273.053.677.677 0 00.49-.21L11 56.25l5.064 4.888c.11.105.327.21.49.21.11 0 .164 0 .273-.053a.683.683 0 00.435-.63v-1.787h1.852c.272 0 .544-.158.653-.42s.055-.526-.163-.737l-2.56-2.47h4.303a.65.65 0 00.653-.63v-6.938c-.054-.368-.327-.683-.708-.683zm-8.495 5.571l-1.851 1.787-1.852-1.787v-2.47h3.703zm-7.733 1.366H1.307v-5.623h3.757c.708 0 1.634.368 1.96.683l.709.683v.789h-2.94a.65.65 0 00-.654.63c0 .316.326.631.653.631h2.94v.788l-.762.736c-.326.316-1.198.683-1.906.683zM6.1 59.035v-.84a.632.632 0 00-.218-.474.677.677 0 00-.49-.21H4.52l3.485-3.363.054-.053.436-.42 1.58 1.524zm10.455-1.471a.677.677 0 00-.49.21.632.632 0 00-.217.473v.84l-3.921-3.783 1.579-1.524.436.42.054.053 3.485 3.363h-.926zm-2.396-4.993v-.788H17.1a.65.65 0 00.653-.631c0-.315-.326-.63-.653-.63h-2.94v-.79l.707-.682c.327-.316 1.253-.684 1.96-.684h3.758v5.624h-3.757c-.708 0-1.58-.368-1.96-.683z"/></g></g><path d="M147.5 45.135c2-2.65 6-2.65 8-1 2 1.652 2 4.956 0 8.259-1.4 2.477-5 4.954-8 6.606-3-1.652-6.6-4.129-8-6.606-2-3.303-2-6.607 0-8.258 2-1.652 6-1.652 8 .999z" fill="#fbdcdc" stroke="#a0b9b6" stroke-width=".8"/><path d="M122.5 50.5v1h-101v-1z" fill="#a0b9b6" fill-rule="nonzero"/><path d="M173.5 51h101" stroke="#a0b9b6"/><path d="M52.96 20.16c.501 0 .976-.12 1.424-.36s.816-.59 1.104-1.048c.021-.032.021-.064 0-.096s-.048-.048-.08-.048-.053.01-.064.032c-.203.299-.445.523-.728.672s-.579.224-.888.224c-.405 0-.755-.117-1.048-.352s-.44-.544-.44-.928c0-.373.11-.664.328-.872s.563-.44 1.032-.696c.523-.288.904-.552 1.144-.792s.36-.568.36-.984c0-.405-.123-.723-.368-.952s-.608-.344-1.088-.344c-.224 0-.424.021-.6.064s-.365.107-.568.192c-.256.085-.421.128-.496.128-.17 0-.256-.107-.256-.32 0-.064.005-.117.016-.16.01-.01.003-.024-.024-.04s-.056-.024-.088-.024c-.043 0-.064.01-.064.032l-.512 2.128c-.01.043.032.064.128.064.032 0 .053-.005.064-.016.15-.49.381-.89.696-1.2S52.597 14 52.96 14c.288 0 .512.101.672.304s.24.485.24.848c0 .416-.117.76-.352 1.032s-.587.536-1.056.792c-.48.277-.832.533-1.056.768s-.336.539-.336.912c0 .512.19.89.568 1.136s.819.368 1.32.368zm6.96 4.24c.032 0 .048-.032.048-.096s-.016-.096-.048-.096c-.448 0-.779-.03-.992-.088s-.357-.163-.432-.312-.112-.384-.112-.704v-3.216c.267.117.52.2.76.248s.515.072.824.072c.533 0 1.067-.128 1.6-.384s.979-.659 1.336-1.208.536-1.235.536-2.056c0-.597-.112-1.12-.336-1.568s-.525-.79-.904-1.024-.792-.352-1.24-.352c-.875 0-1.733.421-2.576 1.264-.021-.373-.083-.667-.184-.88s-.216-.32-.344-.32l-.096.032-1.936.928c-.043.01-.05.043-.024.096s.061.08.104.08h.016c.341-.16.613-.24.816-.24s.347.083.432.248.128.43.128.792v7.488c0 .32-.024.555-.072.704s-.141.253-.28.312-.347.088-.624.088c-.032 0-.048.032-.048.096s.016.096.048.096c.267 0 .475-.005.624-.016l.896-.016 1.2.016c.213.01.507.016.88.016zm.48-4.544c-.448 0-.827-.08-1.136-.24s-.603-.395-.88-.704v-3.728c.288-.277.573-.49.856-.64s.595-.224.936-.224c.597 0 1.088.237 1.472.712s.576 1.15.576 2.024c0 .896-.165 1.587-.496 2.072s-.773.728-1.328.728zm5.392.32c.245 0 .435-.07.568-.208s.2-.33.2-.576c0-.235-.067-.419-.2-.552s-.323-.2-.568-.2-.437.067-.576.2-.208.317-.208.552.072.424.216.568.333.216.568.216zm12.176.016a8.19 8.19 0 003.008-.576c.096-.043.157-.083.184-.12s.05-.12.072-.248l.224-1.936c0-.021-.013-.037-.04-.048s-.056-.016-.088-.016c-.043 0-.064.016-.064.048-.661 1.76-1.76 2.64-3.296 2.64-.779 0-1.496-.243-2.152-.728s-1.176-1.144-1.56-1.976-.576-1.744-.576-2.736c0-.853.152-1.605.456-2.256s.744-1.155 1.32-1.512 1.253-.536 2.032-.536c.885 0 1.643.205 2.272.616s1.083 1.032 1.36 1.864c.01.032.043.045.096.04s.08-.024.08-.056l-.176-1.936c-.021-.117-.045-.2-.072-.248s-.083-.093-.168-.136c-.31-.16-.725-.285-1.248-.376a8.89 8.89 0 00-1.52-.136c-1.024 0-1.987.216-2.888.648s-1.627 1.035-2.176 1.808-.824 1.656-.824 2.648c0 .875.203 1.712.608 2.512s1.04 1.459 1.904 1.976 1.941.776 3.232.776zm8.064.016c.619 0 1.19-.136 1.712-.408s.941-.659 1.256-1.16.472-1.077.472-1.728c0-.565-.128-1.101-.384-1.608s-.624-.915-1.104-1.224-1.035-.464-1.664-.464c-.555 0-1.099.12-1.632.36s-.97.603-1.312 1.088-.512 1.075-.512 1.768c0 .608.13 1.17.392 1.688s.632.928 1.112 1.232 1.035.456 1.664.456zm.464-.304c-.448 0-.85-.157-1.208-.472s-.637-.747-.84-1.296-.304-1.16-.304-1.832c0-.779.141-1.368.424-1.768s.685-.6 1.208-.6c.448 0 .853.141 1.216.424s.648.688.856 1.216.312 1.139.312 1.832c0 .832-.144 1.456-.432 1.872s-.699.624-1.232.624zM97.328 24.4c.021 0 .032-.032.032-.096s-.01-.096-.032-.096c-.416 0-.723-.03-.92-.088s-.33-.163-.4-.312-.104-.384-.104-.704v-3.568c.437.448.896.672 1.376.672.395 0 .8-.128 1.216-.384s.768-.645 1.056-1.168.432-1.163.432-1.92c0-.63-.093-1.181-.28-1.656s-.44-.837-.76-1.088-.672-.376-1.056-.376c-.65 0-1.312.341-1.984 1.024V8.56c0-.043-.019-.08-.056-.112s-.077-.048-.12-.048a.178.178 0 00-.08.016L93.536 9.44c-.032.01-.037.043-.016.096s.048.08.08.08h.032c.277-.139.507-.208.688-.208.192 0 .323.083.392.248s.104.44.104.824v3.808c-.437-.448-.896-.672-1.376-.672-.395 0-.803.125-1.224.376s-.773.64-1.056 1.168-.424 1.17-.424 1.928c0 .63.09 1.181.272 1.656s.432.837.752 1.088.672.376 1.056.376c.65 0 1.317-.341 2-1.024v3.92c0 .32-.037.555-.112.704s-.219.253-.432.312-.539.088-.976.088c-.032 0-.048.032-.048.096s.016.096.048.096c.363 0 .65-.005.864-.016l1.216-.016 1.12.016c.203.01.48.016.832.016zm-3.952-4.72c-.416 0-.752-.267-1.008-.8s-.384-1.28-.384-2.24c0-.832.117-1.488.352-1.968s.56-.72.976-.72c.256 0 .515.093.776.28s.504.44.728.76v3.904c-.48.523-.96.784-1.44.784zm4.032.192c-.256 0-.515-.09-.776-.272s-.504-.432-.728-.752v-3.936c.47-.512.944-.768 1.424-.768.416 0 .755.27 1.016.808s.392 1.283.392 2.232c0 .832-.117 1.488-.352 1.968s-.56.72-.976.72zm9.136.304a.178.178 0 00.08-.016l1.984-.944c.032-.021.037-.056.016-.104s-.053-.072-.096-.072h-.016c-.352.15-.613.224-.784.224-.192 0-.328-.08-.408-.24s-.12-.421-.12-.784v-4.4c0-.043-.021-.08-.064-.112s-.085-.048-.128-.048l-.064.016-1.888.88c-.032.01-.043.043-.032.096s.032.08.064.08h.032a1.38 1.38 0 01.512-.128c.17 0 .293.088.368.264s.112.467.112.872v2.768c-.256.267-.544.475-.864.624s-.63.224-.928.224c-.896 0-1.344-.603-1.344-1.808V13.84c0-.043-.021-.08-.064-.112s-.085-.048-.128-.048l-.064.016-1.888.88c-.032.01-.04.043-.024.096s.04.08.072.08h.032a1.18 1.18 0 01.496-.128c.17 0 .293.088.368.264s.112.467.112.872v2.416c0 .619.157 1.101.472 1.448s.744.52 1.288.52c.853 0 1.675-.443 2.464-1.328 0 .405.048.733.144.984s.192.376.288.376zM110.32 20c.117 0 .227-.075.328-.224s.296-.507.584-1.072c.31-.608.608-1.04.896-1.296s.613-.405.976-.448v1.744c0 .33-.021.57-.064.72s-.123.25-.24.304-.31.08-.576.08c-.021 0-.032.032-.032.096s.01.096.032.096c.267 0 .475-.005.624-.016l.848-.016.816.016c.139.01.33.016.576.016.021 0 .032-.032.032-.096s-.01-.096-.032-.096c-.245 0-.43-.03-.552-.088s-.21-.165-.264-.32-.08-.387-.08-.696V15.12c0-.32.024-.555.072-.704s.133-.253.256-.312.307-.088.552-.088c.021 0 .032-.032.032-.096s-.01-.096-.032-.096a7.97 7.97 0 00-.576.016l-.8.016c-.235 0-.496-.016-.784-.048-.341-.021-.57-.032-.688-.032-.683 0-1.224.15-1.624.448s-.6.704-.6 1.216c0 .437.155.787.464 1.048s.827.424 1.552.488c-.779.139-1.376.608-1.792 1.408-.032.064-.11.213-.232.448s-.277.456-.464.664-.44.312-.76.312c-.021 0-.032.032-.032.096s.01.096.032.096zm2.256-3.232c-.459 0-.81-.157-1.056-.472s-.368-.723-.368-1.224c0-.352.088-.624.264-.816s.44-.288.792-.288c.256 0 .445.032.568.096s.208.176.256.336.072.41.072.752v1.584c-.235.021-.41.032-.528.032zm4.656 5.792c.021 0 .037-.005.048-.016.395-.384.69-.765.888-1.144s.296-.792.296-1.24c0-.47-.096-.832-.288-1.088s-.453-.384-.784-.384c-.267 0-.472.061-.616.184s-.216.301-.216.536c0 .213.061.387.184.52s.29.2.504.2c.256 0 .432-.08.528-.24.107.139.16.357.16.656 0 .725-.261 1.355-.784 1.888-.021.021-.021.048 0 .08s.048.048.08.048zM124 20c.352 0 .63-.005.832-.016l1.104-.016 1.392.016c.245.01.587.016 1.024.016.032 0 .048-.032.048-.096s-.016-.096-.048-.096c-.533 0-.92-.032-1.16-.096s-.403-.173-.488-.328-.128-.403-.128-.744v-7.312c0-.33.032-.573.096-.728s.173-.256.328-.304.392-.072.712-.072c.704 0 1.27.237 1.696.712s.64 1.133.64 1.976c0 .864-.219 1.525-.656 1.984s-.97.688-1.6.688a2.38 2.38 0 01-.576-.064c-.021-.01-.04 0-.056.032s-.024.064-.024.096c0 .053.016.08.048.08.203.053.459.08.768.08.576 0 1.133-.117 1.672-.352s.981-.592 1.328-1.072.52-1.067.52-1.76c0-.896-.304-1.565-.912-2.008s-1.413-.664-2.416-.664c-.203 0-.44.008-.712.024s-.472.024-.6.024a10.27 10.27 0 01-.912.048c-.277 0-.64-.01-1.088-.032L124 10c-.021 0-.032.032-.032.096s.01.096.032.096c.384 0 .664.03.84.088s.296.163.36.312.096.384.096.704v7.408c0 .32-.032.557-.096.712s-.184.259-.36.312-.456.08-.84.08c-.021 0-.032.032-.032.096s.01.096.032.096zm11.536.192c.448 0 .867-.077 1.256-.232s.77-.403 1.144-.744c.021-.032.019-.067-.008-.104s-.056-.056-.088-.056h-.016c-.47.33-1.013.496-1.632.496-.779 0-1.39-.283-1.832-.848s-.664-1.307-.664-2.224c0-.31.021-.57.064-.784l3.152-.032h.768c.117 0 .176-.133.176-.4 0-.49-.165-.877-.496-1.16s-.795-.424-1.392-.424c-.65 0-1.245.152-1.784.456s-.96.72-1.264 1.248-.456 1.107-.456 1.736c0 .544.12 1.05.36 1.52s.592.845 1.056 1.128 1.016.424 1.656.424zm-1.728-4.752c.117-.459.315-.813.592-1.064s.613-.376 1.008-.376c.352 0 .63.123.832.368s.31.581.32 1.008zm7.536 9.056c.672 0 1.272-.141 1.8-.424s.936-.67 1.224-1.16.432-1.045.432-1.664c0-.47-.101-.912-.304-1.328s-.499-.757-.888-1.024-.85-.41-1.384-.432c.608-.224 1.088-.584 1.44-1.08s.528-1.037.528-1.624c0-.608-.203-1.117-.608-1.528s-.97-.616-1.696-.616c-.277 0-.517.021-.72.064s-.427.107-.672.192c-.224.085-.4.128-.528.128-.064 0-.123-.024-.176-.072s-.08-.125-.08-.232a.76.76 0 01.016-.176c.01-.01 0-.024-.032-.04s-.064-.024-.096-.024c-.043 0-.064.01-.064.032l-.56 2.496c-.01.043.032.064.128.064.032 0 .053-.005.064-.016.235-.672.552-1.19.952-1.552s.83-.544 1.288-.544c.992 0 1.488.72 1.488 2.16 0 .757-.181 1.341-.544 1.752s-.987.616-1.872.616c-.064 0-.09.032-.08.096s.037.096.08.096c1.973 0 2.96.933 2.96 2.8 0 .779-.128 1.435-.384 1.968s-.661.8-1.216.8c-.373 0-.659-.077-.856-.232s-.403-.381-.616-.68c-.139-.224-.272-.392-.4-.504s-.293-.168-.496-.168c-.16 0-.299.05-.416.152s-.176.253-.176.456c0 .363.232.661.696.896s1.053.352 1.768.352zm9.744-4.32a.178.178 0 00.08-.016l1.984-.944c.032-.021.037-.056.016-.104s-.053-.072-.096-.072h-.016c-.352.15-.613.224-.784.224-.192 0-.328-.08-.408-.24s-.12-.421-.12-.784v-4.4c0-.043-.021-.08-.064-.112s-.085-.048-.128-.048l-.064.016-1.888.88c-.032.01-.043.043-.032.096s.032.08.064.08h.032a1.38 1.38 0 01.512-.128c.17 0 .293.088.368.264s.112.467.112.872v2.768c-.256.267-.544.475-.864.624s-.63.224-.928.224c-.896 0-1.344-.603-1.344-1.808V13.84c0-.043-.021-.08-.064-.112s-.085-.048-.128-.048l-.064.016-1.888.88c-.032.01-.04.043-.024.096s.04.08.072.08h.032a1.18 1.18 0 01.496-.128c.17 0 .293.088.368.264s.112.467.112.872v2.416c0 .619.157 1.101.472 1.448s.744.52 1.288.52c.853 0 1.675-.443 2.464-1.328 0 .405.048.733.144.984s.192.376.288.376zm5.392 4.32c1.024 0 1.824-.31 2.4-.928s.864-1.435.864-2.448v-7.408c0-.01-.013-.024-.04-.04s-.05-.024-.072-.024-.037.005-.048.016a1.28 1.28 0 01-.496.416 2.761 2.761 0 00-1.552-.464c-.587 0-1.16.152-1.72.456s-1.019.744-1.376 1.32-.536 1.248-.536 2.016c0 .875.224 1.555.672 2.04s1.003.728 1.664.728c.459 0 .883-.112 1.272-.336s.77-.528 1.144-.912v2.576c0 1.013-.139 1.71-.416 2.088s-.656.568-1.136.568c-.384 0-.672-.072-.864-.216s-.384-.36-.576-.648c-.128-.213-.25-.37-.368-.472s-.272-.152-.464-.152c-.16 0-.299.05-.416.152s-.176.259-.176.472c0 .363.208.653.624.872s.955.328 1.616.328zm.384-4.96c-.533 0-.952-.237-1.256-.712s-.456-1.112-.456-1.912c0-.875.181-1.59.544-2.144s.843-.832 1.44-.832c.416 0 .773.133 1.072.4s.448.597.448.992v3.328c-.63.587-1.227.88-1.792.88zm7.744.656c.448 0 .867-.077 1.256-.232s.77-.403 1.144-.744c.021-.032.019-.067-.008-.104s-.056-.056-.088-.056h-.016c-.47.33-1.013.496-1.632.496-.779 0-1.39-.283-1.832-.848s-.664-1.307-.664-2.224c0-.31.021-.57.064-.784l3.152-.032h.768c.117 0 .176-.133.176-.4 0-.49-.165-.877-.496-1.16s-.795-.424-1.392-.424c-.65 0-1.245.152-1.784.456s-.96.72-1.264 1.248-.456 1.107-.456 1.736c0 .544.12 1.05.36 1.52s.592.845 1.056 1.128 1.016.424 1.656.424zm-1.728-4.752c.117-.459.315-.813.592-1.064s.613-.376 1.008-.376c.352 0 .63.123.832.368s.31.581.32 1.008zm5.344 4.56c.288 0 .512-.005.672-.016l.864-.016.832.016c.16.01.384.016.672.016.021 0 .032-.032.032-.096s-.01-.096-.032-.096c-.288 0-.499-.027-.632-.08s-.224-.157-.272-.312-.072-.392-.072-.712v-1.632h3.216v1.632c0 .32-.024.557-.072.712s-.139.259-.272.312-.344.08-.632.08c-.032 0-.048.032-.048.096s.016.096.048.096c.277 0 .496-.005.656-.016l.88-.016.832.016c.16.01.384.016.672.016.021 0 .032-.032.032-.096s-.01-.096-.032-.096c-.288 0-.499-.027-.632-.08s-.224-.157-.272-.312-.072-.392-.072-.712V13.84c0-.043-.021-.08-.064-.112s-.085-.048-.128-.048l-.064.016-1.888.88c-.032.01-.04.043-.024.096s.04.08.072.08h.032c.224-.085.39-.128.496-.128.17 0 .293.088.368.264s.112.467.112.872v.992h-3.216V13.84c0-.043-.021-.08-.064-.112s-.085-.048-.128-.048l-.064.016-1.888.88c-.032.01-.04.043-.024.096s.04.08.072.08h.032c.224-.085.39-.128.496-.128.17 0 .293.088.368.264s.112.467.112.872v2.944c0 .32-.024.557-.072.712s-.139.259-.272.312-.344.08-.632.08c-.032 0-.048.032-.048.096s.016.096.048.096zm15.392 2.224c.064 0 .096-.027.096-.08 0-.608.027-1.179.08-1.712.021-.235.032-.379.032-.432 0-.096-.008-.152-.024-.168s-.061-.024-.136-.024c-.363 0-.624-.125-.784-.376s-.24-.659-.24-1.224V13.84c0-.043-.021-.08-.064-.112s-.085-.048-.128-.048l-.064.016-1.888.88c-.032.01-.043.043-.032.096s.032.08.064.08h.032a1.38 1.38 0 01.512-.128c.17 0 .293.088.368.264s.112.467.112.872v2.768c-.256.267-.544.475-.864.624s-.63.224-.928.224c-.896 0-1.344-.603-1.344-1.808V13.84c0-.043-.021-.08-.064-.112s-.085-.048-.128-.048l-.064.016-1.888.88c-.032.01-.04.043-.024.096s.04.08.072.08h.032a1.18 1.18 0 01.496-.128c.17 0 .293.088.368.264s.112.467.112.872v2.416c0 .619.157 1.101.472 1.448s.744.52 1.288.52c.853 0 1.675-.443 2.464-1.328 0 .48.01.797.032.952s.075.232.16.232c.565 0 1.003.168 1.312.504s.464.883.464 1.64c0 .053.032.08.096.08zm6.4-2.048a.178.178 0 00.08-.016l1.984-.944c.032-.021.037-.056.016-.104s-.053-.072-.096-.072h-.016c-.352.15-.613.224-.784.224-.192 0-.328-.08-.408-.24s-.12-.421-.12-.784v-4.4c0-.043-.021-.08-.064-.112s-.085-.048-.128-.048l-.064.016-1.888.88c-.032.01-.043.043-.032.096s.032.08.064.08h.032a1.38 1.38 0 01.512-.128c.17 0 .293.088.368.264s.112.467.112.872v2.768c-.256.267-.544.475-.864.624s-.63.224-.928.224c-.896 0-1.344-.603-1.344-1.808V13.84c0-.043-.021-.08-.064-.112s-.085-.048-.128-.048l-.064.016-1.888.88c-.032.01-.04.043-.024.096s.04.08.072.08h.032a1.18 1.18 0 01.496-.128c.17 0 .293.088.368.264s.112.467.112.872v2.416c0 .619.157 1.101.472 1.448s.744.52 1.288.52c.853 0 1.675-.443 2.464-1.328 0 .405.048.733.144.984s.192.376.288.376zm3.776-.176c.117 0 .227-.075.328-.224s.296-.507.584-1.072c.31-.608.608-1.04.896-1.296s.613-.405.976-.448v1.744c0 .33-.021.57-.064.72s-.123.25-.24.304-.31.08-.576.08c-.021 0-.032.032-.032.096s.01.096.032.096c.267 0 .475-.005.624-.016l.848-.016.816.016c.139.01.33.016.576.016.021 0 .032-.032.032-.096s-.01-.096-.032-.096c-.245 0-.43-.03-.552-.088s-.21-.165-.264-.32-.08-.387-.08-.696V15.12c0-.32.024-.555.072-.704s.133-.253.256-.312.307-.088.552-.088c.021 0 .032-.032.032-.096s-.01-.096-.032-.096a7.97 7.97 0 00-.576.016l-.8.016c-.235 0-.496-.016-.784-.048-.341-.021-.57-.032-.688-.032-.683 0-1.224.15-1.624.448s-.6.704-.6 1.216c0 .437.155.787.464 1.048s.827.424 1.552.488c-.779.139-1.376.608-1.792 1.408-.032.064-.11.213-.232.448s-.277.456-.464.664-.44.312-.76.312c-.021 0-.032.032-.032.096s.01.096.032.096zm2.256-3.232c-.459 0-.81-.157-1.056-.472s-.368-.723-.368-1.224c0-.352.088-.624.264-.816s.44-.288.792-.288c.256 0 .445.032.568.096s.208.176.256.336.072.41.072.752v1.584c-.235.021-.41.032-.528.032zm8.48-3.216c.267 0 .472-.061.616-.184s.216-.301.216-.536c0-.213-.061-.387-.184-.52s-.29-.2-.504-.2c-.256 0-.432.08-.528.24-.107-.139-.16-.357-.16-.656 0-.725.261-1.355.784-1.888.021-.021.021-.048 0-.08s-.048-.048-.08-.048c-.021 0-.037.005-.048.016-.395.384-.69.765-.888 1.144s-.296.792-.296 1.24c0 .47.096.832.288 1.088s.453.384.784.384zm2.496 0c.267 0 .472-.061.616-.184s.216-.301.216-.536c0-.213-.061-.387-.184-.52s-.29-.2-.504-.2c-.256 0-.432.08-.528.24-.107-.139-.16-.357-.16-.656 0-.725.261-1.355.784-1.888.021-.021.021-.048 0-.08s-.048-.048-.08-.048c-.021 0-.037.005-.048.016-.395.384-.69.765-.888 1.144s-.296.792-.296 1.24c0 .47.096.832.288 1.088s.453.384.784.384zM211.888 20c.384 0 .683-.005.896-.016l1.232-.016 1.264.016c.213.01.507.016.88.016.021 0 .032-.032.032-.096s-.01-.096-.032-.096c-.448 0-.773-.027-.976-.08s-.339-.155-.408-.304-.104-.39-.104-.72v-7.376c0-.31.032-.53.096-.664s.181-.224.352-.272.453-.072.848-.072c.693 0 1.216.181 1.568.544s.565.955.64 1.776c0 .021.03.032.088.032s.088-.01.088-.032c0-.405.019-.939.056-1.6s.072-1.141.104-1.44c0-.043-.03-.064-.088-.064s-.093.021-.104.064c-.053.16-.17.267-.352.32s-.47.08-.864.08l-1.088.016c-.704.021-1.37.032-2 .032-1.237 0-2.31-.016-3.216-.048-.587 0-.88-.117-.88-.352 0-.053-.032-.08-.096-.08s-.096.027-.096.08c0 .341-.027.848-.08 1.52s-.101 1.163-.144 1.472c0 .021.03.032.088.032s.093-.01.104-.032c.181-.81.459-1.4.832-1.768s.89-.552 1.552-.552c.395 0 .677.021.848.064s.288.13.352.264.096.35.096.648v7.408c0 .32-.037.557-.112.712s-.213.259-.416.312-.523.08-.96.08c-.032 0-.048.032-.048.096s.016.096.048.096zm9.68.192c.448 0 .867-.077 1.256-.232s.77-.403 1.144-.744c.021-.032.019-.067-.008-.104s-.056-.056-.088-.056h-.016c-.47.33-1.013.496-1.632.496-.779 0-1.39-.283-1.832-.848s-.664-1.307-.664-2.224c0-.31.021-.57.064-.784l3.152-.032h.768c.117 0 .176-.133.176-.4 0-.49-.165-.877-.496-1.16s-.795-.424-1.392-.424c-.65 0-1.245.152-1.784.456s-.96.72-1.264 1.248-.456 1.107-.456 1.736c0 .544.12 1.05.36 1.52s.592.845 1.056 1.128 1.016.424 1.656.424zm-1.728-4.752c.117-.459.315-.813.592-1.064s.613-.376 1.008-.376c.352 0 .63.123.832.368s.31.581.32 1.008zm8.912 8.96c.032 0 .048-.032.048-.096s-.016-.096-.048-.096c-.448 0-.779-.03-.992-.088s-.357-.163-.432-.312-.112-.384-.112-.704v-3.216c.267.117.52.2.76.248s.515.072.824.072c.533 0 1.067-.128 1.6-.384s.979-.659 1.336-1.208.536-1.235.536-2.056c0-.597-.112-1.12-.336-1.568s-.525-.79-.904-1.024-.792-.352-1.24-.352c-.875 0-1.733.421-2.576 1.264-.021-.373-.083-.667-.184-.88s-.216-.32-.344-.32l-.096.032-1.936.928c-.043.01-.05.043-.024.096s.061.08.104.08h.016c.341-.16.613-.24.816-.24s.347.083.432.248.128.43.128.792v7.488c0 .32-.024.555-.072.704s-.141.253-.28.312-.347.088-.624.088c-.032 0-.048.032-.048.096s.016.096.048.096c.267 0 .475-.005.624-.016l.896-.016 1.2.016c.213.01.507.016.88.016zm.48-4.544c-.448 0-.827-.08-1.136-.24s-.603-.395-.88-.704v-3.728c.288-.277.573-.49.856-.64s.595-.224.936-.224c.597 0 1.088.237 1.472.712s.576 1.15.576 2.024c0 .896-.165 1.587-.496 2.072s-.773.728-1.328.728zm9.52.32a.178.178 0 00.08-.016l1.968-.96c.032-.01.04-.043.024-.096s-.04-.08-.072-.08l-.032.016c-.384.139-.645.208-.784.208-.192 0-.328-.075-.408-.224s-.12-.395-.12-.736v-4.576c0-.01-.013-.024-.04-.04s-.05-.024-.072-.024-.037.005-.048.016a1.28 1.28 0 01-.496.416 2.761 2.761 0 00-1.552-.464c-.587 0-1.16.152-1.72.456s-1.019.744-1.376 1.32-.536 1.248-.536 2.016c0 .875.224 1.555.672 2.04s1.003.728 1.664.728c.47 0 .896-.112 1.28-.336s.763-.528 1.136-.912c.021.363.077.661.168.896s.179.352.264.352zm-2.224-.64c-.533 0-.952-.237-1.256-.712s-.456-1.112-.456-1.912c0-.875.181-1.59.544-2.144s.843-.832 1.44-.832c.416 0 .773.133 1.072.4s.448.597.448.992v3.328c-.63.587-1.227.88-1.792.88zm4.912-5.744c.021 0 .037-.005.048-.016.395-.384.69-.765.888-1.144s.296-.792.296-1.24c0-.47-.096-.832-.288-1.088s-.453-.384-.784-.384c-.267 0-.472.061-.616.184-.144.123-.216.301-.216.536 0 .213.061.387.184.52s.29.2.504.2c.256 0 .432-.08.528-.24.107.139.16.357.16.656 0 .725-.261 1.355-.784 1.888-.021.021-.021.048 0 .08s.048.048.08.048zm2.496 0c.021 0 .037-.005.048-.016.395-.384.69-.765.888-1.144s.296-.792.296-1.24c0-.47-.096-.832-.288-1.088s-.453-.384-.784-.384c-.267 0-.472.061-.616.184-.144.123-.216.301-.216.536 0 .213.061.387.184.52s.29.2.504.2c.256 0 .432-.08.528-.24.107.139.16.357.16.656 0 .725-.261 1.355-.784 1.888-.021.021-.021.048 0 .08s.048.048.08.048z" fill="#021631" fill-rule="nonzero"/></g></svg>