<svg height="769" viewBox="0 0 765 769" width="765" xmlns="http://www.w3.org/2000/svg"><g fill="none" fill-rule="evenodd"><path d="m54.0308801.46164117c2.664585-.23075307 5.6583294 3.32686999 6.8576162 7.70655.9011815 3.29172303-.7766675 6.68223973-3.3656879 8.12770243l11.015347-.20173c-1.7217122-1.0477377-2.8841557-3.1588623-2.2693542-5.2483564.9970239-3.38768491 2.438723-5.73074432 4.2668417-5.83068702 1.9582531-.10742678 3.9908315 2.47022625 4.7362101 5.57690742.5156092 2.1491909-.4829375 4.306254-2.0819044 5.414967l3.46299-.0819692 2.0853567-.060011c.0503338-.8987522.8496277-1.9204792 2.0017685-2.6687897 1.5417121-1.0009748 3.2723051-1.2262001 3.9420185-.1952755l.070278.1209196c.5281489 1.0237482-.3699881 2.4383732-1.8517383 3.4007636-.0373103.0242241-.0747311.0479939-.1122449.0713025.2741808.1960304.5443598.4219552.8034806.672699 1.4917314 1.4435062 2.173525 3.281201 1.2392258 4.2462529-.934245.9649961-2.793175.3440631-4.2844269-1.0995207-1.0578773-1.0236779-1.7081905-2.2454452-1.6636946-3.2139011l-3.1176661.0887503-2.5141683.054865c1.2484063.8803627 2.0537085 2.4559518 1.6191952 4.0467181-.7460055 2.7326505-1.8639594 4.6327929-3.3856008 4.7466948-1.6246055.1209684-3.3040346-1.9245382-3.9524599-4.4099069-.4324407-1.6579209.2524572-3.3428338 1.4310448-4.3002642l-10.0500668.1814814-.9261106.0190815c1.9375676 1.0736946 3.3270348 3.2945001 2.8207391 5.6248477-.8522214 3.9204602-2.293154 6.6933824-4.3170432 6.9516115-2.1714254.2773333-4.6793452-2.4691901-5.7771034-5.9235433-.8090673-2.5447904.3368914-5.2426658 2.2750307-6.5387104l-.13527.0047328-3.4749416.1011592-2.6220844.0907535-2.4920591.100559-1.789436.0824489-.6123872.0307139c1.8905777 1.0096278 3.2845178 3.0836992 2.9201241 5.3570946-.635368 3.9607829-1.9219055 6.8088602-3.9285933 7.1782605-2.1525998.3962829-4.8078391-2.2085741-6.0940117-5.5974647-.9402086-2.4778644.0336255-5.2116921 1.8704141-6.6218232l-.7156314.0520738-1.5106667.119064-.9825758.0841138-.9643344.0880482-.9472818.0921062-1.3915493.1460383-1.3598676.155864-1.3321978.1661067-.1395508.0174284c1.1246206.8937941 1.8749383 2.2607073 1.7289156 3.7902761-.3249697 3.4020838-1.2640075 5.8925753-2.9918593 6.3261128-1.8497357.4635857-4.2562737-1.6135009-5.5353925-4.4289972-.7127268-1.5687939-.4945519-3.3226066.3038647-4.6513262l-.1488923.0284459-1.1127995.2248581-1.0830163.2351138c-1.4992629.3372653-2.9104699.7051624-4.2334672 1.1050497 1.2316506.5141943 2.2347677 1.6031443 2.3648024 3.0303336.2570468 2.8212751-.1255185 4.9920793-1.5114331 5.6311368-1.4796252.6817407-3.7688085-.6474678-5.24497004-2.7489442-.89935985-1.279505-.93441209-2.9056041-.34871488-4.1752049-3.83150389 1.7049876-6.57489978 3.8265017-8.22247014 6.4227441-.19826768.3124303-.61227021.4049775-.92470053.2067098-.31243033-.1982677-.40497745-.6122702-.20670977-.9247006 1.78155198-2.8073707 4.67130538-5.0676065 8.6614406-6.8658094-2.14386013-.169785-4.27134062-1.7657685-4.48543424-4.0944083-.00979901-.1065504-.01886438-.2123607-.02718533-.3173993l-.04090624-.6207184c-.15900256-3.0547599.37139754-5.3580541 1.88248521-6.0556248 1.78051623-.8222602 4.62069476.8236803 6.45985766 3.4363134 1.4088796 2.0018464 1.0949777 4.697971-.3174807 6.296347 1.798984-.6116333 3.7682436-1.1545826 5.9063937-1.634977l1.1007955-.2387029c.4347809-.0909741.8761829-.1795287 1.3242025-.2657041-2.0984893-.9274525-3.7508417-3.0467597-3.5181645-5.5016633.4031957-4.25728989 1.5767725-7.37754816 3.6678134-7.90404773 2.2452016-.56514118 5.245932 2.02091223 6.8464659 5.53646043 1.1189733 2.4578321.3880139 5.2860037-1.3043673 6.9440341l.5266124-.0726647 1.3339626-.1710606 1.3599168-.1605585 1.3899175-.1504791.9452772-.0949287 1.4489115-.1346201 1.4897033-.1256686 1.1233755-.0851698c-2.788791-1.0976798-4.9909173-4.0816041-4.3482647-7.26137691.1159303-.57356847.242166-1.12788648.3786131-1.66022744l.1686319-.62808566c1.0411281-3.70312605 2.609664-6.2104231 4.6705269-6.50419621 2.6483346-.3772678 5.8325937 3.01017978 7.2708059 7.31786614 1.1080909 3.31819068-.4841941 6.88906128-3.1039567 8.41586848l.2879338-.0162958 2.353411-.1148933 1.8420245-.0787965 1.912492-.0729463 2.6665996-.0888925 2.2443864-.0633739c-2.7025343-1.262125-4.7112947-4.3461896-3.8991882-7.46943345l.1811183-.66992289c.09276-.33003868.1888094-.65256279.2880958-.96698533l.2028729-.61786911c.0345263-.10111986.0694084-.20129607.1046442-.30050689l.2156453-.58350628c1.2092295-3.1436555 2.7995203-5.18864861 4.700886-5.35371058zm-42.8990727 23.19057643-.0552253.0604435c-.7434661.8511264-.9298625 2.348655-.1575831 3.4473646.8308663 1.1828284 1.9602082 2.0324206 2.7938343 2.2867002-.1022448-1.6816169-.5578194-3.0802394-1.2536833-4.2199029-.2747546-.4499842-.5673516-.8255171-.8572455-1.1291038-.0667904-.0699451-.1265243-.1291833-.1778459-.1778604l-.1273725-.1144933c-.0165708-.0138501-.0306995-.0250964-.0422169-.0337571-.0468864-.035257-.0878342-.0754815-.1226618-.1193908zm28.7832718-4.7667178.0929006.1622101c.1424939.2553094.2902934.5470614.4372539.8744341 1.1717879 2.6103047 1.4856225 5.7635097.4338888 9.3580875 1.0148217-.4707992 1.9429681-2.5374871 2.4719002-5.3589145l.1085645-.6248409c.3420468-2.1339774-1.5575125-4.1088755-3.544508-4.4109763zm-1.5214126.127145c-1.9365746.6728794-3.2563918 3.2935702-2.3807488 5.6012758.8221193 2.166173 2.2775033 3.9224333 3.5127176 4.5378488l.0162555-.076465c1.01858-3.3464382.7455955-6.2325701-.3191309-8.6043815-.2053668-.4574804-.424388-.8546125-.6417421-1.1886725l-.1348658-.1997482zm16.3780027-.6267358c-2.0188356.5089826-3.5408242 3.097779-2.7809082 5.4879719.7901782 2.4864805 2.4106833 4.4978212 3.70251 4.9253697l.0112432-.0289394c1.1150018-2.7576211.9012488-5.7341579-.1402375-8.5918979-.1917055-.5260219-.3968274-1.002086-.6012073-1.4187904zm-39.5475938 6.6285514c-.213746-1.2372705-1.5866243-2.0687321-2.7812075-1.9812377.3487242.3402732.7570279.835407 1.1599462 1.4952937.7246661 1.1868347 1.2210301 2.6045433 1.3991744 4.2590327.2816641-.762402.3833161-2.0726791.2425465-3.6177285zm41.0453741-6.631172-.1032954-.2137395c.2245949.4579201.4484479.9774572.6571189 1.5500307 1.024025 2.8098279 1.3216721 5.746611.4725399 8.5622243.8637921-.9277365 1.6701125-2.864953 2.2026199-5.3146377l.0325654-.1726944c.3245492-2.0266066-1.3748216-3.9796316-3.2615487-4.4111834zm-33.0978206 1.6147259-.1928364.0324465c-1.3074178.8176769-2.0337875 2.8104681-1.2702796 4.4910369.7655381 1.6850426 1.996279 3.0201632 3.0074937 3.5092036l-.0045451.0270416c.4655057-2.659572.1398406-4.8739685-.6798905-6.6487217-.1918526-.4153692-.3960355-.7704793-.5981648-1.0646309l-.1235872-.1728681-.0882828-.1127684c-.0114592-.0137687-.021213-.0250201-.0291443-.0337474zm1.7854673-.2818644-.2978605.0441428c.1872816.2920758.3891289.654459.5888406 1.0868435.9002793 1.9491435 1.2723868 4.341301.8314441 7.1517073.7542678-.627102 1.3699207-2.514658 1.6023154-4.947581l.0106802-.1744493c.0414666-1.531914-1.2988288-2.8483192-2.7354198-3.1606633zm45.5679464-1.6508873c-1.1678066.3871941-2.0728443 1.8789719-1.696172 3.3230838.424218 1.625998 1.3833333 2.9709369 2.1475257 3.3233156.6179109-2.119138.4872224-4.0891133-.1111719-5.8119376-.0704536-.2028415-.1403235-.3824871-.2060715-.5374772l-.1249519-.2766741zm1.503534.1125205.0285574.0762095c.0246243.0664951.0492925.1351964.0739095.2060706.5393236 1.5527552.7462118 3.278659.4673544 5.1160074.3583795-.6494683.7021834-1.5243408.9792545-2.5392644.3173962-1.161997-.5005911-2.3815208-1.5490758-2.8590231zm-65.85092145-4.9708343-.05773955.099888c-.50925886.9405735-.69707263 2.8134856-.48952958 5.0702225.18189934 1.9784711 2.50462638 3.2542806 4.27715896 2.804825-.00503801-.0106955-.00709589-.0216561-.00889218-.0327244-.35630075-2.1954302-.9266393-3.9623921-1.6479677-5.3483533-.43532167-.8364275-.8958701-1.4777645-1.34957406-1.9496092-.11011201-.1145147-.20714387-.206836-.28860616-.278863l-.14142758-.1175577-.09548314-.0668156c-.08002334-.0479559-.14642517-.1099782-.19793901-.1810123zm75.11701315 4.0525721-.0111182.0037988c-.3785783.1010237-.742093.143817-1.0713399.1209959.0429453.4508977.4709895 1.2965136 1.2663663 2.0661772 1.0252519.9924796 2.1571834 1.3705753 2.3897685 1.1303347.232273-.2399185-.1828983-1.3589642-1.2083171-2.3512329-.4102022-.396941-.8373618-.6956059-1.2171432-.8957529zm-73.64099569-4.567216.02894633.0267961c.53490357.5038142 1.15303835 1.3031619 1.75671593 2.4630686.73553233 1.4132527 1.31927903 3.1630682 1.70176203 5.2836784 1.1029706-1.1189865 1.410001-3.2225098.333395-4.7522358l-.1535402-.2118178c-1.1132867-1.4921262-2.57921984-2.5445239-3.66727909-2.8094895zm12.87711809-5.4213537c-1.034477.83652732-1.8311743 3.2898721-2.1307515 6.4530685-.2281823 2.4074792 2.1084422 4.4612376 4.3430763 4.5351079-.0147706-.0603838-.0212616-.1223424-.0187783-.1860314.1554347-3.9864786-.2993185-6.9365155-1.1414196-9.00275027-.2476689-.60769669-.5089347-1.08500324-.7650362-1.44586482l-.0673037-.09254733-.1112718-.14175541-.0767822-.08647023-.0241916-.02344086zm1.5441004-.19128924.0076942.01154929c.2393011.37709879.4929405.86417521.7412327 1.47340142.9122156 2.23827203 1.395781 5.35148013 1.2425671 9.48013433 2.1146164-.8012638 3.4212985-3.7841262 2.2943497-6.2594766l-.1271144-.2700947c-1.0901204-2.24253109-2.8010975-3.96778616-4.1587293-4.43551374zm14.7022791-4.59083634-.0839415.02369922c-1.462738.47896353-2.8404826 3.21152001-3.6932672 7.00833551l-.1411828.66215305c-.6297052 3.1157109 2.3814427 6.1003505 5.2914595 6.1000717l-.0489838.2183595c1.1779511-5.0634839.9062921-9.00694919-.2437015-11.92016913-.213531-.54092722-.4404993-.99523071-.6650378-1.3650896l-.1168936-.18560656-.0905003-.13243558-.0605602-.0796985c-.0813504-.09795965-.1300733-.21223042-.1473908-.32961961zm1.7648516.37809761.0447766.08384912c.1676817.31888752.3432734.69799563.5171569 1.13848575 1.1888855 3.01174275 1.510421 6.9744462.4751809 11.9334293 2.462566-.9227943 4.1789841-4.1751775 3.1837625-7.15537966l-.0970788-.28094539c-.9453638-2.64608636-2.6058418-4.82866726-4.1237981-5.71943912zm45.0003708 10.84993577c-.053815-.0331896-.2235833-.06547-.5154115-.0274905-.4568501.0594561-1.0192818.2814893-1.5571239.6306896-.5375839.3491584-.969053.7726404-1.2091672 1.1658939-.0584162.0956726-.1003207.1793145-.1293598.249657.3594796-.0676518.7643001-.0281111 1.1884777.1012496.2776915-.1055181.5677661-.2541533.8510205-.4380596.5375838-.3491584.9690529-.7726403 1.2091672-1.1658939.1752485-.2870179.2018922-.465759.1783115-.5020727zm-29.8804168-11.79744763c-.844365.35135554-1.6930906 1.4084889-2.4542984 2.9595569l-.2337359.49790222c-.4998752 1.11224713-.9557184 2.43865713-1.3394466 3.91447932-.7849684 3.01887459 1.9366099 6.10379269 4.784342 6.36965619l-.0712039.2683503c1.6804991-6.19804201 1.4999646-10.32128462.2326572-12.7918645-.3100098-.60435529-.6019454-.95511499-.7843144-1.1071965l-.0513323-.03971902zm1.9530255.31750986.046559.08036357c.0371041.06718866.074137.13671301.111018.2086115 1.3801059 2.69047729 1.6133417 6.91952275.0611387 13.0207003 2.6030282-.6829256 4.6127827-3.9181773 3.7623485-7.0245368-.787998-2.87769317-2.4344325-5.31703468-3.9810642-6.28513857zm14.3990107 4.35183396-.0272316.01971c-.8514075.62572102-1.7647545 2.34682067-2.4324831 4.61562681-.5772942 1.96202 1.2285453 4.0689752 3.100548 4.2012211.7303855-3.5860311.5966718-6.11881443-.0513358-7.77262093-.164933-.42093218-.3173323-.67437494-.4087811-.78727312l-.0313417-.03580141c-.0686121-.07109307-.118367-.15344338-.1493747-.24086245zm1.6900353.22964335.0630117.14048402c.0281572.06551692.0562235.13381857.084094.20494806.7096815 1.81120698.8792002 4.41837978.2291325 7.95101508 1.3475407-.6993615 2.3071704-2.4652584 1.8885442-4.2101993-.4303093-1.79349626-1.3602869-3.34397823-2.2647824-4.08624786z" fill="#a0b9b6" fill-rule="nonzero" transform="translate(169 678)"/><path d="m54.0308801.46164117c2.664585-.23075307 5.6583294 3.32686999 6.8576162 7.70655.9011815 3.29172303-.7766675 6.68223973-3.3656879 8.12770243l11.015347-.20173c-1.7217122-1.0477377-2.8841557-3.1588623-2.2693542-5.2483564.9970239-3.38768491 2.438723-5.73074432 4.2668417-5.83068702 1.9582531-.10742678 3.9908315 2.47022625 4.7362101 5.57690742.5156092 2.1491909-.4829375 4.306254-2.0819044 5.414967l3.46299-.0819692 2.0853567-.060011c.0503338-.8987522.8496277-1.9204792 2.0017685-2.6687897 1.5417121-1.0009748 3.2723051-1.2262001 3.9420185-.1952755l.070278.1209196c.5281489 1.0237482-.3699881 2.4383732-1.8517383 3.4007636-.0373103.0242241-.0747311.0479939-.1122449.0713025.2741808.1960304.5443598.4219552.8034806.672699 1.4917314 1.4435062 2.173525 3.281201 1.2392258 4.2462529-.934245.9649961-2.793175.3440631-4.2844269-1.0995207-1.0578773-1.0236779-1.7081905-2.2454452-1.6636946-3.2139011l-3.1176661.0887503-2.5141683.054865c1.2484063.8803627 2.0537085 2.4559518 1.6191952 4.0467181-.7460055 2.7326505-1.8639594 4.6327929-3.3856008 4.7466948-1.6246055.1209684-3.3040346-1.9245382-3.9524599-4.4099069-.4324407-1.6579209.2524572-3.3428338 1.4310448-4.3002642l-10.0500668.1814814-.9261106.0190815c1.9375676 1.0736946 3.3270348 3.2945001 2.8207391 5.6248477-.8522214 3.9204602-2.293154 6.6933824-4.3170432 6.9516115-2.1714254.2773333-4.6793452-2.4691901-5.7771034-5.9235433-.8090673-2.5447904.3368914-5.2426658 2.2750307-6.5387104l-.13527.0047328-3.4749416.1011592-2.6220844.0907535-2.4920591.100559-1.789436.0824489-.6123872.0307139c1.8905777 1.0096278 3.2845178 3.0836992 2.9201241 5.3570946-.635368 3.9607829-1.9219055 6.8088602-3.9285933 7.1782605-2.1525998.3962829-4.8078391-2.2085741-6.0940117-5.5974647-.9402086-2.4778644.0336255-5.2116921 1.8704141-6.6218232l-.7156314.0520738-1.5106667.119064-.9825758.0841138-.9643344.0880482-.9472818.0921062-1.3915493.1460383-1.3598676.155864-1.3321978.1661067-.1395508.0174284c1.1246206.8937941 1.8749383 2.2607073 1.7289156 3.7902761-.3249697 3.4020838-1.2640075 5.8925753-2.9918593 6.3261128-1.8497357.4635857-4.2562737-1.6135009-5.5353925-4.4289972-.7127268-1.5687939-.4945519-3.3226066.3038647-4.6513262l-.1488923.0284459-1.1127995.2248581-1.0830163.2351138c-1.4992629.3372653-2.9104699.7051624-4.2334672 1.1050497 1.2316506.5141943 2.2347677 1.6031443 2.3648024 3.0303336.2570468 2.8212751-.1255185 4.9920793-1.5114331 5.6311368-1.4796252.6817407-3.7688085-.6474678-5.24497004-2.7489442-.89935985-1.279505-.93441209-2.9056041-.34871488-4.1752049-3.83150389 1.7049876-6.57489978 3.8265017-8.22247014 6.4227441-.19826768.3124303-.61227021.4049775-.92470053.2067098-.31243033-.1982677-.40497745-.6122702-.20670977-.9247006 1.78155198-2.8073707 4.67130538-5.0676065 8.6614406-6.8658094-2.14386013-.169785-4.27134062-1.7657685-4.48543424-4.0944083-.00979901-.1065504-.01886438-.2123607-.02718533-.3173993l-.04090624-.6207184c-.15900256-3.0547599.37139754-5.3580541 1.88248521-6.0556248 1.78051623-.8222602 4.62069476.8236803 6.45985766 3.4363134 1.4088796 2.0018464 1.0949777 4.697971-.3174807 6.296347 1.798984-.6116333 3.7682436-1.1545826 5.9063937-1.634977l1.1007955-.2387029c.4347809-.0909741.8761829-.1795287 1.3242025-.2657041-2.0984893-.9274525-3.7508417-3.0467597-3.5181645-5.5016633.4031957-4.25728989 1.5767725-7.37754816 3.6678134-7.90404773 2.2452016-.56514118 5.245932 2.02091223 6.8464659 5.53646043 1.1189733 2.4578321.3880139 5.2860037-1.3043673 6.9440341l.5266124-.0726647 1.3339626-.1710606 1.3599168-.1605585 1.3899175-.1504791.9452772-.0949287 1.4489115-.1346201 1.4897033-.1256686 1.1233755-.0851698c-2.788791-1.0976798-4.9909173-4.0816041-4.3482647-7.26137691.1159303-.57356847.242166-1.12788648.3786131-1.66022744l.1686319-.62808566c1.0411281-3.70312605 2.609664-6.2104231 4.6705269-6.50419621 2.6483346-.3772678 5.8325937 3.01017978 7.2708059 7.31786614 1.1080909 3.31819068-.4841941 6.88906128-3.1039567 8.41586848l.2879338-.0162958 2.353411-.1148933 1.8420245-.0787965 1.912492-.0729463 2.6665996-.0888925 2.2443864-.0633739c-2.7025343-1.262125-4.7112947-4.3461896-3.8991882-7.46943345l.1811183-.66992289c.09276-.33003868.1888094-.65256279.2880958-.96698533l.2028729-.61786911c.0345263-.10111986.0694084-.20129607.1046442-.30050689l.2156453-.58350628c1.2092295-3.1436555 2.7995203-5.18864861 4.700886-5.35371058zm-42.8990727 23.19057643-.0552253.0604435c-.7434661.8511264-.9298625 2.348655-.1575831 3.4473646.8308663 1.1828284 1.9602082 2.0324206 2.7938343 2.2867002-.1022448-1.6816169-.5578194-3.0802394-1.2536833-4.2199029-.2747546-.4499842-.5673516-.8255171-.8572455-1.1291038-.0667904-.0699451-.1265243-.1291833-.1778459-.1778604l-.1273725-.1144933c-.0165708-.0138501-.0306995-.0250964-.0422169-.0337571-.0468864-.035257-.0878342-.0754815-.1226618-.1193908zm28.7832718-4.7667178.0929006.1622101c.1424939.2553094.2902934.5470614.4372539.8744341 1.1717879 2.6103047 1.4856225 5.7635097.4338888 9.3580875 1.0148217-.4707992 1.9429681-2.5374871 2.4719002-5.3589145l.1085645-.6248409c.3420468-2.1339774-1.5575125-4.1088755-3.544508-4.4109763zm-1.5214126.127145c-1.9365746.6728794-3.2563918 3.2935702-2.3807488 5.6012758.8221193 2.166173 2.2775033 3.9224333 3.5127176 4.5378488l.0162555-.076465c1.01858-3.3464382.7455955-6.2325701-.3191309-8.6043815-.2053668-.4574804-.424388-.8546125-.6417421-1.1886725l-.1348658-.1997482zm16.3780027-.6267358c-2.0188356.5089826-3.5408242 3.097779-2.7809082 5.4879719.7901782 2.4864805 2.4106833 4.4978212 3.70251 4.9253697l.0112432-.0289394c1.1150018-2.7576211.9012488-5.7341579-.1402375-8.5918979-.1917055-.5260219-.3968274-1.002086-.6012073-1.4187904zm-39.5475938 6.6285514c-.213746-1.2372705-1.5866243-2.0687321-2.7812075-1.9812377.3487242.3402732.7570279.835407 1.1599462 1.4952937.7246661 1.1868347 1.2210301 2.6045433 1.3991744 4.2590327.2816641-.762402.3833161-2.0726791.2425465-3.6177285zm41.0453741-6.631172-.1032954-.2137395c.2245949.4579201.4484479.9774572.6571189 1.5500307 1.024025 2.8098279 1.3216721 5.746611.4725399 8.5622243.8637921-.9277365 1.6701125-2.864953 2.2026199-5.3146377l.0325654-.1726944c.3245492-2.0266066-1.3748216-3.9796316-3.2615487-4.4111834zm-33.0978206 1.6147259-.1928364.0324465c-1.3074178.8176769-2.0337875 2.8104681-1.2702796 4.4910369.7655381 1.6850426 1.996279 3.0201632 3.0074937 3.5092036l-.0045451.0270416c.4655057-2.659572.1398406-4.8739685-.6798905-6.6487217-.1918526-.4153692-.3960355-.7704793-.5981648-1.0646309l-.1235872-.1728681-.0882828-.1127684c-.0114592-.0137687-.021213-.0250201-.0291443-.0337474zm1.7854673-.2818644-.2978605.0441428c.1872816.2920758.3891289.654459.5888406 1.0868435.9002793 1.9491435 1.2723868 4.341301.8314441 7.1517073.7542678-.627102 1.3699207-2.514658 1.6023154-4.947581l.0106802-.1744493c.0414666-1.531914-1.2988288-2.8483192-2.7354198-3.1606633zm45.5679464-1.6508873c-1.1678066.3871941-2.0728443 1.8789719-1.696172 3.3230838.424218 1.625998 1.3833333 2.9709369 2.1475257 3.3233156.6179109-2.119138.4872224-4.0891133-.1111719-5.8119376-.0704536-.2028415-.1403235-.3824871-.2060715-.5374772l-.1249519-.2766741zm1.503534.1125205.0285574.0762095c.0246243.0664951.0492925.1351964.0739095.2060706.5393236 1.5527552.7462118 3.278659.4673544 5.1160074.3583795-.6494683.7021834-1.5243408.9792545-2.5392644.3173962-1.161997-.5005911-2.3815208-1.5490758-2.8590231zm-65.85092145-4.9708343-.05773955.099888c-.50925886.9405735-.69707263 2.8134856-.48952958 5.0702225.18189934 1.9784711 2.50462638 3.2542806 4.27715896 2.804825-.00503801-.0106955-.00709589-.0216561-.00889218-.0327244-.35630075-2.1954302-.9266393-3.9623921-1.6479677-5.3483533-.43532167-.8364275-.8958701-1.4777645-1.34957406-1.9496092-.11011201-.1145147-.20714387-.206836-.28860616-.278863l-.14142758-.1175577-.09548314-.0668156c-.08002334-.0479559-.14642517-.1099782-.19793901-.1810123zm75.11701315 4.0525721-.0111182.0037988c-.3785783.1010237-.742093.143817-1.0713399.1209959.0429453.4508977.4709895 1.2965136 1.2663663 2.0661772 1.0252519.9924796 2.1571834 1.3705753 2.3897685 1.1303347.232273-.2399185-.1828983-1.3589642-1.2083171-2.3512329-.4102022-.396941-.8373618-.6956059-1.2171432-.8957529zm-73.64099569-4.567216.02894633.0267961c.53490357.5038142 1.15303835 1.3031619 1.75671593 2.4630686.73553233 1.4132527 1.31927903 3.1630682 1.70176203 5.2836784 1.1029706-1.1189865 1.410001-3.2225098.333395-4.7522358l-.1535402-.2118178c-1.1132867-1.4921262-2.57921984-2.5445239-3.66727909-2.8094895zm12.87711809-5.4213537c-1.034477.83652732-1.8311743 3.2898721-2.1307515 6.4530685-.2281823 2.4074792 2.1084422 4.4612376 4.3430763 4.5351079-.0147706-.0603838-.0212616-.1223424-.0187783-.1860314.1554347-3.9864786-.2993185-6.9365155-1.1414196-9.00275027-.2476689-.60769669-.5089347-1.08500324-.7650362-1.44586482l-.0673037-.09254733-.1112718-.14175541-.0767822-.08647023-.0241916-.02344086zm1.5441004-.19128924.0076942.01154929c.2393011.37709879.4929405.86417521.7412327 1.47340142.9122156 2.23827203 1.395781 5.35148013 1.2425671 9.48013433 2.1146164-.8012638 3.4212985-3.7841262 2.2943497-6.2594766l-.1271144-.2700947c-1.0901204-2.24253109-2.8010975-3.96778616-4.1587293-4.43551374zm14.7022791-4.59083634-.0839415.02369922c-1.462738.47896353-2.8404826 3.21152001-3.6932672 7.00833551l-.1411828.66215305c-.6297052 3.1157109 2.3814427 6.1003505 5.2914595 6.1000717l-.0489838.2183595c1.1779511-5.0634839.9062921-9.00694919-.2437015-11.92016913-.213531-.54092722-.4404993-.99523071-.6650378-1.3650896l-.1168936-.18560656-.0905003-.13243558-.0605602-.0796985c-.0813504-.09795965-.1300733-.21223042-.1473908-.32961961zm1.7648516.37809761.0447766.08384912c.1676817.31888752.3432734.69799563.5171569 1.13848575 1.1888855 3.01174275 1.510421 6.9744462.4751809 11.9334293 2.462566-.9227943 4.1789841-4.1751775 3.1837625-7.15537966l-.0970788-.28094539c-.9453638-2.64608636-2.6058418-4.82866726-4.1237981-5.71943912zm45.0003708 10.84993577c-.053815-.0331896-.2235833-.06547-.5154115-.0274905-.4568501.0594561-1.0192818.2814893-1.5571239.6306896-.5375839.3491584-.969053.7726404-1.2091672 1.1658939-.0584162.0956726-.1003207.1793145-.1293598.249657.3594796-.0676518.7643001-.0281111 1.1884777.1012496.2776915-.1055181.5677661-.2541533.8510205-.4380596.5375838-.3491584.9690529-.7726403 1.2091672-1.1658939.1752485-.2870179.2018922-.465759.1783115-.5020727zm-29.8804168-11.79744763c-.844365.35135554-1.6930906 1.4084889-2.4542984 2.9595569l-.2337359.49790222c-.4998752 1.11224713-.9557184 2.43865713-1.3394466 3.91447932-.7849684 3.01887459 1.9366099 6.10379269 4.784342 6.36965619l-.0712039.2683503c1.6804991-6.19804201 1.4999646-10.32128462.2326572-12.7918645-.3100098-.60435529-.6019454-.95511499-.7843144-1.1071965l-.0513323-.03971902zm1.9530255.31750986.046559.08036357c.0371041.06718866.074137.13671301.111018.2086115 1.3801059 2.69047729 1.6133417 6.91952275.0611387 13.0207003 2.6030282-.6829256 4.6127827-3.9181773 3.7623485-7.0245368-.787998-2.87769317-2.4344325-5.31703468-3.9810642-6.28513857zm14.3990107 4.35183396-.0272316.01971c-.8514075.62572102-1.7647545 2.34682067-2.4324831 4.61562681-.5772942 1.96202 1.2285453 4.0689752 3.100548 4.2012211.7303855-3.5860311.5966718-6.11881443-.0513358-7.77262093-.164933-.42093218-.3173323-.67437494-.4087811-.78727312l-.0313417-.03580141c-.0686121-.07109307-.118367-.15344338-.1493747-.24086245zm1.6900353.22964335.0630117.14048402c.0281572.06551692.0562235.13381857.084094.20494806.7096815 1.81120698.8792002 4.41837978.2291325 7.95101508 1.3475407-.6993615 2.3071704-2.4652584 1.8885442-4.2101993-.4303093-1.79349626-1.3602869-3.34397823-2.2647824-4.08624786z" fill="#a0b9b6" fill-rule="nonzero" transform="matrix(-1 0 0 1 596 678)"/><g stroke="#a0b9b6"><path d="m23.5 6.5h719v16h16v723h-17v17h-718v-17h-17v-722h17z"/><path d="m23.5 23.5 38 38v648l-39 37.5"/><path d="m704 23.5 38 38v648l-38.5 36" transform="matrix(-1 0 0 1 1445.5 0)"/><path d="m61 709.5h96.5"/><path d="m608 709.5h96.5"/></g><g fill="#a0b9b6" fill-rule="nonzero"><path d="m23.1464466 6.14644661.7071068.70710678-17.00000001 17.00000001-.70710678-.7071068z"/><path d="m23.5 6v1h-7.794l-8.706 8.706v7.794h-1v-8.2071068l9.2928932-9.2928932z"/><path d="m12.6581139 9.02565835 6.215896 2.07196535 5.0875286 12.2100686-.923077.3846154-4.9124615-11.7903077-5.7841139-1.92765835z"/><path d="m9.97434165 12.3418861 1.92765835 5.7841139 11.7903077 4.9124615-.3846154.923077-12.2100686-5.0875286-2.07196535-6.215896z"/><path d="m5.35355339 4.64644661 3 3-.70710678.70710678-3-3z"/><path d="m14 0v5h-1v-5z"/><path d="m5 13v1h-5v-1z"/></g><g fill="#a0b9b6" fill-rule="nonzero" transform="matrix(-1 0 0 1 765 0)"><path d="m23.1464466 6.14644661.7071068.70710678-17.00000001 17.00000001-.70710678-.7071068z"/><path d="m23.5 6v1h-7.794l-8.706 8.706v7.794h-1v-8.2071068l9.2928932-9.2928932z"/><path d="m12.6581139 9.02565835 6.215896 2.07196535 5.0875286 12.2100686-.923077.3846154-4.9124615-11.7903077-5.7841139-1.92765835z"/><path d="m9.97434165 12.3418861 1.92765835 5.7841139 11.7903077 4.9124615-.3846154.923077-12.2100686-5.0875286-2.07196535-6.215896z"/><path d="m5.35355339 4.64644661 3 3-.70710678.70710678-3-3z"/><path d="m14 0v5h-1v-5z"/><path d="m5 13v1h-5v-1z"/></g><g fill="#a0b9b6" fill-rule="nonzero" transform="matrix(-1 0 0 -1 765 769)"><path d="m23.1464466 6.14644661.7071068.70710678-17.00000001 17.00000001-.70710678-.7071068z"/><path d="m23.5 6v1h-7.794l-8.706 8.706v7.794h-1v-8.2071068l9.2928932-9.2928932z"/><path d="m12.6581139 9.02565835 6.215896 2.07196535 5.0875286 12.2100686-.923077.3846154-4.9124615-11.7903077-5.7841139-1.92765835z"/><path d="m9.97434165 12.3418861 1.92765835 5.7841139 11.7903077 4.9124615-.3846154.923077-12.2100686-5.0875286-2.07196535-6.215896z"/><path d="m5.35355339 4.64644661 3 3-.70710678.70710678-3-3z"/><path d="m14 0v5h-1v-5z"/><path d="m5 13v1h-5v-1z"/></g><g fill="#a0b9b6" fill-rule="nonzero" transform="matrix(0 -1 1 0 0 769)"><path d="m23.1464466 6.14644661.7071068.70710678-17.00000001 17.00000001-.70710678-.7071068z"/><path d="m23.5 6v1h-7.794l-8.706 8.706v7.794h-1v-8.2071068l9.2928932-9.2928932z"/><path d="m12.6581139 9.02565835 6.215896 2.07196535 5.0875286 12.2100686-.923077.3846154-4.9124615-11.7903077-5.7841139-1.92765835z"/><path d="m9.97434165 12.3418861 1.92765835 5.7841139 11.7903077 4.9124615-.3846154.923077-12.2100686-5.0875286-2.07196535-6.215896z"/><path d="m5.35355339 4.64644661 3 3-.70710678.70710678-3-3z"/><path d="m14 0v5h-1v-5z"/><path d="m5 13v1h-5v-1z"/></g></g></svg>