<svg height="769" width="765" xmlns="http://www.w3.org/2000/svg"><g fill="none" fill-rule="evenodd"><path d="M223.03 678.462c2.665-.231 5.66 3.327 6.858 7.706.902 3.292-.776 6.682-3.365 8.128l11.015-.202c-1.722-1.048-2.884-3.159-2.27-5.248.998-3.388 2.44-5.73 4.268-5.83 1.958-.108 3.99 2.47 4.736 5.576.515 2.15-.483 4.306-2.082 5.415l3.463-.082 2.085-.06c.05-.899.85-1.92 2.002-2.669 1.542-1 3.272-1.226 3.942-.195l.07.12c.529 1.025-.37 2.44-1.851 3.402a6.684 6.684 0 01-.113.07c.275.197.545.423.804.674 1.492 1.443 2.173 3.28 1.24 4.246-.935.965-2.794.344-4.285-1.1-1.058-1.023-1.709-2.245-1.664-3.214l-3.118.09-2.514.054c1.249.88 2.054 2.456 1.62 4.047-.747 2.732-1.865 4.633-3.386 4.746-1.625.121-3.304-1.924-3.953-4.41-.432-1.657.253-3.342 1.431-4.3l-10.05.182-.926.019c1.938 1.074 3.327 3.294 2.82 5.625-.851 3.92-2.292 6.693-4.316 6.951-2.172.278-4.68-2.469-5.777-5.923-.81-2.545.337-5.243 2.275-6.539l-.136.005-3.474.101-2.623.09-2.492.101-1.789.083-.612.03c1.89 1.01 3.284 3.084 2.92 5.358-.636 3.96-1.922 6.808-3.929 7.178-2.152.396-4.808-2.209-6.094-5.598-.94-2.478.034-5.211 1.87-6.621l-.715.052-1.51.119-.983.084-.965.088-.947.092-1.392.146-1.36.156-1.332.166-.14.017c1.125.894 1.876 2.261 1.73 3.79-.325 3.403-1.264 5.893-2.992 6.327-1.85.463-4.256-1.614-5.535-4.43-.713-1.568-.495-3.322.303-4.65l-.149.028-1.112.225-1.083.235c-1.5.337-2.91.705-4.234 1.105 1.232.514 2.235 1.603 2.365 3.03.257 2.822-.126 4.992-1.511 5.631-1.48.682-3.77-.647-5.245-2.749-.9-1.28-.935-2.905-.35-4.175-3.83 1.705-6.574 3.827-8.222 6.423a.67.67 0 11-1.131-.718c1.782-2.807 4.671-5.068 8.661-6.866-2.143-.17-4.27-1.766-4.485-4.094l-.027-.318-.041-.62c-.16-3.055.371-5.358 1.882-6.056 1.78-.822 4.621.824 6.46 3.436 1.41 2.002 1.095 4.698-.317 6.297a57.48 57.48 0 015.906-1.635l1.101-.239c.435-.091.876-.18 1.324-.266-2.098-.927-3.75-3.046-3.518-5.501.403-4.258 1.577-7.378 3.668-7.904 2.245-.566 5.246 2.02 6.846 5.536 1.12 2.458.388 5.286-1.304 6.944l.527-.073 1.334-.17 1.36-.161 1.39-.15.945-.096 1.449-.134 1.49-.126 1.123-.085c-2.79-1.098-4.991-4.082-4.349-7.261.116-.574.243-1.128.379-1.66l.169-.629c1.04-3.703 2.61-6.21 4.67-6.504 2.648-.377 5.833 3.01 7.27 7.318 1.109 3.318-.483 6.889-3.103 8.416l.288-.017 2.353-.114 1.842-.08 1.913-.072 2.666-.09 2.245-.062c-2.703-1.263-4.711-4.347-3.9-7.47l.182-.67c.092-.33.189-.652.288-.967l.203-.618.104-.3.216-.584c1.21-3.143 2.8-5.188 4.7-5.353zm-42.898 23.19l-.055.06c-.744.852-.93 2.35-.158 3.448.83 1.183 1.96 2.032 2.794 2.287-.102-1.682-.558-3.08-1.254-4.22a6.658 6.658 0 00-.857-1.13 5.114 5.114 0 00-.178-.177l-.127-.115a1.075 1.075 0 00-.043-.033.671.671 0 01-.122-.12zm28.783-4.767l.093.163c.142.255.29.547.437.874 1.172 2.61 1.486 5.764.434 9.358 1.015-.47 1.943-2.537 2.472-5.359l.109-.625c.342-2.134-1.558-4.108-3.545-4.41zm-1.521.128c-1.937.673-3.257 3.293-2.381 5.6.822 2.167 2.277 3.923 3.513 4.539l.016-.077c1.018-3.346.745-6.232-.32-8.604a8.777 8.777 0 00-.641-1.189l-.135-.2zm16.378-.627c-2.02.509-3.541 3.098-2.781 5.488.79 2.486 2.41 4.498 3.702 4.925l.012-.029c1.115-2.757.9-5.734-.14-8.592a14.549 14.549 0 00-.602-1.418zm-39.548 6.628c-.214-1.237-1.587-2.068-2.781-1.98.349.34.757.835 1.16 1.495.724 1.186 1.22 2.604 1.399 4.259.282-.763.383-2.073.243-3.618zm41.045-6.63l-.103-.214c.225.457.449.977.657 1.55 1.024 2.81 1.322 5.746.473 8.562.864-.928 1.67-2.865 2.202-5.315l.033-.173c.325-2.026-1.375-3.98-3.262-4.41zm-33.097 1.614l-.193.032c-1.308.818-2.034 2.81-1.27 4.491.765 1.686 1.996 3.02 3.007 3.51l-.005.027c.466-2.66.14-4.874-.68-6.649a7.26 7.26 0 00-.598-1.065l-.123-.172-.088-.113a1.05 1.05 0 00-.03-.034zm1.785-.282l-.298.044c.188.292.39.655.59 1.087.9 1.95 1.271 4.341.83 7.152.755-.627 1.37-2.515 1.603-4.948l.01-.174c.042-1.532-1.298-2.849-2.735-3.16zm45.568-1.65c-1.168.386-2.073 1.878-1.696 3.322.424 1.626 1.383 2.971 2.147 3.324.618-2.12.488-4.09-.11-5.812a8.642 8.642 0 00-.207-.538l-.125-.276zm1.504.112l.028.076a10.613 10.613 0 01.541 5.322c.359-.65.703-1.524.98-2.54.317-1.161-.5-2.38-1.55-2.858zm-65.851-4.971l-.058.1c-.51.94-.697 2.813-.49 5.07.182 1.979 2.505 3.254 4.278 2.805a.12.12 0 01-.01-.033c-.356-2.195-.926-3.962-1.647-5.348-.436-.837-.896-1.478-1.35-1.95a5 5 0 00-.288-.279l-.142-.117-.095-.067a.668.668 0 01-.198-.181zm75.117 4.053l-.011.003a3.313 3.313 0 01-1.072.121c.043.451.471 1.297 1.267 2.066 1.025.993 2.157 1.371 2.39 1.13.232-.24-.184-1.358-1.209-2.35a5.42 5.42 0 00-1.217-.896zm-73.641-4.568l.029.027c.535.504 1.153 1.303 1.756 2.463.736 1.413 1.32 3.163 1.702 5.284 1.103-1.12 1.41-3.223.333-4.752l-.153-.212c-1.113-1.492-2.58-2.545-3.667-2.81zm12.877-5.421c-1.035.836-1.831 3.29-2.131 6.453-.228 2.407 2.108 4.461 4.343 4.535a.67.67 0 01-.019-.186c.156-3.986-.299-6.936-1.141-9.003a7.211 7.211 0 00-.765-1.446l-.067-.092-.112-.142-.076-.086-.025-.024zm1.544-.191l.008.011c.239.377.493.864.74 1.474.913 2.238 1.397 5.351 1.243 9.48 2.115-.802 3.422-3.784 2.295-6.26l-.127-.27c-1.09-2.242-2.801-3.968-4.16-4.435zm14.702-4.591l-.084.024c-1.463.478-2.84 3.211-3.693 7.008l-.141.662c-.63 3.116 2.381 6.1 5.291 6.1l-.049.218c1.178-5.063.907-9.007-.243-11.92a9.029 9.029 0 00-.665-1.365l-.117-.185-.09-.133-.061-.08a.667.667 0 01-.148-.33zm1.765.378l.045.084c.167.319.343.698.517 1.138 1.189 3.012 1.51 6.975.475 11.934 2.463-.923 4.18-4.175 3.184-7.156l-.097-.28c-.946-2.647-2.606-4.83-4.124-5.72zm45 10.85c-.053-.033-.223-.066-.515-.028-.457.06-1.02.282-1.557.631-.538.35-.97.773-1.21 1.166-.058.096-.1.18-.129.25.36-.068.765-.029 1.189.1.277-.105.568-.253.85-.437.538-.35.97-.773 1.21-1.166.175-.287.202-.466.178-.502zm-29.88-11.798c-.844.352-1.693 1.409-2.454 2.96l-.234.498c-.5 1.112-.956 2.439-1.34 3.914-.784 3.02 1.937 6.104 4.785 6.37l-.071.268c1.68-6.198 1.5-10.32.232-12.792-.31-.604-.602-.955-.784-1.107l-.051-.04zm1.953.318l.047.08c.037.067.074.137.11.209 1.38 2.69 1.614 6.92.062 13.02 2.603-.682 4.612-3.918 3.762-7.024-.788-2.878-2.434-5.317-3.981-6.285zm14.399 4.352l-.027.02c-.852.625-1.765 2.346-2.433 4.615-.577 1.962 1.229 4.07 3.1 4.201.731-3.586.598-6.119-.05-7.772-.165-.421-.318-.675-.41-.788l-.03-.035a.668.668 0 01-.15-.241zm1.69.23l.063.14c.028.065.056.134.084.205.71 1.811.88 4.418.23 7.95 1.347-.699 2.306-2.464 1.888-4.21-.43-1.793-1.36-3.343-2.265-4.086zm301.266-6.357c-2.665-.231-5.66 3.327-6.858 7.706-.902 3.292.776 6.682 3.365 8.128l-11.015-.202c1.722-1.048 2.884-3.159 2.27-5.248-.998-3.388-2.44-5.73-4.268-5.83-1.958-.108-3.99 2.47-4.736 5.576-.515 2.15.483 4.306 2.082 5.415l-3.463-.082-2.085-.06c-.05-.899-.85-1.92-2.002-2.669-1.542-1-3.272-1.226-3.942-.195l-.07.12c-.529 1.025.37 2.44 1.851 3.402.038.024.075.048.113.07a7.099 7.099 0 00-.804.674c-1.492 1.443-2.173 3.28-1.24 4.246.935.965 2.794.344 4.285-1.1 1.058-1.023 1.709-2.245 1.664-3.214l3.118.09 2.514.054c-1.249.88-2.054 2.456-1.62 4.047.747 2.732 1.865 4.633 3.386 4.746 1.625.121 3.304-1.924 3.953-4.41.432-1.657-.253-3.342-1.431-4.3l10.05.182.926.019c-1.938 1.074-3.327 3.294-2.82 5.625.851 3.92 2.292 6.693 4.316 6.951 2.172.278 4.68-2.469 5.777-5.923.81-2.545-.337-5.243-2.275-6.539l.136.005 3.474.101 2.623.09 2.492.101 1.789.083.612.03c-1.89 1.01-3.284 3.084-2.92 5.358.636 3.96 1.922 6.808 3.929 7.178 2.152.396 4.808-2.209 6.094-5.598.94-2.478-.034-5.211-1.87-6.621l.715.052 1.51.119.983.084.965.088.947.092 1.392.146 1.36.156 1.332.166.14.017c-1.125.894-1.876 2.261-1.73 3.79.325 3.403 1.264 5.893 2.992 6.327 1.85.463 4.256-1.614 5.535-4.43.713-1.568.495-3.322-.303-4.65l.149.028 1.112.225 1.083.235c1.5.337 2.91.705 4.234 1.105-1.232.514-2.235 1.603-2.365 3.03-.257 2.822.126 4.992 1.511 5.631 1.48.682 3.77-.647 5.245-2.749.9-1.28.935-2.905.35-4.175 3.83 1.705 6.574 3.827 8.222 6.423a.67.67 0 101.131-.718c-1.782-2.807-4.671-5.068-8.661-6.866 2.143-.17 4.27-1.766 4.485-4.094l.027-.318.041-.62c.16-3.055-.371-5.358-1.882-6.056-1.78-.822-4.621.824-6.46 3.436-1.41 2.002-1.095 4.698.317 6.297a57.48 57.48 0 00-5.906-1.635l-1.101-.239c-.435-.091-.876-.18-1.324-.266 2.098-.927 3.75-3.046 3.518-5.501-.403-4.258-1.577-7.378-3.668-7.904-2.245-.566-5.246 2.02-6.846 5.536-1.12 2.458-.388 5.286 1.304 6.944l-.527-.073-1.334-.17-1.36-.161-1.39-.15-.945-.096-1.449-.134-1.49-.126-1.123-.085c2.79-1.098 4.991-4.082 4.349-7.261a33.133 33.133 0 00-.379-1.66l-.169-.629c-1.04-3.703-2.61-6.21-4.67-6.504-2.648-.377-5.833 3.01-7.27 7.318-1.109 3.318.483 6.889 3.103 8.416l-.288-.017-2.353-.114-1.842-.08-1.913-.072-2.666-.09-2.245-.062c2.703-1.263 4.711-4.347 3.9-7.47l-.182-.67c-.092-.33-.189-.652-.288-.967l-.203-.618-.104-.3-.216-.584c-1.21-3.143-2.8-5.188-4.7-5.353zm42.898 23.19l.055.06c.744.852.93 2.35.158 3.448-.83 1.183-1.96 2.032-2.794 2.287.102-1.682.558-3.08 1.254-4.22a6.69 6.69 0 01.857-1.13c.067-.07.127-.128.178-.177l.127-.115.043-.033a.671.671 0 00.122-.12zm-28.783-4.767l-.093.163c-.142.255-.29.547-.437.874-1.172 2.61-1.486 5.764-.434 9.358-1.015-.47-1.943-2.537-2.472-5.359l-.109-.625c-.342-2.134 1.558-4.108 3.545-4.41zm1.521.128c1.937.673 3.257 3.293 2.381 5.6-.822 2.167-2.277 3.923-3.513 4.539l-.016-.077c-1.018-3.346-.745-6.232.32-8.604.205-.458.424-.855.641-1.189l.135-.2zm-16.378-.627c2.02.509 3.541 3.098 2.781 5.488-.79 2.486-2.41 4.498-3.702 4.925l-.012-.029c-1.115-2.757-.9-5.734.14-8.592.192-.526.398-1.002.602-1.418zm39.548 6.628c.214-1.237 1.587-2.068 2.781-1.98-.349.34-.757.835-1.16 1.495-.724 1.186-1.22 2.604-1.399 4.259-.282-.763-.383-2.073-.243-3.618zm-41.045-6.63l.103-.214c-.225.457-.449.977-.657 1.55-1.024 2.81-1.322 5.746-.473 8.562-.864-.928-1.67-2.865-2.202-5.315l-.033-.173c-.325-2.026 1.375-3.98 3.262-4.41zm33.097 1.614l.193.032c1.308.818 2.034 2.81 1.27 4.491-.765 1.686-1.996 3.02-3.007 3.51l.005.027c-.466-2.66-.14-4.874.68-6.649a7.26 7.26 0 01.598-1.065l.123-.172.088-.113a1.05 1.05 0 01.03-.034zm-1.785-.282l.298.044c-.188.292-.39.655-.59 1.087-.9 1.95-1.271 4.341-.83 7.152-.755-.627-1.37-2.515-1.603-4.948l-.01-.174c-.042-1.532 1.298-2.849 2.735-3.16zm-45.568-1.65c1.168.386 2.073 1.878 1.696 3.322-.424 1.626-1.383 2.971-2.147 3.324-.618-2.12-.488-4.09.11-5.812.071-.203.141-.383.207-.538l.125-.276zm-1.504.112l-.028.076a10.613 10.613 0 00-.541 5.322c-.359-.65-.703-1.524-.98-2.54-.317-1.161.5-2.38 1.55-2.858zm65.851-4.971l.058.1c.51.94.697 2.813.49 5.07-.182 1.979-2.505 3.254-4.278 2.805a.12.12 0 00.01-.033c.356-2.195.926-3.962 1.647-5.348.436-.837.896-1.478 1.35-1.95a5 5 0 01.288-.279l.142-.117.095-.067a.668.668 0 00.198-.181zm-75.117 4.053l.011.003c.379.101.743.144 1.072.121-.043.451-.471 1.297-1.267 2.066-1.025.993-2.157 1.371-2.39 1.13-.232-.24.184-1.358 1.209-2.35a5.42 5.42 0 011.217-.896zm73.641-4.568l-.029.027c-.535.504-1.153 1.303-1.756 2.463-.736 1.413-1.32 3.163-1.702 5.284-1.103-1.12-1.41-3.223-.333-4.752l.153-.212c1.113-1.492 2.58-2.545 3.667-2.81zm-12.877-5.421c1.035.836 1.831 3.29 2.131 6.453.228 2.407-2.108 4.461-4.343 4.535a.67.67 0 00.019-.186c-.156-3.986.299-6.936 1.141-9.003a7.211 7.211 0 01.765-1.446l.067-.092.112-.142.076-.086.025-.024zm-1.544-.191l-.008.011a9.243 9.243 0 00-.74 1.474c-.913 2.238-1.397 5.351-1.243 9.48-2.115-.802-3.422-3.784-2.295-6.26l.127-.27c1.09-2.242 2.801-3.968 4.16-4.435zm-14.702-4.591l.084.024c1.463.478 2.84 3.211 3.693 7.008l.141.662c.63 3.116-2.381 6.1-5.291 6.1l.049.218c-1.178-5.063-.907-9.007.243-11.92.214-.54.44-.995.665-1.365l.117-.185.09-.133.061-.08a.667.667 0 00.148-.33zm-1.765.378l-.045.084c-.167.319-.343.698-.517 1.138-1.189 3.012-1.51 6.975-.475 11.934-2.463-.923-4.18-4.175-3.184-7.156l.097-.28c.946-2.647 2.606-4.83 4.124-5.72zm-45 10.85c.053-.033.223-.066.515-.028.457.06 1.02.282 1.557.631.538.35.97.773 1.21 1.166.058.096.1.18.129.25-.36-.068-.765-.029-1.189.1a4.556 4.556 0 01-.85-.437c-.538-.35-.97-.773-1.21-1.166-.175-.287-.202-.466-.178-.502zm29.88-11.798c.844.352 1.693 1.409 2.454 2.96l.234.498c.5 1.112.956 2.439 1.34 3.914.784 3.02-1.937 6.104-4.785 6.37l.071.268c-1.68-6.198-1.5-10.32-.232-12.792.31-.604.602-.955.784-1.107l.051-.04zm-1.953.318l-.047.08a7.724 7.724 0 00-.11.209c-1.38 2.69-1.614 6.92-.062 13.02-2.603-.682-4.612-3.918-3.762-7.024.788-2.878 2.434-5.317 3.981-6.285zm-14.399 4.352l.027.02c.852.625 1.765 2.346 2.433 4.615.577 1.962-1.229 4.07-3.1 4.201-.731-3.586-.598-6.119.05-7.772.165-.421.318-.675.41-.788l.03-.035a.668.668 0 00.15-.241zm-1.69.23l-.063.14a6.826 6.826 0 00-.084.205c-.71 1.811-.88 4.418-.23 7.95-1.347-.699-2.306-2.464-1.888-4.21.43-1.793 1.36-3.343 2.265-4.086z" fill="#a0b9b6" fill-rule="nonzero"/><g stroke="#a0b9b6"><path d="M23.5 6.5h719v16h16v723h-17v17h-718v-17h-17v-722h17z"/><path d="M23.5 23.5l38 38v648l-39 37.5m719-723.5l-38 38v648l38.5 36m-681-36h96.5m450.5 0h96.5"/></g><g fill="#a0b9b6" fill-rule="nonzero"><path d="M23.146 6.146l.708.708-17 17-.708-.708z"/><path d="M23.5 6v1h-7.794L7 15.706V23.5H6v-8.207L15.293 6z"/><path d="M12.658 9.026l6.216 2.072 5.088 12.21-.924.384-4.912-11.79-5.784-1.928z"/><path d="M9.974 12.342l1.928 5.784 11.79 4.912-.384.924-12.21-5.088-2.072-6.216zm-4.62-7.696l3 3-.708.708-3-3zM14 0v5h-1V0zM5 13v1H0v-1z"/></g><g fill="#a0b9b6" fill-rule="nonzero"><path d="M741.854 6.146l-.708.708 17 17 .708-.708z"/><path d="M741.5 6v1h7.794L758 15.706V23.5h1v-8.207L749.707 6z"/><path d="M752.342 9.026l-6.216 2.072-5.088 12.21.924.384 4.912-11.79 5.784-1.928z"/><path d="M755.026 12.342l-1.928 5.784-11.79 4.912.384.924 12.21-5.088 2.072-6.216zm4.62-7.696l-3 3 .708.708 3-3zM751 0v5h1V0zm9 13v1h5v-1z"/></g><g fill="#a0b9b6" fill-rule="nonzero"><path d="M741.854 762.854l-.708-.708 17-17 .708.708z"/><path d="M741.5 763v-1h7.794l8.706-8.706V745.5h1v8.207L749.707 763z"/><path d="M752.342 759.974l-6.216-2.072-5.088-12.21.924-.384 4.912 11.79 5.784 1.928z"/><path d="M755.026 756.658l-1.928-5.784-11.79-4.912.384-.924 12.21 5.088 2.072 6.216zm4.62 7.696l-3-3 .708-.708 3 3zM751 769v-5h1v5zm9-13v-1h5v1z"/></g><g fill="#a0b9b6" fill-rule="nonzero"><path d="M6.146 745.854l.708-.708 17 17-.708.708z"/><path d="M6 745.5h1v7.794L15.706 762H23.5v1h-8.207L6 753.707z"/><path d="M9.026 756.342l2.072-6.216 12.21-5.088.384.924-11.79 4.912-1.928 5.784z"/><path d="M12.342 759.026l5.784-1.928 4.912-11.79.924.384-5.088 12.21-6.216 2.072zm-7.696 4.62l3-3 .708.708-3 3zM0 755h5v1H0zm13 9h1v5h-1z"/></g></g></svg>