<svg height="154" width="525" xmlns="http://www.w3.org/2000/svg"><g fill="none" fill-rule="evenodd"><g fill="#a0b9b6" fill-rule="nonzero"><path d="M16.73 75.214l.098.002a.67.67 0 01.61.726c-.81 9.234.67 17.773 4.242 26.493l.294.708c1.65 3.902 2.296 8.224 2.343 13.396l.003.624v29.781a3.659 3.659 0 01-2.85 3.568c-6.4 1.405-12.605 1.401-18.627.008a3.644 3.644 0 01-2.784-3.54l-.011-19.187-.001-10.63c0-5.45.63-9.961 2.346-14.02 3.783-8.967 5.367-17.717 4.536-27.201a.67.67 0 011.335-.117c.851 9.713-.772 18.68-4.637 27.84-1.567 3.707-2.19 7.865-2.237 12.868l-.003.63.012 29.815a2.3 2.3 0 001.753 2.238c5.819 1.347 11.822 1.35 18.025-.012a2.318 2.318 0 001.797-2.09l.006-.17v-29.78c0-5.287-.608-9.637-2.24-13.5-3.866-9.16-5.489-18.126-4.637-27.84a.67.67 0 01.626-.61z"/><path d="M19.588 121.655l-1.434.099c-1.387.09-2.64.152-3.83.188l-1.171.027c-2.312.036-4.469-.036-7.045-.215l-1.325-.099a.67.67 0 00-.723.668v18.92c0 .337.25.622.585.665 5.442.697 8.915.693 15.067.001a.67.67 0 00.595-.666v-18.92a.67.67 0 00-.719-.668zm-.622 1.387v17.601l-.065.007c-5.423.584-8.694.587-13.501.002l-.001-17.606.621.045c4.34.302 7.52.303 12.179.003z"/><path d="M10.47 138.388c.924 0 1.645-.294 2.163-.882s.778-1.405.778-2.45v-7.644c0-.28.018-.488.055-.623s.115-.231.231-.287.297-.084.54-.084c.027 0 .041-.028.041-.084s-.014-.084-.042-.084l-.658.014a21.25 21.25 0 01-.98.028c-.27 0-.63-.01-1.078-.028l-.868-.014c-.018 0-.028.028-.028.084s.01.084.028.084c.346 0 .598.026.756.077s.269.142.33.273.09.336.09.616v8.652c0 .737-.046 1.265-.14 1.582s-.238.476-.434.476c-.084 0-.154-.04-.21-.119s-.112-.194-.168-.343a2 2 0 00-.343-.588c-.126-.14-.305-.21-.539-.21-.242 0-.424.072-.546.217s-.182.31-.182.497c0 .261.112.467.336.616s.514.224.868.224zM17.343 71.2H7.023c-.37 0-.67.3-.67.67v3.44c0 .37.3.67.67.67h10.32c.37 0 .67-.3.67-.67v-3.44c0-.37-.3-.67-.67-.67zm-.67 1.34v2.1h-8.98v-2.1z"/><path d="M16.197 68.047H8.17c-.37 0-.67.3-.67.67v2.866c0 .37.3.67.67.67h8.027c.37 0 .67-.3.67-.67v-2.866c0-.37-.3-.67-.67-.67zm-.671 1.339v1.527H8.84v-1.527zM18.331 95.3a.67.67 0 11.318 1.3c-1.18.289-2.646 1.358-3.645 2.63a.67.67 0 01-.19.165c-2.042 1.191-4.03 1.178-5.863-.017a.67.67 0 01-.191-.19c-1.026-1.534-2.022-2.391-3.01-2.58a.67.67 0 01.253-1.316c1.339.256 2.533 1.237 3.68 2.874l.106.156.085.052c1.276.755 2.595.762 4.046-.014l.116-.065.114-.138c1.092-1.3 2.576-2.378 3.929-2.789z"/></g><g stroke="#a0b9b6"><path d="M12 55v-5" stroke-linecap="round" stroke-width="1.34"/><path d="M8 59l-5-4m14 4l5-4" stroke-width="1.33"/></g><path d="M206 25.5a.5.5 0 01.09.992l-.09.008H12.5V43a.5.5 0 01-.41.492L12 43.5a.5.5 0 01-.492-.41L11.5 43V25.5z" fill="#a0b9b6" fill-rule="nonzero"/><g fill="#a0b9b6" fill-rule="nonzero"><path d="M220.892 20.958v10.32c0 .37.3.67.67.67h4.2a3.67 3.67 0 003.67-3.67v-4.32a3.67 3.67 0 00-3.67-3.67h-4.2c-.37 0-.67.3-.67.67zm1.34 9.65v-8.98h3.53a2.33 2.33 0 012.33 2.33v4.32l-.005.16a2.33 2.33 0 01-2.325 2.17z"/><path d="M212.83 22.399v7.438a1.67 1.67 0 002.075 1.62l6.757-1.69a.67.67 0 00.508-.65v-6a.67.67 0 00-.508-.65l-6.757-1.689a1.67 1.67 0 00-2.075 1.62zm1.34 7.438v-7.438a.33.33 0 01.01-.08l.022-.063a.33.33 0 01.378-.178l6.25 1.563v4.955l-6.25 1.561a.33.33 0 01-.41-.32z"/></g><g fill="#a0b9b6" fill-rule="nonzero"><path d="M508.27 75.214l-.098.002a.67.67 0 00-.61.726c.81 9.234-.67 17.773-4.242 26.493l-.294.708c-1.65 3.902-2.296 8.224-2.343 13.396l-.003.624v29.781a3.659 3.659 0 002.85 3.568c6.4 1.405 12.605 1.401 18.627.008a3.644 3.644 0 002.784-3.54l.011-19.187.001-10.63c0-5.45-.63-9.961-2.346-14.02-3.783-8.967-5.367-17.717-4.536-27.201a.67.67 0 00-1.335-.117c-.851 9.713.772 18.68 4.637 27.84 1.567 3.707 2.19 7.865 2.237 12.868l.003.63-.012 29.815a2.303 2.303 0 01-1.753 2.238c-5.819 1.347-11.822 1.35-18.025-.012a2.318 2.318 0 01-1.797-2.09l-.006-.17v-29.78c0-5.287.608-9.637 2.24-13.5 3.866-9.16 5.489-18.126 4.637-27.84a.67.67 0 00-.626-.61z"/><path d="M505.412 121.655l1.434.099c1.387.09 2.64.152 3.83.188l1.171.027c2.312.036 4.469-.036 7.045-.215l1.325-.099a.67.67 0 01.723.668v18.92a.67.67 0 01-.585.665c-5.442.697-8.915.693-15.067.001a.67.67 0 01-.595-.666v-18.92a.67.67 0 01.719-.668zm.622 1.387v17.601l.065.007c5.423.584 8.694.587 13.501.002l.001-17.606-.621.045c-4.34.302-7.52.303-12.179.003z"/><path d="M507.783 136a8.7 8.7 0 00.516-.012l.756-.012.66.012c.12.008.288.012.504.012.024 0 .036-.024.036-.072s-.012-.072-.036-.072c-.328 0-.582-.122-.762-.366s-.266-.582-.258-1.014l.096-4.332 3.036 5.772c.016.032.048.048.096.048s.08-.016.096-.048l2.472-5.796.252 4.908.012.204c0 .256-.06.424-.18.504s-.348.12-.684.12c-.024 0-.036.024-.036.072s.012.072.036.072c.264 0 .472-.004.624-.012l.9-.012.888.012c.16.008.376.012.648.012.016 0 .024-.024.024-.072s-.008-.072-.024-.072c-.248 0-.43-.02-.546-.06s-.196-.116-.24-.228-.074-.292-.09-.54l-.288-5.448c-.016-.32.06-.556.228-.708s.44-.228.816-.228c.024 0 .036-.024.036-.072s-.012-.072-.036-.072c-.208 0-.368.004-.48.012l-.708.012c-.12 0-.226-.004-.318-.012s-.174-.012-.246-.012c-.088 0-.158.022-.21.066s-.102.122-.15.234l-2.28 5.232-2.616-4.908c-.152-.272-.256-.444-.312-.516s-.136-.108-.24-.108c-.112 0-.204.004-.276.012l-.636.012c-.176 0-.32-.004-.432-.012l-.564-.012c-.024 0-.036.024-.036.072s.012.072.036.072c.224 0 .422.068.594.204s.338.352.498.648l.012.012-.108 4.968c-.008.424-.108.76-.3 1.008s-.452.372-.78.372c-.024 0-.036.024-.036.072s.012.072.036.072zm-.126-64.8h10.32c.37 0 .67.3.67.67v3.44c0 .37-.3.67-.67.67h-10.32a.67.67 0 01-.67-.67v-3.44c0-.37.3-.67.67-.67zm.67 1.34v2.1h8.98v-2.1z"/><path d="M508.803 68.047h8.027c.37 0 .67.3.67.67v2.866c0 .37-.3.67-.67.67h-8.027a.67.67 0 01-.67-.67v-2.866c0-.37.3-.67.67-.67zm.671 1.339v1.527h6.686v-1.527zM506.669 95.3a.67.67 0 10-.318 1.3c1.18.289 2.646 1.358 3.645 2.63a.67.67 0 00.19.165c2.042 1.191 4.03 1.178 5.863-.017a.67.67 0 00.191-.19c1.026-1.534 2.022-2.391 3.01-2.58a.67.67 0 00-.253-1.316c-1.339.256-2.533 1.237-3.68 2.874l-.106.156-.085.052c-1.276.755-2.595.762-4.046-.014l-.116-.065-.114-.138c-1.092-1.3-2.576-2.378-3.929-2.789zM513 49.33a.67.67 0 00-.663.571l-.007.099v5a.67.67 0 001.333.099l.007-.099v-5c0-.37-.3-.67-.67-.67zm8.585 5.15l-5 4 .83 1.04 5-4zm-18.17 0l5 4-.83 1.04-5-4zM319 25.5a.5.5 0 00-.09.992l.09.008h193.5V43a.5.5 0 00.41.492l.09.008a.5.5 0 00.492-.41l.008-.09V25.5zm-15.392-4.82V31c0 .37-.3.67-.67.67h-4.2a3.67 3.67 0 01-3.67-3.67v-4.32a3.67 3.67 0 013.67-3.67h4.2c.37 0 .67.3.67.67zm-1.34 9.651v-8.98l-3.53-.001a2.33 2.33 0 00-2.33 2.33V28l.005.16a2.33 2.33 0 002.325 2.17z"/><path d="M311.67 22.12v7.44a1.67 1.67 0 01-2.075 1.62l-6.757-1.69a.67.67 0 01-.508-.65v-6a.67.67 0 01.508-.65l6.757-1.69a1.67 1.67 0 012.075 1.62zm-1.34 7.44v-7.44a.33.33 0 00-.01-.08l-.022-.062a.33.33 0 00-.378-.177l-6.25 1.562v4.955l6.25 1.561a.33.33 0 00.41-.32z"/></g><path d="M277.718 25.5l-11.1 3.118-3.118 11.1-3.118-11.1-11.1-3.118 11.1-3.118 3.118-11.1 3.118 11.1z" fill="#fbdcdc" stroke="#a0b9b6" stroke-width="1.505"/><path d="M250.415 12.98l5 4-.83 1.04-5-4zm0 24.04l5-4-.83-1.04-5 4zm26.17-24.04l-5 4 .83 1.04 5-4zm0 24.04l-5-4 .83-1.04 5 4z" fill="#a0b9b6" fill-rule="nonzero"/><path d="M89.11 121.3c2.847 0 5.425-.525 7.735-1.575s4.118-2.52 5.425-4.41 1.96-4.048 1.96-6.475c0-2.1-.49-3.955-1.47-5.565s-2.17-2.975-3.57-4.095-3.267-2.427-5.6-3.92c-2.147-1.4-3.85-2.59-5.11-3.57s-2.322-2.123-3.185-3.43S84 85.46 84 83.78c0-2.053.595-3.617 1.785-4.69s2.718-1.61 4.585-1.61c2.8 0 4.982 1.027 6.545 3.08s2.928 4.55 4.095 7.49l.56 1.33c.047.14.187.175.42.105s.35-.175.35-.315V78.88c0-.327-.07-.595-.21-.805s-.42-.408-.84-.595c-1.027-.42-2.38-.782-4.06-1.085s-3.337-.455-4.97-.455c-2.473 0-4.83.408-7.07 1.225s-4.072 2.077-5.495 3.78-2.135 3.792-2.135 6.265c0 1.96.443 3.663 1.33 5.11s1.948 2.683 3.185 3.71 2.975 2.263 5.215 3.71c2.287 1.493 4.083 2.777 5.39 3.85s2.415 2.38 3.325 3.92 1.365 3.337 1.365 5.39c0 2.427-.607 4.142-1.82 5.145s-2.753 1.505-4.62 1.505c-2.053 0-3.885-.677-5.495-2.03s-2.94-2.917-3.99-4.69-2.275-4.083-3.675-6.93c-.047-.187-.187-.268-.42-.245s-.35.128-.35.315v.07l.21 11.13c0 .373.058.642.175.805s.292.338.525.525c.793.7 2.333 1.342 4.62 1.925s4.48.875 6.58.875zm41.05.14a.78.78 0 00.35-.07l9.66-4.69c.14-.047.152-.187.035-.42s-.245-.35-.385-.35h-.14c-1.307.513-2.263.77-2.87.77-.7 0-1.202-.292-1.505-.875s-.455-1.575-.455-2.975V92.88c0-.093-.058-.175-.175-.245s-.222-.105-.315-.105-.163.023-.21.07c-.747.747-1.657 1.353-2.73 1.82-2.007-1.213-4.27-1.82-6.79-1.82-2.893 0-5.6.653-8.12 1.96s-4.55 3.208-6.09 5.705-2.31 5.402-2.31 8.715c0 2.613.467 4.853 1.4 6.72s2.205 3.278 3.815 4.235 3.372 1.435 5.285 1.435c1.867 0 3.57-.408 5.11-1.225s3.08-1.948 4.62-3.395c.093 1.447.315 2.59.665 3.43s.735 1.26 1.155 1.26zm-7.98-3.78c-2.193 0-3.885-.968-5.075-2.905s-1.785-4.655-1.785-8.155c0-3.687.665-6.697 1.995-9.03s3.162-3.5 5.495-3.5c1.633 0 2.952.583 3.955 1.75s1.505 2.66 1.505 4.48v15.12c-2.193 1.493-4.223 2.24-6.09 2.24zm30.97 3.15c.467 0 .723-.117.77-.35l8.61-19.88c.933-2.147 1.925-3.733 2.975-4.76s2.252-1.54 3.605-1.54c.093 0 .14-.14.14-.42s-.047-.42-.14-.42c-1.167 0-2.03.023-2.59.07l-2.8.07-4.2-.07c-.653-.047-1.61-.07-2.87-.07-.093 0-.14.14-.14.42s.047.42.14.42c1.4 0 2.497.327 3.29.98s1.19 1.563 1.19 2.73c0 .7-.187 1.54-.56 2.52l-4.62 11.2-7.84-14.7c-.233-.467-.35-.84-.35-1.12 0-1.073 1.353-1.61 4.06-1.61.14 0 .21-.14.21-.42s-.07-.42-.21-.42c-1.4 0-2.497.023-3.29.07l-5.39.07-4.69-.07c-.56-.047-1.26-.07-2.1-.07-.14 0-.21.14-.21.42s.07.42.21.42c1.073 0 1.983.315 2.73.945s1.61 1.972 2.59 4.025l10.71 21.21c.14.233.397.35.77.35zm29.43.49c2.1 0 4.037-.373 5.81-1.12s3.523-1.96 5.25-3.64c.093-.093.082-.233-.035-.42s-.222-.28-.315-.28l-.14.07c-1.027.653-2.17 1.143-3.43 1.47s-2.473.49-3.64.49c-3.313 0-5.915-1.167-7.805-3.5s-2.835-5.507-2.835-9.52c0-1.073.07-2.053.21-2.94l12.6-.14h4.27c.513 0 .77-.677.77-2.03 0-2.147-.77-3.838-2.31-5.075s-3.757-1.855-6.65-1.855c-2.987 0-5.693.665-8.12 1.995s-4.34 3.15-5.74 5.46-2.1 4.818-2.1 7.525c0 2.38.56 4.608 1.68 6.685s2.753 3.733 4.9 4.97 4.69 1.855 7.63 1.855zm-6.72-20.79c.467-1.96 1.213-3.5 2.24-4.62s2.24-1.68 3.64-1.68c2.567 0 3.92 2.03 4.06 6.09zm44.79 19.95c1.727 0 3.08-.023 4.06-.07l5.67-.07 5.81.07c.98.047 2.31.07 3.99.07.14 0 .21-.14.21-.42s-.07-.42-.21-.42c-1.727 0-2.987-.117-3.78-.35s-1.33-.677-1.61-1.33-.42-1.703-.42-3.15V82.52c0-1.633.222-2.742.665-3.325s1.342-.875 2.695-.875h11.55c.56 0 .945.082 1.155.245s.315.478.315.945v35.28c0 1.867-.268 3.138-.805 3.815s-1.528 1.015-2.975 1.015c-.093 0-.14.14-.14.42s.047.42.14.42c1.213 0 2.17-.023 2.87-.07l4.2-.07 4.13.07c.7.047 1.657.07 2.87.07.187 0 .28-.14.28-.42s-.093-.42-.28-.42c-1.447 0-2.427-.338-2.94-1.015s-.77-1.948-.77-3.815V99.81c.887-.793 1.913-1.412 3.08-1.855s2.31-.665 3.43-.665c1.96 0 3.407.607 4.34 1.82s1.4 3.08 1.4 5.6v10.08c0 1.867-.268 3.138-.805 3.815s-1.528 1.015-2.975 1.015c-.093 0-.14.14-.14.42s.047.42.14.42c1.213 0 2.17-.023 2.87-.07l4.2-.07 4.13.07c.7.047 1.657.07 2.87.07.187 0 .28-.14.28-.42s-.093-.42-.28-.42c-1.447 0-2.427-.338-2.94-1.015s-.77-1.948-.77-3.815v-13.44c0-2.613-.735-4.725-2.205-6.335S270.49 92.6 267.97 92.6c-2.007 0-3.908.49-5.705 1.47s-3.442 2.38-4.935 4.2V69.85c0-.233-.257-.35-.77-.35-.28 0-.467.07-.56.21-1.027 1.913-2.578 3.523-4.655 4.83s-4.538 2.03-7.385 2.17c-1.822.133-6.015.203-12.578.21h-1.942c-4.976-.008-9.353-.078-13.13-.21-2.66 0-3.99-.513-3.99-1.54 0-.233-.128-.35-.385-.35s-.385.117-.385.35c0 1.493-.117 3.722-.35 6.685s-.443 5.378-.63 7.245c0 .14.117.222.35.245s.373-.035.42-.175c2.427-7.233 6.417-10.85 11.97-10.85 1.307 0 2.17.28 2.59.84s.63 1.633.63 3.22v32.41c0 1.4-.152 2.438-.455 3.115s-.863 1.132-1.68 1.365-2.065.35-3.745.35c-.14 0-.21.14-.21.42s.07.42.21.42zm74.93.84c2.1 0 4.037-.373 5.81-1.12s3.523-1.96 5.25-3.64c.093-.093.082-.233-.035-.42s-.222-.28-.315-.28l-.14.07c-1.027.653-2.17 1.143-3.43 1.47s-2.473.49-3.64.49c-3.313 0-5.915-1.167-7.805-3.5s-2.835-5.507-2.835-9.52c0-1.073.07-2.053.21-2.94l12.6-.14h4.27c.513 0 .77-.677.77-2.03 0-2.147-.77-3.838-2.31-5.075s-3.757-1.855-6.65-1.855c-2.987 0-5.693.665-8.12 1.995s-4.34 3.15-5.74 5.46-2.1 4.818-2.1 7.525c0 2.38.56 4.608 1.68 6.685s2.753 3.733 4.9 4.97 4.69 1.855 7.63 1.855zm-6.72-20.79c.467-1.96 1.213-3.5 2.24-4.62s2.24-1.68 3.64-1.68c2.567 0 3.92 2.03 4.06 6.09zm54.73 20.23c4.2 0 8.062-.945 11.585-2.835s6.323-4.573 8.4-8.05 3.115-7.478 3.115-12.005c0-4.013-1.003-7.63-3.01-10.85s-4.842-5.763-8.505-7.63-7.852-2.8-12.565-2.8c-.84 0-2.473.047-4.9.14-2.007.14-3.967.21-5.88.21-1.26 0-2.963-.047-5.11-.14l-3.71-.07c-.14 0-.21.14-.21.42s.07.42.21.42c1.447 0 2.508.128 3.185.385s1.143.712 1.4 1.365.385 1.68.385 3.08v32.41c0 1.4-.128 2.438-.385 3.115s-.735 1.132-1.435 1.365-1.797.35-3.29.35c-.093 0-.14.14-.14.42s.047.42.14.42c1.587 0 2.847-.023 3.78-.07l5.18-.07c1.353 0 2.578.023 3.675.07s2.018.093 2.765.14c2.053.14 3.827.21 5.32.21zm-.7-1.61c-2.8 0-4.69-.385-5.67-1.155s-1.47-2.088-1.47-3.955v-31.5c0-1.82.537-3.01 1.61-3.57s3.057-.84 5.95-.84c2.94 0 5.53.933 7.77 2.8s3.967 4.422 5.18 7.665 1.82 6.848 1.82 10.815c0 4.153-.642 7.723-1.925 10.71s-3.068 5.238-5.355 6.755-4.923 2.275-7.91 2.275zm49.1 2.31a.78.78 0 00.35-.07l9.66-4.69c.14-.047.152-.187.035-.42s-.245-.35-.385-.35h-.14c-1.307.513-2.263.77-2.87.77-.7 0-1.202-.292-1.505-.875s-.455-1.575-.455-2.975V92.88c0-.093-.058-.175-.175-.245s-.222-.105-.315-.105-.163.023-.21.07c-.747.747-1.657 1.353-2.73 1.82-2.007-1.213-4.27-1.82-6.79-1.82-2.893 0-5.6.653-8.12 1.96s-4.55 3.208-6.09 5.705-2.31 5.402-2.31 8.715c0 2.613.467 4.853 1.4 6.72s2.205 3.278 3.815 4.235 3.372 1.435 5.285 1.435c1.867 0 3.57-.408 5.11-1.225s3.08-1.948 4.62-3.395c.093 1.447.315 2.59.665 3.43s.735 1.26 1.155 1.26zm-7.98-3.78c-2.193 0-3.885-.968-5.075-2.905s-1.785-4.655-1.785-8.155c0-3.687.665-6.697 1.995-9.03s3.162-3.5 5.495-3.5c1.633 0 2.952.583 3.955 1.75s1.505 2.66 1.505 4.48v15.12c-2.193 1.493-4.223 2.24-6.09 2.24zm28.87 3.64c1.82 0 3.547-.408 5.18-1.225s3.313-2.088 5.04-3.815c.14-.093.152-.233.035-.42s-.268-.28-.455-.28l-.14.07c-1.773 1.4-3.593 2.1-5.46 2.1-1.493 0-2.695-.42-3.605-1.26s-1.365-2.147-1.365-3.92V95.96c2.847.047 5.787.397 8.82 1.05.187.047.362-.152.525-.595s.245-.898.245-1.365c0-.42-.058-.805-.175-1.155s-.222-.525-.315-.525c-3.36.373-6.393.583-9.1.63v-5.6c0-.187-.152-.28-.455-.28s-.502.093-.595.28c-.793 1.913-1.925 3.337-3.395 4.27s-3.395 1.447-5.775 1.54c-.093 0-.163.058-.21.175s-.07.268-.07.455c0 .14.035.28.105.42s.128.21.175.21c1.353 0 2.287.28 2.8.84s.77 1.563.77 3.01v15.54c0 2.333.723 3.99 2.17 4.97s3.197 1.47 5.25 1.47zm25.09 0c2.1 0 4.037-.373 5.81-1.12s3.523-1.96 5.25-3.64c.093-.093.082-.233-.035-.42s-.222-.28-.315-.28l-.14.07c-1.027.653-2.17 1.143-3.43 1.47s-2.473.49-3.64.49c-3.313 0-5.915-1.167-7.805-3.5s-2.835-5.507-2.835-9.52c0-1.073.07-2.053.21-2.94l12.6-.14h4.27c.513 0 .77-.677.77-2.03 0-2.147-.77-3.838-2.31-5.075s-3.757-1.855-6.65-1.855c-2.987 0-5.693.665-8.12 1.995s-4.34 3.15-5.74 5.46-2.1 4.818-2.1 7.525c0 2.38.56 4.608 1.68 6.685s2.753 3.733 4.9 4.97 4.69 1.855 7.63 1.855zm-6.72-20.79c.467-1.96 1.213-3.5 2.24-4.62s2.24-1.68 3.64-1.68c2.567 0 3.92 2.03 4.06 6.09z" fill="#021631" fill-rule="nonzero"/></g></svg>