<svg height="117" width="298" xmlns="http://www.w3.org/2000/svg"><g fill="none" fill-rule="evenodd"><path d="M163.218 25l-11.1 3.118-3.118 11.1-3.118-11.1-11.1-3.118 11.1-3.118 3.118-11.1 3.118 11.1z" fill="#fbdcdc" stroke="#a0b9b6" stroke-width="1.505"/><path d="M135.915 12.48l5 4-.83 1.04-5-4zm0 24.04l5-4-.83-1.04-5 4zm26.17-24.04l-5 4 .83 1.04 5-4zm0 24.04l-5-4 .83-1.04 5 4z" fill="#a0b9b6" fill-rule="nonzero"/><g fill-rule="nonzero"><g fill="#a0b9b6"><g opacity=".9"><path d="M13.736 58.1h.1a.67.67 0 01.609.727c-.611 6.974.498 13.424 3.18 20.01l.264.638c1.257 2.974 1.754 6.26 1.797 10.18l.003.565v22.69a2.948 2.948 0 01-2.297 2.874c-4.9 1.076-9.65 1.073-14.263.005a2.936 2.936 0 01-2.239-2.677l-.005-.281-.008-15.118-.001-7.493c0-3.982.44-7.313 1.626-10.318l.174-.427c2.873-6.809 4.075-13.45 3.444-20.648a.67.67 0 111.335-.117c.651 7.428-.59 14.285-3.545 21.287-1.174 2.78-1.648 5.901-1.69 9.655l-.004.568.01 22.716c0 .736.503 1.377 1.212 1.55 4.41 1.02 8.96 1.023 13.662-.01a1.606 1.606 0 001.242-1.418l.007-.148V90.22c0-4.009-.46-7.304-1.695-10.224C13.7 72.995 12.46 66.138 13.11 58.71a.67.67 0 01.626-.61z"/><path d="M15.913 93.483c-4.065.295-6.566.324-10.054.089l-1.203-.089a.67.67 0 00-.722.668v14.415c0 .337.25.622.585.665 4.159.533 6.818.53 11.517.001a.67.67 0 00.595-.666V94.151a.67.67 0 00-.718-.668zm-.622 1.386v13.097l-.56.058c-3.525.353-5.866.355-9.017.001l-.441-.051V94.873l.501.036c3.156.213 5.53.213 8.915 0z"/><path d="M9.978 106.486c.704 0 1.253-.224 1.648-.672s.592-1.07.592-1.867v-5.824c0-.213.014-.371.042-.474a.325.325 0 01.176-.219c.09-.043.226-.064.41-.064.022 0 .033-.021.033-.064s-.01-.064-.032-.064l-.501.01a16.19 16.19 0 01-.747.022 21 21 0 01-.821-.021l-.662-.01c-.014 0-.021.02-.021.063s.007.064.021.064c.263 0 .455.02.576.059s.205.108.25.208c.047.1.07.256.07.47v6.591c0 .562-.035.964-.106 1.205-.072.242-.182.363-.331.363-.064 0-.117-.03-.16-.09a1.19 1.19 0 01-.128-.262 1.534 1.534 0 00-.261-.448c-.096-.107-.233-.16-.411-.16-.185 0-.324.055-.416.165a.573.573 0 00-.139.38c0 .198.086.355.256.468.17.114.391.171.662.171zm4.236-51.446H6.351c-.37 0-.67.3-.67.67v2.621c0 .37.3.67.67.67h7.863c.37 0 .67-.3.67-.67v-2.62c0-.37-.3-.67-.67-.67zm-.671 1.34v1.281H7.021V56.38z"/><path d="M13.34 52.638H7.225c-.37 0-.67.3-.67.67v2.184c0 .37.3.67.67.67h6.115c.37 0 .67-.3.67-.67v-2.184c0-.37-.3-.67-.67-.67zm-.67 1.339v.845H7.894v-.845zm2.259 19.429a.67.67 0 01.318 1.302c-.861.21-1.95 1.003-2.69 1.947a.67.67 0 01-.19.165c-1.606.937-3.187.927-4.635-.017a.67.67 0 01-.19-.19c-.76-1.137-1.489-1.764-2.19-1.898a.67.67 0 01.251-1.316c1.057.202 1.989.96 2.876 2.213l.092.134.073.044c.898.516 1.818.52 2.842-.014l.105-.058.088-.106c.842-.995 1.978-1.818 3.026-2.144z"/></g><path d="M10 37.552a.67.67 0 01.663.571l.007.1v5a.67.67 0 01-1.333.098l-.007-.099v-5c0-.37.3-.67.67-.67zm-8.553 5.301a.665.665 0 01.827-.237l.095.053 3 2a.665.665 0 01-.643 1.16l-.095-.053-3-2a.665.665 0 01-.184-.923zm17.106 0a.665.665 0 00-.827-.237l-.095.053-3 2a.665.665 0 00.643 1.16l.095-.053 3-2a.665.665 0 00.184-.923zM94 22.722a.5.5 0 01.09.992l-.09.008H10.5v8.5a.5.5 0 01-.41.492l-.09.008a.5.5 0 01-.492-.41l-.008-.09v-9.5zm12.892-3.382v8c0 .37.3.67.67.67h4.2a3.67 3.67 0 003.67-3.67v-2a3.67 3.67 0 00-3.67-3.67h-4.2c-.37 0-.67.3-.67.67zm1.34 7.331v-6.66l3.53-.001a2.33 2.33 0 012.33 2.33v2l-.005.16a2.33 2.33 0 01-2.325 2.17z"/><path d="M100.83 20.642v5.396a1.67 1.67 0 002.1 1.614l4.743-1.265a.67.67 0 00.497-.647v-4.8a.67.67 0 00-.497-.647l-4.743-1.265a1.67 1.67 0 00-2.1 1.614zm1.34 5.396v-5.396a.33.33 0 01.011-.085l.024-.063a.33.33 0 01.38-.171l4.245 1.132v3.771l-4.245 1.131a.33.33 0 01-.415-.319z"/></g><g fill="#a0b9b6"><g opacity=".9"><path d="M284.264 58.1h-.1a.67.67 0 00-.609.727c.611 6.974-.498 13.424-3.18 20.01l-.264.638c-1.257 2.974-1.754 6.26-1.797 10.18l-.003.565v22.69c0 1.375.951 2.567 2.297 2.874 4.9 1.076 9.65 1.073 14.263.005a2.936 2.936 0 002.239-2.677l.005-.281.008-15.118.001-7.493c0-3.982-.44-7.313-1.626-10.318l-.174-.427c-2.873-6.809-4.075-13.45-3.444-20.648a.67.67 0 10-1.335-.117c-.651 7.428.59 14.285 3.545 21.287 1.174 2.78 1.648 5.901 1.69 9.655l.004.568-.01 22.716c0 .736-.503 1.377-1.212 1.55-4.41 1.02-8.96 1.023-13.662-.01a1.606 1.606 0 01-1.242-1.418l-.007-.148V90.22c0-4.009.46-7.304 1.695-10.224 2.954-7.001 4.195-13.858 3.544-21.286a.67.67 0 00-.626-.61z"/><path d="M282.087 93.483c4.065.295 6.566.324 10.054.089l1.203-.089a.67.67 0 01.722.668v14.415a.67.67 0 01-.585.665c-4.159.533-6.818.53-11.517.001a.67.67 0 01-.595-.666V94.151a.67.67 0 01.718-.668zm.622 1.386v13.097l.56.058c3.525.353 5.866.355 9.017.001l.441-.051V94.873l-.501.036c-3.156.213-5.53.213-8.915 0z"/><path d="M283.075 104.905c.198 0 .356-.004.473-.011l.693-.011.605.01a7.4 7.4 0 00.462.012c.022 0 .033-.022.033-.066s-.011-.066-.033-.066c-.3 0-.534-.112-.699-.336s-.243-.533-.236-.93l.088-3.97 2.783 5.29c.015.03.044.045.088.045s.073-.015.088-.044l2.266-5.313.23 4.499.012.187c0 .234-.055.388-.165.462s-.32.11-.627.11c-.022 0-.033.022-.033.066s.01.066.033.066c.242 0 .433-.004.572-.011l.825-.011.814.01c.147.008.345.012.594.012.015 0 .022-.022.022-.066s-.007-.066-.022-.066c-.227 0-.394-.019-.5-.055a.346.346 0 01-.22-.21 1.784 1.784 0 01-.083-.494l-.264-4.994c-.015-.294.055-.51.209-.65s.403-.208.748-.208c.022 0 .033-.022.033-.066s-.011-.066-.033-.066c-.19 0-.337.003-.44.01l-.65.012c-.11 0-.206-.004-.29-.011a2.633 2.633 0 00-.226-.011c-.08 0-.145.02-.193.06a.583.583 0 00-.137.215l-2.09 4.796-2.398-4.5a4.82 4.82 0 00-.286-.472.262.262 0 00-.22-.1 2.37 2.37 0 00-.253.012l-.583.01c-.161 0-.293-.003-.396-.01l-.517-.011c-.022 0-.033.022-.033.066s.01.066.033.066a.85.85 0 01.544.187c.158.124.31.322.457.594l.01.01-.098 4.555c-.007.388-.1.696-.275.924s-.414.34-.715.34c-.022 0-.033.023-.033.067s.01.066.033.066zm.711-49.865h7.863c.37 0 .67.3.67.67v2.621c0 .37-.3.67-.67.67h-7.863a.67.67 0 01-.67-.67v-2.62c0-.37.3-.67.67-.67zm.671 1.34v1.281h6.522V56.38z"/><path d="M284.66 52.638h6.115c.37 0 .67.3.67.67v2.184c0 .37-.3.67-.67.67h-6.115a.67.67 0 01-.67-.67v-2.184c0-.37.3-.67.67-.67zm.67 1.339v.845h4.776v-.845zm-2.259 19.429a.67.67 0 00-.318 1.302c.861.21 1.95 1.003 2.69 1.947a.67.67 0 00.19.165c1.606.937 3.187.927 4.635-.017a.67.67 0 00.19-.19c.76-1.137 1.489-1.764 2.19-1.898a.67.67 0 00-.251-1.316c-1.057.202-1.989.96-2.876 2.213l-.092.134-.073.044c-.898.516-1.818.52-2.842-.014l-.105-.058-.088-.106c-.842-.995-1.978-1.818-3.026-2.144z"/></g><path d="M288 37.552a.67.67 0 00-.663.571l-.007.1v5a.67.67 0 001.333.098l.007-.099v-5c0-.37-.3-.67-.67-.67zm8.553 5.301a.665.665 0 00-.827-.237l-.095.053-3 2a.665.665 0 00.643 1.16l.095-.053 3-2a.665.665 0 00.184-.923zm-17.106 0a.665.665 0 01.827-.237l.095.053 3 2a.665.665 0 01-.643 1.16l-.095-.053-3-2a.665.665 0 01-.184-.923zM204 22.722a.5.5 0 00-.09.992l.09.008h83.5v8.5a.5.5 0 00.41.492l.09.008a.5.5 0 00.492-.41l.008-.09v-9.5zm-12.892-3.382v8c0 .37-.3.67-.67.67h-4.2a3.67 3.67 0 01-3.67-3.67v-2a3.67 3.67 0 013.67-3.67h4.2c.37 0 .67.3.67.67zm-1.34 7.331v-6.66l-3.53-.001a2.33 2.33 0 00-2.33 2.33v2l.005.16a2.33 2.33 0 002.325 2.17z"/><path d="M197.17 20.642v5.396a1.67 1.67 0 01-2.1 1.614l-4.743-1.265a.67.67 0 01-.497-.647v-4.8a.67.67 0 01.497-.647l4.743-1.265a1.67 1.67 0 012.1 1.614zm-1.34 5.396v-5.396a.33.33 0 00-.011-.085l-.024-.063a.33.33 0 00-.38-.171l-4.245 1.132v3.771l4.245 1.131a.33.33 0 00.415-.319z"/></g><path d="M61.46 91.432c1.463 0 2.79-.27 3.977-.81s2.118-1.296 2.79-2.268 1.008-2.082 1.008-3.33c0-1.08-.252-2.034-.756-2.862s-1.116-1.53-1.836-2.106-1.68-1.248-2.88-2.016c-1.104-.72-1.98-1.332-2.628-1.836s-1.194-1.092-1.638-1.764-.666-1.44-.666-2.304c0-1.056.306-1.86.918-2.412s1.398-.828 2.358-.828c1.44 0 2.562.528 3.366 1.584s1.506 2.34 2.106 3.852l.288.684c.024.072.096.09.216.054s.18-.09.18-.162v-5.292c0-.168-.036-.306-.108-.414s-.216-.21-.432-.306c-.528-.216-1.224-.402-2.088-.558s-1.716-.234-2.556-.234c-1.272 0-2.484.21-3.636.63s-2.094 1.068-2.826 1.944-1.098 1.95-1.098 3.222c0 1.008.228 1.884.684 2.628s1.002 1.38 1.638 1.908 1.53 1.164 2.682 1.908c1.176.768 2.1 1.428 2.772 1.98s1.242 1.224 1.71 2.016.702 1.716.702 2.772c0 1.248-.312 2.13-.936 2.646s-1.416.774-2.376.774c-1.056 0-1.998-.348-2.826-1.044s-1.512-1.5-2.052-2.412-1.17-2.1-1.89-3.564c-.024-.096-.096-.138-.216-.126s-.18.066-.18.162v.036l.108 5.724c0 .192.03.33.09.414s.15.174.27.27c.408.36 1.2.69 2.376.99s2.304.45 3.384.45zm21.11.072a.4.4 0 00.18-.036l4.969-2.412c.072-.024.078-.096.018-.216s-.126-.18-.198-.18h-.072c-.672.264-1.164.396-1.476.396-.36 0-.618-.15-.774-.45s-.234-.81-.234-1.53v-10.26c0-.048-.03-.09-.09-.126s-.114-.054-.162-.054-.084.012-.108.036a4.493 4.493 0 01-1.404.936c-1.032-.624-2.196-.936-3.492-.936-1.488 0-2.88.336-4.176 1.008s-2.34 1.65-3.132 2.934-1.188 2.778-1.188 4.482c0 1.344.24 2.496.72 3.456s1.134 1.686 1.962 2.178 1.734.738 2.718.738c.96 0 1.836-.21 2.628-.63s1.584-1.002 2.376-1.746c.048.744.162 1.332.342 1.764s.378.648.594.648zm-4.103-1.944c-1.128 0-1.998-.498-2.61-1.494s-.918-2.394-.918-4.194c0-1.896.342-3.444 1.026-4.644s1.626-1.8 2.826-1.8c.84 0 1.518.3 2.034.9s.774 1.368.774 2.304v7.776c-1.128.768-2.172 1.152-3.132 1.152zm15.927 1.62c.24 0 .372-.06.396-.18l4.428-10.224c.48-1.104.99-1.92 1.53-2.448s1.158-.792 1.854-.792c.048 0 .072-.072.072-.216s-.024-.216-.072-.216c-.6 0-1.044.012-1.332.036l-1.44.036-2.16-.036a22.425 22.425 0 00-1.476-.036c-.048 0-.072.072-.072.216s.024.216.072.216c.72 0 1.284.168 1.692.504s.612.804.612 1.404c0 .36-.096.792-.288 1.296l-2.376 5.76-4.032-7.56c-.12-.24-.18-.432-.18-.576 0-.552.696-.828 2.088-.828.072 0 .108-.072.108-.216s-.036-.216-.108-.216c-.72 0-1.284.012-1.692.036l-2.772.036-2.412-.036a13.395 13.395 0 00-1.08-.036c-.072 0-.108.072-.108.216s.036.216.108.216c.552 0 1.02.162 1.404.486s.828 1.014 1.332 2.07L93.998 91c.072.12.204.18.396.18zm15.136.252c1.08 0 2.076-.192 2.988-.576s1.812-1.008 2.7-1.872c.048-.048.042-.12-.018-.216s-.114-.144-.162-.144l-.072.036c-.528.336-1.116.588-1.764.756s-1.272.252-1.872.252c-1.704 0-3.042-.6-4.014-1.8s-1.458-2.832-1.458-4.896c0-.552.036-1.056.108-1.512l6.48-.072h2.196c.264 0 .396-.348.396-1.044 0-1.104-.396-1.974-1.188-2.61s-1.932-.954-3.42-.954c-1.536 0-2.928.342-4.176 1.026s-2.232 1.62-2.952 2.808-1.08 2.478-1.08 3.87c0 1.224.288 2.37.864 3.438s1.416 1.92 2.52 2.556 2.412.954 3.924.954zm-3.456-10.692c.24-1.008.624-1.8 1.152-2.376s1.152-.864 1.872-.864c1.32 0 2.016 1.044 2.088 3.132zM129.109 91c.888 0 1.584-.012 2.088-.036l2.916-.036 2.988.036c.504.024 1.188.036 2.052.036.072 0 .108-.072.108-.216s-.036-.216-.108-.216c-.888 0-1.536-.06-1.944-.18s-.684-.348-.828-.684-.216-.876-.216-1.62V71.488c0-.84.114-1.41.342-1.71s.69-.45 1.386-.45h5.94c.288 0 .486.042.594.126s.162.246.162.486v18.144c0 .96-.138 1.614-.414 1.962s-.786.522-1.53.522c-.048 0-.072.072-.072.216s.024.216.072.216c.624 0 1.116-.012 1.476-.036l2.16-.036 2.124.036c.36.024.852.036 1.476.036.096 0 .144-.072.144-.216s-.048-.216-.144-.216c-.744 0-1.248-.174-1.512-.522s-.396-1.002-.396-1.962V80.38c.456-.408.984-.726 1.584-.954s1.188-.342 1.764-.342c1.008 0 1.752.312 2.232.936s.72 1.584.72 2.88v5.184c0 .96-.138 1.614-.414 1.962s-.786.522-1.53.522c-.048 0-.072.072-.072.216s.024.216.072.216c.624 0 1.116-.012 1.476-.036l2.16-.036 2.124.036c.36.024.852.036 1.476.036.096 0 .144-.072.144-.216s-.048-.216-.144-.216c-.744 0-1.248-.174-1.512-.522s-.396-1.002-.396-1.962v-6.912c0-1.344-.378-2.43-1.134-3.258s-1.782-1.242-3.078-1.242c-1.032 0-2.01.252-2.934.756s-1.77 1.224-2.538 2.16V64.972c0-.12-.132-.18-.396-.18-.144 0-.24.036-.288.108-.528.984-1.326 1.812-2.394 2.484s-2.334 1.044-3.798 1.116c-.984.072-3.312.108-6.984.108-2.76 0-5.172-.036-7.236-.108-1.368 0-2.052-.264-2.052-.792 0-.12-.066-.18-.198-.18s-.198.06-.198.18c0 .768-.06 1.914-.18 3.438s-.228 2.766-.324 3.726c0 .072.06.114.18.126s.192-.018.216-.09c1.248-3.72 3.3-5.58 6.156-5.58.672 0 1.116.144 1.332.432s.324.84.324 1.656v16.668c0 .72-.078 1.254-.234 1.602s-.444.582-.864.702-1.062.18-1.926.18c-.072 0-.108.072-.108.216s.036.216.108.216zm38.535.432c1.08 0 2.076-.192 2.988-.576s1.812-1.008 2.7-1.872c.048-.048.042-.12-.018-.216s-.114-.144-.162-.144l-.072.036c-.528.336-1.116.588-1.764.756s-1.272.252-1.872.252c-1.704 0-3.042-.6-4.014-1.8s-1.458-2.832-1.458-4.896c0-.552.036-1.056.108-1.512l6.48-.072h2.196c.264 0 .396-.348.396-1.044 0-1.104-.396-1.974-1.188-2.61s-1.932-.954-3.42-.954c-1.536 0-2.928.342-4.176 1.026s-2.232 1.62-2.952 2.808-1.08 2.478-1.08 3.87c0 1.224.288 2.37.864 3.438s1.416 1.92 2.52 2.556 2.412.954 3.924.954zm-3.456-10.692c.24-1.008.624-1.8 1.152-2.376s1.152-.864 1.872-.864c1.32 0 2.016 1.044 2.088 3.132zm28.147 10.404c2.16 0 4.146-.486 5.958-1.458s3.252-2.352 4.32-4.14 1.602-3.846 1.602-6.174c0-2.064-.516-3.924-1.548-5.58s-2.49-2.964-4.374-3.924-4.038-1.44-6.462-1.44c-.432 0-1.272.024-2.52.072-1.032.072-2.04.108-3.024.108-.648 0-1.524-.024-2.628-.072l-1.908-.036c-.072 0-.108.072-.108.216s.036.216.108.216c.744 0 1.29.066 1.638.198s.588.366.72.702.198.864.198 1.584v16.668c0 .72-.066 1.254-.198 1.602s-.378.582-.738.702-.924.18-1.692.18c-.048 0-.072.072-.072.216s.024.216.072.216c.816 0 1.464-.012 1.944-.036l2.664-.036c.696 0 1.326.012 1.89.036s1.038.048 1.422.072a41 41 0 002.736.108zm-.36-.828c-1.44 0-2.412-.198-2.916-.594s-.756-1.074-.756-2.034v-16.2c0-.936.276-1.548.828-1.836s1.572-.432 3.06-.432c1.512 0 2.844.48 3.996 1.44s2.04 2.274 2.664 3.942.936 3.522.936 5.562c0 2.136-.33 3.972-.99 5.508s-1.578 2.694-2.754 3.474-2.532 1.17-4.068 1.17zm25.251 1.188a.4.4 0 00.18-.036l4.968-2.412c.072-.024.078-.096.018-.216s-.126-.18-.198-.18h-.072c-.672.264-1.164.396-1.476.396-.36 0-.618-.15-.774-.45s-.234-.81-.234-1.53v-10.26c0-.048-.03-.09-.09-.126s-.114-.054-.162-.054-.084.012-.108.036a4.493 4.493 0 01-1.404.936c-1.032-.624-2.196-.936-3.492-.936-1.488 0-2.88.336-4.176 1.008s-2.34 1.65-3.132 2.934-1.188 2.778-1.188 4.482c0 1.344.24 2.496.72 3.456s1.134 1.686 1.962 2.178 1.734.738 2.718.738c.96 0 1.836-.21 2.628-.63s1.584-1.002 2.376-1.746c.048.744.162 1.332.342 1.764s.378.648.594.648zm-4.104-1.944c-1.128 0-1.998-.498-2.61-1.494s-.918-2.394-.918-4.194c0-1.896.342-3.444 1.026-4.644s1.626-1.8 2.826-1.8c.84 0 1.518.3 2.034.9s.774 1.368.774 2.304v7.776c-1.128.768-2.172 1.152-3.132 1.152zm14.848 1.872c.936 0 1.824-.21 2.664-.63s1.704-1.074 2.592-1.962c.072-.048.078-.12.018-.216s-.138-.144-.234-.144l-.072.036c-.912.72-1.848 1.08-2.808 1.08-.768 0-1.386-.216-1.854-.648s-.702-1.104-.702-2.016V78.4a23.35 23.35 0 014.536.54c.096.024.186-.078.27-.306a2.015 2.015 0 00.036-1.296c-.06-.18-.114-.27-.162-.27-1.728.192-3.288.3-4.68.324v-2.88c0-.096-.078-.144-.234-.144s-.258.048-.306.144c-.408.984-.99 1.716-1.746 2.196s-1.746.744-2.97.792c-.048 0-.084.03-.108.09s-.036.138-.036.234c0 .072.018.144.054.216s.066.108.09.108c.696 0 1.176.144 1.44.432s.396.804.396 1.548v7.992c0 1.2.372 2.052 1.116 2.556s1.644.756 2.7.756zm12.903 0c1.08 0 2.076-.192 2.988-.576s1.812-1.008 2.7-1.872c.048-.048.042-.12-.018-.216s-.114-.144-.162-.144l-.072.036c-.528.336-1.116.588-1.764.756s-1.272.252-1.872.252c-1.704 0-3.042-.6-4.014-1.8s-1.458-2.832-1.458-4.896c0-.552.036-1.056.108-1.512l6.48-.072h2.196c.264 0 .396-.348.396-1.044 0-1.104-.396-1.974-1.188-2.61s-1.932-.954-3.42-.954c-1.536 0-2.928.342-4.176 1.026s-2.232 1.62-2.952 2.808-1.08 2.478-1.08 3.87c0 1.224.288 2.37.864 3.438s1.416 1.92 2.52 2.556 2.412.954 3.924.954zm-3.456-10.692c.24-1.008.624-1.8 1.152-2.376s1.152-.864 1.872-.864c1.32 0 2.016 1.044 2.088 3.132z" fill="#021631"/></g></g></svg>