<svg height="154" viewBox="0 0 525 154" width="525" xmlns="http://www.w3.org/2000/svg"><g fill="none" fill-rule="evenodd" transform="translate(0 .5)"><g transform="translate(0 19.277778)"><g fill="#a0b9b6" fill-rule="nonzero" transform="translate(0 48.222222)"><path d="m16.7292161 7.21448544.0992639.00140494c.3686185.03229759.6412605.35730434.608963.72592291-.8091166 9.23460361.6711609 17.77321281 4.2422526 26.49326721l.2941258.7074463c1.6493536 3.9029178 2.2960474 8.2244966 2.3433532 13.3961057l.0028254.6247008v29.7808445c0 1.7072015-1.1808115 3.1872045-2.850193 3.5674155-6.4005502 1.4056676-12.6048022 1.4019055-18.62651263.0086181-1.63429525-.3968669-2.78468326-1.8602658-2.78468237-3.5410217l-.0107799-19.1866834-.00116543-10.629173c0-5.4499137.63085087-9.961772 2.34603916-14.0204763 3.78366958-8.9667928 5.3675025-17.7168563 4.53651788-27.20104371-.03229758-.36861857.24034444-.69362532.608963-.72592291.36861857-.03229758.69362532.24034444.72592291.608963.85106084 9.71332132-.77192223 18.67967422-4.63695489 27.83928642-1.56694926 3.7079219-2.19018974 7.8653932-2.23754186 12.8692716l-.0029462.6299219.01194444 29.8147667c0 1.063628.72743645 1.9889938 1.75381745 2.2382774 5.81854464 1.3462403 11.82151944 1.3498803 18.02486654-.0124575.9990144-.2275436 1.7230995-1.0811696 1.7965517-2.0902103l.0061532-.1695318v-29.7808445c0-5.2865639-.6082493-9.6367749-2.2406275-13.4995237-3.8648932-9.159282-5.4878763-18.1256349-4.6368155-27.83895622.0293615-.33510778.3006313-.59089611.6266591-.61036794z"/><path d="m19.5882159 53.6550875-1.4345196.0986801c-1.387025.0897147-2.6395425.1525322-3.8293412.188445l-1.1715514.0269442c-2.3119256.0359508-4.46869466-.0357274-7.04461737-.2150946l-1.32554966-.098658c-.38957172-.0307005-.72263667.2771496-.72263667.6679291v18.92c0 .3371214.25048817.62174.5848777.6645707 5.4418143.6970211 8.9151223.6927679 15.0666367.0012355.338933-.0381017.5951523-.3247382.5951523-.6658062v-18.92c0-.3891136-.3303559-.6963844-.7184508-.6682458zm-.6222159 1.3869125v17.601l-.0654708.0072996c-5.4226959.5832496-8.6932821.586699-13.50088124.0015116l-.00064796-17.6058112.62107854.0451628c4.33945546.3019553 7.51949266.3025569 12.17894116.002454z"/><path d="m10.4705 70.388c.924 0 1.645-.294 2.163-.882s.777-1.4046667.777-2.45v-7.644c0-.28.0186667-.4876667.056-.623s.1143333-.231.231-.287.2963333-.084.539-.084c.028 0 .042-.028.042-.084s-.014-.084-.042-.084l-.658.014c-.392.0186667-.7186667.028-.98.028-.2706667 0-.63-.0093333-1.078-.028l-.868-.014c-.0186667 0-.028.028-.028.084s.0093333.084.028.084c.3453333 0 .5973333.0256667.756.077s.2683333.1423333.329.273.091.336.091.616v8.652c0 .7373333-.0466667 1.2646667-.14 1.582s-.238.476-.434.476c-.084 0-.154-.0396667-.21-.119s-.112-.1936667-.168-.343c-.1026667-.252-.217-.448-.343-.588s-.3056667-.21-.539-.21c-.24266667 0-.42466667.0723333-.546.217s-.182.3103333-.182.497c0 .2613333.112.4666667.336.616s.5133333.224.868.224z"/><path d="m17.3433333 3.2h-10.31999997c-.37003078 0-.67.29996922-.67.67v3.44c0 .37003078.29996922.67.67.67h10.31999997c.3700308 0 .67-.29996922.67-.67v-3.44c0-.37003078-.2999692-.67-.67-.67zm-.6703333 1.34v2.1h-8.98v-2.1z"/><path d="m16.1966667.04666667h-8.0266667c-.37003078 0-.67.29996921-.67.67v2.86666666c0 .37003079.29996922.67.67.67h8.0266667c.3700307 0 .67-.29996921.67-.67v-2.86666666c0-.37003079-.2999693-.67-.67-.67zm-.6706667 1.33933333v1.527h-6.686v-1.527z"/><path d="m18.3311065 27.2991138c.3594746-.0877545.7220253.1325182.8097797.4919927.0877545.3594746-.1325182.7220253-.4919927.8097797-1.1798265.2880177-2.6462229 1.3569128-3.645214 2.6294923-.052188.0664805-.1164833.1224866-.1894934.1650633-2.0417609 1.1906767-4.0306332 1.1775447-5.8634674-.0175425-.07580948-.049431-.14081872-.1137083-.19110502-.1889532-1.02578295-1.5349101-2.02142782-2.3919354-3.00886912-2.5808856-.36343678-.0695449-.60168325-.4205458-.53213839-.7839826.06954485-.3634368.42054582-.6016833.7839826-.5321384 1.33893934.2562106 2.53304604 1.2368922 3.68033308 2.8736005l.10607815.15646.08481722.052315c1.27668058.7551536 2.59482928.7620044 4.04655738-.014127l.1156254-.065188.1136613-.1382591c1.0919105-1.2998385 2.5761828-2.3775702 3.9293838-2.7885004z"/></g><g stroke="#a0b9b6"><path d="m12 35.222222v-5" stroke-linecap="round" stroke-width="1.34"/><path d="m8 39.222222-5-4" stroke-width="1.33"/><path d="m22 39.222222-5-4" stroke-width="1.33" transform="matrix(-1 0 0 1 39 0)"/></g><path d="m206 5.72222222c.276142 0 .5.22385763.5.5 0 .24545989-.176875.44960837-.410124.49194433l-.089876.00805567-193.5-.00022222v16.5002222c0 .2454599-.1768752.4496084-.4101244.4919444l-.0898756.0080556c-.2454599 0-.4496084-.1768751-.4919443-.4101243l-.0080557-.0898757v-17.49999998z" fill="#a0b9b6" fill-rule="nonzero"/><g fill="#a0b9b6" fill-rule="nonzero" transform="matrix(0 -1 1 0 213.5 11.5)"><path d="m10.32 7.39222222h-10.32c-.37003078 0-.67.29996922-.67.67v4.19999998c0 2.0268851 1.64311497 3.67 3.67 3.67h4.32c2.02688503 0 3.67-1.6431149 3.67-3.67v-4.19999998c0-.37003078-.2999692-.67-.67-.67zm-9.651 1.33977778h8.98l.001 3.5302222c0 1.2868235-1.04317653 2.33-2.33 2.33h-4.32l-.1595261-.0053754c-1.21241767-.081979-2.1704739-1.0914188-2.1704739-2.3246246z"/><path d="m8.87922359-.67h-7.43844718c-.92231554 0-1.67.74768447-1.67 1.67 0 .13654222.01674567.27256909.04986202.40503449l1.68936609 6.75746438c.07456548.29826189.34255416.50750113.64999548.50750113h6c.30744132 0 .57543-.20923924.64999548-.50750113l1.68936612-6.75746438c.2236943-.89477749-.320326-1.80147809-1.21510351-2.02517247-.13246541-.03311635-.26849228-.04986202-.4050345-.04986202zm-7.43844718 1.34h7.43844718c.0269814 0 .05386096.00330903.08003676.00985298l.06289473.02263444c.13842247.06632392.21589323.22283856.17721554.37754934l-1.56237062 6.24996324h-4.955l-1.56137062-6.24996324c-.00654395-.0261758-.00985297-.05305536-.00985297-.08003676 0-.18225397.14774603-.33.33-.33z"/></g></g><g fill="#a0b9b6" fill-rule="nonzero" transform="matrix(-1 0 0 1 525 19.277778)"><g transform="translate(0 48.222222)"><path d="m16.7292161 7.21448544.0992639.00140494c.3686185.03229759.6412605.35730434.608963.72592291-.8091166 9.23460361.6711609 17.77321281 4.2422526 26.49326721l.2941258.7074463c1.6493536 3.9029178 2.2960474 8.2244966 2.3433532 13.3961057l.0028254.6247008v29.7808445c0 1.7072015-1.1808115 3.1872045-2.850193 3.5674155-6.4005502 1.4056676-12.6048022 1.4019055-18.62651263.0086181-1.63429525-.3968669-2.78468326-1.8602658-2.78468237-3.5410217l-.0107799-19.1866834-.00116543-10.629173c0-5.4499137.63085087-9.961772 2.34603916-14.0204763 3.78366958-8.9667928 5.3675025-17.7168563 4.53651788-27.20104371-.03229758-.36861857.24034444-.69362532.608963-.72592291.36861857-.03229758.69362532.24034444.72592291.608963.85106084 9.71332132-.77192223 18.67967422-4.63695489 27.83928642-1.56694926 3.7079219-2.19018974 7.8653932-2.23754186 12.8692716l-.0029462.6299219.01194444 29.8147667c0 1.063628.72743645 1.9889938 1.75381745 2.2382774 5.81854464 1.3462403 11.82151944 1.3498803 18.02486654-.0124575.9990144-.2275436 1.7230995-1.0811696 1.7965517-2.0902103l.0061532-.1695318v-29.7808445c0-5.2865639-.6082493-9.6367749-2.2406275-13.4995237-3.8648932-9.159282-5.4878763-18.1256349-4.6368155-27.83895622.0293615-.33510778.3006313-.59089611.6266591-.61036794z"/><path d="m19.5882159 53.6550875-1.4345196.0986801c-1.387025.0897147-2.6395425.1525322-3.8293412.188445l-1.1715514.0269442c-2.3119256.0359508-4.46869466-.0357274-7.04461737-.2150946l-1.32554966-.098658c-.38957172-.0307005-.72263667.2771496-.72263667.6679291v18.92c0 .3371214.25048817.62174.5848777.6645707 5.4418143.6970211 8.9151223.6927679 15.0666367.0012355.338933-.0381017.5951523-.3247382.5951523-.6658062v-18.92c0-.3891136-.3303559-.6963844-.7184508-.6682458zm-.6222159 1.3869125v17.601l-.0654708.0072996c-5.4226959.5832496-8.6932821.586699-13.50088124.0015116l-.00064796-17.6058112.62107854.0451628c4.33945546.3019553 7.51949266.3025569 12.17894116.002454z"/><path d="m7.557 68c.216 0 .388-.004.516-.012l.756-.012.66.012c.12.008.288.012.504.012.024 0 .036-.024.036-.072s-.012-.072-.036-.072c-.328 0-.582-.122-.762-.366s-.266-.582-.258-1.014l.096-4.332 3.036 5.772c.016.032.048.048.096.048s.08-.016.096-.048l2.472-5.796.252 4.908.012.204c0 .256-.06.424-.18.504s-.348.12-.684.12c-.024 0-.036.024-.036.072s.012.072.036.072c.264 0 .472-.004.624-.012l.9-.012.888.012c.16.008.376.012.648.012.016 0 .024-.024.024-.072s-.008-.072-.024-.072c-.248 0-.43-.02-.546-.06s-.196-.116-.24-.228-.074-.292-.09-.54l-.288-5.448c-.016-.32.06-.556.228-.708s.44-.228.816-.228c.024 0 .036-.024.036-.072s-.012-.072-.036-.072c-.208 0-.368.004-.48.012l-.708.012c-.12 0-.226-.004-.318-.012s-.174-.012-.246-.012c-.088 0-.158.022-.21.066s-.102.122-.15.234l-2.28 5.232-2.616-4.908c-.152-.272-.256-.444-.312-.516s-.136-.108-.24-.108c-.112 0-.204.004-.276.012l-.636.012c-.176 0-.32-.004-.432-.012l-.564-.012c-.024 0-.036.024-.036.072s.012.072.036.072c.224 0 .422.068.594.204s.338.352.498.648l.012.012-.108 4.968c-.008.424-.108.76-.3 1.008s-.452.372-.78.372c-.024 0-.036.024-.036.072s.012.072.036.072z" transform="matrix(-1 0 0 1 24.774 0)"/><path d="m17.3433333 3.2h-10.31999997c-.37003078 0-.67.29996922-.67.67v3.44c0 .37003078.29996922.67.67.67h10.31999997c.3700308 0 .67-.29996922.67-.67v-3.44c0-.37003078-.2999692-.67-.67-.67zm-.6703333 1.34v2.1h-8.98v-2.1z"/><path d="m16.1966667.04666667h-8.0266667c-.37003078 0-.67.29996921-.67.67v2.86666666c0 .37003079.29996922.67.67.67h8.0266667c.3700307 0 .67-.29996921.67-.67v-2.86666666c0-.37003079-.2999693-.67-.67-.67zm-.6706667 1.33933333v1.527h-6.686v-1.527z"/><path d="m18.3311065 27.2991138c.3594746-.0877545.7220253.1325182.8097797.4919927.0877545.3594746-.1325182.7220253-.4919927.8097797-1.1798265.2880177-2.6462229 1.3569128-3.645214 2.6294923-.052188.0664805-.1164833.1224866-.1894934.1650633-2.0417609 1.1906767-4.0306332 1.1775447-5.8634674-.0175425-.07580948-.049431-.14081872-.1137083-.19110502-.1889532-1.02578295-1.5349101-2.02142782-2.3919354-3.00886912-2.5808856-.36343678-.0695449-.60168325-.4205458-.53213839-.7839826.06954485-.3634368.42054582-.6016833.7839826-.5321384 1.33893934.2562106 2.53304604 1.2368922 3.68033308 2.8736005l.10607815.15646.08481722.052315c1.27668058.7551536 2.59482928.7620044 4.04655738-.014127l.1156254-.065188.1136613-.1382591c1.0919105-1.2998385 2.5761828-2.3775702 3.9293838-2.7885004z"/></g><path d="m12 29.5522222c.3363916 0 .6148811.2479085.6627355.5709923l.0072645.0990077v5c0 .3700308-.2999692.67-.67.67-.3363916 0-.6148811-.2479084-.6627355-.5709923l-.0072645-.0990077v-5c0-.3700308.2999692-.67.67-.67z"/><path d="m3.41542221 34.7029445 5 4-.83084442 1.0385555-5-4z"/><path d="m17.4154222 34.7029445 5 4-.8308444 1.0385555-5-4z" transform="matrix(-1 0 0 1 39 0)"/><path d="m206 5.72222222c.276142 0 .5.22385763.5.5 0 .24545989-.176875.44960837-.410124.49194433l-.089876.00805567-193.5-.00022222v16.5002222c0 .2454599-.1768752.4496084-.4101244.4919444l-.0898756.0080556c-.2454599 0-.4496084-.1768751-.4919443-.4101243l-.0080557-.0898757v-17.49999998z"/><g transform="matrix(0 -1 1 0 214 11.222222)"><path d="m10.32 7.39222222h-10.32c-.37003078 0-.67.29996922-.67.67v4.19999998c0 2.0268851 1.64311497 3.67 3.67 3.67h4.32c2.02688503 0 3.67-1.6431149 3.67-3.67v-4.19999998c0-.37003078-.2999692-.67-.67-.67zm-9.651 1.33977778h8.98l.001 3.5302222c0 1.2868235-1.04317653 2.33-2.33 2.33h-4.32l-.1595261-.0053754c-1.21241767-.081979-2.1704739-1.0914188-2.1704739-2.3246246z"/><path d="m8.87922359-.67h-7.43844718c-.92231554 0-1.67.74768447-1.67 1.67 0 .13654222.01674567.27256909.04986202.40503449l1.68936609 6.75746438c.07456548.29826189.34255416.50750113.64999548.50750113h6c.30744132 0 .57543-.20923924.64999548-.50750113l1.68936612-6.75746438c.2236943-.89477749-.320326-1.80147809-1.21510351-2.02517247-.13246541-.03311635-.26849228-.04986202-.4050345-.04986202zm-7.43844718 1.34h7.43844718c.0269814 0 .05386096.00330903.08003676.00985298l.06289473.02263444c.13842247.06632392.21589323.22283856.17721554.37754934l-1.56237062 6.24996324h-4.955l-1.56137062-6.24996324c-.00654395-.0261758-.00985297-.05305536-.00985297-.08003676 0-.18225397.14774603-.33.33-.33z"/></g></g><g transform="translate(238.5)"><path d="m35.0535888 14.9464112-5.6441312 10.0535888 5.6441312 10.0535888-10.0535888-5.6441312-10.0535888 5.6441312 5.6441312-10.0535888-5.6441312-10.0535888 10.0535888 5.6441312z" fill="#fbdcdc" stroke="#a0b9b6" stroke-width="1.504723" transform="matrix(.70710678 .70710678 -.70710678 .70710678 25 -10.355339)"/><g fill="#a0b9b6" fill-rule="nonzero"><path d="m11.9154222 12.4807222 5 4-.8308444 1.0385556-5-4z"/><path d="m11.9154222 31.4807222 5 4-.8308444 1.0385556-5-4z" transform="matrix(1 0 0 -1 0 68)"/><path d="m33.9154222 12.4807222 5 4-.8308444 1.0385556-5-4z" transform="matrix(-1 0 0 1 72 0)"/><path d="m33.9154222 31.4807222 5 4-.8308444 1.0385556-5-4z" transform="matrix(-1 0 0 -1 72 68)"/></g></g><path d="m89.11 120.8c2.8466667 0 5.425-.525 7.735-1.575s4.118333-2.52 5.425-4.41 1.96-4.048333 1.96-6.475c0-2.1-.49-3.955-1.47-5.565s-2.17-2.975-3.57-4.095-3.2666667-2.4266667-5.6-3.92c-2.1466667-1.4-3.85-2.59-5.11-3.57s-2.3216667-2.1233333-3.185-3.43-1.295-2.8-1.295-4.48c0-2.0533333.595-3.6166667 1.785-4.69s2.7183333-1.61 4.585-1.61c2.8 0 4.9816667 1.0266667 6.545 3.08s2.9283333 4.55 4.095 7.49l.56 1.33c.046667.14.186667.175.42.105s.35-.175.35-.315v-10.29c0-.3266667-.07-.595-.21-.805s-.42-.4083333-.84-.595c-1.026667-.42-2.38-.7816667-4.06-1.085s-3.3366667-.455-4.97-.455c-2.4733333 0-4.83.4083333-7.07 1.225s-4.0716667 2.0766667-5.495 3.78-2.135 3.7916667-2.135 6.265c0 1.96.4433333 3.6633333 1.33 5.11s1.9483333 2.6833333 3.185 3.71 2.975 2.2633333 5.215 3.71c2.2866667 1.493333 4.0833333 2.776667 5.39 3.85s2.415 2.38 3.325 3.92 1.365 3.336667 1.365 5.39c0 2.426667-.6066667 4.141667-1.82 5.145s-2.7533333 1.505-4.62 1.505c-2.0533333 0-3.885-.676667-5.495-2.03s-2.94-2.916667-3.99-4.69-2.275-4.083333-3.675-6.93c-.0466667-.186667-.1866667-.268333-.42-.245s-.35.128333-.35.315v.07l.21 11.13c0 .373333.0583333.641667.175.805s.2916667.338333.525.525c.7933333.7 2.3333333 1.341667 4.62 1.925s4.48.875 6.58.875zm41.05.14c.14 0 .256667-.023333.35-.07l9.66-4.69c.14-.046667.151667-.186667.035-.42s-.245-.35-.385-.35h-.14c-1.306667.513333-2.263333.77-2.87.77-.7 0-1.201667-.291667-1.505-.875s-.455-1.575-.455-2.975v-19.95c0-.0933333-.058333-.175-.175-.245s-.221667-.105-.315-.105-.163333.0233333-.21.07c-.746667.7466667-1.656667 1.3533333-2.73 1.82-2.006667-1.2133333-4.27-1.82-6.79-1.82-2.893333 0-5.6.6533333-8.12 1.96s-4.55 3.2083333-6.09 5.705c-1.54 2.496667-2.31 5.401667-2.31 8.715 0 2.613333.466667 4.853333 1.4 6.72s2.205 3.278333 3.815 4.235 3.371667 1.435 5.285 1.435c1.866667 0 3.57-.408333 5.11-1.225s3.08-1.948333 4.62-3.395c.093333 1.446667.315 2.59.665 3.43s.735 1.26 1.155 1.26zm-7.98-3.78c-2.193333 0-3.885-.968333-5.075-2.905s-1.785-4.655-1.785-8.155c0-3.686667.665-6.6966667 1.995-9.03s3.161667-3.5 5.495-3.5c1.633333 0 2.951667.5833333 3.955 1.75s1.505 2.66 1.505 4.48v15.12c-2.193333 1.493333-4.223333 2.24-6.09 2.24zm30.97 3.15c.466667 0 .723333-.116667.77-.35l8.61-19.88c.933333-2.1466667 1.925-3.7333333 2.975-4.76s2.251667-1.54 3.605-1.54c.093333 0 .14-.14.14-.42s-.046667-.42-.14-.42c-1.166667 0-2.03.0233333-2.59.07l-2.8.07-4.2-.07c-.653333-.0466667-1.61-.07-2.87-.07-.093333 0-.14.14-.14.42s.046667.42.14.42c1.4 0 2.496667.3266667 3.29.98s1.19 1.5633333 1.19 2.73c0 .7-.186667 1.54-.56 2.52l-4.62 11.2-7.84-14.7c-.233333-.4666667-.35-.84-.35-1.12 0-1.0733333 1.353333-1.61 4.06-1.61.14 0 .21-.14.21-.42s-.07-.42-.21-.42c-1.4 0-2.496667.0233333-3.29.07l-5.39.07-4.69-.07c-.56-.0466667-1.26-.07-2.1-.07-.14 0-.21.14-.21.42s.07.42.21.42c1.073333 0 1.983333.315 2.73.945s1.61 1.9716667 2.59 4.025l10.71 21.21c.14.233333.396667.35.77.35zm29.43.49c2.1 0 4.036667-.373333 5.81-1.12s3.523333-1.96 5.25-3.64c.093333-.093333.081667-.233333-.035-.42s-.221667-.28-.315-.28l-.14.07c-1.026667.653333-2.17 1.143333-3.43 1.47s-2.473333.49-3.64.49c-3.313333 0-5.915-1.166667-7.805-3.5s-2.835-5.506667-2.835-9.52c0-1.073333.07-2.053333.21-2.94l12.6-.14h4.27c.513333 0 .77-.676667.77-2.03 0-2.1466667-.77-3.8383333-2.31-5.075s-3.756667-1.855-6.65-1.855c-2.986667 0-5.693333.665-8.12 1.995s-4.34 3.15-5.74 5.46-2.1 4.818333-2.1 7.525c0 2.38.56 4.608333 1.68 6.685s2.753333 3.733333 4.9 4.97 4.69 1.855 7.63 1.855zm-6.72-20.79c.466667-1.96 1.213333-3.5 2.24-4.62s2.24-1.68 3.64-1.68c2.566667 0 3.92 2.03 4.06 6.09zm44.79 19.95c1.726667 0 3.08-.023333 4.06-.07l5.67-.07 5.81.07c.98.046667 2.31.07 3.99.07.14 0 .21-.14.21-.42s-.07-.42-.21-.42c-1.726667 0-2.986667-.116667-3.78-.35s-1.33-.676667-1.61-1.33-.42-1.703333-.42-3.15v-32.27c0-1.6333333.221667-2.7416667.665-3.325s1.341667-.875 2.695-.875h11.55c.56 0 .945.0816667 1.155.245s.315.4783333.315.945v35.28c0 1.866667-.268333 3.138333-.805 3.815s-1.528333 1.015-2.975 1.015c-.093333 0-.14.14-.14.42s.046667.42.14.42c1.213333 0 2.17-.023333 2.87-.07l4.2-.07 4.13.07c.7.046667 1.656667.07 2.87.07.186667 0 .28-.14.28-.42s-.093333-.42-.28-.42c-1.446667 0-2.426667-.338333-2.94-1.015s-.77-1.948333-.77-3.815v-14.98c.886667-.7933333 1.913333-1.4116667 3.08-1.855s2.31-.665 3.43-.665c1.96 0 3.406667.6066667 4.34 1.82s1.4 3.08 1.4 5.6v10.08c0 1.866667-.268333 3.138333-.805 3.815s-1.528333 1.015-2.975 1.015c-.093333 0-.14.14-.14.42s.046667.42.14.42c1.213333 0 2.17-.023333 2.87-.07l4.2-.07 4.13.07c.7.046667 1.656667.07 2.87.07.186667 0 .28-.14.28-.42s-.093333-.42-.28-.42c-1.446667 0-2.426667-.338333-2.94-1.015s-.77-1.948333-.77-3.815v-13.44c0-2.6133333-.735-4.725-2.205-6.335s-3.465-2.415-5.985-2.415c-2.006667 0-3.908333.49-5.705 1.47s-3.441667 2.38-4.935 4.2v-28.42c0-.2333333-.256667-.35-.77-.35-.28 0-.466667.07-.56.21-1.026667 1.9133333-2.578333 3.5233333-4.655 4.83s-4.538333 2.03-7.385 2.17c-1.822222.1333333-6.014815.2031746-12.577778.2095238l-1.942257-.0002504c-4.976055-.0077509-9.35271-.0775087-13.129965-.2092734-2.66 0-3.99-.5133333-3.99-1.54 0-.2333333-.128333-.35-.385-.35s-.385.1166667-.385.35c0 1.4933333-.116667 3.7216667-.35 6.685s-.443333 5.3783333-.63 7.245c0 .14.116667.2216667.35.245s.373333-.035.42-.175c2.426667-7.2333333 6.416667-10.85 11.97-10.85 1.306667 0 2.17.28 2.59.84s.63 1.6333333.63 3.22v32.41c0 1.4-.151667 2.438333-.455 3.115s-.863333 1.131667-1.68 1.365-2.065.35-3.745.35c-.14 0-.21.14-.21.42s.07.42.21.42zm74.93.84c2.1 0 4.036667-.373333 5.81-1.12s3.523333-1.96 5.25-3.64c.093333-.093333.081667-.233333-.035-.42s-.221667-.28-.315-.28l-.14.07c-1.026667.653333-2.17 1.143333-3.43 1.47s-2.473333.49-3.64.49c-3.313333 0-5.915-1.166667-7.805-3.5s-2.835-5.506667-2.835-9.52c0-1.073333.07-2.053333.21-2.94l12.6-.14h4.27c.513333 0 .77-.676667.77-2.03 0-2.1466667-.77-3.8383333-2.31-5.075s-3.756667-1.855-6.65-1.855c-2.986667 0-5.693333.665-8.12 1.995s-4.34 3.15-5.74 5.46-2.1 4.818333-2.1 7.525c0 2.38.56 4.608333 1.68 6.685s2.753333 3.733333 4.9 4.97 4.69 1.855 7.63 1.855zm-6.72-20.79c.466667-1.96 1.213333-3.5 2.24-4.62s2.24-1.68 3.64-1.68c2.566667 0 3.92 2.03 4.06 6.09zm54.73 20.23c4.2 0 8.061667-.945 11.585-2.835s6.323333-4.573333 8.4-8.05 3.115-7.478333 3.115-12.005c0-4.0133333-1.003333-7.63-3.01-10.85s-4.841667-5.7633333-8.505-7.63-7.851667-2.8-12.565-2.8c-.84 0-2.473333.0466667-4.9.14-2.006667.14-3.966667.21-5.88.21-1.26 0-2.963333-.0466667-5.11-.14l-3.71-.07c-.14 0-.21.14-.21.42s.07.42.21.42c1.446667 0 2.508333.1283333 3.185.385s1.143333.7116667 1.4 1.365.385 1.68.385 3.08v32.41c0 1.4-.128333 2.438333-.385 3.115s-.735 1.131667-1.435 1.365-1.796667.35-3.29.35c-.093333 0-.14.14-.14.42s.046667.42.14.42c1.586667 0 2.846667-.023333 3.78-.07l5.18-.07c1.353333 0 2.578333.023333 3.675.07s2.018333.093333 2.765.14c2.053333.14 3.826667.21 5.32.21zm-.7-1.61c-2.8 0-4.69-.385-5.67-1.155s-1.47-2.088333-1.47-3.955v-31.5c0-1.82.536667-3.01 1.61-3.57s3.056667-.84 5.95-.84c2.94 0 5.53.9333333 7.77 2.8s3.966667 4.4216667 5.18 7.665 1.82 6.8483333 1.82 10.815c0 4.153333-.641667 7.723333-1.925 10.71s-3.068333 5.238333-5.355 6.755-4.923333 2.275-7.91 2.275zm49.1 2.31c.14 0 .256667-.023333.35-.07l9.66-4.69c.14-.046667.151667-.186667.035-.42s-.245-.35-.385-.35h-.14c-1.306667.513333-2.263333.77-2.87.77-.7 0-1.201667-.291667-1.505-.875s-.455-1.575-.455-2.975v-19.95c0-.0933333-.058333-.175-.175-.245s-.221667-.105-.315-.105-.163333.0233333-.21.07c-.746667.7466667-1.656667 1.3533333-2.73 1.82-2.006667-1.2133333-4.27-1.82-6.79-1.82-2.893333 0-5.6.6533333-8.12 1.96s-4.55 3.2083333-6.09 5.705c-1.54 2.496667-2.31 5.401667-2.31 8.715 0 2.613333.466667 4.853333 1.4 6.72s2.205 3.278333 3.815 4.235 3.371667 1.435 5.285 1.435c1.866667 0 3.57-.408333 5.11-1.225s3.08-1.948333 4.62-3.395c.093333 1.446667.315 2.59.665 3.43s.735 1.26 1.155 1.26zm-7.98-3.78c-2.193333 0-3.885-.968333-5.075-2.905s-1.785-4.655-1.785-8.155c0-3.686667.665-6.6966667 1.995-9.03s3.161667-3.5 5.495-3.5c1.633333 0 2.951667.5833333 3.955 1.75s1.505 2.66 1.505 4.48v15.12c-2.193333 1.493333-4.223333 2.24-6.09 2.24zm28.87 3.64c1.82 0 3.546667-.408333 5.18-1.225s3.313333-2.088333 5.04-3.815c.14-.093333.151667-.233333.035-.42s-.268333-.28-.455-.28l-.14.07c-1.773333 1.4-3.593333 2.1-5.46 2.1-1.493333 0-2.695-.42-3.605-1.26s-1.365-2.146667-1.365-3.92v-16.59c2.846667.0466667 5.786667.3966667 8.82 1.05.186667.0466667.361667-.1516667.525-.595s.245-.8983333.245-1.365c0-.42-.058333-.805-.175-1.155s-.221667-.525-.315-.525c-3.36.3733333-6.393333.5833333-9.1.63v-5.6c0-.1866667-.151667-.28-.455-.28s-.501667.0933333-.595.28c-.793333 1.9133333-1.925 3.3366667-3.395 4.27s-3.395 1.4466667-5.775 1.54c-.093333 0-.163333.0583333-.21.175s-.07.2683333-.07.455c0 .14.035.28.105.42s.128333.21.175.21c1.353333 0 2.286667.28 2.8.84s.77 1.5633333.77 3.01v15.54c0 2.333333.723333 3.99 2.17 4.97s3.196667 1.47 5.25 1.47zm25.09 0c2.1 0 4.036667-.373333 5.81-1.12s3.523333-1.96 5.25-3.64c.093333-.093333.081667-.233333-.035-.42s-.221667-.28-.315-.28l-.14.07c-1.026667.653333-2.17 1.143333-3.43 1.47s-2.473333.49-3.64.49c-3.313333 0-5.915-1.166667-7.805-3.5s-2.835-5.506667-2.835-9.52c0-1.073333.07-2.053333.21-2.94l12.6-.14h4.27c.513333 0 .77-.676667.77-2.03 0-2.1466667-.77-3.8383333-2.31-5.075s-3.756667-1.855-6.65-1.855c-2.986667 0-5.693333.665-8.12 1.995s-4.34 3.15-5.74 5.46-2.1 4.818333-2.1 7.525c0 2.38.56 4.608333 1.68 6.685s2.753333 3.733333 4.9 4.97 4.69 1.855 7.63 1.855zm-6.72-20.79c.466667-1.96 1.213333-3.5 2.24-4.62s2.24-1.68 3.64-1.68c2.566667 0 3.92 2.03 4.06 6.09z" fill="#021631" fill-rule="nonzero"/></g></svg>