<svg height="117" viewBox="0 0 298 117" width="298" xmlns="http://www.w3.org/2000/svg"><g fill="none" fill-rule="evenodd" transform="translate(1)"><g transform="translate(123)"><path d="m35.0535888 14.9464112-5.6441312 10.0535888 5.6441312 10.0535888-10.0535888-5.6441312-10.0535888 5.6441312 5.6441312-10.0535888-5.6441312-10.0535888 10.0535888 5.6441312z" fill="#fbdcdc" stroke="#a0b9b6" stroke-width="1.504723" transform="matrix(.70710678 .70710678 -.70710678 .70710678 25 -10.355339)"/><g fill="#a0b9b6" fill-rule="nonzero"><path d="m11.9154222 12.4807222 5 4-.8308444 1.0385556-5-4z"/><path d="m11.9154222 31.4807222 5 4-.8308444 1.0385556-5-4z" transform="matrix(1 0 0 -1 0 68)"/><path d="m33.9154222 12.4807222 5 4-.8308444 1.0385556-5-4z" transform="matrix(-1 0 0 1 72 0)"/><path d="m33.9154222 31.4807222 5 4-.8308444 1.0385556-5-4z" transform="matrix(-1 0 0 -1 72 68)"/></g></g><g fill-rule="nonzero"><g fill="#a0b9b6" transform="translate(0 18)"><g opacity=".9" transform="translate(0 34)"><path d="m12.7363589 6.09940607.0992639.00140495c.3686186.03229758.6412606.35730434.608963.7259229-.6110304 6.97380818.4979885 13.42413088 3.1798726 20.01049558l.2644424.637837c1.256953 2.9743678 1.7544849 6.2592995 1.797118 10.1801356l.0030288.5644804v22.6901672c0 1.3751784-.9511685 2.5673519-2.2968808 2.8738415-4.899482 1.076008-9.65049272 1.0731271-14.26349147.0057741-1.2594575-.3058424-2.1622115-1.3978673-2.23833025-2.677131l-.00538144-.2817468-.00816012-15.1179034-.00077177-7.4930016c0-3.9821361.44039768-7.3128754 1.62559411-10.3172713l.17441331-.4270145c2.87312639-6.8089268 4.07519549-13.449893 3.44445439-20.64866278-.03229759-.36861856.24034443-.69362532.608963-.7259229.36861856-.03229759.69362532.24034443.7259229.608963.65081734 7.42790358-.59040193 14.28515938-3.54489139 21.28690548-1.17497047 2.78037-1.64882379 5.9016146-1.69128834 9.6551881l-.00316798.5678149.00910053 22.7160127c0 .7367859.50388591 1.377775 1.21267724 1.5499361 4.40983296 1.0203059 8.95956648 1.0230647 13.66184538-.0096135.682123-.1553658 1.1793096-.7318891 1.2425695-1.4176589l.0068232-.1485092v-22.6901672c0-4.0084118-.4607373-7.3036145-1.6945957-10.2233332-2.9543501-7.0014159-4.1955693-13.8586717-3.544752-21.28657528.0293614-.33510779.3006313-.59089612.626659-.61036795z"/><path d="m14.9128191 41.4828653c-4.0651813.2947435-6.56576287.3243815-10.05366927.088703l-1.20270364-.0883864c-.38957171-.0307005-.72263667.2771497-.72263667.6679292v14.4152381c0 .3371214.25048817.62174.5848777.6645707 4.15929116.5327476 6.81833918.5294915 11.51743028.0012355.3389331-.0381018.5951523-.3247382.5951523-.6658062v-14.4152381c0-.3891136-.3303559-.6963844-.7184507-.6682458zm-.6218191 1.3861347v13.097l-.5595979.0576819c-3.5254673.3530131-5.86606046.3550609-9.01786868.0015545l-.44053342-.0512364v-13.101l.50146853.0358904c3.15516748.2129649 5.52937497.2128667 8.91481157.0001858z"/><path d="m8.97752381 54.4860952c.704 0 1.25333329-.224 1.64799999-.672s.592-1.0702222.592-1.8666666v-5.824c0-.2133334.0142222-.3715556.0426667-.4746667.0284444-.1031111.0871111-.176.176-.2186667.0888889-.0426666.2257778-.064.4106666-.064.0213334 0 .032-.0213333.032-.064 0-.0426666-.0106666-.064-.032-.064l-.5013333.0106667c-.2986667.0142222-.5475555.0213333-.7466667.0213333-.2062222 0-.48-.0071111-.82133329-.0213333l-.66133333-.0106667c-.01422223 0-.02133334.0213334-.02133334.064 0 .0426667.00711111.064.02133334.064.26311111 0 .45511111.0195556.576.0586667s.20444444.1084444.25066666.208c.04622223.0995556.06933336.256.06933336.4693333v6.592c0 .5617778-.03555558.9635556-.10666669 1.2053334-.07111111.2417777-.18133333.3626666-.33066667.3626666-.064 0-.11733333-.0302222-.16-.0906666-.04266666-.0604445-.08533333-.1475556-.128-.2613334-.07822222-.192-.16533333-.3413333-.26133333-.448-.096-.1066666-.23288889-.16-.41066667-.16-.18488889 0-.32355555.0551111-.416.1653334-.09244444.1102222-.13866666.2364444-.13866666.3786666 0 .1991111.08533333.3555556.256.4693334.17066666.1137777.39111111.1706666.66133333.1706666z"/><path d="m13.2139683 3.04047619h-7.86285719c-.37003078 0-.67.29996922-.67.67v2.62095238c0 .37003078.29996922.67.67.67h7.86285719c.3700307 0 .67-.29996922.67-.67v-2.62095238c0-.37003078-.2999693-.67-.67-.67zm-.6709683 1.33952381v1.281h-6.522v-1.281z"/><path d="m12.3403175.63793651h-6.1155556c-.37003078 0-.67.29996922-.67.67v2.18412698c0 .37003078.29996922.67.67.67h6.1155556c.3700307 0 .67-.29996922.67-.67v-2.18412698c0-.37003078-.2999693-.67-.67-.67zm-.6703175 1.33906349v.845h-4.776v-.845z"/><path d="m13.9287256 21.4062566c.3594745-.0877544.7220252.1325183.8097797.4919928.0877544.3594745-.1325183.7220252-.4919928.8097797-.8606068.2100901-1.9489904 1.0034418-2.6896584 1.9469525-.052188.0664806-.1164833.1224866-.1894934.1650633-1.60680744.9370286-3.18692779.9265955-4.63489597-.0175424-.07580948-.0494311-.14081872-.1137083-.19110501-.1889532-.76011197-1.1373786-1.4881857-1.7640856-2.18982151-1.8983459-.36343678-.0695449-.60168325-.4205459-.53213839-.7839826.06954485-.3634368.42054582-.6016833.7839826-.5321384 1.05704941.2022699 1.98829409.9596355 2.87525696 2.2127028l.09236062.1342148.07274864.0440416c.89825999.5159432 1.81815845.5201189 2.84232506-.0136193l.1049263-.0584223.0877045-.106042c.8423391-.9944973 1.9778153-1.8182833 3.0267194-2.1437136z"/></g><path d="m9 19.5522222c.33639162 0 .61488112.2479085.66273548.5709923l.00726452.0990077v5c0 .3700308-.29996922.67-.67.67-.33639162 0-.61488112-.2479084-.66273548-.5709923l-.00726452-.0990077v-5c0-.3700308.29996922-.67.67-.67z"/><path d="m.44668655 24.8533466c.18335195-.2750279.53611842-.369417.82761081-.2370294l.09457827.0525916 3 2c.30558658.2037244.3881622.6166025.18443782.9221891-.18335195.2750279-.53611842.3694169-.82761081.2370294l-.09457827-.0525916-3-2c-.30558658-.2037244-.3881622-.6166025-.18443782-.9221891z"/><path d="m13.4466866 24.8533466c.1833519-.2750279.5361184-.369417.8276108-.2370294l.0945782.0525916 3 2c.3055866.2037244.3881622.6166025.1844378.9221891-.1833519.2750279-.5361184.3694169-.8276108.2370294l-.0945782-.0525916-3-2c-.3055866-.2037244-.3881622-.6166025-.1844378-.9221891z" transform="matrix(-1 0 0 1 31 0)"/><path d="m93 4.72222222c.2761424 0 .5.22385763.5.5 0 .24545989-.1768752.44960837-.4101244.49194433l-.0898756.00805567-83.5-.00022222v8.5002222c0 .2454599-.17687516.4496084-.41012437.4919444l-.08987563.0080556c-.24545989 0-.44960837-.1768751-.49194433-.4101243l-.00805567-.0898757v-9.49999998z"/><g transform="matrix(0 -1 1 0 100.5 9.5)"><path d="m8.16 5.39222222h-8c-.37003078 0-.67.29996922-.67.67v4.19999998c0 2.0268851 1.64311497 3.67 3.67 3.67h2c2.02688503 0 3.67-1.6431149 3.67-3.67v-4.19999998c0-.37003078-.29996922-.67-.67-.67zm-7.331 1.33977778h6.66l.001 3.5302222c0 1.2868235-1.04317653 2.33-2.33 2.33h-2l-.1595261-.0053754c-1.21241767-.081979-2.1704739-1.0914188-2.1704739-2.3246246z"/><path d="m6.85838835-.67h-5.3967767c-.92231554 0-1.67.74768447-1.67 1.67 0 .14527427.01895589.28992755.05638765.43029663l1.26462329 4.74233735c.07821194.29329478.34383344.49736602.64737741.49736602h4.8c.30354397 0 .56916547-.20407124.64737741-.49736602l1.26462329-4.74233735c.23764627-.8911735-.29214223-1.80626271-1.18331572-2.04390898-.14036907-.03743175-.28502236-.05638765-.43029663-.05638765zm-5.3967767 1.34h5.3967767c.02870689 0 .05729108.00374578.08502868.01114247l.06253343.0236143c.13736939.0684784.21238546.22618427.17129542.3802719l-1.13224588 4.24497133h-3.771l-1.13124588-4.24497133c-.0073967-.0277376-.01114247-.05632178-.01114247-.08502867 0-.18225397.14774603-.33.33-.33z"/></g></g><g fill="#a0b9b6" transform="matrix(-1 0 0 1 296 18)"><g opacity=".9" transform="translate(0 34)"><path d="m12.7363589 6.09940607.0992639.00140495c.3686186.03229758.6412606.35730434.608963.7259229-.6110304 6.97380818.4979885 13.42413088 3.1798726 20.01049558l.2644424.637837c1.256953 2.9743678 1.7544849 6.2592995 1.797118 10.1801356l.0030288.5644804v22.6901672c0 1.3751784-.9511685 2.5673519-2.2968808 2.8738415-4.899482 1.076008-9.65049272 1.0731271-14.26349147.0057741-1.2594575-.3058424-2.1622115-1.3978673-2.23833025-2.677131l-.00538144-.2817468-.00816012-15.1179034-.00077177-7.4930016c0-3.9821361.44039768-7.3128754 1.62559411-10.3172713l.17441331-.4270145c2.87312639-6.8089268 4.07519549-13.449893 3.44445439-20.64866278-.03229759-.36861856.24034443-.69362532.608963-.7259229.36861856-.03229759.69362532.24034443.7259229.608963.65081734 7.42790358-.59040193 14.28515938-3.54489139 21.28690548-1.17497047 2.78037-1.64882379 5.9016146-1.69128834 9.6551881l-.00316798.5678149.00910053 22.7160127c0 .7367859.50388591 1.377775 1.21267724 1.5499361 4.40983296 1.0203059 8.95956648 1.0230647 13.66184538-.0096135.682123-.1553658 1.1793096-.7318891 1.2425695-1.4176589l.0068232-.1485092v-22.6901672c0-4.0084118-.4607373-7.3036145-1.6945957-10.2233332-2.9543501-7.0014159-4.1955693-13.8586717-3.544752-21.28657528.0293614-.33510779.3006313-.59089612.626659-.61036795z"/><path d="m14.9128191 41.4828653c-4.0651813.2947435-6.56576287.3243815-10.05366927.088703l-1.20270364-.0883864c-.38957171-.0307005-.72263667.2771497-.72263667.6679292v14.4152381c0 .3371214.25048817.62174.5848777.6645707 4.15929116.5327476 6.81833918.5294915 11.51743028.0012355.3389331-.0381018.5951523-.3247382.5951523-.6658062v-14.4152381c0-.3891136-.3303559-.6963844-.7184507-.6682458zm-.6218191 1.3861347v13.097l-.5595979.0576819c-3.5254673.3530131-5.86606046.3550609-9.01786868.0015545l-.44053342-.0512364v-13.101l.50146853.0358904c3.15516748.2129649 5.52937497.2128667 8.91481157.0001858z"/><path d="m5.07010714 52.9047619c.198 0 .35566667-.0036667.473-.011l.693-.011.605.011c.11.0073333.264.011.462.011.022 0 .033-.022.033-.066s-.011-.066-.033-.066c-.30066666 0-.5335-.1118333-.6985-.3355s-.24383333-.5335-.2365-.9295l.088-3.971 2.783 5.291c.01466667.0293333.044.044.088.044s.07333334-.0146667.088-.044l2.26599996-5.313.231 4.499.011.187c0 .2346667-.055.3886667-.165.462s-.319.11-.627.11c-.022 0-.033.022-.033.066s.011.066.033.066c.242 0 .4326667-.0036667.572-.011l.825-.011.814.011c.1466667.0073333.3446667.011.594.011.0146667 0 .022-.022.022-.066s-.0073333-.066-.022-.066c-.2273333 0-.3941666-.0183333-.5005-.055-.1063333-.0366667-.1796666-.1063333-.22-.209-.0403333-.1026667-.0678333-.2676667-.0825-.495l-.264-4.994c-.0146666-.2933333.055-.5096667.209-.649s.4033334-.209.748-.209c.022 0 .033-.022.033-.066s-.011-.066-.033-.066c-.1906666 0-.3373333.0036667-.44.011l-.649.011c-.11 0-.2071666-.0036667-.2915-.011-.0843333-.0073333-.1595-.011-.2255-.011-.0806666 0-.1448333.0201667-.1925.0605-.0476666.0403333-.0935.1118333-.1375.2145l-2.08999996 4.796-2.398-4.499c-.13933333-.2493333-.23466666-.407-.286-.473-.05133333-.066-.12466666-.099-.22-.099-.10266666 0-.187.0036667-.253.011l-.583.011c-.16133333 0-.29333333-.0036667-.396-.011l-.517-.011c-.022 0-.033.022-.033.066s.011.066.033.066c.20533334 0 .38683334.0623333.5445.187.15766667.1246667.30983334.3226667.4565.594l.011.011-.099 4.554c-.00733333.3886667-.099.6966667-.275.924s-.41433333.341-.715.341c-.022 0-.033.022-.033.066s.011.066.033.066z" transform="matrix(-1 0 0 1 18.995214 0)"/><path d="m13.2139683 3.04047619h-7.86285719c-.37003078 0-.67.29996922-.67.67v2.62095238c0 .37003078.29996922.67.67.67h7.86285719c.3700307 0 .67-.29996922.67-.67v-2.62095238c0-.37003078-.2999693-.67-.67-.67zm-.6709683 1.33952381v1.281h-6.522v-1.281z"/><path d="m12.3403175.63793651h-6.1155556c-.37003078 0-.67.29996922-.67.67v2.18412698c0 .37003078.29996922.67.67.67h6.1155556c.3700307 0 .67-.29996922.67-.67v-2.18412698c0-.37003078-.2999693-.67-.67-.67zm-.6703175 1.33906349v.845h-4.776v-.845z"/><path d="m13.9287256 21.4062566c.3594745-.0877544.7220252.1325183.8097797.4919928.0877544.3594745-.1325183.7220252-.4919928.8097797-.8606068.2100901-1.9489904 1.0034418-2.6896584 1.9469525-.052188.0664806-.1164833.1224866-.1894934.1650633-1.60680744.9370286-3.18692779.9265955-4.63489597-.0175424-.07580948-.0494311-.14081872-.1137083-.19110501-.1889532-.76011197-1.1373786-1.4881857-1.7640856-2.18982151-1.8983459-.36343678-.0695449-.60168325-.4205459-.53213839-.7839826.06954485-.3634368.42054582-.6016833.7839826-.5321384 1.05704941.2022699 1.98829409.9596355 2.87525696 2.2127028l.09236062.1342148.07274864.0440416c.89825999.5159432 1.81815845.5201189 2.84232506-.0136193l.1049263-.0584223.0877045-.106042c.8423391-.9944973 1.9778153-1.8182833 3.0267194-2.1437136z"/></g><path d="m9 19.5522222c.33639162 0 .61488112.2479085.66273548.5709923l.00726452.0990077v5c0 .3700308-.29996922.67-.67.67-.33639162 0-.61488112-.2479084-.66273548-.5709923l-.00726452-.0990077v-5c0-.3700308.29996922-.67.67-.67z"/><path d="m.44668655 24.8533466c.18335195-.2750279.53611842-.369417.82761081-.2370294l.09457827.0525916 3 2c.30558658.2037244.3881622.6166025.18443782.9221891-.18335195.2750279-.53611842.3694169-.82761081.2370294l-.09457827-.0525916-3-2c-.30558658-.2037244-.3881622-.6166025-.18443782-.9221891z"/><path d="m13.4466866 24.8533466c.1833519-.2750279.5361184-.369417.8276108-.2370294l.0945782.0525916 3 2c.3055866.2037244.3881622.6166025.1844378.9221891-.1833519.2750279-.5361184.3694169-.8276108.2370294l-.0945782-.0525916-3-2c-.3055866-.2037244-.3881622-.6166025-.1844378-.9221891z" transform="matrix(-1 0 0 1 31 0)"/><path d="m93 4.72222222c.2761424 0 .5.22385763.5.5 0 .24545989-.1768752.44960837-.4101244.49194433l-.0898756.00805567-83.5-.00022222v8.5002222c0 .2454599-.17687516.4496084-.41012437.4919444l-.08987563.0080556c-.24545989 0-.44960837-.1768751-.49194433-.4101243l-.00805567-.0898757v-9.49999998z"/><g transform="matrix(0 -1 1 0 100.5 9.5)"><path d="m8.16 5.39222222h-8c-.37003078 0-.67.29996922-.67.67v4.19999998c0 2.0268851 1.64311497 3.67 3.67 3.67h2c2.02688503 0 3.67-1.6431149 3.67-3.67v-4.19999998c0-.37003078-.29996922-.67-.67-.67zm-7.331 1.33977778h6.66l.001 3.5302222c0 1.2868235-1.04317653 2.33-2.33 2.33h-2l-.1595261-.0053754c-1.21241767-.081979-2.1704739-1.0914188-2.1704739-2.3246246z"/><path d="m6.85838835-.67h-5.3967767c-.92231554 0-1.67.74768447-1.67 1.67 0 .14527427.01895589.28992755.05638765.43029663l1.26462329 4.74233735c.07821194.29329478.34383344.49736602.64737741.49736602h4.8c.30354397 0 .56916547-.20407124.64737741-.49736602l1.26462329-4.74233735c.23764627-.8911735-.29214223-1.80626271-1.18331572-2.04390898-.14036907-.03743175-.28502236-.05638765-.43029663-.05638765zm-5.3967767 1.34h5.3967767c.02870689 0 .05729108.00374578.08502868.01114247l.06253343.0236143c.13736939.0684784.21238546.22618427.17129542.3802719l-1.13224588 4.24497133h-3.771l-1.13124588-4.24497133c-.0073967-.0277376-.01114247-.05632178-.01114247-.08502867 0-.18225397.14774603-.33.33-.33z"/></g></g><path d="m60.4594286 91.432c1.464 0 2.79-.27 3.978-.81s2.118-1.296 2.79-2.268 1.008-2.082 1.008-3.33c0-1.08-.252-2.034-.756-2.862s-1.116-1.53-1.836-2.106-1.68-1.248-2.88-2.016c-1.104-.72-1.98-1.332-2.628-1.836s-1.194-1.092-1.638-1.764-.666-1.44-.666-2.304c0-1.056.306-1.86.918-2.412s1.398-.828 2.358-.828c1.44 0 2.562.528 3.366 1.584s1.506 2.34 2.106 3.852l.288.684c.024.072.096.09.216.054s.18-.09.18-.162v-5.292c0-.168-.036-.306-.108-.414s-.216-.21-.432-.306c-.528-.216-1.224-.402-2.088-.558s-1.716-.234-2.556-.234c-1.272 0-2.484.21-3.636.63s-2.094 1.068-2.826 1.944-1.098 1.95-1.098 3.222c0 1.008.228 1.884.684 2.628s1.002 1.38 1.638 1.908 1.53 1.164 2.682 1.908c1.176.768 2.1 1.428 2.772 1.98s1.242 1.224 1.71 2.016.702 1.716.702 2.772c0 1.248-.312 2.13-.936 2.646s-1.416.774-2.376.774c-1.056 0-1.998-.348-2.826-1.044s-1.512-1.5-2.052-2.412-1.17-2.1-1.89-3.564c-.024-.096-.096-.138-.216-.126s-.18.066-.18.162v.036l.108 5.724c0 .192.03.33.09.414s.15.174.27.27c.408.36 1.2.69 2.376.99s2.304.45 3.384.45zm21.1114285.072c.072 0 .132-.012.18-.036l4.968-2.412c.072-.024.078-.096.018-.216s-.126-.18-.198-.18h-.072c-.672.264-1.164.396-1.476.396-.36 0-.618-.15-.774-.45s-.234-.81-.234-1.53v-10.26c0-.048-.03-.09-.09-.126s-.114-.054-.162-.054-.084.012-.108.036c-.384.384-.852.696-1.404.936-1.032-.624-2.196-.936-3.492-.936-1.488 0-2.88.336-4.176 1.008s-2.34 1.65-3.132 2.934-1.188 2.778-1.188 4.482c0 1.344.24 2.496.72 3.456s1.134 1.686 1.962 2.178 1.734.738 2.718.738c.96 0 1.836-.21 2.628-.63s1.584-1.002 2.376-1.746c.048.744.162 1.332.342 1.764s.378.648.594.648zm-4.104-1.944c-1.128 0-1.998-.498-2.61-1.494s-.918-2.394-.918-4.194c0-1.896.342-3.444 1.026-4.644s1.626-1.8 2.826-1.8c.84 0 1.518.3 2.034.9s.774 1.368.774 2.304v7.776c-1.128.768-2.172 1.152-3.132 1.152zm15.9274286 1.62c.24 0 .372-.06.396-.18l4.428-10.224c.48-1.104.99-1.92 1.53-2.448.5400003-.528 1.1580003-.792 1.8540003-.792.048 0 .072-.072.072-.216s-.024-.216-.072-.216c-.6 0-1.044.012-1.332.036l-1.4400003.036-2.16-.036c-.336-.024-.828-.036-1.476-.036-.048 0-.072.072-.072.216s.024.216.072.216c.72 0 1.284.168 1.692.504s.612.804.612 1.404c0 .36-.096.792-.288 1.296l-2.376 5.76-4.032-7.56c-.12-.24-.18-.432-.18-.576 0-.552.696-.828 2.088-.828.072 0 .108-.072.108-.216s-.036-.216-.108-.216c-.72 0-1.284.012-1.692.036l-2.772.036-2.412-.036c-.288-.024-.648-.036-1.08-.036-.072 0-.108.072-.108.216s.036.216.108.216c.552 0 1.02.162 1.404.486s.828 1.014 1.332 2.07l5.508 10.908c.072.12.204.18.396.18zm15.1354283.252c1.08 0 2.076-.192 2.988-.576s1.812-1.008 2.7-1.872c.048-.048.042-.12-.018-.216s-.114-.144-.162-.144l-.072.036c-.528.336-1.116.588-1.764.756s-1.272.252-1.872.252c-1.704 0-3.042-.6-4.014-1.8s-1.458-2.832-1.458-4.896c0-.552.036-1.056.108-1.512l6.48-.072h2.196c.264 0 .396-.348.396-1.044 0-1.104-.396-1.974-1.188-2.61s-1.932-.954-3.42-.954c-1.536 0-2.928.342-4.176 1.026s-2.232 1.62-2.952 2.808-1.08 2.478-1.08 3.87c0 1.224.288 2.37.864 3.438s1.416 1.92 2.52 2.556 2.412.954 3.924.954zm-3.456-10.692c.24-1.008.624-1.8 1.152-2.376s1.152-.864 1.872-.864c1.32 0 2.016 1.044 2.088 3.132zm23.034857 10.26c.888 0 1.584-.012 2.088-.036l2.916-.036 2.988.036c.504.024 1.188.036 2.052.036.072 0 .108-.072.108-.216s-.036-.216-.108-.216c-.888 0-1.536-.06-1.944-.18s-.684-.348-.828-.684-.216-.876-.216-1.62v-16.596c0-.84.114-1.41.342-1.71s.69-.45 1.386-.45h5.94c.288 0 .486.042.594.126s.162.246.162.486v18.144c0 .96-.138 1.614-.414 1.962s-.786.522-1.53.522c-.048 0-.072.072-.072.216s.024.216.072.216c.624 0 1.116-.012 1.476-.036l2.16-.036 2.124.036c.36.024.852.036 1.476.036.096 0 .144-.072.144-.216s-.048-.216-.144-.216c-.744 0-1.248-.174-1.512-.522s-.396-1.002-.396-1.962v-7.704c.456-.408.984-.726 1.584-.954s1.188-.342 1.764-.342c1.008 0 1.752.312 2.232.936s.72 1.584.72 2.88v5.184c0 .96-.138 1.614-.414 1.962s-.786.522-1.53.522c-.048 0-.072.072-.072.216s.024.216.072.216c.624 0 1.116-.012 1.476-.036l2.16-.036 2.124.036c.36.024.852.036 1.476.036.096 0 .144-.072.144-.216s-.048-.216-.144-.216c-.744 0-1.248-.174-1.512-.522s-.396-1.002-.396-1.962v-6.912c0-1.344-.378-2.43-1.134-3.258s-1.782-1.242-3.078-1.242c-1.032 0-2.01.252-2.934.756s-1.77 1.224-2.538 2.16v-14.616c0-.12-.132-.18-.396-.18-.144 0-.24.036-.288.108-.528.984-1.326 1.812-2.394 2.484s-2.334 1.044-3.798 1.116c-.984.072-3.312.108-6.984.108-2.76 0-5.172-.036-7.236-.108-1.368 0-2.052-.264-2.052-.792 0-.12-.066-.18-.198-.18s-.198.06-.198.18c0 .768-.06 1.914-.18 3.438s-.228 2.766-.324 3.726c0 .072.06.114.18.126s.192-.018.216-.09c1.248-3.72 3.3-5.58 6.156-5.58.672 0 1.116.144 1.332.432s.324.84.324 1.656v16.668c0 .72-.078 1.254-.234 1.602s-.444.582-.864.702-1.062.18-1.926.18c-.072 0-.108.072-.108.216s.036.216.108.216zm38.535429.432c1.08 0 2.076-.192 2.988-.576s1.812-1.008 2.7-1.872c.048-.048.042-.12-.018-.216s-.114-.144-.162-.144l-.072.036c-.528.336-1.116.588-1.764.756s-1.272.252-1.872.252c-1.704 0-3.042-.6-4.014-1.8s-1.458-2.832-1.458-4.896c0-.552.036-1.056.108-1.512l6.48-.072h2.196c.264 0 .396-.348.396-1.044 0-1.104-.396-1.974-1.188-2.61s-1.932-.954-3.42-.954c-1.536 0-2.928.342-4.176 1.026s-2.232 1.62-2.952 2.808-1.08 2.478-1.08 3.87c0 1.224.288 2.37.864 3.438s1.416 1.92 2.52 2.556 2.412.954 3.924.954zm-3.456-10.692c.24-1.008.624-1.8 1.152-2.376s1.152-.864 1.872-.864c1.32 0 2.016 1.044 2.088 3.132zm28.146857 10.404c2.16 0 4.146-.486 5.958-1.458s3.252-2.352 4.32-4.14 1.602-3.846 1.602-6.174c0-2.064-.516-3.924-1.548-5.58s-2.49-2.964-4.374-3.924-4.038-1.44-6.462-1.44c-.432 0-1.272.024-2.52.072-1.032.072-2.04.108-3.024.108-.648 0-1.524-.024-2.628-.072l-1.908-.036c-.072 0-.108.072-.108.216s.036.216.108.216c.744 0 1.29.066 1.638.198s.588.366.72.702.198.864.198 1.584v16.668c0 .72-.066 1.254-.198 1.602s-.378.582-.738.702-.924.18-1.692.18c-.048 0-.072.072-.072.216s.024.216.072.216c.816 0 1.464-.012 1.944-.036l2.664-.036c.696 0 1.326.012 1.89.036s1.038.048 1.422.072c1.056.072 1.968.108 2.736.108zm-.36-.828c-1.44 0-2.412-.198-2.916-.594s-.756-1.074-.756-2.034v-16.2c0-.936.276-1.548.828-1.836s1.572-.432 3.06-.432c1.512 0 2.844.48 3.996 1.44s2.04 2.274 2.664 3.942.936 3.522.936 5.562c0 2.136-.33 3.972-.99 5.508s-1.578 2.694-2.754 3.474-2.532 1.17-4.068 1.17zm25.251429 1.188c.072 0 .132-.012.18-.036l4.968-2.412c.072-.024.078-.096.018-.216s-.126-.18-.198-.18h-.072c-.672.264-1.164.396-1.476.396-.36 0-.618-.15-.774-.45s-.234-.81-.234-1.53v-10.26c0-.048-.03-.09-.09-.126s-.114-.054-.162-.054-.084.012-.108.036c-.384.384-.852.696-1.404.936-1.032-.624-2.196-.936-3.492-.936-1.488 0-2.88.336-4.176 1.008s-2.34 1.65-3.132 2.934-1.188 2.778-1.188 4.482c0 1.344.24 2.496.72 3.456s1.134 1.686 1.962 2.178 1.734.738 2.718.738c.96 0 1.836-.21 2.628-.63s1.584-1.002 2.376-1.746c.048.744.162 1.332.342 1.764s.378.648.594.648zm-4.104-1.944c-1.128 0-1.998-.498-2.61-1.494s-.918-2.394-.918-4.194c0-1.896.342-3.444 1.026-4.644s1.626-1.8 2.826-1.8c.84 0 1.518.3 2.034.9s.774 1.368.774 2.304v7.776c-1.128.768-2.172 1.152-3.132 1.152zm14.847428 1.872c.936 0 1.824-.21 2.664-.63s1.704-1.074 2.592-1.962c.072-.048.078-.12.018-.216s-.138-.144-.234-.144l-.072.036c-.912.72-1.848 1.08-2.808 1.08-.768 0-1.386-.216-1.854-.648s-.702-1.104-.702-2.016v-8.532c1.464.024 2.976.204 4.536.54.096.024.186-.078.27-.306s.126-.462.126-.702c0-.216-.03-.414-.09-.594s-.114-.27-.162-.27c-1.728.192-3.288.3-4.68.324v-2.88c0-.096-.078-.144-.234-.144s-.258.048-.306.144c-.408.984-.99 1.716-1.746 2.196s-1.746.744-2.97.792c-.048 0-.084.03-.108.09s-.036.138-.036.234c0 .072.018.144.054.216s.066.108.09.108c.696 0 1.176.144 1.44.432s.396.804.396 1.548v7.992c0 1.2.372 2.052 1.116 2.556s1.644.756 2.7.756zm12.903429 0c1.08 0 2.076-.192 2.988-.576s1.812-1.008 2.7-1.872c.048-.048.042-.12-.018-.216s-.114-.144-.162-.144l-.072.036c-.528.336-1.116.588-1.764.756s-1.272.252-1.872.252c-1.704 0-3.042-.6-4.014-1.8s-1.458-2.832-1.458-4.896c0-.552.036-1.056.108-1.512l6.48-.072h2.196c.264 0 .396-.348.396-1.044 0-1.104-.396-1.974-1.188-2.61s-1.932-.954-3.42-.954c-1.536 0-2.928.342-4.176 1.026s-2.232 1.62-2.952 2.808-1.08 2.478-1.08 3.87c0 1.224.288 2.37.864 3.438s1.416 1.92 2.52 2.556 2.412.954 3.924.954zm-3.456-10.692c.24-1.008.624-1.8 1.152-2.376s1.152-.864 1.872-.864c1.32 0 2.016 1.044 2.088 3.132z" fill="#021631"/></g></g></svg>