<?xml version="1.0" standalone="no"?>
<!DOCTYPE svg PUBLIC "-//W3C//DTD SVG 20010904//EN"
 "http://www.w3.org/TR/2001/REC-SVG-20010904/DTD/svg10.dtd">
<svg version="1.0" xmlns="http://www.w3.org/2000/svg"
 width="384.000000pt" height="384.000000pt" viewBox="0 0 384.000000 384.000000"
 preserveAspectRatio="xMidYMid meet">
<metadata>
Created by potrace 1.11, written by Peter Selinger 2001-2013
</metadata>
<g transform="translate(0.000000,384.000000) scale(0.100000,-0.100000)"
fill="#000000" stroke="none">
<path d="M1522 3578 c-19 -20 -24 -21 -32 -8 -8 13 -10 12 -10 -4 0 -11 -3
-16 -6 -13 -4 3 -16 1 -28 -5 -11 -7 -23 -12 -27 -11 -3 1 -11 -7 -18 -19 -7
-11 -8 -17 -3 -14 6 3 13 -1 16 -10 4 -10 2 -13 -6 -8 -7 4 -3 -6 8 -22 21
-30 24 -47 12 -60 -5 -4 -8 -15 -8 -25 0 -12 -5 -16 -15 -13 -13 6 -20 -6 -16
-28 0 -5 -6 -8 -14 -8 -8 0 -21 -13 -30 -30 -9 -16 -20 -30 -25 -30 -6 0 -8
-12 -6 -26 4 -21 3 -24 -10 -14 -11 10 -14 9 -14 -4 0 -13 -10 -16 -59 -14
-40 2 -65 -2 -77 -12 -11 -9 -15 -10 -10 -2 4 6 5 12 1 12 -3 0 -10 -12 -15
-26 -6 -14 -13 -23 -17 -21 -5 3 -7 -29 -7 -71 1 -51 6 -76 13 -74 6 1 11 -7
11 -18 0 -14 7 -20 23 -21 12 0 17 -3 10 -6 -10 -3 -10 -7 0 -18 7 -7 15 -11
20 -8 4 2 7 -1 7 -7 0 -6 14 -24 30 -40 17 -16 30 -34 30 -40 0 -6 5 -8 10 -5
6 3 10 -3 10 -14 0 -12 4 -21 10 -21 5 0 20 -11 33 -24 14 -14 28 -22 32 -18
4 4 6 3 5 -3 -5 -21 0 -36 10 -30 6 3 10 -1 10 -10 0 -9 5 -13 10 -10 14 9 13
-8 -2 -23 -9 -9 -8 -12 6 -12 9 0 14 -4 11 -10 -3 -5 -1 -10 5 -10 6 0 8 -5 5
-10 -4 -6 -1 -9 7 -8 7 2 12 -3 11 -9 -2 -7 0 -12 5 -12 19 3 25 -2 12 -11
-13 -8 -12 -10 3 -10 10 0 15 -4 12 -10 -3 -5 1 -10 9 -10 9 0 18 -11 22 -25
3 -14 10 -23 14 -20 5 3 11 2 13 -2 5 -8 -15 -31 -30 -36 -5 -1 -7 -5 -6 -8 1
-3 -8 -5 -20 -5 -13 1 -21 -4 -19 -12 1 -8 -2 -11 -8 -7 -5 3 -10 2 -10 -3 0
-6 -8 -9 -17 -8 -10 0 -17 -5 -15 -12 1 -8 -2 -11 -7 -8 -5 4 -14 -2 -20 -11
-6 -10 -11 -15 -11 -10 0 4 -14 0 -30 -8 -17 -9 -28 -20 -25 -25 6 -9 -16 -15
-38 -11 -5 1 -6 -3 -2 -9 3 -5 -2 -10 -12 -10 -15 0 -16 -2 -3 -11 12 -9 11
-10 -7 -6 -13 3 -23 1 -23 -4 0 -5 -10 -14 -22 -19 -14 -5 -17 -9 -8 -10 8 0
0 -7 -17 -15 -18 -8 -33 -19 -33 -25 0 -5 -5 -10 -11 -10 -7 0 -22 -10 -35
-22 -49 -49 -72 -66 -78 -61 -3 4 -6 -2 -6 -11 0 -12 -5 -16 -14 -13 -10 4
-13 1 -10 -8 3 -7 -3 -16 -15 -20 -12 -3 -21 -13 -21 -21 0 -13 -13 -19 -35
-14 -5 1 -7 -2 -3 -6 5 -4 -1 -14 -12 -21 -11 -8 -18 -19 -15 -24 4 -5 -1 -9
-10 -9 -8 0 -19 -8 -22 -17 -9 -24 -29 -43 -37 -36 -3 4 -6 -4 -6 -16 0 -12
-4 -19 -10 -16 -6 3 -13 -1 -17 -11 -3 -9 -19 -30 -35 -46 -16 -16 -26 -33
-23 -38 3 -6 -1 -7 -9 -4 -10 4 -16 1 -16 -8 0 -13 -9 -27 -50 -75 -5 -7 -10
-17 -10 -23 0 -6 -7 -13 -15 -16 -8 -4 -12 -10 -9 -15 3 -5 0 -9 -7 -9 -7 0
-9 -3 -6 -7 4 -3 0 -11 -9 -17 -8 -6 -16 -21 -17 -33 0 -12 -5 -19 -9 -17 -4
3 -8 -5 -8 -18 0 -18 -2 -20 -10 -8 -8 12 -10 9 -10 -12 0 -16 -5 -28 -11 -28
-5 0 -7 -5 -4 -10 3 -6 -1 -13 -10 -16 -9 -4 -14 -13 -11 -20 3 -7 -2 -20 -10
-29 -9 -8 -12 -15 -8 -15 3 0 1 -6 -5 -13 -6 -8 -8 -17 -4 -20 3 -4 -2 -10
-11 -13 -12 -4 -14 -9 -7 -14 8 -4 5 -14 -8 -29 -10 -12 -17 -30 -14 -40 3
-10 0 -22 -6 -25 -5 -4 -7 -14 -4 -23 4 -11 3 -14 -5 -9 -8 5 -12 0 -12 -14 0
-13 4 -18 11 -15 6 4 5 -2 -2 -13 -7 -12 -16 -19 -19 -17 -4 2 -4 -10 -2 -27
4 -24 2 -29 -9 -23 -11 6 -11 5 -2 -5 12 -13 7 -43 -7 -35 -4 2 -4 -13 0 -35
5 -27 4 -40 -4 -40 -7 0 -7 -3 1 -8 8 -5 9 -13 3 -22 -5 -8 -5 -21 1 -32 7
-13 6 -18 -3 -18 -9 0 -9 -3 2 -10 13 -9 13 -10 0 -11 -10 0 -8 -3 5 -9 11 -5
14 -9 7 -9 -10 -1 -10 -6 -1 -22 8 -15 8 -19 0 -15 -8 5 -8 1 -2 -16 19 -46
24 -63 28 -88 2 -13 7 -27 11 -30 4 -3 9 -12 11 -20 12 -45 27 -80 33 -80 5 0
8 -7 8 -15 0 -8 5 -15 10 -15 6 0 10 -7 10 -15 0 -8 5 -15 12 -15 6 0 8 -3 5
-7 -4 -3 2 -13 13 -20 11 -8 17 -20 14 -26 -4 -7 -4 -9 0 -5 9 7 56 -39 56
-54 0 -5 5 -6 10 -3 6 3 13 -1 16 -9 3 -9 12 -16 20 -16 8 0 14 -4 14 -8 0 -5
12 -15 27 -23 16 -8 34 -21 41 -29 11 -12 12 -12 6 -1 -4 8 9 2 29 -13 23 -18
37 -23 37 -15 0 8 6 5 16 -7 8 -10 12 -12 8 -4 -7 13 -5 13 9 1 9 -7 17 -10
17 -6 0 5 9 0 20 -10 11 -10 20 -15 20 -10 0 4 6 2 14 -4 7 -6 22 -8 31 -4 13
4 16 3 11 -5 -4 -7 -1 -12 9 -12 10 0 13 5 9 13 -4 6 2 3 14 -7 12 -11 22 -16
22 -12 0 4 10 2 21 -5 16 -8 20 -8 14 1 -6 9 -3 9 12 2 26 -15 318 -15 345 -1
15 8 19 8 14 0 -4 -6 -2 -11 3 -11 6 0 11 7 11 15 0 12 5 13 18 7 9 -5 26 -7
37 -5 11 3 30 5 43 6 12 0 22 5 22 10 0 5 8 3 17 -4 11 -10 14 -10 9 -1 -7 12
3 16 37 13 9 -1 17 3 17 8 0 6 5 11 11 11 5 0 7 -6 3 -12 -6 -10 -5 -10 7 -1
8 6 28 13 44 15 17 1 29 8 28 14 -1 7 6 10 17 7 11 -3 27 0 35 7 8 6 19 9 24
6 5 -4 12 -2 16 4 4 6 11 8 16 5 5 -4 9 -2 9 3 0 6 7 13 16 16 15 6 15 4 3
-11 -7 -10 0 -7 15 7 16 14 26 19 22 13 -5 -9 -2 -11 8 -7 9 3 16 10 16 14 0
5 9 7 19 5 11 -2 22 3 25 12 4 8 13 13 20 10 8 -3 20 1 27 9 6 8 14 12 17 9 3
-3 16 2 29 10 13 9 27 13 32 10 5 -2 11 2 15 10 3 8 12 15 21 15 8 0 15 6 15
13 0 9 2 9 9 -1 7 -11 9 -10 15 3 3 9 10 14 15 11 5 -3 14 1 21 9 7 8 16 12
21 9 5 -3 9 0 9 5 0 6 9 11 21 11 11 0 17 5 14 10 -4 6 6 10 22 11 15 0 22 3
15 6 -9 3 -4 10 13 19 15 8 32 14 37 14 5 0 16 7 25 15 8 8 19 12 25 9 7 -4 8
-2 4 4 -4 7 -1 12 8 12 9 0 16 5 16 12 0 6 3 9 6 5 4 -3 12 -1 20 6 34 30 44
37 44 30 0 -4 5 0 11 10 6 9 14 15 20 12 5 -4 9 -1 9 4 0 6 6 11 14 11 8 0 16
7 20 15 3 8 12 15 21 15 8 0 15 7 15 15 0 8 6 14 13 13 6 -2 11 3 9 11 -3 12
-1 12 13 1 9 -7 15 -9 14 -4 -4 23 3 34 21 34 11 0 20 5 20 11 0 5 5 7 12 3 6
-4 8 -3 4 4 -7 12 68 75 78 65 6 -6 10 13 6 32 -1 5 1 7 5 3 4 -4 12 -2 19 3
6 5 22 18 35 29 13 11 21 20 18 20 -4 0 1 8 11 18 9 11 20 17 25 15 4 -2 7 2
7 10 0 8 7 18 16 21 8 3 12 11 9 16 -4 6 -3 10 2 9 20 -3 34 2 28 11 -3 5 -1
10 5 10 6 0 8 4 5 10 -4 6 1 7 11 3 14 -5 16 -3 11 11 -4 9 -3 15 2 11 5 -3
12 4 16 15 4 11 11 18 16 15 5 -4 9 1 9 9 0 9 5 16 11 16 5 0 7 5 4 10 -3 6
-1 10 5 10 6 0 18 6 26 14 11 11 11 16 1 19 -7 3 -5 6 6 6 9 1 17 7 17 15 0 8
7 17 16 20 8 3 13 10 10 15 -3 5 1 11 9 15 8 3 15 13 15 21 0 9 5 13 10 10 6
-3 10 3 10 14 0 10 4 21 9 23 5 2 11 9 13 17 2 7 13 24 26 37 13 13 20 29 17
34 -3 6 1 13 10 16 9 4 14 13 11 20 -3 8 -2 14 2 14 4 0 13 9 20 21 11 17 11
20 0 14 -7 -3 -4 1 6 9 11 9 16 16 10 16 -5 0 0 7 10 15 14 11 16 15 5 15 -11
0 -11 2 -1 9 7 4 12 14 10 22 -2 8 3 13 12 11 8 -2 12 0 8 4 -4 4 -2 14 5 22
8 11 8 14 0 9 -7 -5 -6 4 3 23 9 16 12 35 8 42 -5 8 -2 9 11 4 15 -5 16 -4 5
9 -7 8 -8 15 -3 15 5 0 9 14 8 31 -1 18 4 33 12 36 10 4 11 9 3 18 -8 10 -8
15 0 20 6 4 9 13 6 21 -3 8 -2 14 3 14 5 0 7 11 6 25 -2 14 1 25 6 25 5 0 9 5
9 11 0 5 -3 8 -7 6 -5 -3 -8 10 -8 29 0 19 2 34 5 34 3 0 6 9 6 19 0 11 -4 17
-8 15 -4 -3 -8 2 -8 11 0 10 5 13 13 9 9 -6 9 -4 -1 8 -7 9 -15 38 -18 64 -2
27 -6 57 -7 66 0 9 -5 14 -9 12 -4 -3 -8 6 -8 20 0 14 -5 26 -10 26 -6 0 -10
8 -8 18 2 9 -3 16 -10 14 -14 -2 -12 19 3 30 6 4 2 8 -7 8 -16 0 -19 5 -18 25
1 3 -5 12 -12 20 -25 28 -38 44 -38 49 0 11 -64 71 -74 68 -6 -2 -8 -1 -4 3 8
8 -15 35 -30 35 -5 0 -12 9 -15 20 -3 12 -14 20 -26 20 -12 0 -24 7 -27 15 -4
8 -10 12 -15 9 -5 -3 -9 0 -9 6 0 6 -4 9 -9 5 -5 -3 -12 -1 -16 5 -4 6 -11 7
-17 4 -6 -4 -8 -3 -5 2 3 6 -3 16 -15 23 -11 7 -17 8 -14 2 4 -7 1 -8 -8 -5
-9 3 -14 10 -11 14 3 5 -4 6 -15 3 -11 -3 -20 -1 -20 5 0 5 -17 13 -37 17 -21
5 -45 10 -53 12 -8 2 -21 5 -27 5 -7 1 -13 5 -13 10 0 4 -5 8 -11 8 -5 0 -7
-6 -3 -12 6 -10 4 -10 -8 0 -9 7 -32 13 -51 14 -21 1 -34 5 -30 11 3 6 -1 6
-12 0 -20 -11 -52 -6 -74 11 -12 9 -13 8 -6 -3 6 -11 4 -13 -7 -8 -9 3 -21 0
-28 -6 -10 -9 -12 -9 -8 4 5 12 -1 15 -28 13 -18 -2 -42 -8 -53 -14 -13 -7
-22 -7 -26 0 -4 7 -13 7 -26 0 -14 -8 -19 -7 -19 1 0 8 -4 8 -15 -1 -11 -9
-15 -9 -15 -1 0 9 -5 9 -21 0 -15 -8 -24 -8 -32 0 -7 7 -5 12 6 17 9 3 14 10
11 15 -3 5 -1 9 4 9 17 0 54 39 47 49 -3 6 0 11 7 11 7 0 23 16 36 35 12 19
27 35 33 35 5 0 7 5 4 10 -3 6 -2 10 3 10 5 0 17 12 27 26 14 22 15 28 4 35
-10 6 -11 9 -1 9 6 0 12 7 12 16 0 8 -5 12 -10 9 -6 -4 -5 4 1 19 10 20 9 29
-2 43 -12 15 -12 16 1 8 13 -8 13 -7 0 11 -30 39 -37 41 -103 42 -66 0 -92 12
-99 43 -2 7 -12 22 -23 32 -11 10 -13 15 -5 12 8 -4 -1 7 -20 24 -19 17 -39
31 -44 31 -5 0 -7 3 -3 6 3 4 -4 15 -16 25 -13 11 -17 18 -9 19 7 0 11 4 8 9
-4 5 -2 11 3 13 5 1 11 19 14 39 2 20 8 43 12 49 5 9 4 11 -3 6 -7 -4 -12 -2
-12 4 0 6 -4 8 -10 5 -5 -3 -10 -1 -10 5 0 6 -4 8 -10 5 -5 -3 -10 -1 -10 4 0
6 -7 11 -15 11 -8 0 -15 6 -15 13 0 9 -3 8 -9 -2 -6 -9 -11 -10 -15 -2 -4 6
-12 9 -17 6 -5 -4 -9 -1 -9 4 0 6 -14 11 -31 11 -22 0 -32 -5 -36 -20 -3 -11
-10 -20 -15 -20 -6 0 -7 -7 -4 -16 3 -8 2 -12 -4 -9 -6 4 -14 -2 -18 -12 -7
-18 -42 -28 -42 -12 0 4 -9 6 -20 4 -11 -2 -26 3 -34 11 -18 17 -30 18 -20 2
5 -9 2 -9 -9 1 -11 9 -17 10 -17 2 0 -6 -5 -11 -11 -11 -5 0 -7 6 -3 13 5 8 2
7 -9 -2 -20 -16 -88 -21 -79 -6 3 6 -1 5 -9 -1 -8 -6 -24 -10 -36 -9 -12 1
-20 -2 -18 -6 3 -4 -4 -9 -14 -12 -19 -5 -37 16 -32 36 1 5 -3 6 -8 3 -5 -3
-14 1 -21 9 -7 8 -9 15 -5 15 5 0 -2 9 -15 20 -16 14 -26 17 -31 9 -5 -8 -8
-8 -10 0 -3 7 -13 2 -27 -11z m165 -921 c-1 -7 4 -11 11 -9 10 2 10 -2 2 -18
-13 -23 -22 -27 -14 -5 5 11 2 13 -10 9 -11 -4 -16 -2 -14 7 2 8 -2 13 -9 12
-8 -2 -10 4 -6 14 5 12 2 15 -10 10 -9 -3 -17 -2 -17 3 0 6 5 10 11 10 5 0 7
5 3 12 -4 7 7 2 24 -11 17 -12 31 -27 29 -34z m816 -262 c-3 -5 0 -5 7 2 9 9
19 9 33 2 11 -6 17 -7 14 -2 -9 14 126 12 135 -1 6 -8 8 -8 8 0 0 12 29 12 48
0 7 -4 12 -2 12 6 0 10 2 10 9 -1 5 -8 16 -11 26 -8 9 4 13 3 10 -3 -3 -5 5
-9 17 -8 37 1 50 -1 44 -11 -3 -4 6 -7 19 -5 14 1 32 -4 40 -13 8 -8 19 -12
24 -9 5 3 14 -1 21 -9 7 -8 18 -15 24 -15 16 0 38 -50 23 -51 -7 0 -3 -4 8 -9
13 -6 15 -9 5 -9 -13 -1 -13 -2 0 -11 13 -9 13 -10 0 -10 -11 -1 -10 -4 4 -15
14 -11 16 -15 5 -15 -12 0 -12 -2 1 -10 13 -9 13 -10 0 -10 -12 0 -12 -2 -1
-9 9 -6 10 -11 2 -15 -7 -5 -7 -15 -1 -31 7 -18 6 -25 -3 -25 -7 0 -8 -3 -2
-8 13 -10 14 -64 1 -59 -7 3 -10 -10 -10 -32 1 -20 -3 -42 -8 -48 -7 -9 -6
-13 3 -13 10 -1 10 -3 -2 -10 -9 -5 -15 -19 -14 -32 1 -13 -2 -26 -7 -29 -5
-3 -10 -15 -11 -27 0 -11 -4 -19 -8 -16 -4 2 -10 -3 -13 -12 -4 -10 -2 -13 7
-9 6 4 3 -1 -7 -9 -15 -12 -16 -16 -5 -16 10 -1 9 -3 -4 -11 -9 -6 -15 -14
-12 -20 4 -5 2 -9 -4 -9 -6 0 -7 -7 -4 -17 4 -11 3 -14 -5 -9 -8 5 -12 0 -12
-14 0 -12 -4 -19 -9 -16 -11 7 -23 -22 -14 -36 3 -6 1 -8 -5 -4 -6 3 -13 2
-17 -4 -3 -5 -1 -10 5 -10 6 0 8 -5 5 -10 -4 -6 -11 -8 -16 -4 -5 3 -8 0 -7
-8 2 -7 -3 -12 -10 -10 -8 1 -11 -2 -8 -7 4 -5 -1 -17 -10 -25 -8 -9 -13 -16
-10 -16 3 0 -2 -9 -11 -19 -9 -11 -20 -18 -25 -15 -4 3 -5 -2 -2 -10 4 -9 -1
-18 -10 -22 -9 -3 -14 -10 -11 -15 3 -4 -4 -13 -15 -19 -11 -6 -17 -16 -14
-22 5 -8 1 -9 -10 -5 -9 4 -15 3 -12 -2 3 -5 -13 -28 -37 -52 -23 -24 -41 -47
-39 -51 1 -5 -4 -8 -11 -8 -7 0 -19 -9 -27 -19 -7 -11 -17 -18 -22 -15 -4 3
-8 0 -8 -7 0 -16 -40 -50 -52 -43 -4 3 -8 2 -7 -3 3 -20 -2 -34 -11 -28 -5 3
-10 1 -10 -5 0 -6 -11 -15 -25 -22 -13 -6 -22 -14 -20 -19 3 -4 -4 -10 -15
-14 -11 -3 -20 -10 -20 -15 0 -4 -9 -10 -21 -13 -12 -3 -18 -10 -15 -15 3 -5
-2 -9 -12 -8 -9 0 -16 -5 -14 -12 1 -8 -2 -11 -7 -8 -5 4 -14 -2 -20 -11 -6
-10 -11 -14 -11 -10 0 5 -13 0 -29 -9 -17 -10 -28 -21 -25 -26 3 -4 -4 -8 -15
-8 -12 0 -21 -5 -21 -11 0 -5 -4 -7 -10 -4 -5 3 -10 -1 -10 -9 0 -10 -9 -16
-26 -16 -15 0 -23 -4 -19 -11 4 -6 0 -9 -11 -7 -11 2 -18 -2 -17 -9 2 -7 -6
-13 -17 -13 -11 0 -20 -3 -20 -7 0 -8 -48 -33 -63 -33 -5 0 -15 -6 -23 -14 -7
-8 -24 -12 -36 -9 -17 3 -19 2 -9 -5 10 -8 6 -11 -18 -17 -17 -4 -29 -11 -26
-15 3 -5 -3 -7 -14 -5 -11 2 -25 -3 -31 -11 -7 -7 -16 -11 -21 -8 -5 3 -9 0
-9 -6 0 -6 -5 -8 -10 -5 -6 4 -17 1 -25 -5 -8 -6 -19 -9 -25 -5 -5 3 -10 1
-10 -5 0 -6 -4 -8 -10 -5 -5 3 -10 1 -10 -5 0 -6 -4 -9 -9 -5 -5 3 -16 -2 -24
-10 -19 -18 -31 -20 -21 -2 6 9 4 9 -7 0 -7 -7 -21 -13 -31 -13 -10 0 -18 -6
-19 -12 0 -10 -2 -10 -6 -1 -3 10 -8 9 -19 -2 -8 -8 -21 -12 -29 -8 -9 3 -23
-1 -32 -8 -14 -12 -16 -12 -8 0 6 11 5 12 -6 5 -17 -10 -20 -11 -60 -13 -16 0
-28 -4 -26 -8 3 -5 -10 -9 -29 -9 -22 -1 -31 2 -27 10 4 6 -1 4 -11 -3 -10 -8
-34 -14 -53 -13 -23 2 -32 -1 -28 -8 4 -7 -2 -6 -14 2 -18 11 -23 11 -31 -2
-6 -9 -10 -10 -10 -3 0 8 -22 11 -70 10 -56 -2 -70 1 -71 13 0 10 -2 11 -6 3
-6 -17 -33 -17 -33 0 0 9 -2 9 -9 -1 -6 -11 -10 -10 -15 4 -5 13 -10 14 -18 6
-8 -8 -15 -7 -25 6 -8 9 -12 11 -8 5 3 -7 1 -13 -4 -13 -6 0 -11 4 -11 8 0 5
-6 9 -13 9 -21 0 -97 36 -97 47 0 5 -3 7 -6 3 -4 -3 -13 1 -21 9 -8 8 -18 12
-23 9 -5 -3 -17 8 -26 25 -10 16 -22 30 -27 30 -4 0 -5 4 -2 10 3 5 2 10 -2
10 -5 0 -9 9 -9 20 0 11 3 20 7 20 6 0 5 26 -1 55 -5 23 1 36 13 29 9 -6 9 -4
1 7 -12 17 6 126 19 113 4 -5 5 -1 1 9 -3 9 -1 23 5 31 6 7 8 16 4 19 -3 4 -1
7 5 7 7 0 11 3 11 8 -3 19 2 43 9 39 4 -3 8 6 8 20 1 13 10 33 20 44 9 10 13
19 9 19 -5 0 2 12 16 27 13 14 19 23 12 20 -8 -5 -8 -1 0 17 7 13 14 23 17 21
3 -2 14 9 25 24 19 26 19 26 0 11 -14 -10 -12 -6 4 13 14 15 20 27 15 28 -5 0
1 4 14 10 13 5 20 13 17 19 -3 5 -1 10 4 10 6 0 11 6 11 14 0 8 7 16 15 20 8
3 15 10 15 16 0 17 33 49 43 43 6 -3 7 -1 3 5 -4 7 -2 12 4 12 6 0 8 5 5 10
-3 6 2 10 12 10 15 0 16 2 3 10 -11 7 -12 10 -2 10 17 0 72 54 72 70 0 6 4 9
8 6 5 -3 24 13 42 34 18 21 38 36 43 33 6 -3 7 -2 4 4 -7 11 28 45 37 36 3 -4
6 2 6 12 0 10 3 16 6 12 3 -3 16 5 29 19 12 13 27 24 33 24 6 0 16 9 22 20 6
11 20 20 30 20 11 0 19 6 17 13 -1 6 6 11 15 11 10 -1 16 1 14 5 -4 9 31 41
38 34 3 -4 6 -1 6 6 0 7 5 9 10 6 6 -3 10 2 10 12 0 15 2 16 10 3 8 -13 10
-13 10 2 0 12 5 15 17 11 9 -4 14 -2 10 3 -3 6 7 18 24 28 16 9 29 14 29 10 0
-4 8 3 19 14 10 12 26 22 35 22 9 0 16 4 16 8 0 4 20 16 45 26 24 10 42 23 39
27 -3 5 7 9 21 9 17 0 24 4 19 12 -5 8 0 9 14 6 15 -4 22 -2 22 8 0 8 3 13 8
12 11 -3 55 13 70 25 8 6 23 13 35 14 12 2 25 9 29 16 4 6 8 8 8 4 0 -5 6 -5
13 0 6 4 21 9 32 10 10 2 30 13 42 25 13 12 23 16 23 10 0 -7 -5 -12 -12 -12
-6 0 -9 -3 -6 -6 4 -3 17 1 30 9 12 8 31 13 41 12 9 -2 15 1 11 6 -4 7 19 13
29 7 1 -1 13 5 27 12 14 8 38 13 53 12 16 -2 26 1 23 6 -3 5 1 9 9 9 8 0 11
-5 8 -11 -4 -6 0 -5 9 2 9 7 30 14 47 14 17 1 31 6 31 12 0 6 5 4 10 -4 7 -11
10 -11 10 -2 0 10 5 10 23 1 19 -11 20 -10 10 2 -10 12 -8 15 7 15 10 0 16 -5
13 -11z"/>
<path d="M2470 2829 c0 -5 5 -7 10 -4 6 3 10 8 10 11 0 2 -4 4 -10 4 -5 0 -10
-5 -10 -11z"/>
</g>
</svg>
